/* XPM */
static char *_bdce718f2f743c2effa806a8ec89bf4nKybrB0xzX2uduS0[] = {
/* columns rows colors chars-per-pixel */
"32 32 8 1 ",
"  c None",
". c #604B3D",
"X c #353540",
"o c #735B42",
"O c #557D55",
"+ c #BC87A5",
"@ c #D9A6A6",
"# c #EDE4DA",
/* pixels */
"                                ",
"                                ",
"                                ",
"                                ",
"           XXXXXXXXXX           ",
"          XX@@@@@@##XX          ",
"          X@@@@@@@@##X          ",
"          X@@@@@@@@@@X          ",
"          X@@@@@@@@@@X          ",
"          X@@@@@@@@@@XXXX       ",
"       XXXX@@@@@@@@@@@##XX      ",
"      XX@@#@@@@@@@@@@@@##X      ",
"      X@@@@@@@@@@@@@@@@@@X      ",
"      X@@@@+@@@@@@@@+@@@+X      ",
"      X+@@@++++++++++++++X      ",
"      X+++++++++++++++++XX      ",
"      XX+++++++++++++...X       ",
"       X...++++++++++ooXX       ",
"       XXoo++++++++++XXX        ",
"        XXX++++++++++X          ",
"          X++++++++++X          ",
"          XX++++++++XX          ",
"          OXXX....XXXO          ",
"          OOXXooooXXOO          ",
"          OOXooooooXOO          ",
"          OOXooooooXOO          ",
"          OOXXooooXXOO          ",
"          OOOXXXXXXOOO          ",
"          OOOOOOOOOOOO          ",
"           OOOOOOOOOO           ",
"                                ",
"                                "
};
