/* XPM */
static char *c84858328edb4575f09f760febe698afOTHsUTrRI0mPnd8X[] = {
/* columns rows colors chars-per-pixel */
"32 32 164 2 ",
"   c None",
".  c black",
"X  c #050202",
"o  c #070303",
"O  c #080403",
"+  c #0D0906",
"@  c #0E0907",
"#  c #100B08",
"$  c #110B08",
"%  c #130A08",
"&  c #110C08",
"*  c #130D09",
"=  c #190D0A",
"-  c #1D0C08",
";  c #1D0D0A",
":  c #1E0F0C",
">  c #1F0F0C",
",  c #18110B",
"<  c #1F100C",
"1  c #1D130D",
"2  c #20100C",
"3  c #22110D",
"4  c #21120D",
"5  c #2E1B14",
"6  c #2B1D14",
"7  c #2B1D15",
"8  c #2F1C14",
"9  c #331F16",
"0  c #341F15",
"q  c #342016",
"w  c #352016",
"e  c #352117",
"r  c #332318",
"t  c #332219",
"y  c #362118",
"u  c #342319",
"i  c #362218",
"p  c #362419",
"a  c #362519",
"s  c #35241A",
"d  c #37251A",
"f  c #36241B",
"g  c #37251B",
"h  c #38251A",
"j  c #38251B",
"k  c #38261B",
"l  c #39261B",
"z  c #39271B",
"x  c #3A271B",
"c  c #3A271C",
"v  c #3B271C",
"b  c #3C291B",
"n  c #3B281C",
"m  c #3C281C",
"M  c #3C291C",
"N  c #3D291C",
"B  c #3C291D",
"V  c #3D291D",
"C  c #3F2B1E",
"Z  c #3D302F",
"A  c #312930",
"S  c #402B1E",
"D  c #412C1D",
"F  c #412C1F",
"G  c #412D1F",
"H  c #422D1F",
"J  c #432D1F",
"K  c #412D20",
"L  c #422D20",
"P  c #432E20",
"I  c #432F21",
"U  c #442E20",
"Y  c #442F21",
"T  c #462F21",
"R  c #453021",
"E  c #473021",
"W  c #463022",
"Q  c #473022",
"!  c #483122",
"~  c #493122",
"^  c #493323",
"/  c #4A3222",
"(  c #4B3222",
")  c #4A3223",
"_  c #4B3223",
"`  c #4B3323",
"'  c #4C3323",
"]  c #4D3323",
"[  c #4B3423",
"{  c #4D3324",
"}  c #4D3424",
"|  c #4E3424",
" . c #4E3524",
".. c #4F3524",
"X. c #4E3425",
"o. c #4E3525",
"O. c #4F3525",
"+. c #4D3625",
"@. c #4F3625",
"#. c #513720",
"$. c #503625",
"%. c #513625",
"&. c #513725",
"*. c #503726",
"=. c #513726",
"-. c #523726",
";. c #513820",
":. c #523820",
">. c #533824",
",. c #523826",
"<. c #533826",
"1. c #583C23",
"2. c #5B3F23",
"3. c #5C3F23",
"4. c #543A28",
"5. c #543C2E",
"6. c #593D2A",
"7. c #593F2A",
"8. c #5A3E2A",
"9. c #5C4023",
"0. c #5F432D",
"q. c #614327",
"w. c #67472A",
"e. c #60422D",
"r. c #60432D",
"t. c #61432D",
"y. c #61432E",
"u. c #62442E",
"i. c #63442E",
"p. c #63452F",
"a. c #654730",
"s. c #654731",
"d. c #654831",
"f. c #664831",
"g. c #674931",
"h. c #674932",
"j. c #684932",
"k. c #684A32",
"l. c #694A33",
"z. c #6C4C33",
"x. c #6C5336",
"c. c #745231",
"v. c #745331",
"b. c #785539",
"n. c #79563A",
"m. c #7A573A",
"M. c #765938",
"N. c #765A38",
"B. c #4F4F61",
"V. c #585F7A",
"C. c #926632",
"Z. c #976933",
"A. c #996A34",
"S. c #B47E3A",
"D. c #B57E3A",
"F. c #B57F3B",
"G. c #A98F59",
"H. c #C08F49",
"J. c #C08F4A",
"K. c #E6A54C",
"L. c #E8AC53",
"P. c #C6A560",
"I. c #EEC269",
"U. c #6B7BA1",
/* pixels */
"U.V.A - - : : : : : : : : : > : : : : : : : : : : : : - ; A V.U.",
"V.B.Z 0 e y e e e 0 e e e e 9 0 y y e y e 0 e e e e 0 9 0 Z B.V.",
"A Z 5.t.0.0.0.0.0.0.0.0.t.t.0.e.t.0.0.t.0.t.t.0.t.0.t.0.t.5.Z A ",
"- 0 t.m.b.b.b.m.b.b.m.b.b.b.b.b.b.b.b.b.b.b.b.b.b.b.b.m.m.t.0 ; ",
"- 0 t.m.m.b.b.b.b.b.b.b.b.b.b.b.b.b.m.b.b.b.b.b.b.b.b.m.m.t.0 ; ",
": 9 6.z.j.a.a.a.p.h.a.a.a.a.a.a.a.a.a.a.a.p.a.h.a.a.a.j.z.6.0 > ",
"2 5 ' 4.) J L L R J P P P P J J L L L J L L W L L L J W <.) 5 : ",
"< 8 ) *.n t l l z p p p p z l l l l l l p y p z l l t C *.) 9 > ",
": 0 8.0.J l J ) ) J p l J ) ) E ~ ~ ~ J h h J ~ ) J p J 0.6.q < ",
": y t.l.L l ) *.*.' S C ' *.%.%.%.%.*.~ l m ~ -.<.W z J h.p.e < ",
": y a.a.L m ~ *.%.' ) ' ..%.%.*.%.%.*.~ m l ~ *.*.) l W h.p.y : ",
": y t.h.J l ~ %.%.%.%.%.*...%...%.%.*.) S S ' %.*.) l J h.t.y : ",
": y 0.a.L c ~ *.%.%...*.%...*.%.....*.' ' ' ' *.*.) p R h.t.e : ",
": y a.j.L c ) *.*...%.*.%.*...%.*.%.%.*.*.*.' $. .W c W h.0.y : ",
": y a.a.L c ) -.%.%.........*.*.%.*.%.%.*. .' ....L c L h.t.y : ",
": y 0.a.W c L *...*.*.%.*.%.%...%.*. .....6.x.N.v.q.J L a.t.y : ",
"- e p.a.J l ) %...%.%.*.%.*.*.......*.' ' x.G.P.H.A.#.J d.t.y : ",
"< e p.h.W l E %.*.*.........%.%.*.%.*.' ' m.P.I.L.S.2.J a.0.y : ",
"< y 0.a.P l W %.%...*.%.*.%...*.$.$.*.$.' c.H.L.K.S.3.J a.a.y : ",
": y p.h.R l ) %.%.*...%.*...%.*.$.$.$.$.{ w.A.D.S.C.%.J a.t.y : ",
": y t.h.L l ) *...%.%.%.%.%.....$.$.$.$.$.>.1.3.9.;.n W a.a.9 : ",
": y t.h.W l W <.*...) ) ' %.*.%.$.$.$.$.$.~ S h f p t W h.0.9 : ",
": y t.h.W l ) ;.%.' C C ) %.%.%.$.$.$.$.$.$.~ J W L f L s.0.y : ",
": y t.h.L l W %.%.) l l ) %.%.%.$.$.$.$.$.$.$.$.<.) c T s.a.y : ",
": y t.h.L c W *.*.) l l ) %.*.%.%.*.*.*.%.%.*.*. .) k R h.p.e - ",
"< y a.h.W n ) <.*.) b m ' *.-.*.*.*.*. .' ' %.*.*.) n W h.p.y < ",
": y a.l.W l ) <.*.' n n ' 4.*.*.-.-.<.) S J ) <.<.) m W h.a.y < ",
"< 8 [ [ q 6 p b C p 7 7 e b b b m b b p 6 6 p C b p 6 q [ [ 8 < ",
"2 2 < , * + * * * * + + * * * * * * * * @ + * * * # @ # , 1 2 2 ",
"= * X . . . . . . . . . . . . . . . . . . . . . . . . . . o % , ",
"O O                                                         O O ",
". .                                                         . . "
};
