/* XPM */
static char *_8fbdb42e69849e29bce4219ca99d5422N6aK0EEywPXoclU[] = {
/* columns rows colors chars-per-pixel */
"32 32 120 2 ",
"   c None",
".  c #2D2F3F",
"X  c #332F3E",
"o  c #2F303D",
"O  c #33323F",
"+  c #2F3140",
"@  c #343440",
"#  c #373841",
"$  c #3D3C42",
"%  c #403D41",
"&  c #374244",
"*  c #3B4444",
"=  c #3F5146",
"-  c #464945",
";  c #444A4A",
":  c #564C43",
">  c #584D43",
",  c #425349",
"<  c #475E4C",
"1  c #4D5849",
"2  c #5B5143",
"3  c #5F5E48",
"4  c #514D54",
"5  c #535255",
"6  c #5B565B",
"7  c #635443",
"8  c #62574C",
"9  c #605F48",
"0  c #625D5D",
"q  c #4B6A4E",
"w  c #4D724F",
"e  c #4D6C50",
"r  c #4F7151",
"t  c #4F7B53",
"y  c #507352",
"u  c #597451",
"i  c #547D55",
"p  c #5C7F52",
"a  c #597F5A",
"s  c #6B6348",
"d  c #6A764F",
"f  c #696550",
"g  c #60635F",
"h  c #6E7C51",
"j  c #787F50",
"k  c #615F66",
"l  c #626067",
"z  c #647861",
"x  c #876D46",
"c  c #8A6F48",
"v  c #9E7C47",
"b  c #A07F4A",
"n  c #568056",
"m  c #5F8255",
"M  c #5E845C",
"N  c #608355",
"B  c #6F8353",
"V  c #718653",
"C  c #748955",
"Z  c #7E8D54",
"A  c #7B8F5C",
"S  c #6D8067",
"D  c #6A8965",
"F  c #75876A",
"G  c #748F6C",
"H  c #74926E",
"J  c #7A946D",
"K  c #799676",
"L  c #A1804A",
"P  c #A78D4E",
"I  c #A7904F",
"U  c #AB924F",
"Y  c #AF9E52",
"T  c #B19E52",
"R  c #B2A153",
"E  c #8D9B7E",
"W  c #BF9D65",
"Q  c #C3964A",
"!  c #C6994D",
"~  c #CB9D4E",
"^  c #D09F4B",
"/  c #D4A24E",
"(  c #CEAB52",
")  c #D0A751",
"_  c #D1AC52",
"`  c #EAB14D",
"'  c #EDB351",
"]  c #C39F66",
"[  c #C8A669",
"{  c #CDB46C",
"}  c #F5C675",
"|  c #F9C876",
" . c #8E8480",
".. c #949284",
"X. c #AC9E95",
"o. c #9DA58A",
"O. c #98AC93",
"+. c #AEA197",
"@. c #B2AC9A",
"#. c #BFAF9A",
"$. c #B5B29C",
"%. c #ADBBA4",
"&. c #BEB6A2",
"*. c #BFBAB8",
"=. c #C2B29D",
"-. c #C0B7A4",
";. c #CEBFAE",
":. c #C1BBB9",
">. c #CCC4A3",
",. c #CACEBF",
"<. c #D5C3B3",
"1. c #D8C6B5",
"2. c #D9C8B6",
"3. c #F6DFBE",
"4. c #F5DEBD",
"5. c #F3DEBD",
"6. c #F8E0BF",
"7. c #D4D5C8",
"8. c #D5D7CA",
"9. c #E8E4DB",
/* pixels */
"                # O @ + @ @         @ @ @ + @ @                 ",
"                O $ > > $ +         @ % > > % +                 ",
"                + > L v > . . O @ @ @ > b b : + + @ @ @         ",
"                + 7 ! / x 2 7 : $ O O 7 ! ) c 7 7 > $ @         ",
"                o 7 Q ` ^ Q T v : . + 2 ! ' ^ ! ! b : O @ @ @ @ ",
"                o 7 W } } | | [ s & & 3 I ( ( ( _ U 9 * * * # @ ",
"                o 0 #.4.4.4.6.>.F q q u V Z Z A Z V u q e < * @ ",
"                o k *.9.7.,.,.%.H i t n i t t i i i i a a e * @ ",
"                o l :.8.O.K K H M i p i i i i i i t a i n e - O ",
"                o 0 =.>.J w q q e e i i i i i i i i i i n q * O ",
"                o 8 [ { A q ; * * , y i i i n i i i i i a r * O ",
"                o 7 Q ) Z q * + O * q a i i e r y i a i w < * O ",
"                o 7 ! ( Z e & @ X * e a i r , = q a i r , $ # @ ",
"                @ 2 P Y C e , * * , y a p e , ; y i a r , $ # @ ",
"                @ - d C m i e e q w y i i i y e i i i i r < * @ ",
"                O & q t i i i n i n p n i a i i p i i n n r * O ",
"            @ @ + * q t i i i i i i i p p i i n a p a n n r * O ",
"            @ $ : s V C m i i i i i e q q q q q e e e e q < * @ ",
"            @ : b ~ ) R V i i i i y = & & & $ # * * * * * - # @ ",
"            + 2 P _ _ Y B i D H G z g 6 6 6 6 4 $ @ @ @ O @ @ @ ",
"    @ @ @ X + - d L C N n D o.$.$.@.+.X.X.X.+.E 4 O             ",
"    @ # * * * , e i n M D ..$.2.<.<.<.<.<.<.1.+.6 O             ",
"    O * < q e r t t n D o.-.;.<.<.<.<.<.<.<.2.+.6 o             ",
"    @ * q r i M V V n D o.&.;.<.<.<.<.<.<.<.1.X.6 O             ",
"    @ # * , y C T T C a S E &.1.<.<.<.<.1.1.2.X.6 o             ",
"    @ @ O $ < h T T C i i D o.$.$.$.$.$.@.@.%...5 O             ",
"        @ @ * 1 h C N i i m D G G G G G G G H h - O             ",
"        @ @ @ * q i r e q q e q q q q r y i q < & O             ",
"            @ * q r , * * * * - & & * , y y , $ # @             ",
"            @ * < q * @ @ O O O O O O * < < * O @ @             ",
"            @ # * * # O             O O * * # @                 ",
"            @ @ O @ @ #             # O @ @ @ @                 "
};
