/* XPM */
static char *_f6684922f784b018eb0009bfc194769vH1zOeut07GedMUj[] = {
/* columns rows colors chars-per-pixel */
"16 16 6 1 ",
"  c None",
". c #353540",
"X c #557D55",
"o c #EEB551",
"O c #D2C1B1",
"+ c #EDE4DA",
/* pixels */
"    ...  ...    ",
"    .o....o...  ",
"    .ooo..ooo...",
"    .+++XXXXXXX.",
"    .+XXXXXXXXX.",
"    .oX..XXXXXX.",
"    .oX..XX.XX..",
"    .XXXXXXXXXX.",
"   ..XXXXXXXXXX.",
"   .ooXXX.......",
" ...XXXOOOOO.   ",
" .XXXXOOOOOO.   ",
" ..XoXXOOOOO.   ",
"  ..XXXXXXXX.   ",
"   .X.....X..   ",
"   ...   ...    "
};
