/* XPM */
static char *aaf785076bf74574e944c18e3e75c3884ND1BTizJ1Yu9bQh[] = {
/* columns rows colors chars-per-pixel */
"64 64 31 1 ",
"  c #8B9150",
". c #8C9150",
"X c #879050",
"o c #808D51",
"O c #889050",
"+ c #818D51",
"@ c #7E8C51",
"# c #6A8553",
"$ c #6B8553",
"% c #828E51",
"& c #6D8653",
"* c #618154",
"= c #618254",
"- c #628254",
"; c #6C8553",
": c #8C9250",
"> c #8D9250",
", c #7F8C51",
"< c #527C55",
"1 c #537C55",
"2 c #547D55",
"3 c #899050",
"4 c #838E51",
"5 c #557D55",
"6 c #7F8D51",
"7 c #638254",
"8 c #517B55",
"9 c #608154",
"0 c #7D8C51",
"q c #6C8653",
"w c white",
/* pixels */
"                                                                ",
"                                                                ",
"                                                                ",
"                                                                ",
"                                                                ",
"                                            ..  ........        ",
"                                            ..  ........        ",
"          ......                           XooOO+@@@@@@+O       ",
"          ......                         ..o#$+%&*=--=*;+..     ",
"         O+@@@@+O...                    .:>+$$%,-<1221<*@..     ",
"       ..+;*==*;+.>.                    .:>3+%3@-112211=@..     ",
"       ..@*<11<=@3+oX                  O+@@@,43@-225522-@..     ",
"       ..@=1111-,+$#o..              ..+;*=--&467225522-@..     ",
"       ..@=1111-,%$$+>.              ..@*<11<-66-112211=@..     ",
"       ..@*<11<=@3%+3..              ..@=1111-66-<1221<*@..     ",
"       ..+;=---&%34@@+O              ..@=1111-,4&--77-=;+..     ",
"         O+@,6643%&**;+..            ..@*<11<=@346666,@+O       ",
"          .3%,,43@*8890..            ..+;*=--&%346666%3.        ",
"         .>%&==&4@*8890..              O+@@@,43%&----&%>.       ",
"         ..0988*@%&99;+..               .:>3+%3@=<11<*@..       ",
"         ..0988*@3%00+O                 .:>+$$%,-1111=@..       ",
"         ..+;99;+.>...                   ..o#$+,-1111=@..       ",
"           O+00+O ....                     Xo+3@=<11<*@..       ",
"            ....                            .>.+;*==*;+..       ",
"            ....                            ...O+@@@@+O         ",
"                                                ......          ",
"                                                ......          ",
"                                                                ",
"                                                                ",
"                                                                ",
"                                                                ",
"                                                                ",
"                                                                ",
"                                                                ",
"                                                                ",
"                                                                ",
"                                                                ",
"            ......                                ..            ",
"            ......                                ..            ",
"           O+@@@@+O                         .....XooX           ",
"         ..+;*==*;+..                       ...>.o##o..         ",
"        .::@*<11<*@::.                     O+00%3+$$+>:.        ",
"        .>>@=1111=@>>.                   ..+;99q+3%+3>:.        ",
"       Xo+3@-1111-@3+oX                  ..0988*@34,@@@+O       ",
"     ..o#$+,-<11<-,+$#o..                ..0988*@4&--=*;+..     ",
"     ..o#$%4&----&4%$$+>.               .:>%&==&4,-<11<*@..     ",
"       Xo+334,@@,433%+3..               .:>3%,,43@-1111=@..     ",
"       ..3+@@4334,@@6,@+O              O+@@@66643@-1111=@..     ",
"       .>%q**&44&---7-=;+..          ..+;*=-7--&4,-<11<*@..     ",
"       ..0988=,6-<1221<*@..          ..@*<1221<-,4&--=*;+..     ",
"       ..0988=,6-112211=@..          ..@=112211-@34,@@@+O       ",
"       ..+;99&%67225522-@..          ..@-225522-@3%+3>:.        ",
"         O+00%3@-225522-@..          ..@-22552276%$$+>:.        ",
"          ...>>@=112211=@..          ..@=112211-,+$#o..         ",
"          ...::@*<1221<*@..          ..@*<1221<=@3+oX           ",
"             ..+;*=--=*;+..          ..+;*=--=*;+.>.            ",
"               O+@@@@@@+O              O+@@@@@@+O...            ",
"                ........                ........                ",
"                ........                ........                ",
"                                                                ",
"                                                                ",
"                                                                ",
"                                                                ",
"                                                                "
};
