/* XPM */
static char *f2c36455244c46affcbcb5c49c3a0134hDDOGF3R1WlpLouF[] = {
/* columns rows colors chars-per-pixel */
"64 64 105 2 ",
"   c None",
".  c #2E2F3B",
"X  c #2F303C",
"o  c #31323E",
"O  c #3C383E",
"+  c #423C3F",
"@  c #4B413D",
"#  c #56473C",
"$  c #58473B",
"%  c #5F4E3F",
"&  c #624D3B",
"*  c #63513F",
"=  c #6E573E",
"-  c #353540",
";  c #3A3743",
":  c #3E3A42",
">  c #433D41",
",  c #3B4444",
"<  c #504641",
"1  c #584A41",
"2  c #435449",
"3  c #475E4C",
"4  c #4D4350",
"5  c #514952",
"6  c #5A4E57",
"7  c #554958",
"8  c #5C4E58",
"9  c #54535A",
"0  c #5C5159",
"q  c #655241",
"w  c #695542",
"e  c #745C42",
"r  c #665050",
"t  c #6E5557",
"y  c #615059",
"u  c #765956",
"i  c #795C56",
"p  c #7A5F5A",
"a  c #4D6B50",
"s  c #4F7051",
"d  c #507252",
"f  c #557D55",
"g  c #5E5A61",
"h  c #605C62",
"j  c #70596C",
"k  c #626066",
"l  c #7C666C",
"z  c #7F7176",
"x  c #816358",
"c  c #876469",
"v  c #816379",
"b  c #8A6879",
"n  c #917479",
"m  c #568056",
"M  c #9D748D",
"N  c #A3778C",
"B  c #A6798C",
"V  c #A97B8D",
"C  c #A67A95",
"Z  c #AB7C92",
"A  c #868284",
"S  c #9C9796",
"D  c #9C9897",
"F  c #AA848C",
"G  c #AF898C",
"H  c #B18A8D",
"J  c #B7839F",
"K  c #B49696",
"L  c #BD9395",
"P  c #B784A1",
"I  c #BC87A5",
"U  c #BE88A7",
"Y  c #BF89A9",
"T  c #BBAEAB",
"R  c #BEB0AD",
"E  c #CF9F9F",
"W  c #C28EA5",
"Q  c #C28BA9",
"!  c #C994A5",
"~  c #CD99A6",
"^  c #CC96A8",
"/  c #D29FA6",
"(  c #D5A1A5",
")  c #D9A6A6",
"_  c #DCA8A7",
"`  c #D7A3A8",
"'  c #D3ACAA",
"]  c #DCA9A8",
"[  c #DDB1AF",
"{  c #C7B7B3",
"}  c #C2BCB7",
"|  c #DFB3B1",
" . c #E0ABAA",
".. c #E1B4B2",
"X. c #E3B9B6",
"o. c #D0CAC3",
"O. c #E5C4C0",
"+. c #E4C9C4",
"@. c #E9CDC7",
"#. c #E9CFC8",
"$. c #EDDCD3",
"%. c #F0DDD4",
"&. c #E7E0D7",
"*. c #F0E0D7",
"=. c #F4E9DF",
/* pixels */
"                                                                                                                                ",
"                                                                                                                                ",
"                                                                                                                                ",
"                                                                                                                                ",
"                                                                                                                                ",
"                                                                                                                                ",
"                                                                                                                                ",
"                                                                                                                                ",
"                                            - - o o X o X X o o o X X o - . X X - -                                             ",
"                                            X : 5 0 0 0 0 0 8 0 0 0 0 0 k k k 9 : -                                             ",
"                                        - - X 5 n H H H H G H H H H G K T R R D 9 . o -                                         ",
"                                        o : 5 l L  . .] ] ] ] ] ] ] ) ..#.=.=.o.A 9 : -                                         ",
"                                        o 5 b E ( ] ] ) ) ) _ ' _ ) ) ] | O.$.$.o.D 9 -                                         ",
"                                        X 0 G  ._ ) ) ) ) ) ) ) ) ) ) ) ) | +.$.$.R g X                                         ",
"                                        X 0 H ] ] ) ) ) ` ) ) ) ) ) ) ) ) ) [ X.X.K 0 X                                         ",
"                                        X 0 H ] _ ) ) ) ) ) ) ) ) ) ) ) ) ) ) ) ] G 0 -                                         ",
"                                        o 0 G ] _ _ ) ) ) ) ) ) ) ) ) ) ) ) ) _ _ G 0 X                                         ",
"                                        X 0 H ] _ _ ) ) ) ) ) ) ) ) ) ) ) ) ) _ _ G 8 .                                         ",
"                                        o 0 H ] ' ` ) ) ) ) ) ) ) ` ) ) ) ) ) _ _ G 6 . . . . o - -                             ",
"                                        . 6 H ] ) ) ) ) ) ) ) ) ) ) ) ) ) ) ) _ _ L l 0 g k k 9 : o                             ",
"                            - - o X X X . 7 G _ ) ) ) ) ) ) ) ) ) ) ) ) ) ) ) ) _ E L K T } } S 9 . - -                         ",
"                            o : 5 0 0 0 g z L _ ) ) ) ) ) ) ) ) ) ) ( ) ) ) ) ) ) ) ` | #.$.=.o.A 9 : -                         ",
"                        - o X 4 n H H K R { ' ) ) ) ) ` ) ) ) ) ) ) ) ) ) ) ) ) ) ) ) ] | O.$.&.o.D 9 o                         ",
"                        - : 5 l E ] ] ..#.#.| ) ) ) ) ) ) ) ) ) ) ) ) ) ) ) ) ) ) ) ) ) ) | +.$.$.R h o                         ",
"                        o 5 n L E ) _ ] | | ] ) ) ) ) ) ) ) ) ) ) ) ) ) ) ) ) ) ) ) ) ) ) ) | | X.K 0 X                         ",
"                        o 0 H  .) ) ) ) ) ) ( ( ) ) ) ) ) ) ) ) ) ) ) ) ) ) ) ) ( ( ) ) ) ) ) ) ` F 8 o                         ",
"                        X 0 H  ._ ) ) ) ) E ! ~ ( ) ) ) ) ) ) ) ) ) ) ) ) ) ) ` ! ! ( ) ) ) ) ( ^ M 7 o                         ",
"                        o 0 F ` _ _ ) ) ) ( U U ~ / / ( / / ( / / / / / / / / ~ W U ~ / ( ( / ~ ! M 7 o                         ",
"                        o 7 M ^ ` ) ) ) ) ( W I U W L W W W W W W W W Y Y U W L U U W W W W W Q Q M 7 o                         ",
"                        o 7 M W ~ / / / ( ~ W I I I I I I Y I I I I I I U I Y Y I I I I Y I Y P C v 4 -                         ",
"                        o 7 M Q W W W W Y Y U I I I I I I I I I I I I I I I I I I I I U U Y Y C j 4 ; -                         ",
"                        o 4 v C P Y Y I U I I I I I I I I I I I I I I I I I I I I P Z B B B B b 4 . - -                         ",
"                        - ; 4 j C Q U I U U I U I I I I I I I I I I I I I I I I U Z c u u u p r < o                             ",
"                        - o o 5 b B B N B Z J U I I I I I I I I I I I I I I I U U B i * & % $ @ o o                             ",
"                            o > r u u u u c Z U I I I I I U I I I I I I I I I U U B x = = * @ O - -                             ",
"                            o : @ $ % & & i B U U I I I I I I I I I I I I I I I U V p * * $ O o - -                             ",
"                            - o O @ * = = x V U U I I I I I I I I I I I I I I U U M y + @ > ; -                                 ",
"                            - - o + 1 q * p B U U I I I I I U I I I I I I I I U I M 7 X X - o -                                 ",
"                                o ; > + + y M U I I I I I I I I I I I I I I I U Y M 7 o                                         ",
"                                o - - o o 7 M W U I I I I I I I I I I I I I I U Y M 7 o                                         ",
"                                        o 7 M Q U I I I I I I I I I I I I I I U Q M 7 o                                         ",
"                                        o 4 v C P Y Q I U U I Y U I U U I Y Y P C v 4 o                                         ",
"                                        o ; 4 j C Q Q U U U U I U U U Y Q Q Q C j 4 ; -                                         ",
"                                        , , o 4 v M M M N B B B B B B N M M M v 4 o , ,                                         ",
"                                        d 3 , ; 4 7 7 8 t u u u i u i t 6 7 8 4 ; : 3 a                                         ",
"                                        m d 2 , - o - O # & & & & * * # O X o o , , s m                                         ",
"                                        f f s 3 : o X + q w w = = = = * + o o , a s f m                                         ",
"                                        f f m a , - > < w e e e = e e w @ > - , a m m f                                         ",
"                                        f f m a , > 1 w e e e e e e e e w 1 > , a m f f                                         ",
"                                        f f f a , > q e e e e e e e e e e q > , a f f f                                         ",
"                                        f f f a , > q e e e e e e e e e e q > , a f f f                                         ",
"                                        f f m a , > 1 w e e e e e e e e w 1 > , a m f f                                         ",
"                                        f f f a , ; : < w e e e e e e w < : o , a f f f                                         ",
"                                        f f f a 2 , - > 1 q q q q q q 1 > - : 2 s f f f                                         ",
"                                        f f f f s 3 , o + > > > > > > : o , 3 d f f f f                                         ",
"                                        f f f f m s 2 , , , , , , , , , , 2 d f f f f f                                         ",
"                                        f f f f f f s a a a a a a a a a a s f f f f f f                                         ",
"                                        f f f f f f f m f m f f m m m m f f f f f f f f                                         ",
"                                            f f f f f f f f f f f f f f f f f f f f                                             ",
"                                            f f f f f f f f f f f f f f f f f f m m                                             ",
"                                                                                                                                ",
"                                                                                                                                ",
"                                                                                                                                ",
"                                                                                                                                "
};
