/* XPM */
static char *c890f29384464ffcbab784968135f647N4ilYCOuwODVrZS9[] = {
/* columns rows colors chars-per-pixel */
"64 64 182 2 ",
"   c None",
".  c #2D2E39",
"X  c #2A2B37",
"o  c #31313D",
"O  c #333B3D",
"+  c #2F303B",
"@  c #4E3E36",
"#  c #4E3F38",
"$  c #503F36",
"%  c #4F4038",
"&  c #514137",
"*  c #53433A",
"=  c #5A473A",
"-  c #5E493B",
";  c #624D3D",
":  c #694F3B",
">  c #66503E",
",  c #6C543D",
"<  c #71573D",
"1  c #71593F",
"2  c #363641",
"3  c #3B3D45",
"4  c #3B4443",
"5  c #3D4A45",
"6  c #3E5045",
"7  c #42414B",
"8  c #574841",
"9  c #5C4B42",
"0  c #415547",
"q  c #425648",
"w  c #435949",
"e  c #485F4C",
"r  c #5D514B",
"t  c #4D4C55",
"y  c #494651",
"u  c #514F58",
"i  c #52505A",
"p  c #5A585F",
"a  c #624E41",
"s  c #655144",
"d  c #6B5541",
"f  c #6F5840",
"g  c #64554C",
"h  c #67584F",
"j  c #6B594D",
"k  c #6C5748",
"l  c #735B43",
"z  c #725D4A",
"x  c #6E5D53",
"c  c #655851",
"v  c #49624D",
"b  c #4E6E50",
"n  c #4F7051",
"m  c #517452",
"M  c #547C55",
"N  c #77604A",
"B  c #79634C",
"V  c #776047",
"C  c #726259",
"Z  c #7D6A5C",
"A  c #7B6754",
"S  c #5E5B63",
"D  c #5B5760",
"F  c #615F66",
"G  c #616066",
"H  c #6F6562",
"J  c #66646A",
"K  c #6D6A6F",
"L  c #706662",
"P  c #756963",
"I  c #786C64",
"U  c #796F6A",
"Y  c #776E6A",
"T  c #7E736C",
"R  c #6F6C72",
"E  c #716E73",
"W  c #7A777B",
"Q  c #7C787C",
"!  c #815C3D",
"~  c #805E41",
"^  c #8A6B4C",
"/  c #996B43",
"(  c #95774F",
")  c #826E5C",
"_  c #856E55",
"`  c #85715C",
"'  c #877055",
"]  c #94765D",
"[  c #B67B45",
"{  c #A37B59",
"}  c #867260",
"|  c #897561",
" . c #80756F",
".. c #8E7C69",
"X. c #8E7A65",
"o. c #937F69",
"O. c #867F7C",
"+. c #817670",
"@. c #578056",
"#. c #BF814A",
"$. c #AB8A59",
"%. c #B68F51",
"&. c #9B836D",
"*. c #8F8177",
"=. c #87817F",
"-. c #8A827F",
";. c #938377",
":. c #998877",
">. c #95867A",
",. c #988778",
"<. c #97887B",
"1. c #9B8C7D",
"2. c #AD8A6C",
"3. c #AC936F",
"4. c #A18C70",
"5. c #A6917D",
"6. c #B29175",
"7. c #D68C47",
"8. c #DD924C",
"9. c #C78E59",
"0. c #C48851",
"q. c #CB945F",
"w. c #E59346",
"e. c #EA9546",
"r. c #E39549",
"t. c #E89F48",
"y. c #DAA954",
"u. c #EDAA4A",
"i. c #EAA149",
"p. c #EDB14E",
"a. c #EDAC50",
"s. c #EBB152",
"d. c #C8A265",
"f. c #D8A769",
"g. c #DAB06D",
"h. c #D3B27A",
"j. c #E5B664",
"k. c #858183",
"l. c #898382",
"z. c #8E8886",
"x. c #8B878A",
"c. c #8E898B",
"v. c #9C8E83",
"b. c #918C8B",
"n. c #95908F",
"m. c #9E9186",
"M. c #949091",
"N. c #9A9595",
"B. c #9C9798",
"V. c #9D9898",
"C. c #A29385",
"Z. c #A49689",
"A. c #A9998A",
"S. c #A29D9C",
"D. c #B5A18B",
"F. c #BAA589",
"G. c #AEA49D",
"H. c #B1A69E",
"J. c #BBAA99",
"K. c #A5A1A0",
"L. c #ADA6A4",
"P. c #AFA9A6",
"I. c #B1A7A1",
"U. c #B4AAA3",
"Y. c #B3AEAC",
"T. c #B8ADA3",
"R. c #B9B2AD",
"E. c #BDB6B2",
"W. c #B7B2B1",
"Q. c #D9BA84",
"!. c #C3AE94",
"~. c #C5B196",
"^. c #C7B7A5",
"/. c #C2BAB5",
"(. c #C3BDBA",
"). c #CFC5BD",
"_. c #D3C7BC",
"`. c #D5CDC6",
"'. c #DACEC1",
"]. c #DBD1C7",
"[. c #E7DCD0",
"{. c #EDE2D7",
/* pixels */
"                                                                                                                                ",
"                                                                                                                                ",
"                                                                                                                                ",
"                                                                                                                                ",
"      2 o o o o o + o o o o o o 2 2 X 2 2 2 . 2 2 2 2 2 2 X 2 2 o 2 o o o o o o 2 2 X 2 2 2 2 2 2 2 2 2 X 2 2 X X 2 + 2 2       ",
"      2 2 7 7 7 7 7 7 7 7 7 7 7 7 7 3 7 3 7 3 4 3 3 7 7 7 3 3 7 7 4 7 7 7 7 7 7 7 7 3 7 3 3 3 4 3 3 7 7 y 3 y 7 7 y 4 2 2       ",
"    o 2 7 i G G F F F F G G F F F F F F F F F F F F F F F S F D S S S F F F F F F F F F F F F F F F F J R E E E E R S y 2 2     ",
"    o 2 t E z.x.x.x.x.x.x.x.x.x.x.x.x.x.x.x.x.x.x.x.x.x.x.x.x.x.k.k.x.x.x.x.x.x.x.x.x.x.x.x.x.x.x.x.c.N.S.K.L.K.K.K.k.D 2 .     ",
"    + 2 p x.L.Y.L.L.L.L.L.L.L.L.P.P.L.L.L.L.P.P.L.L.L.L.L.L.L.P.Y.L.L.L.L.L.L.L.L.L.L.L.L.L.L.P.L.L.L.R._.].`.`.].`.L.J 3 X     ",
"      2 G N./.R.U.I.U.I.I.I.I.U.J.U.L.I.H.U.J.U.U.U.U.I.U.W.E.E./.E.W.U.U.I.U.I.I.I.H.U.U.U.U.J.H.H.U.)._.]._.'.{.{.E.R 2       ",
"      3 G S.E.H.Z.C.C.C.v.v.v.C.C.C.C.C.Z.Z.C.C.C.C.C.C.Z.I.E.).(./.I.Z.C.C.C.v.v.v.C.Z.C.C.C.C.m.C.m.A.J.J.J.J.'.{./.E 3       ",
"      O G N.R.A...` ` | ) I ) ` | | | | ` | ` X.X.` } } ..Z.Y.).(.R.Z...` | } ) I ) } ` | | | | | | | | &.&.&.:.^.[.E.E 3       ",
"      3 G V.U.1.B l V z k a d l V B V V V V V V V V V l A 1.T.E.(.T.1.A l l z k d d z V V V V V V V V V N V l _ D.'.W.R 3       ",
"      2 S V.U.:.V < < < ; ; : f 1 1 < 1 1 1 < 1 < 1 < 1 B >.U.).(.T.,.B < 1 , : - ; < < < < 1 1 1 1 1 1 < , , B Z.).Y.R 2       ",
"      3 G V.U.:.V 1 < , : - ; , < 1 1 1 1 1 1 1 1 1 < , B :.Y.(.(.U.<.B < < < : - ; , < 1 1 1 1 1 1 1 1 < < , N v./.L.J 3       ",
"      2 G V.U.:.B 1 l d > ; : f l l l 1 l l l 1 l 1 < 1 B :.U.(.(.T.<.B < 1 f > ; : d l l l l 1 V 1 1 V < < < N 5.T.S.J 2       ",
"      3 F B.U.,.V , < , > ; > d f f f f f f f f < l , < B >.U.(.).U.,.B , f f > ; > d f l f f f , f f f 1 < , B ,.P.V.F 2       ",
"      2 F B.U.>.z > , > s - > > d d d d d d d d , , > > N ;.Y.(.E.U.;.z > , > s ; ; > d d d d d , d d d > > > z >.H.V.F 2       ",
"      3 F B.U.O.k ; > > ; - ; > > > ; > ; s > > ; ; ; ; j ;.I.E.).P.;.j ; ; ; - - ; a > : a ; > ; > > > > > > k *.I.V.F 3       ",
"      2 F S.U.o.k - - - ; ; - > - s ; ; ; > ; - ; ; ; ; j *.U.).(.P.*.k - ; > - - ; ; ; ; ; ; a ; ; ; ; > - = k *.U.V.F 2       ",
"      2 F B.U.;.k ; > > > > > > > ; > > > - ; - ; a ; ; j *.Y.E.(.U.*.j ; ; > > s > ; s : a : ; ; ; - ; > ; ; d ;.U.V.G 2       ",
"      2 F B.U.>.j > > , d d > d d , s d d > 9 > ; , > > z ;.Y.).(.Y.>.z > > > , d , s , > d d d > 9 - > d > > j ;.U.B.F 3       ",
"      3 F B.U.>.N , < f d f l < f f < f f d > ; > d f < B >.Y.E.(.Y.>.N , f f < l f < f l < < l f > - s d < , N >.I.B.F 2       ",
"      2 F B.U.,.B < f l l l l l l l l l l f > ; > f l < B >.P.E.(.U.:.B < < l l l l l l l l l l f > > > f l < B :.U.B.F 3       ",
"      3 G B.U.:.N < 1 < < l < 1 < l < 1 < , > - > , 1 < B <.Y.`.(.Y.>.B f < f < 1 1 1 1 1 1 1 1 , : ; ; , 1 < N :.U.B.F 2       ",
"      2 F B.U.:.N , < 1 < < < 1 < < < 1 < , ; - : , < , B >.Y.E.(.U.<.N , < f < < < 1 1 1 1 1 1 , ; ; ; , < < N :.U.B.F 3       ",
"    o 2 F B.U.1.B l l V l V V V l V V V l l k s , V l 1 B 1.J.).(.T.:.^ l l V V l V V V V l V V l d s d l l l B 1.U.V.F 2 .     ",
"    2 3 F B.T.Z.X._ ` ` ` ` ` ` ` ` ` ` ` ) Z C Z ` ' ^ ( 3.~.^.^.~.3.( ^ ' ` ` ` ` ` ` ` ` ` ` Z A A Z ) ` ) | Z.Y.V.F 3 O     ",
"  b 5 2 G V.R.H.m.:.1.1.m.1.1.v.1.1.1.m.1.1.<.<.<.1.4.$.%.d.h.Q.Q.h.d.%.$.4.1.1.1.m.1.1.1.1.v.1.1.<.>.v.1.v.:.C.H.R.B.F 3 5 b   ",
"@.n 6 3 F B.E.R.I.H.H.I.H.H.H.H.H.I.H.H.H.H.G.G.L.H.F.d.y.y.j.j.j.j.y.y.d.F.H.P.H.H.H.H.H.H.H.H.H.G.G.G.G.H.H.I.R.E.B.S 3 6 m @.",
"@.m 6 3 S N.W.E.R.R.R.R.R.R.R.R.R.R.W.R.R.R.R.W.W.R.~.g.s.p.s.s.s.s.p.s.g.~.R.R.W.R.R.R.R.W.R.R.W.R.Y.W.W.R.R.R./.R.N.S 3 0 m M ",
"@.m w 4 D c.U.Y.Y.Y.Y.Y.Y.Y.Y.Y.Y.Y.Y.Y.Y.Y.Y.Y.Y.Y.J.g.u.u.u.u.u.u.u.a.g.~.Y.Y.Y.Y.Y.Y.Y.Y.Y.Y.Y.Y.Y.Y.Y.Y.Y.Y.Y.U.c.D 4 0 m @.",
"M m q 3 D k.S.K.K.K.K.K.K.K.K.K.K.K.K.K.K.K.K.K.K.K.F.f.t.t.t.t.t.t.i.i.f.D.G.S.K.K.K.K.K.K.K.K.K.K.K.K.K.K.K.S.K.S.k.i 3 q m M ",
"M n q 3 i +.M.N.n.M.M.M.n.n.M.M.n.n.n.n.n.n.n.n.M.n.5.q.r.r.r.r.r.r.e.8.q.5.M.M.M.n.n.n.n.n.M.M.M.n.n.M.n.n.n.n.N.M.Q u 3 q m @.",
"@.m 0 3 i W c.z.O.O.O.O.O.O.O.O.O.O.k.O.O.O.O.O.O.O.o.9.r.e.w.w.w.w.w.w.9.&.O.Q O.O.O.O.O.O.-.O.O.O.O.O.O.O.O.O.z.c.W u 3 q m @.",
"@.m 0 3 t W l.O. .I I P H H L P Y ) P P Y ) I I P I X.0.w.e.w.w.w.w.e.w.0.] I Y I I I I I I I I I L L L I I I U O.l.W u 3 q m @.",
"@.m q 3 i W x. .j k h h g a r g j j j j j j j j h h ^ #.r.e.w.w.w.r.e.e.#.^ j c j j j h j j j j h g g g c j j x T z.W i 4 q m @.",
"@.m q 3 i W l.I s a a a 8 8 8 a a a a a a ; a a a a ~ [ 7.r.8.8.8.8.r.7.[ l : a a a a a a a a a a $ * 8 - a ; s I l.W u 3 q m M ",
"M m q 3 i W -.P : - = $ $ $ $ = - - - - - - - - - - f / [ 0.9.q.q.9.0.[ / < - = - - - - - - - - = $ $ $ = = ; a I l.W u 3 q m @.",
"@.m q 4 i +.-.P a = ; ; * $ $ = - - - - : - - - - - : ! / { 2.6.6.2.{ / ! : - - - - ; - ; - ; - = $ $ $ = ; = ; I l.Q u 4 q m @.",
"@.m q 3 i W k.I s - - = * * * = a - - a - - a - - ; ; : l } z.m.m.v.) k : ; ; - a ; - a 9 ; ; - = * % * - - - a I -.Q u 3 q m M ",
"@.m w 3 i W l.I s * = = * $ $ 8 - - - = - - - - - - = = a P k.M.M.k.I a = - - = - = = - = = - - = * % * = - = a I l.Q u 3 q m @.",
"@.m q 3 i Q k.P a * * * * # * * 8 * = 8 = * 8 * = * * * 8 H x.M.M.x.L 8 * * * = = * * = = 8 = * * % # % = * * 9 L l.W u 3 q m @.",
"@.m q 3 i Q k.C 8 $ $ * # # # # * * * $ * * * * * * # @ 8 H x.c.M.x.H 8 # # * * * * * # * # * * % % # % * % # 8 L -.W u 3 q m @.",
"@.m 0 3 i Q k.L 8 $ $ # # # $ $ # $ $ * # $ $ # # # # # 8 L l.M.M.k.H 8 # # # # # # # # # * # # % % % % # # @ = L k.W i 4 q m @.",
"@.m q 3 i Q l.L 8 $ $ * * * * * * * * $ * $ # # # * * # 8 L l.N.M.k.L 9 # # * # # # * # * * * * * * % * * * $ 8 L l.Q u 3 q m M ",
"@.m 0 4 i W -.P 9 * * = * 8 8 = 8 * = 8 8 * % % * * = * 9 P l.M.M.l.P 9 = = * * # * * = * = = = = = = = = * * 9 P l.W i 3 q m @.",
"@.m 0 3 i W l.P s = - - - = - - - = - - = 8 * $ * = - = s P l.M.M.l.P a = - - $ % * = 9 - - 8 - = - 9 = - - = a P l.W u 4 q m @.",
"M m w 3 i Q =.I s - ; - ; ; - ; ; - ; ; - = $ # = - ; = s I l.M.n.l.I s ; - - = $ $ = ; = ; ; ; 9 - ; - ; ; = s I O.Q u 3 q m M ",
"@.m 0 3 i Q l.I : = - - - - ; = ; = = ; - = @ @ # - = ; a I l.M.M.l.P s = ; = $ $ $ $ ; ; ; = = - ; - - = ; = ; I l.Q u 3 q m @.",
"@.m w 3 i Q -.I ; = - - ; = = ; - ; - - ; $ $ @ $ = ; = a I l.M.M.l.P a = ; = # $ * $ ; ; = ; ; - - ; - ; = = a I l.W u 3 q m @.",
"@.m 6 3 i Q l.I s a ; a a a a a a a a : a 9 - 8 = ; ; ; j I l.M.M.l.I s ; ; a = * 8 a a a ; a a a a a a a a ; d ) l.W u 3 q m @.",
"@.m w 3 i Q z. .C j x x x x x x x x x x x x g g h x x j C T z.M.N.z.+.C x x j h c c x x x x x x x x x x x x x C +.z.Q i 3 q m M ",
"@.m 6 3 i Q b.-. . . .U T T U  .U  . . .T U Y Y U U }  . .l.b.M.M.b.O.+.U  . .U Y Y U U  .T U  .T T T T T T U  .-.c.Q i 4 q m @.",
"@.m w 4 i W c.x.O.-.l.l.O.l.l.-.k.O.l.l.k.l.k.O.k.l.l.l.k.z.b.n.M.b.z.l.O.l.l.O.l.l.l.l.k.l.l.l.l.l.l.-.l.O.l.l.b.b.Q i 3 q m @.",
"@.m 6 4 t R k.z.k.k.k.k.k.k.k.l.k.k.k.k.k.k.k.x.k.k.k.k.k.k.k.k.k.k.l.l.k.k.k.k.k.k.k.k.k.k.k.k.k.k.k.k.k.k.k.k.k.k.R t 3 q m @.",
"M m q 3 7 D E E E E E E E E R R E E R E R R R R R E R E R R R R K K E E E E R R E E R E R R E R R E E E E E E E E R F 7 3 q m M ",
"@.m q 3 3 y u i u u u u u u u u u u u u i u u D u u u i u u u u u u u u u u u u u u u u u u u u u i i i u u u i i u y 3 2 q m @.",
"@.m q 3 2 3 7 3 7 3 7 3 7 3 3 7 4 7 7 3 3 7 3 3 3 7 7 3 3 3 3 7 3 3 7 3 7 3 3 7 4 7 7 3 3 7 3 7 3 7 3 3 3 7 3 7 3 4 3 2 3 e m @.",
"@.m e 0 4 7 4 4 4 4 4 4 4 4 4 4 4 4 4 4 4 4 4 4 4 4 4 4 4 4 4 4 4 4 4 4 4 4 4 4 4 4 4 4 4 4 4 4 4 4 4 4 4 4 4 4 4 4 4 4 7 v M M ",
"M M b e w w w w w w w w q w w w w w w w w w w w w w w w w w w w w w w w q w w w w w w w w w w w w w w w w w w w q w w w v b M M ",
"@.M m b b b b b b b b b b b b b b b b b b b b b b b b b n n b b b b b n b b b b b b b b b b b b b b b b b b b b b b b m m m M M ",
"M @.M M M M M M M M M M M M M M M M M M M M M M M M M M M M M M M M M M M M M M M M M M M M M M M M M M M M M M M M M M M M M M ",
"M M M @.@.@.@.@.@.@.@.@.@.@.@.@.@.@.@.@.@.@.@.@.@.@.@.@.@.@.@.@.@.M @.@.@.@.@.@.@.@.@.@.@.@.@.@.@.@.@.@.@.@.@.@.@.@.@.@.@.@.M M "
};
