/* XPM */
static char *_6a69b0d1d514401fef358efccb4b381Fy788CQggJWHhZGU[] = {
/* columns rows colors chars-per-pixel */
"64 64 103 2 ",
"   c None",
".  c #010000",
"X  c #0A0605",
"o  c #0E0A07",
"O  c #120907",
"+  c #1A0A06",
"@  c #150D09",
"#  c #1C0D0B",
"$  c #1C120C",
"%  c #200F0A",
"&  c #22110D",
"*  c #2B170F",
"=  c #241710",
"-  c #291711",
";  c #261A12",
":  c #2C1A13",
">  c #271C1F",
",  c #311E15",
"<  c #2F2016",
"1  c #322117",
"2  c #362419",
"3  c #39261B",
"4  c #3D291D",
"5  c #2B1F20",
"6  c #332523",
"7  c #3F383F",
"8  c #412B1E",
"9  c #47311E",
"0  c #4A331F",
"q  c #442E20",
"w  c #473021",
"e  c #4C3424",
"r  c #503625",
"t  c #543927",
"y  c #5A3E25",
"u  c #563B29",
"i  c #593D2A",
"p  c #4B3932",
"a  c #453839",
"s  c #5E422D",
"d  c #654526",
"f  c #674826",
"g  c #6D4B27",
"h  c #61442E",
"j  c #64492F",
"k  c #6E4C29",
"l  c #724F28",
"z  c #76522C",
"x  c #7B552D",
"c  c #644630",
"v  c #654A31",
"b  c #6B4B33",
"n  c #704F35",
"m  c #715036",
"M  c #755338",
"N  c #7A563A",
"B  c #745B3B",
"V  c #7C593C",
"C  c #3B3743",
"Z  c #49434C",
"A  c #4C4C5D",
"S  c #4E5166",
"D  c #4F546B",
"F  c #575D76",
"G  c #80582E",
"H  c #835D34",
"J  c #8E6230",
"K  c #89653A",
"L  c #916431",
"P  c #976A35",
"I  c #9B6C34",
"U  c #A06F34",
"Y  c #A17035",
"T  c #AA7A3D",
"R  c #B37E3C",
"E  c #816742",
"W  c #896C42",
"Q  c #8E764A",
"!  c #C3893F",
"~  c #B18749",
"^  c #A48B56",
"/  c #B49153",
"(  c #B09359",
")  c #CB8F41",
"_  c #C89247",
"`  c #D99A46",
"'  c #DB9F4C",
"]  c #D4A355",
"[  c #E3A34B",
"{  c #EFAF52",
"}  c #E8B25A",
"|  c #F0B558",
" . c #C2A766",
".. c #D8B062",
"X. c #D2B369",
"o. c #EBBE67",
"O. c #F3BE62",
"+. c #E5C06E",
"@. c #5D6784",
"#. c #606C8C",
"$. c #667496",
"%. c #6A7A9F",
"&. c #6F81A8",
/* pixels */
"&.%.#.D C > # + + # # # # % # # # # # # # # # # # # # # % # # # # # % # # # # # # # # # # # % # # # # # % # # + + % 5 C D #.%.%.",
"%.$.@.S C > & % % % % % % % & & % % & & % & % % % & & & % % & & & & & % & & & & % % % = & % & % & & & & & & & % % & 5 C S @.%.%.",
"#.@.F A C 6 : * : * : : : - : : : : : : : : : : : - : : : : : : : - - - : * : : : : : : : - : - : * - : * * : * - * 6 C A F @.#.",
"D S A Z a q 8 8 8 8 4 8 8 8 3 q 8 8 4 4 8 8 4 8 8 8 3 q 3 8 8 8 8 8 8 8 q q , q 4 8 4 8 8 8 8 8 q q , q 8 8 8 6 3 8 q a Z A S D ",
"C C 7 a p r t t u u u u t u u u t u t u u t u u t u u u u u u u u u u u t u u u u u u t u u u t u u u u u u u u u u p p a C C C ",
"> 5 6 q p c b b b b c b b c c b b b b v b v b v c b b b b c b c b c b b b c c b v b b v b v b b b c c b c b b b b c c t q 6 5 5 ",
"# & : 8 t b M N M M M M M M M M M M M M M M M M M M M M M M M M M M M M M M M M N m m N m M M M M M M M M M M M N M b u q * & # ",
"+ # * 8 t b N V H N N N N V N N N N N N N N N N N N N N N N N N N N N N N N N N N N N N N N N N N N N N N N N H H N n i , - % + ",
"# % * 3 t b N V N N V N N N N N N N N N N N N N N N N N N N N N N N N N N N N N N N N N B N N N H N N N N N N N N M b u 4 * % % ",
"% % * 8 t b M N N M M M M M M M M B M M M M M N M M M N M M M M M M M M M N M M M M M M M M M M m M M M M M M N M M b u 4 * & + ",
"# % : 4 t c n n n n n m b n b n b b b b b b b b b b b b b b b b b n b b b b b b b m b b b b b b b b b b b b b n m m c t 4 : & # ",
"% % : 3 e i c j c i i i i s i i s s s s s s s s s s s i s s s s i i s s i s s s s i s s s s s s s s s s s s s c c c s e , - & # ",
"# & - 2 w t s i u t e e e e e e e e e r e e e e e e e e e e e e e e e e e e e e e e e e e e e e e e e e e e r p u i u q 3 - & # ",
"% & - , 8 e t e w 6 4 4 6 q 8 6 4 4 3 6 4 4 4 4 4 4 4 6 4 4 4 4 6 q 4 4 4 4 4 4 6 6 4 4 4 4 4 4 6 q q 3 4 4 q q r t e 8 , : & & ",
"& & - , 8 e e e 8 3 2 2 2 2 3 3 3 3 3 2 2 2 2 2 3 2 3 3 3 2 3 3 3 3 3 3 2 2 4 2 4 2 2 2 2 2 3 3 3 3 , , 2 2 , q e r r 8 , - & # ",
"# & - 3 w t i e 9 3 1 2 3 4 4 4 4 4 3 3 2 1 2 2 2 4 3 4 4 4 4 8 8 3 3 8 4 4 4 2 3 2 1 2 3 4 4 4 8 3 8 6 2 2 3 q r u u e , - & # ",
"# & : , t s s u w 3 2 3 4 4 9 w w 4 9 4 2 2 2 2 8 8 q 8 w q 8 8 w 8 w 8 q q 8 4 4 , , 3 8 8 q 9 q q q 3 1 2 4 w t s s e 4 - & # ",
"# & : 3 u c c i e 4 3 3 w w r e r e w w 4 2 2 4 8 w e e e e e e e e e e e e e 8 4 3 4 3 q q e e e e q q 4 2 4 e s b c t 4 : & # ",
"# & : 8 u b n h e 4 3 4 w e e e e e e w 4 4 3 6 w e r r r r r r r r e r t r e 8 4 3 3 3 q e r r r r e q 4 4 4 e s b b u 8 : & # ",
"# & : q u b b h r 4 3 4 4 r t t t e e e w 9 8 0 0 r r r t r r r t r t r r t t w 4 2 3 4 q e r t r r e q 4 2 4 t s b b u 8 : & # ",
"% & * 8 i b b h e 6 4 4 8 e e t t t e e w w w e e e r r r r r r r r r t r r e 8 4 3 3 4 w r r t u r e q 3 , 8 t c b b u 8 : % # ",
"# & : 8 u b n s e 4 3 4 8 e r t r e t r e e e e r r r r r r r r r r r r t t e 8 6 4 3 4 8 e r r r r e q 3 8 6 e s n c u 8 : % # ",
"# & : 8 u c b h e 4 3 4 w e r r r r t e t e e t r r r r r r r r r r r r t e t w 8 4 4 8 w r r r r r r q 8 3 8 e h b b u q : = # ",
"# & : q u b b h e 4 3 8 8 e r r r r e t e t e t r r e r r r r r r r r r e t e w 8 8 8 8 w e r r r r r 8 3 3 4 e h b b u 8 : % # ",
"# & - q u b b s r q , q q e t r r r r r e r r r r r r r r r r r r r r r r r e e e w w w e t r r t e e q 4 3 6 r h b c u q - & # ",
"# & - q u b b s r 6 q , 8 e t r r r r r r r r r r r r r r r r r r r r r r r e r e e e e e e r t e t e q 4 3 8 r h b b u q - & # ",
"% & - q i b b s e 8 , q 9 e r r r r r r r r r r r r r r r e r r r e r r r r r r t e t t t r e r t e e q 4 3 4 e h b b u q : & # ",
"# % - 8 i b b s e 8 3 6 8 e r r r r r e r r r r e r r r r r r r r r r r r r r r e t e e e e e e e e w 8 4 2 4 e h b b u q : & # ",
"# & : q u c b s r 4 3 4 8 e r r r r r r r r r r r r r r r r r r e r r r r r r e r t e e e e e w e w w 8 3 3 8 e s n b u , : & & ",
"# & * 4 u b b c e 4 3 3 8 e e r r r r r r r e r r r r e r r r r r r r r r r r r r r r r r r t t t r r q 8 , 4 e s b b u q * & # ",
"# & : 4 u b b s r 8 3 4 q e t t r r r r r r r r r r r r r r r r r r r r r r r e r r r s s h b j c h y r 8 8 6 e c b c u q : & # ",
"# & : q u b b c r 6 3 4 q e t e r r r r r r r r r r r r r r r e r r r r r r r e e e u v B K W K K H z d e 8 q e s b b r q : & # ",
"# & : 8 i b b h e 4 2 4 8 e r r r r r r r r r r r r r r r r r r r r r r r r r e e r i N Q ^ ( / ~ T P x y 8 4 e s b b u 4 : & # ",
"# & : 8 i b b h e 4 3 4 8 e r r r r r r r r r r r r r r r r r e r r r r e r e e e r c E ^  .X.X.] _ R J f 0 8 e s b b u 8 : & # ",
"# & : 8 t b b s e 4 3 4 8 t t r r r r r r r r r r r r r r r r r r r r r r r r 0 e r b W ( X.o.o.} ' ) L k 0 4 e s b v u 8 : & # ",
"# & , 6 t b n s t 4 3 4 8 e e r r r r r r e e r e r e r r r r r r e r r r r r 0 e e b W / ..o.O.| [ ) U k w 4 e s v b i 8 : & # ",
"# & : 8 i v b h r 4 3 3 q e t t r r r r r r r r r r r r r r r r r e r r r r r e e r c H ~ ] } { { [ ! Y z 0 4 e i b b i 8 : % # ",
"# & : 8 t j b s r 3 3 4 q e e t r r r r r r r r r r r r r r r r r r r r r r e e e r d G T _ ' [ [ ` ! I l 0 8 w c b b u 8 : % # ",
"# & : 8 s j b s r 4 3 4 q w e t r r r r r r r r r r r r e r r r r r r r r r r e e r s G P R ! ) ) ) T J f 0 8 w i b c u 8 : & # ",
"# % : 8 s b b s p 4 3 3 9 w t e r r r r r r r r r e r r r r r r r r r r r r r e r r u b G L U Y U I H z y 8 8 0 s b b u 8 : & # ",
"# % : 8 u b b c e 4 4 4 q e t t r r r r r r r r r e r r r r r r r r e r r r r e r r r i d g g l l g d s 9 4 4 e c b b u 6 , % # ",
"% & : 8 u c b s e 4 3 4 8 e e t r r r r r r r r r r r r r r r r r r r r r r r r r r r r e w q 0 0 9 9 4 4 3 4 e c b b u 8 , % # ",
"# & , 8 i b b c e 4 3 3 w e e e r r r e r r e e r r r r r r r r r r r r r r r r r r e q 4 4 4 4 3 3 3 2 2 2 4 e s b b u 8 : & # ",
"# % : 8 u b b i e 4 3 4 q w t t r r r e q q 9 9 e e r r r r e r r r r r r r r r r r r q q 4 3 , 2 3 3 2 1 2 4 e h b b u 8 , & # ",
"% % : 8 i b b h e 6 4 4 q e r t r r r w q 8 8 q e e t r e r r r r e r e r r r r r r e e q q q 8 4 4 4 4 2 2 4 t c b b u 8 : % # ",
"# % : 8 u b n i e 4 4 4 q e r t r r e q 8 3 4 8 8 e r r r r r r r r r r r r r e r r r r r 0 e e r e w 9 2 4 6 t h b b u 8 : % # ",
"# % , 8 u b n i e 8 3 3 q e r r r r e q 4 3 3 4 0 e r t r r r r r r r r r r r r r r r r r r r r r r e 9 4 2 6 r i n c u q : % % ",
"# & , 6 u b b c e 8 3 3 8 e r t r r e q 4 3 3 4 8 e r r r r r r r r r r r r r r r r r r r r r r e r e w 4 4 8 r i n b u 8 : & # ",
"# & : q u b b i r 6 3 4 8 e r t t e e w 4 3 2 4 q e t t r r r r t e t e r r r r r r r t t e t t t t e w 4 2 4 r s b b u 4 : & $ ",
"# & - 8 u b b h t 8 3 4 8 e r t t e e 8 4 3 4 4 q w t e r r r r e t e t r r r r r t e r e t e e e e e w 4 3 4 r s b b u 4 : & # ",
"% & : q i b b c e 6 4 4 8 e r t t t e w 4 3 2 4 q w e t r e r e t e t e t e e e e e r r t e e t t e e 8 4 3 4 t j b v u 8 : & # ",
"# % - 8 i b b c t 4 4 4 8 e t t t t e w 8 3 3 8 w e t t t t t t t t r u r r t e e w w w e t t t t t e w 4 4 4 e h n b s 8 : & # ",
"# & : q i b b c t 4 3 4 w r t t t t e w 6 4 4 4 w t t t t t t t t t t r t t e e 9 8 q q e e t u t t e w 4 3 4 t j n b i 8 : & # ",
"# & : q i b b h e 4 3 3 w e r t t e e 8 8 2 2 4 8 e e t e t r t e r r r t e e q 8 3 4 8 w e e t t e e w 4 2 4 t h b b u 8 : & # ",
"# & - , r s h u w 2 < 2 3 8 8 w w w 9 3 2 1 < 2 4 8 q w 8 8 w 8 q q q w w q q 4 2 < , 2 4 4 9 w w 9 4 4 2 < 2 6 t s s e 4 - & # ",
"& & - , , w q 3 < ; ; ; : < , 2 1 1 < : ; = = ; : < 1 1 2 1 2 1 1 1 , , < < , ; ; = = - : < 1 2 2 < < : ; ; ; < 4 8 8 3 , - & & ",
"& & & - ; ; ; = $ @ @ @ @ $ $ $ $ $ $ @ @ @ @ @ @ $ $ $ $ $ $ $ $ = $ $ $ $ $ $ @ @ o @ @ $ $ $ $ $ $ @ @ @ @ $ ; ; ; - ; & & & ",
"& & $ # @ @ o o X X X X o X X o X X o X X o X X X X o X o X o X X X X X o X X X X X X X X o X X o X o X X X o X o o @ @ $ # & & ",
"# $ @ + o X . . . . . . . . . . . . . . . . . . . . . . . . . . . . . . . . . . . . . . . . . . . . . . . . . . . . . X + @ $ % ",
"@ @ O o . . . . . . . . . . . . . . . . . . . . . . . . . . . . . . . . . . . . . . . . . . . . . . . . . . . . . . . X O O O @ ",
"X O X X X                                                                                                             . . X X X ",
". . . .                                                                                                                 X . . X ",
". . . .                                                                                                                 . . . . ",
". . . .                                                                                                                 . . . . "
};
