/* XPM */
static char *result[] = {
/* columns rows colors chars-per-pixel */
"64 128 28 1 ",
"  c #60A1FF",
". c #61A2FF",
"X c #64A5FF",
"o c #69A6FF",
"O c #6AA7FF",
"+ c #67A8FF",
"@ c #71ABFF",
"# c #70ADFF",
"$ c #79BAFF",
"% c #81BEFF",
"& c #90BEFF",
"* c #91BEFF",
"= c #8BCCFF",
"- c #8FD0FF",
"; c #90D1FF",
": c #94D1FF",
"> c #98D5FF",
", c #98D6FF",
"< c #99D6FF",
"1 c #F6FAFF",
"2 c #F7FAFF",
"3 c #F8FBFF",
"4 c #F9FCFF",
"5 c #F9FDFF",
"6 c #FAFCFF",
"7 c #FDFEFF",
"8 c white",
"9 c None",
/* pixels */
"9999999999999999999999999999999999999999999999999999999999999999",
"9999999999999999999999999999999999999999999999999999999999999999",
"9999999999999999999999999999999999999999999999999999999999999999",
"9999999999999999999999999999999999999999999999999999999999999999",
"9999999999999999999999999999999999999999999999999999999999999999",
"9999999999999999999999999999999999999999999999999999999999999999",
"9999999999999999999999999999999999999999999999999999999999999999",
"9999999999999999999999999999999999999999999999999999999999999999",
"9999999999999999999999999999998899999999999999999999999999999999",
"9999999999999999999999999999998899999999999999999999999999999999",
"9999999999999999999999999999998899999999999999999999999999999999",
"9999999999999999999999999999998899999999999999999999999999999999",
"9999999999999999999999999999998899999999999999999999999999999999",
"9999999999999999999999999999998899999999999999999999999999999999",
"9999999999999999999999999999998899999999999999999999999999999999",
"9999999999999999999999999999998899999999999999999999999999999999",
"9999999999999999999999999999998899999999999999999999999999999999",
"9999999999999999999999999999998899999999999999999999999999999999",
"9999999999999999999999999999998899999999999999999999999999999999",
"9999999999999999999999999999998899999999999999999999999999999999",
"9999999999999999999999999999998899999999999999999999999999999999",
"9999999999999999999999999999998899999999999999999999999999999999",
"9999999999999999999999999999998899999999999999999999999999999999",
"9999999999999999999999999999998899999999999999999999999999999999",
"9999999999999999999999999999998899999999999999999999999999999999",
"9999999999999999999999999999998899999999999999999999999999999999",
"9999999999999999999999999999998899999999999999999999999999999999",
"9999999999999999999999999999998899999999999999999999999999999999",
"9999999999999999999999999999998899999999999999999999999999999999",
"9999999999999999999999999999998899999999999999999999999999999999",
"9999999999999999999999999999998899999999999999999999999999999999",
"9999999999999999999999999999998899999999999999999999999999999999",
"9999999999999999999999999999998899999999999999999999999999999999",
"9999999999999999999999999999998899999999999999999999999999999999",
"9999999999999999999999999999998899999999999999999999999999999999",
"9999999999999999999999999999998899999999999999999999999999999999",
"9999999999999999999999999999998899999999999999999999999999999999",
"9999999999999999999999999999998899999999999999999999999999999999",
"9999999999999999999999999999998899999999999999999999999999999999",
"9999999999999999999999999999998899999999999999999999999999999999",
"9999999999999999999999999999998899999999999999999999999999999999",
"9999999999999999999999999999998899999999999999999999999999999999",
"9999999999999999999999999999998899999999999999999999999999999999",
"9999999999999999999999999999998899999999999999999999999999999999",
"9999999999999999999999999999998899999999999999999999999999999999",
"9999999999999999999999999999998899999999999999999999999999999999",
"9999999999999999999999999999998899999999999999999999999999999999",
"9999999999999999999999999999998899999999999999999999999999999999",
"9999999999999999999999999999998899999999999999999999999999999999",
"9999999999999999999999999999998899999999999999999999999999999999",
"9999999999999999999999999999998899999999999999999999999999999999",
"9999999999999999999999999999998899999999999999999999999999999999",
"9999999999999999999999999999998899999999999999999999999999999999",
"9999999999999999999999999999998899999999999999999999999999999999",
"9999999999999999999999999999998899999999999999999999999999999999",
"9999999999999999999999999999998899999999999999999999999999999999",
"9999999999999999999999999999998899999999999999999999999999999999",
"9999999999999999999999999999998899999999999999999999999999999999",
"9999999999999999999999999999998899999999999999999999999999999999",
"9999999999999999999999999999998899999999999999999999999999999999",
"9999999999999999999999999999998899999999999999999999999999999999",
"9999999999999999999999999999998899999999999999999999999999999999",
"9999999999999999999999999999998899999999999999999999999999999999",
"9999999999999999999999999999998899999999999999999999999999999999",
"9999999999999999999999999999998899999999999999999999999999999999",
"9999999999999999999999999999998899999999999999999999999999999999",
"9999999999999999999999999999998899999999999999999999999999999999",
"9999999999999999999999999999998899999999999999999999999999999999",
"9999999999999999999999999999998899999999999999999999999999999999",
"9999999999999999999999999999998899999999999999999999999999999999",
"9999999999999999999999999999998899999999999999999999999999999999",
"9999999999999999999999999999998899999999999999999999999999999999",
"9999999999999999999999999999998899999999999999999999999999999999",
"9999999999999999999999999999998899999999999999999999999999999999",
"9999999999999999999999999999998899999999999999999999999999999999",
"9999999999999999999999999999998899999999999999999999999999999999",
"9999999999999999999999999999998899999999999999999999999999999999",
"9999999999999999999999999999998899999999999999999999999999999999",
"9999999999999999999999999999998899999999999999999999999999999999",
"9999999999999999999999999999998899999999999999999999999999999999",
"9999999999999999999999999999998899999999999999999999999999999999",
"9999999999999999999999999999998899999999999999999999999999999999",
"9999999999999999999999999999998899999999999999999999999999999999",
"9999999999999999999999999999998899999999999999999999999999999999",
"9999999999999999999999999999998899999999999999999999999999999999",
"9999999999999999999999999999998899999999999999999999999999999999",
"99999999999999999999999999999@66@9999999999999999999999999999999",
"9999999999999999999999999999.O11O.999999999999999999999999999999",
"9999999999999999999999999999.O11O.999999999999999999999999999999",
"9999999999999999999999999999.O11O.999999999999999999999999999999",
"9999999999999999999999999999.O11O.999999999999999999999999999999",
"9999999999999999999999999999.O11O.999999999999999999999999999999",
"9999999999999999999999999999.O11O.999999999999999999999999999999",
"9999999999999999999999999999.O11O.999999999999999999999999999999",
"9999999999999999999999999999.O11O.999999999999999999999999999999",
"9999999999999999999999999999.O11O.999999999999999999999999999999",
"9999999999999999999999999999.O11O.999999999999999999999999999999",
"9999999999999999999999999999.O11O.999999999999999999999999999999",
"9999999999999999999999999999.O11O.999999999999999999999999999999",
"9999999999999999999999999999.O11O.999999999999999999999999999999",
"9999999999999999999999999999.O11O.999999999999999999999999999999",
"9999999999999999999999999999.O11O.999999999999999999999999999999",
"9999999999999999999999999999.O11O.999999999999999999999999999999",
"9999999999999999999999999999.O11O.999999999999999999999999999999",
"9999999999999999999999999999.O11O.999999999999999999999999999999",
"9999999999999999999999999999.O11O.999999999999999999999999999999",
"9999999999999999999999999999.O11O.999999999999999999999999999999",
"9999999999999999999999999999.O11O.999999999999999999999999999999",
"9999999999999999999999999999.O11O.999999999999999999999999999999",
"9999999999999999999999999999.O11O.999999999999999999999999999999",
"9999999999999999999999999999.O11o 999999999999999999999999999999",
"9999999999999999999999999999.O13%$X99999999999999999999999999999",
"9999999999999999999999999999.O15<;X.9999999999999999999999999999",
"9999999999999999999999999999.O15>-X.9999999999999999999999999999",
"9999999999999999999999999999.O15>-X.9999999999999999999999999999",
"9999999999999999999999999999.O15>-X.9999999999999999999999999999",
"9999999999999999999999999999.O15>-X.9999999999999999999999999999",
"9999999999999999999999999999.O15>-X.9999999999999999999999999999",
"9999999999999999999999999999.O15>-X.9999999999999999999999999999",
"9999999999999999999999999999.O15>-X.9999999999999999999999999999",
"9999999999999999999999999999.O15>-X.9999999999999999999999999999",
"9999999999999999999999999999.O15>-X.9999999999999999999999999999",
"9999999999999999999999999999.O15,;X.9999999999999999999999999999",
"9999999999999999999999999999.O14:=X.9999999999999999999999999999",
"9999999999999999999999999999.O12#+999999999999999999999999999999",
"9999999999999999999999999999.O1799999999999999999999999999999999",
"999999999999999999999999999999&*99999999999999999999999999999999",
"9999999999999999999999999999999999999999999999999999999999999999"
};
