/* XPM */
static char *result[] = {
/* columns rows colors chars-per-pixel */
"64 128 77 1 ",
"  c #5EA0FF",
". c #60A1FF",
"X c #60A2FF",
"o c #61A2FF",
"O c #62A3FF",
"+ c #63A4FF",
"@ c #64A4FF",
"# c #64A5FF",
"$ c #67A5FF",
"% c #65A6FF",
"& c #67A6FF",
"* c #69A6FF",
"= c #69A7FF",
"- c #6AA7FF",
"; c #67A8FF",
": c #69AAFF",
"> c #6AABFF",
", c #6DA9FF",
"< c #6DABFF",
"1 c #6FAAFF",
"2 c #6BACFF",
"3 c #6DAEFF",
"4 c #72AFFF",
"5 c #77AFFF",
"6 c #70B1FF",
"7 c #73B4FF",
"8 c #79B0FF",
"9 c #7BB9FF",
"0 c #7BBCFF",
"q c #7CBDFF",
"w c #7EBFFF",
"e c #8ABAFF",
"r c #91BEFF",
"t c #80C1FF",
"y c #83C0FF",
"u c #82C3FF",
"i c #86C7FF",
"p c #88C9FF",
"a c #89CAFF",
"s c #8BCCFF",
"d c #8DCEFF",
"f c #8ECFFF",
"g c #93C0FF",
"h c #9AC4FF",
"j c #92CFFF",
"k c #8FD0FF",
"l c #90D1FF",
"z c #91D2FF",
"x c #92D3FF",
"c c #96D3FF",
"v c #93D4FF",
"b c #98D5FF",
"n c #98D6FF",
"m c #99D6FF",
"M c #A0C7FF",
"N c #A6CBFF",
"B c #CCE1FF",
"V c #D3E5FF",
"C c #D6E7FF",
"Z c #DEEBFF",
"A c #E5F0FF",
"S c #EDF4FF",
"D c #EDF5FF",
"F c #F5F9FF",
"G c #F6FAFF",
"H c #F7FAFF",
"J c #F7FBFF",
"K c #F8FBFF",
"L c #F9FBFF",
"P c #F9FCFF",
"I c #F9FDFF",
"U c #FAFCFF",
"Y c #FCFDFF",
"T c #FDFEFF",
"R c #FEFEFF",
"E c white",
"W c None",
/* pixels */
"WWWWWWWWWWWWWWWWWWWWWWWWWWWWWWWWWWWWWWWWWWWWWWWWWWWWWWWWWWWWWWWW",
"WWWWWWWWWWWWWWWWWWWWWWWWWWWWo-GG-oWWWWWWWWWWWWWWWWWWWWWWWWWWWWWW",
"WWWWWWWWWWWWWWWWWWWWWWWWWWWWo-GG-oWWWWWWWWWWWWWWWWWWWWWWWWWWWWWW",
"WWWWWWWWWWWWWWWWWWWWWWWWWWWWo-GG-oWWWWWWWWWWWWWWWWWWWWWWWWWWWWWW",
"WWWWWWWWWWWWWWWWWWWWWWWWWWWWo-GG-oWWWWWWWWWWWWWWWWWWWWWWWWWWWWWW",
"WWWWWWWWWWWWWWWWWWWWWWWWWWWWo-GG-oWWWWWWWWWWWWWWWWWWWWWWWWWWWWWW",
"WWWWWWWWWWWWWWWWWWWWWWWWWWWWo-GG-oWWWWWWWWWWWWWWWWWWWWWWWWWWWWWW",
"WWWWWWWWWWWWWWWWWWWWWWWWWWWWo-GG,@WWWWWWWWWWWWWWWWWWWWWWWWWWWWWW",
"WWWWWWWWWWWWWWWWWWWWWWWWWWWWo-GTZC-oWWWWWWWWWWWWWWWWWWWWWWWWWWWW",
"WWWWWWWWWWWWWWWWWWWWWWWWWWWWo-GEEK-oWWWWWWWWWWWWWWWWWWWWWWWWWWWW",
"WWWWWWWWWWWWWWWWWWWWWWWWWWWW $GEEG-oWWWWWWWWWWWWWWWWWWWWWWWWWWWW",
"WWWWWWWWWWWWWWWWWWWWWWWWWWWWghPEEG-oWWWWWWWWWWWWWWWWWWWWWWWWWWWW",
"WWWWWWWWWWWWWWWWWWWWWWWWWWo-HEEEEG=XWWWWWWWWWWWWWWWWWWWWWWWWWWWW",
"WWWWWWWWWWWWWWWWWWWWWWWWWWo-GEEEEH51WWWWWWWWWWWWWWWWWWWWWWWWWWWW",
"WWWWWWWWWWWWWWWWWWWWWWWWWWo-GEEEERSA-oWWWWWWWWWWWWWWWWWWWWWWWWWW",
"WWWWWWWWWWWWWWWWWWWWWWWWWWo-GEEEEEEH-oWWWWWWWWWWWWWWWWWWWWWWWWWW",
"WWWWWWWWWWWWWWWWWWWWWWWWWWo-GEEEEEEG-oWWWWWWWWWWWWWWWWWWWWWWWWWW",
"WWWWWWWWWWWWWWWWWWWWWWWWWWo-GEEEEEEG-oWWWWWWWWWWWWWWWWWWWWWWWWWW",
"WWWWWWWWWWWWWWWWWWWWWWWWWWo-GEEEEEEG-oWWWWWWWWWWWWWWWWWWWWWWWWWW",
"WWWWWWWWWWWWWWWWWWWWWWWWWWo-GEEEEEEG-oWWWWWWWWWWWWWWWWWWWWWWWWWW",
"WWWWWWWWWWWWWWWWWWWWWWWWWWo-GEEEEEEG-oWWWWWWWWWWWWWWWWWWWWWWWWWW",
"WWWWWWWWWWWWWWWWWWWWWWWWWWo-GEEEEEEG-oWWWWWWWWWWWWWWWWWWWWWWWWWW",
"WWWWWWWWWWWWWWWWWWWWWWWWWWo-GEEEEEEG-oWWWWWWWWWWWWWWWWWWWWWWWWWW",
"WWWWWWWWWWWWWWWWWWWWWWWWWWo-GEEEEEEG-oWWWWWWWWWWWWWWWWWWWWWWWWWW",
"WWWWWWWWWWWWWWWWWWWWWWWWWWo-GEEEEEEG-oWWWWWWWWWWWWWWWWWWWWWWWWWW",
"WWWWWWWWWWWWWWWWWWWWWWWWWWo-GEEEEEEG=.WWWWWWWWWWWWWWWWWWWWWWWWWW",
"WWWWWWWWWWWWWWWWWWWWWWWWWWo-GEEEEEEH4>WWWWWWWWWWWWWWWWWWWWWWWWWW",
"WWWWWWWWWWWWWWWWWWWWWWWWWW%<GEEEEEEPcd#oWWWWWWWWWWWWWWWWWWWWWWWW",
"WWWWWWWWWWWWWWWWWWWWWWWWo#ajPEEEEEEInk#oWWWWWWWWWWWWWWWWWWWWWWWW",
"WWWWWWWWWWWWWWWWWWWWWWWWo#lnIEEEEEEIbk#oWWWWWWWWWWWWWWWWWWWWWWWW",
"WWWWWWWWWWWWWWWWWWWWWWWWo#kbIEEEEEEIbk#oWWWWWWWWWWWWWWWWWWWWWWWW",
"WWWWWWWWWWWWWWWWWWWWWWWWo#kbIEEEEEEIbk#oWWWWWWWWWWWWWWWWWWWWWWWW",
"WWWWWWWWWWWWWWWWWWWWWWWWo#kbIEEEEEEIbk#oWWWWWWWWWWWWWWWWWWWWWWWW",
"WWWWWWWWWWWWWWWWWWWWWWWWo#kbIEEEEEEIbk#oWWWWWWWWWWWWWWWWWWWWWWWW",
"WWWWWWWWWWWWWWWWWWWWWWWWo#kbIEEEEEEIbk#oWWWWWWWWWWWWWWWWWWWWWWWW",
"WWWWWWWWWWWWWWWWWWWWWWWWo#kbIEEEEEEIbk#oWWWWWWWWWWWWWWWWWWWWWWWW",
"WWWWWWWWWWWWWWWWWWWWWWWWo#kbIEEEEEEIbk#oWWWWWWWWWWWWWWWWWWWWWWWW",
"WWWWWWWWWWWWWWWWWWWWWWWWo#kbIEEEEEEIbk#oWWWWWWWWWWWWWWWWWWWWWWWW",
"WWWWWWWWWWWWWWWWWWWWWWWWo#kbIEEEEEEIbk#oWWWWWWWWWWWWWWWWWWWWWWWW",
"WWWWWWWWWWWWWWWWWWWWWWWWo#kbIEEEEEEIbk+.WWWWWWWWWWWWWWWWWWWWWWWW",
"WWWWWWWWWWWWWWWWWWWWWWWWo#kbIEEEEEEIbl2:WWWWWWWWWWWWWWWWWWWWWWWW",
"WWWWWWWWWWWWWWWWWWWWWWWWo#kbIEEEEEEIbxkd#oWWWWWWWWWWWWWWWWWWWWWW",
"WWWWWWWWWWWWWWWWWWWWWWWWo#kbIEEEEEEIbxxk#oWWWWWWWWWWWWWWWWWWWWWW",
"WWWWWWWWWWWWWWWWWWWWWWWWo#kbIEEEEEEIbxxk#oWWWWWWWWWWWWWWWWWWWWWW",
"WWWWWWWWWWWWWWWWWWWWWWWWo#kbIEEEEEEIbxxk#oWWWWWWWWWWWWWWWWWWWWWW",
"WWWWWWWWWWWWWWWWWWWWWWWWo#kbIEEEEEEIbxxk#oWWWWWWWWWWWWWWWWWWWWWW",
"WWWWWWWWWWWWWWWWWWWWWWWWo#kbIEEEEEEIbxxk#oWWWWWWWWWWWWWWWWWWWWWW",
"WWWWWWWWWWWWWWWWWWWWWWWWo#kbIEEEEEEIbxxk#oWWWWWWWWWWWWWWWWWWWWWW",
"WWWWWWWWWWWWWWWWWWWWWWWWo#kbIEEEEEEIbxxk#oWWWWWWWWWWWWWWWWWWWWWW",
"WWWWWWWWWWWWWWWWWWWWWWWWo#kbIEEEEEEIbxxk#oWWWWWWWWWWWWWWWWWWWWWW",
"WWWWWWWWWWWWWWWWWWWWWWWWo#kbIEEEEEEIbxxk+.WWWWWWWWWWWWWWWWWWWWWW",
"WWWWWWWWWWWWWWWWWWWWWWWWo#kbIEEEEEEIbxxzwq#oWWWWWWWWWWWWWWWWWWWW",
"WWWWWWWWWWWWWWWWWWWWWWWW.+kbIEEEEEEIbxxxvl#oWWWWWWWWWWWWWWWWWWWW",
"WWWWWWWWWWWWWWWWWWWWWWWW36lbIEEEEEEIbxxxxk#oWWWWWWWWWWWWWWWWWWWW",
"WWWWWWWWWWWWWWWWWWWWWWo#kxxbIEEEEEEIbxxxxk#oWWWWWWWWWWWWWWWWWWWW",
"WWWWWWWWWWWWWWWWWWWWWWo#kxxbIEEEEEEIbxxxxk#oWWWWWWWWWWWWWWWWWWWW",
"WWWWWWWWWWWWWWWWWWWWWWo#kxxbIEEEEEEIbxxxxk#oWWWWWWWWWWWWWWWWWWWW",
"WWWWWWWWWWWWWWWWWWWWWWo#kxxbIEEEEEEIbxxxxk#oWWWWWWWWWWWWWWWWWWWW",
"WWWWWWWWWWWWWWWWWWWWWWo#kxxbIEEEEEEIbxxxxk#oWWWWWWWWWWWWWWWWWWWW",
"WWWWWWWWWWWWWWWWWWWWWWo#kxxbIEEEEEEIbxxxxk#oWWWWWWWWWWWWWWWWWWWW",
"WWWWWWWWWWWWWWWWWWWWWWo#kxxbIEEEEEEIbxxxxk#oWWWWWWWWWWWWWWWWWWWW",
"WWWWWWWWWWWWWWWWWWWWWWo#kxxbIEEEEEEIbxxxxk#oWWWWWWWWWWWWWWWWWWWW",
"WWWWWWWWWWWWWWWWWWWWWWo#kxxbIEEEEEEIbxxxxk#oWWWWWWWWWWWWWWWWWWWW",
"WWWWWWWWWWWWWWWWWWWWWWo#kxxbIEEEEEEIbxxxxk#oWWWWWWWWWWWWWWWWWWWW",
"WWWWWWWWWWWWWWWWWWWWWWo#kxxbIEEEEEEIbxxxxk#oWWWWWWWWWWWWWWWWWWWW",
"WWWWWWWWWWWWWWWWWWWWWWo#kxxbIEEEEEEIbxxxxk#oWWWWWWWWWWWWWWWWWWWW",
"WWWWWWWWWWWWWWWWWWWWWWo#kxxbIEEEEEEIbxxxxk#oWWWWWWWWWWWWWWWWWWWW",
"WWWWWWWWWWWWWWWWWWWWWWo#kxxbIEEEEEEIbxxxxk#oWWWWWWWWWWWWWWWWWWWW",
"WWWWWWWWWWWWWWWWWWWWWWo#kxxbIEEEEEEIbxxxxk#oWWWWWWWWWWWWWWWWWWWW",
"WWWWWWWWWWWWWWWWWWWWWWo#kxxbIEEEEEEIbxxxxk#oWWWWWWWWWWWWWWWWWWWW",
"WWWWWWWWWWWWWWWWWWWWWWo#kxxbIEEEEEEIbxxxxk#oWWWWWWWWWWWWWWWWWWWW",
"WWWWWWWWWWWWWWWWWWWWWWo#kxxbIEEEEEEIbxxxxk#oWWWWWWWWWWWWWWWWWWWW",
"WWWWWWWWWWWWWWWWWWWWWWo#kxxbIEEEEEEIbxxxxk#oWWWWWWWWWWWWWWWWWWWW",
"WWWWWWWWWWWWWWWWWWWWWWo#kxxbIEEEEEEIbxxxxk#oWWWWWWWWWWWWWWWWWWWW",
"WWWWWWWWWWWWWWWWWWWWWWo#kxxbIEEEEEEIbxxxxk#oWWWWWWWWWWWWWWWWWWWW",
"WWWWWWWWWWWWWWWWWWWWWWo#kxxbIEEEEEEIbxxxxk#oWWWWWWWWWWWWWWWWWWWW",
"WWWWWWWWWWWWWWWWWWWWWWo#kxxbIEEEEEEIbxxxxk#oWWWWWWWWWWWWWWWWWWWW",
"WWWWWWWWWWWWWWWWWWWWWWo#kxxbIEEEEEEIbxxxxk#oWWWWWWWWWWWWWWWWWWWW",
"WWWWWWWWWWWWWWWWWWWWWWo#kxxbIEEEEEEIbxxxxk#oWWWWWWWWWWWWWWWWWWWW",
"WWWWWWWWWWWWWWWWWWWWWWo#kxxbIEEEEEEIbxxxxk#oWWWWWWWWWWWWWWWWWWWW",
"WWWWWWWWWWWWWWWWWWWWWWo#kxxbIEEEEEEIbxxxxk#oWWWWWWWWWWWWWWWWWWWW",
"WWWWWWWWWWWWWWWWWWWWWWo#kxxbIEEEEEEIbxxxxk#oWWWWWWWWWWWWWWWWWWWW",
"WWWWWWWWWWWWWWWWWWWWWWo#kxxbIEEEEEEIbxxxxk#oWWWWWWWWWWWWWWWWWWWW",
"WWWWWWWWWWWWWWWWWWWWWWo#kxxbIEEEEEEIbxxxxk#oWWWWWWWWWWWWWWWWWWWW",
"WWWWWWWWWWWWWWWWWWWWWWo#kxxbIEEEEEEIbxxxxk#oWWWWWWWWWWWWWWWWWWWW",
"WWWWWWWWWWWWWWWWWWWWWWo#kxxbIEEEEEEIbxxxxk#oWWWWWWWWWWWWWWWWWWWW",
"WWWWWWWWWWWWWWWWWWWWWWo#kxxbIEEEEEEIbxxxvl#oWWWWWWWWWWWWWWWWWWWW",
"WWWWWWWWWWWWWWWWWWWWWWo#lvxbIEEEEEEIbxxzut#oWWWWWWWWWWWWWWWWWWWW",
"WWWWWWWWWWWWWWWWWWWWWWo#ipzbIEEEEEEIbxxk+oWWWWWWWWWWWWWWWWWWWWWW",
"WWWWWWWWWWWWWWWWWWWWWWWWO%kbIEEEEEEIbxxk#oWWWWWWWWWWWWWWWWWWWWWW",
"WWWWWWWWWWWWWWWWWWWWWWWWo#kbIEEEEEEIbxxk#oWWWWWWWWWWWWWWWWWWWWWW",
"WWWWWWWWWWWWWWWWWWWWWWWWo#kbIEEEEEEIbxxk#oWWWWWWWWWWWWWWWWWWWWWW",
"WWWWWWWWWWWWWWWWWWWWWWWWo#kbIEEEEEEIbxxk#oWWWWWWWWWWWWWWWWWWWWWW",
"WWWWWWWWWWWWWWWWWWWWWWWWo#kbIEEEEEEIbxxk#oWWWWWWWWWWWWWWWWWWWWWW",
"WWWWWWWWWWWWWWWWWWWWWWWWo#kbIEEEEEEIbxxk#oWWWWWWWWWWWWWWWWWWWWWW",
"WWWWWWWWWWWWWWWWWWWWWWWWo#kbIEEEEEEIbxxl#oWWWWWWWWWWWWWWWWWWWWWW",
"WWWWWWWWWWWWWWWWWWWWWWWWo#kbIEEEEEEIbxfs#oWWWWWWWWWWWWWWWWWWWWWW",
"WWWWWWWWWWWWWWWWWWWWWWWWo#kbIEEEEEEIbl:;WWWWWWWWWWWWWWWWWWWWWWWW",
"WWWWWWWWWWWWWWWWWWWWWWWWo#kbIEEEEEEIbk+oWWWWWWWWWWWWWWWWWWWWWWWW",
"WWWWWWWWWWWWWWWWWWWWWWWWo#kbIEEEEEEIbk#oWWWWWWWWWWWWWWWWWWWWWWWW",
"WWWWWWWWWWWWWWWWWWWWWWWWo#kbIEEEEEEIbk#oWWWWWWWWWWWWWWWWWWWWWWWW",
"WWWWWWWWWWWWWWWWWWWWWWWWo#kbIEEEEEEIbk#oWWWWWWWWWWWWWWWWWWWWWWWW",
"WWWWWWWWWWWWWWWWWWWWWWWWo#kbIEEEEEEIbk#oWWWWWWWWWWWWWWWWWWWWWWWW",
"WWWWWWWWWWWWWWWWWWWWWWWWo#kbIEEEEEEIbk#oWWWWWWWWWWWWWWWWWWWWWWWW",
"WWWWWWWWWWWWWWWWWWWWWWWWo#kbIEEEEEEIbk#oWWWWWWWWWWWWWWWWWWWWWWWW",
"WWWWWWWWWWWWWWWWWWWWWWWWo#kbIEEEEEEIml#oWWWWWWWWWWWWWWWWWWWWWWWW",
"WWWWWWWWWWWWWWWWWWWWWWWWo#lmIEEEEEEJ97WWWWWWWWWWWWWWWWWWWWWWWWWW",
"WWWWWWWWWWWWWWWWWWWWWWWWo#0yKEEEEEEG*.WWWWWWWWWWWWWWWWWWWWWWWWWW",
"WWWWWWWWWWWWWWWWWWWWWWWWWW.*GEEEEEEG-oWWWWWWWWWWWWWWWWWWWWWWWWWW",
"WWWWWWWWWWWWWWWWWWWWWWWWWWo-GEEEEEEG-oWWWWWWWWWWWWWWWWWWWWWWWWWW",
"WWWWWWWWWWWWWWWWWWWWWWWWWWo-GEEEEEEG-oWWWWWWWWWWWWWWWWWWWWWWWWWW",
"WWWWWWWWWWWWWWWWWWWWWWWWWWo-GEEEEEEG-oWWWWWWWWWWWWWWWWWWWWWWWWWW",
"WWWWWWWWWWWWWWWWWWWWWWWWWWo-GEEEEEEG-oWWWWWWWWWWWWWWWWWWWWWWWWWW",
"WWWWWWWWWWWWWWWWWWWWWWWWWWo-GEEEEEEG-oWWWWWWWWWWWWWWWWWWWWWWWWWW",
"WWWWWWWWWWWWWWWWWWWWWWWWWWo-GEEEEEEL-oWWWWWWWWWWWWWWWWWWWWWWWWWW",
"WWWWWWWWWWWWWWWWWWWWWWWWWWo-GEEEEYVB-oWWWWWWWWWWWWWWWWWWWWWWWWWW",
"WWWWWWWWWWWWWWWWWWWWWWWWWWo-GEEEEG-oWWWWWWWWWWWWWWWWWWWWWWWWWWWW",
"WWWWWWWWWWWWWWWWWWWWWWWWWWo-GEEEEG-oWWWWWWWWWWWWWWWWWWWWWWWWWWWW",
"WWWWWWWWWWWWWWWWWWWWWWWWWWo-FREEEG-oWWWWWWWWWWWWWWWWWWWWWWWWWWWW",
"WWWWWWWWWWWWWWWWWWWWWWWWWWWWerLEEK-oWWWWWWWWWWWWWWWWWWWWWWWWWWWW",
"WWWWWWWWWWWWWWWWWWWWWWWWWWWW &GUNMWWWWWWWWWWWWWWWWWWWWWWWWWWWWWW",
"WWWWWWWWWWWWWWWWWWWWWWWWWWWWo-GG$ WWWWWWWWWWWWWWWWWWWWWWWWWWWWWW",
"WWWWWWWWWWWWWWWWWWWWWWWWWWWWo-GG-oWWWWWWWWWWWWWWWWWWWWWWWWWWWWWW",
"WWWWWWWWWWWWWWWWWWWWWWWWWWWWo-HH-oWWWWWWWWWWWWWWWWWWWWWWWWWWWWWW",
"WWWWWWWWWWWWWWWWWWWWWWWWWWWWo-DD-oWWWWWWWWWWWWWWWWWWWWWWWWWWWWWW",
"WWWWWWWWWWWWWWWWWWWWWWWWWWWWWW88WWWWWWWWWWWWWWWWWWWWWWWWWWWWWWWW",
"WWWWWWWWWWWWWWWWWWWWWWWWWWWWWWWWWWWWWWWWWWWWWWWWWWWWWWWWWWWWWWWW",
"WWWWWWWWWWWWWWWWWWWWWWWWWWWWWWWWWWWWWWWWWWWWWWWWWWWWWWWWWWWWWWWW"
};
