/* XPM */
static char *_fdcebaabbcf44d2fcfe44ff82fcc679aEBPsvOKoRBFCi8M[] = {
/* columns rows colors chars-per-pixel */
"64 76 148 2 ",
"   c None",
".  c #2B2B37",
"X  c #2D2E3A",
"o  c #2F303C",
"O  c #32333C",
"+  c #4C443D",
"@  c #353541",
"#  c #383744",
"$  c #393945",
"%  c #353648",
"&  c #3E3C4C",
"*  c #3F3C50",
"=  c #413F4E",
"-  c #413F54",
";  c #4F4742",
":  c #44444D",
">  c #554C4F",
",  c #444155",
"<  c #494752",
"1  c #4D4C54",
"2  c #474259",
"3  c #4B465E",
"4  c #504F56",
"5  c #7E6744",
"6  c #7E6853",
"7  c #4C4662",
"8  c #4E4963",
"9  c #504B65",
"0  c #554E6C",
"q  c #555160",
"w  c #5F5565",
"e  c #5E5C61",
"r  c #57506F",
"t  c #5E596A",
"y  c #574F71",
"u  c #5B5375",
"i  c #5F5971",
"p  c #5E557B",
"a  c #605E64",
"s  c #625B75",
"d  c #61577D",
"f  c #61587D",
"g  c #6B5F7F",
"h  c #6D6B6F",
"j  c #7E6A69",
"k  c #696670",
"l  c #6F6C71",
"z  c #716F72",
"x  c #757276",
"c  c #787577",
"v  c #77727B",
"b  c #797678",
"n  c #7D797B",
"m  c #807C7E",
"M  c #B48C46",
"N  c #B18B4B",
"B  c #AA8757",
"V  c #9E806C",
"C  c #B48F6D",
"Z  c #C89C5A",
"A  c #D4A34F",
"S  c #DAA649",
"D  c #615780",
"F  c #655B82",
"G  c #695E87",
"H  c #6A5F89",
"J  c #6B6284",
"K  c #6D618D",
"L  c #7E6C82",
"P  c #787185",
"I  c #7C758A",
"U  c #6F6293",
"Y  c #726595",
"T  c #766896",
"R  c #7B6E94",
"E  c #756799",
"W  c #76689A",
"Q  c #796B9D",
"!  c #7E7396",
"~  c #7F739B",
"^  c #7768A0",
"/  c #7C6DA3",
"(  c #7D6EA8",
")  c #7F70A6",
"_  c #7F70A8",
"`  c #8F7882",
"'  c #917984",
"]  c #837196",
"[  c #887597",
"{  c #857299",
"}  c #8171A6",
"|  c #8678A7",
" . c #887AA7",
".. c #8070A8",
"X. c #8B7DAA",
"o. c #9C8184",
"O. c #908994",
"+. c #979292",
"@. c #999493",
"#. c #9D9895",
"$. c #A29B9E",
"%. c #A7A19F",
"&. c #8C81A1",
"*. c #8E80AD",
"=. c #9285A7",
"-. c #968BA6",
";. c #988FA0",
":. c #9E94A6",
">. c #9C90AF",
",. c #9789B1",
"<. c #9A8CB2",
"1. c #9F92B3",
"2. c #A396B6",
"3. c #A599B6",
"4. c #A597B8",
"5. c #AB9EBB",
"6. c #AAA5A1",
"7. c #AEA8A3",
"8. c #B3ADA9",
"9. c #AFA6B3",
"0. c #AEA1BD",
"q. c #B4A9B8",
"w. c #BEB7B3",
"e. c #BFB8B3",
"r. c #BBB0BF",
"t. c #C6BDBE",
"y. c #B1A3C2",
"u. c #B5A9C0",
"i. c #B9AEC0",
"p. c #C0B4C6",
"a. c #C4B8C5",
"s. c #C8BFC0",
"d. c #CBBFCC",
"f. c #CCC0CD",
"g. c #D4CCC5",
"h. c #D0C5CD",
"j. c #D7CFC8",
"k. c #DCD4CB",
"l. c #D4C7D4",
"z. c #DED4D3",
"x. c #E0D6D3",
"c. c #E1D6D8",
"v. c #E7DDDA",
"b. c #E8DDDB",
"n. c #ECE3DB",
"m. c #F6EDE1",
"M. c #F9EFE4",
"N. c #FFF9EB",
/* pixels */
"                @ @ @ O O O O O O O o O O o O O O O O O O O O O O O O o O O O X o . . . . . . . . . . O O $ O $                 ",
"                @ O @ O @ @ @ @ @ @ @ @ @ O @ @ O @ @ @ @ @ O @ @ @ @ @ O @ # O @ O O $ O $ $ O @ $ @ O O O $ O                 ",
"                @ @ # $ $ & & = & = & = = = & & = & & & & & & & & & & & & & : , < 1 1 4 4 4 1 4 1 1 1 : $ $ @ O                 ",
"                O @ $ & , 3 8 8 8 8 8 8 7 8 8 8 8 7 8 8 8 8 8 8 8 8 8 8 8 8 9 t k x b b b b b b b x h e 1 & @ O                 ",
"                O @ & , 9 u d f d f f d d d d d d f d d f f d d f f f p p d k ! O.$.6.7.7.6.%.7.7.6.+.b t : @ o                 ",
"                O O & 3 u H Y T Y Y Y Y Y Y Y Y Y Y Y Y Y Y Y Y Y Y Y U U Y { -.9.s.g.j.g.g.g.j.j.g.w.+.h < @ X                 ",
"                O @ & 8 d Y / / / / / / / Q / / / / / / / / / / / / / ^ ^ /  .1.i.h.k.x.x.z.z.v.n.n.g.%.x 1 @ .                 ",
"                O @ & 8 f E ) ....../ } } ....../ ....../ .._ .._ ) _ ( / _ X.<.0.i.d.f.f.f.l.c.n.n.k.7.b 4 @ X                 ",
"                O O & 8 f E / ..../ ../ ........................_ ) } / / / ..*.<.2.5.5.3.5.u.d.c.n.k.7.n 4 # .                 ",
"                O @ & 8 f Y / ) / ../ / / / / / / / / / / / / / / / / / / / ..}  .X.X. .X.X.<.u.h.z.g.6.b 4 O .                 ",
"                O @ & 8 f Y / / / / / W E Y Y Y Y Y Y Y Y Y Y Y Y Y E E Q / / / / / / / / / X.2.p.h.t.$.x < # .                 ",
"                O O = 8 f Y / ..../ / E H F f f d d f d d d f d f f F K Y / / / / / ^ E ^ Q } ,.5.r.9.O.k < O X                 ",
"                O @ & 8 d Y / } ....W K d y 8 7 7 8 8 8 8 8 8 8 8 8 0 d K Q / ( / / E ^ ^ ^ ) X.,.1.-.I a , @ o                 ",
"                O @ & 8 d Y / ) ../ Y F 0 - = = & & = = = = = $ & & 2 0 F Y / / / / / / / / } ..X.X.~ J 9 = @ O                 ",
"                O @ = 8 f Y Q / / Y G u 3 = @ O O @ @ @ # # O O O O & 3 u H Y Q W / / / / / / / / / Y d 8 & @ O                 ",
"                o @ & 8 f Y W E H D y 7 - # O O O O O o O O O X X o @ & 7 y D H Y ^ / / / / / / / W U p 7 & @ O                 ",
"                O @ & 8 D Y E K p 8 2 * $ @ @ O O O O O @ O O O X X O @ & 2 8 p G E / / / / / / / / U p 7 & @ O                 ",
"                o @ & 9 f Y T J u 2 & $ # @ @ O @ O @ @ @ @ # O @ @ @ $ $ & 2 r F E / ../ / / / ( / Y d 8 & @ O                 ",
"                O @ * 8 F Y T K s q < : & @ @ @ @ @ @ @ O @ @ $ : < 1 1 1 1 q i H W / / / / / / ..Q Y d 8 & O O                 ",
"                O @ & 8 f Y Q ! I v h e 1 & @ O O @ @ @ @ @ = 4 a z b b x v v P ! Q / / / / / ..../ Y d 8 & @ O                 ",
"                O @ & 8 p Y } =.:.$.@.n e : O O O @ @ O O # : a m +.%.7.%.%.$.@.&.{ / / / / / / / Q Y d 8 = @ O                 ",
"                O @ & 7 p Y  .2.r.s.e.#.z 1 O O O @ O O X @ < l @.t.g.k.k.g.f.q.>. ./ ^ ^ / / / ../ Y d 3 & @ O                 ",
"                o O & 7 p Y X.0.f.z.j.7.n 4 $ o o O O o o @ 1 b 6.g.n.m.m.n.z.a.3.X./ ^ ^ / / / } / Y d 9 & O O                 ",
"                O @ & 7 p Y *.y.l.v.k.8.m 4 O X o @ @ o o @ 4 n 8.k.m.N.N.M.v.d.5.X./ / ^ / / ( } Q Y d 8 = @ O                 ",
"                O @ & 7 p Y *.y.l.v.k.8.m 4 O o o O O O X O 4 n 8.k.M.N.N.M.n.d.5.X.~ / E / / / } Q Y f 8 & @ O                 ",
"                O @ & 7 p Y &.0.f.z.g.7.b 1 $ o O O @ O O @ 1 b 6.g.n.m.m.n.k.a.3.X./ ^ ^ / / / ) / Y p 8 & @ O                 ",
"                o @ & 7 p Y  .3.r.f.e.#.x < @ O X @ O O O $ < l @.t.g.k.k.g.s.q.>. ./ Q / / / / / / Y f 8 & @ O                 ",
"                O @ & 7 p Y } =.#.$.@.m a < @ O O @ @ O O O : a m @.%.%.6.6.$.;.&.} / / / / / / } / Y f 8 & O O                 ",
"                O @ & 8 d Y Q ] I v l e 1 $ @ O @ @ @ @ O @ & 1 a z b b b x b P R Q / / / / / / / / Y d 8 & @ O                 ",
"                o @ * 8 D Y T K s q < : & $ @ O @ @ @ O @ @ $ $ : < 1 1 1 1 q i J W / ) / / / / ..Q Y d 8 & @ O                 ",
"                O @ & 9 F Y Y G y 2 * $ O @ @ @ O @ @ @ @ @ @ @ @ O @ # $ & 2 r G Y / / / / / } } ) Y d 8 & @ O                 ",
"                O O & 9 f Y E K p 9 2 * $ $ O O O @ @ @ O @ @ O o o X % * 2 8 p H Y / ../ / / / / Q Y d 8 & @ O                 ",
"                X @ = 7 d T Q E U p y 7 * # X # X @ X # # O # O X o O = - y D H Y Q / / / / / / } / Y d 8 & @ O                 ",
"                o @ = 8 d U Q ^ ..] H y 7 * # X # # # # O # O X O O = 3 d G E W Q Q / / / / / / ../ Y d 8 & @ O                 ",
"                O @ = 8 d Y Q ....^ H D y 2 * # # @ # X # O O # $ = 2 y F Y ^ ../ / / / / / / / ) / Y d 8 & O o                 ",
"                X @ = 9 d E } ......] ] d 0 7 * # @ # X X X # * - 3 0 f U W ....) / / / / / / / ) / T d 8 : @ O                 ",
"                O @ = 9 f E ........U U U D y 7 * # X . . . O * 8 u F K Y Q / ../ / / Q / / / / ) / Y D 9 & @ O                 ",
"                O O = 8 d U } } ........{ U H p 7 * # # + . + 2 u H E Q / / / / / / / / / / / / / / Y d 8 & @ O                 ",
"                O @ = - u G T Q U ] ......^ U d w + ; + + + > > G Y / / / / / / / / / / / / / / Q E H u 3 & O O                 ",
"                O @ = - 9 p F K U ..U ....{ { j m 5 5 m 5 5 m m L ] / ../ / / Q / / Q / / / Q Y K F u 9 , & @ O                 ",
"                @ @ $ = = 3 w D H ..^ ......] ] m m S M M M m B ' { / ( / / / / / / / / / / W K d 0 8 , & $ @ O                 ",
"                O @ @ # # = - r D U ^ ..^ ..] ' C Z S S S S A M o.[ / / / / / ^ / / / / ) / T F 0 2 & $ @ $ @ @                 ",
"                # @ @ @ O O = 3 p U ..^ ....] ' Z Z A S S S Z S o.{ / / ^ / / / / / / / ) Q Y d 9 & O O O O @ O                 ",
"                  @ @ O O O = 3 p ] ......{ [ m m B N M M M m m ` ] ^ ( / / / / / / / / } Q Y d 3 & O O O @ @                   ",
"                      # . @ * 7 p U ......] ] ] j 6 5 5 5 5 6 j L R / / / / / / / / / ) ) / Y d 8 & O X O                       ",
"                        X . * 7 p H ........] y a 4 ; + + ; 4 w g E / ../ / / / / / / / / / Y d 8 & O O                         ",
"                        @ # * 7 p ] U ....] H p 8 * @ O o O & 8 f Y / / / / / / / Q / / ) / Y d 8 & @ O                         ",
"                        X @ * 7 p U ..........p 7 & o . X O * 7 d Y / / / / / / / / / / / / Y d 8 : O O                         ",
"                        O # = 7 d Y / ....Q Y d 7 % @ . X O & 7 d Y Q } ../ / / / / / / ..~ Y d 8 & @ O                         ",
"                        O O = 9 d Y / ..../ Y d 8 = @ o O O & 8 d Y / } / Q / / / / / / / Q Y d 8 & @ O                         ",
"                        O @ & 7 d Y Q ..../ Y f 8 = @ o O O & 9 d Y Q ../ / / / Q / / ..../ Y d 8 & @ O                         ",
"                        O O = 9 d Y / ..../ Y f 8 = @ o X O = 9 f Y / / ../ / Q / / Q ....Q Y d 3 & O o O                       ",
"                        O @ & 8 d Y Q ......T f 8 = # O O O = 7 f Y / ../ / / / / Q / ../ / Y d 8 & O O O O $                   ",
"                        O O = 8 d Y } ....^ Y D 7 = O o O O = 9 f Y Q ....Q / / / / / / ) / Y d 8 & O O O # O #                 ",
"                        O @ & 7 d Y Q ....^ Y d 8 = @ O O O = 9 d Y / ..../ / / / / / / / / E F 0 2 & $ $ O # O                 ",
"                        O @ = 8 d U } ....} Y f 8 = O o O O = 9 d Y Q } / / / Q / / / / ../ E K d 0 3 , $ # O O O               ",
"                        O @ & 8 d Y } ..../ Y d 9 = O O X @ = 8 f Y / ..} ^ } Q / Q / / / / Q Y K F u 9 - $ O O O O @           ",
"                        O @ & 8 d Y Q ....Q Y f 8 = O O O @ = 8 d Y Q / ^ } / / / / / / / / / Q Q Y H u 3 & @ O @ @ @ @         ",
"                        O @ & 8 f Y } ....} U f 9 = # O O O = 7 f Y / } ..Q / / / / / / / / / / ../ Y F 0 2 & $ # @ O @         ",
"                        O @ & 8 d Y ^ ......T f 8 = O X O @ = 9 D W ....../ / / / / Q / Q / / / } / W Y f 0 3 , & # @ O         ",
"                        O @ = 8 d Y } ....} E f 8 = O X O O = 8 D E } ..} / Q / / / / / / / / / / / / E K F u 8 , $ O O         ",
"                        o O & 8 d U ^ ....} T d 8 = O O O @ = 8 f U Q ..^ } / / / / / / / / / / / / / / Q Y K u 3 & # O         ",
"                        O @ & 8 d T Q } E Y H u 3 $ @ O O @ = 3 u H Y Q / ^ / / / / / / / / / / / / / / ) / Y d 8 = @ O         ",
"                        O @ = 8 D Y Q Q U F d 9 - = @ O O O $ - 9 d F K T W } ..../ / / / / ../ / / / ....} E F 9 & @ O         ",
"                        O @ = 9 D Y Q Y f 0 3 , & # @ O O @ $ & , 3 0 f K Q / } ../ ....) / ) } / } } ....} E F 9 & @ O         ",
"                        O @ = 9 F Y Y F u 2 & $ # @ @ @ @ @ @ $ # = 2 0 G Y / ../ / / Q / Q / Q / / / / ) / Y f 8 & @ O         ",
"                        O @ = 7 u H H p 8 & $ O O # @ O @ @ O O O @ & 3 u H Y Y Y Y Y Y Y Y Y Y Y Y Y Y Y Y H u 3 & @ O         ",
"                        O @ $ , 0 u u 9 , $ O O O O O # @ @ @ O O O $ , 9 u d f f f d d d f d d d d d f f d u 8 , & @ O         ",
"                        O @ $ & , 3 3 , & # O O O O @ O @ $ O O O O $ & , 3 8 9 9 8 8 8 8 8 8 8 8 8 8 9 9 8 3 , & # @ O         ",
"                        @ @ @ $ $ & & $ # @ @ O $ @ @ $ @ O O $ @ @ @ $ $ & & = & = & & & & & & & & & & = & & $ $ $ O @         ",
"                        @ @ @ @ @ @ @ @ @ @ @ @ O $ $ O O $ $ O @ O @ @ @ @ O @ @ O @ @ @ @ @ @ @ @ O @ @ @ @ @ @ @ @ @         ",
"                          O @ O O O O O O @ @ @ # O O @ @ O $ O @ @ @ O O O O O O O O O O O O O O O O O O O O O O @ O           ",
"                                                                                                                                ",
"                                                                                                                                ",
"                                                                                                                                ",
"                                                                                                                                "
};
