/* XPM */
static char *result[] = {
/* columns rows colors chars-per-pixel */
"64 64 74 1 ",
"  c #633F3F",
". c #63403F",
"X c #654341",
"o c #694644",
"O c #724D4A",
"+ c #76534E",
"@ c #79554F",
"# c #7A5651",
"$ c #805753",
"% c #815954",
"& c #875E58",
"* c #866059",
"= c #8D645D",
"- c #92655E",
"; c #8F6E61",
": c #936760",
"> c #936D62",
", c #9D6F66",
"< c #917164",
"1 c #9C7469",
"2 c #A4746B",
"3 c #A07D6E",
"4 c #A37F70",
"5 c #AD7B71",
"6 c #B17E74",
"7 c #AD8676",
"8 c #AB8C76",
"9 c #AC8E79",
"0 c #B28376",
"q c #B48578",
"w c #B5897A",
"e c #B98E7D",
"r c #AD907A",
"t c #B0917C",
"y c #BB907E",
"u c #B79680",
"i c #BD9381",
"p c #BC9A83",
"a c #C09683",
"s c #C19A85",
"d c #C49E88",
"f c #C6A48B",
"g c #C9A58C",
"h c #C7AB8F",
"j c #C9AB8F",
"k c #CDAD91",
"l c #CEB193",
"z c #D1B395",
"x c #D5B997",
"c c #D6B798",
"v c #D6BB9A",
"b c #D9BE9C",
"n c #D8BFA0",
"m c #DBC09E",
"M c #DBC3A5",
"N c #DCC4A8",
"B c #DFC9AE",
"V c #DFCAB0",
"C c #E1CDB4",
"Z c #E4D2BC",
"A c #E6D5C0",
"S c #E7D8C5",
"D c #E9D8C2",
"F c #E9DBC9",
"G c #EEE3D5",
"H c #EFE4D8",
"J c #F0E6DA",
"K c #F2E9DD",
"L c #F5EEE6",
"P c #F7F1EB",
"I c #F9F6F1",
"U c #FBF8F5",
"Y c #FFFFFF",
"T c None",
/* pixels */
"TTTTTTTTTTTTTTTTTTTTTTTTTTTTTTTTTTTTTTTTTTTTTTTTTTTTTTTTTTTTTTTT",
"TTTTTTTTTTTTTTTTTTTTTTTTTTTTTTTTTTTTTTTTTTTTTTTTTTTTTTTTTTTTTTTT",
"TTTTTTTTTTTTTTTTTTTTTTTTTTTTTTTTTTTTTTTTTTTTTTTTTTTTTTTTTTTTTTTT",
"TTTTTTTTTTTTTTTTTTTTTTTTTTTTTTTTTTTTTTTTTTTTTTTTTTTTTTTTTTTTTTTT",
"TTTTTTTTTXXXXX  .....................X.....X . X..XXXXXTTTTTTTTT",
"TTTTTTTTooooooooooooooooooooooooooooooooooooooooooooooooTTTTTTTT",
"TTTTTTTTOO+++@##@@@@@@@@#@@@@@@@#@@@@@#@@@###@@@##@@++OOTTTTTTTT",
"TTTTTTTO@##*=;;<<;<<;;;;;;<;;;;;;;;;;;;;;;;;;;;<<;;*&###OTTTTTTT",
"TTTTToO#%-:14889rr88r88888888888r8888888888r8rrr99741:&&#OoTTTTT",
"TTTTXoO#=,5wpfhhjhhhhhjjjhhhhjjjhhhhhjjhhhhhhhhjhhfiw5,=$OoXTTTT",
"TTTTXoO%:4wsklvvvcbmMMNBNMNMMMNNMMMMNNNNMNMmbvvvvvzksw4>%OoXTTTT",
"TTTTXo+*2qsgzvmbbmmNVZZDDDDDDDDDDDDDDDDDDDZCBmmmMvczks71&+oXTTTT",
"TTTTXo+*4pgzcvvbvvmVZGKKKKKKKKKKKKKKKKJKLKGDCNbvbmvclkp3=+oXTTTT",
"TTTT o+;7fzvvvvvcbNZGLIUUUUIIIIIIUIIIIIUUILGZMvxcvvvvlf8=@o TTTT",
"TTTTXo@<9hvbbvvvmNCFKUYYYYYYYYYYYYYYYYYYYYIJZNbxcvvbmxhr;#oXTTTT",
"TTTTXo#;rhbbbvnNBZSGPYYYYYYYYYYYYYYYYYYYYYUJZBvxxvvmmmhr<#o TTTT",
"TTTT o#<rhxmvvMBZGKPUYYYYYYYYYYYYYYYYYYYYYUKANvzxvvmbvjr;#o TTTT",
"TTTT o@<rhxmvvNZGLUUYYYYYYYYYYYYYYYYYYYYYYIHANvxxvvvbvh9;@o TTTT",
"TTTT o@;rhxmvvMZJIYYYYYUUUIPIIIIIIIIIIIUUILGZMvvvvvmMvh9<@o TTTT",
"TTTT o@;8hxvmvMZJUYYYYUILJJGGHGGHGHGHGHHHGFABMvvxvvmbvh9;@o TTTT",
"TTTT X+;rhxmbvBAJUYYYYULHSZZZZZZZZZZZZZZZZZBMvvvvvvmmvh9;+X TTTT",
"TTTT o+<rhxmvvMZJIYYYYILSCNMMNNNNNNMNNMNNNMMMvvvvvvvvvhr<#oXTTTT",
"TTTTo+#1rjvvvbNZJIYYYYIKSCNMMMNNNNNNNNNNNNMnmvvvvvvmmvhr<%OoTTTT",
"TTTO@#*8ykvvvvBAJIYYYYULHSZCZZCZZZZZZZZZAZVBMvxcxvvvmvhu3;%#OTTT",
"XoO#&:,7plvvvvNZJIYYYYUILKHHHHHHGGGGGGHJJHFZBvxzvvvbbvlp71:&#Oo ",
"XoO#&,5eflvvvvNZJIYYYYYYUIPIIIIIIIIIUIIUUILGZNvxvvvvbvzge5,&$Oo ",
"XoO$-20igzvvvvNAHIYYYYYYYYYYYYYYYYYYYYYYYYIKFVNMvvvvvvzgi62-$Ooo",
"XoO$:2qagzvvvvNZJIYYYYYYYYYYYYYYYYYYYYYYYYUPHFZBMnvvvvzgpw2:$OoX",
"XoO$:2wagzcvcvNZJIYYYYYYYYYYYYYYYYYYYYYYYYYIPKGZVMvvvvzgaq2-$Oo ",
"XoO$:20agzvcvvBZHIYYYYYYYYYYYYYYYYYYYYYYYYYYUILGZMvcvczga02-$OoX",
"XoO$-26igzvvvvNZJIYYYYYYUUIPIIIIIIPIIIIUYYYYYYIJANvvvvzgi02-$OoX",
"XoO$-20igzvvvvNZJUYYYYUILKHHGHGGHGHHHHKLIUYYYYUKAMvcvvzgi02-$OoX",
".oO$-20igzvvvvNAHIYYYYULHSZZZZZZZZZZCZSHLUYYYYUJANvvvczgi02-$Oo.",
"XoO$-20aglvcvvNZJIYYYYIKSCNMMNMNNNNNMNCSKIYYYYIKANvvvvzgi02-$Oo.",
"XoO$-20ygzcvvvNAHUYYYYULSCNMMMMNNNNMMNCFLIYYYYIHZNvvcvzgi02-$OoX",
"XoO$-20agzvvvvNAJUYYYYULHSZCZZZZZZZCZZSGLUYYYYUHANvcvczgp02-$Ooo",
"XoO$-20agzvvvvNAKUYYYYUILKHHHHHGGGHGGHKLIUYYYYILANvvvvzgy02-$Oo.",
"XoO$-20ygzcvvvNZHIYYYYYUUIIIIIPUIIIIPIIUUYYYYYIHZNvxvvzgaq2-$Oo.",
".oO$-2qpgzvvvvMZFLIUYYYYYYYYYYYYYYYYYYYYYYYYUULFZMvvvxlga02-#OoX",
"XoO$-20ygzvvvvnVAGLPUYYYYYYYYYYYYYYYYYYYYYYULLGAVMvvvvzji02-$+oX",
"XoO$-2qygzvvbvnNVZFJPYYYYYYYYYYYYYYYYYYYYYUPHFZBNbvvbvzgiq2-$Oo.",
"XoO$-2qagzvvvvvvnMVSKUYYYYYYYYYYYYYYYYYYYYILFVMnvvvbbvzgy02-$OoX",
"Xo+$-20ygzvvvvvvvvMZGLPUUUIUIUIIIIIIUPUUIILGZMvxvvvvbczga02-$Oo.",
"XoO#-2qakzvvnvvvzcMBZGJJJJJJHHHJHJJJJHHKKHGZBnxxvvvbbvzga02-$+oX",
".oO$-20agzvmvvvvvvmMBZZZZAAZZZZZZAZAZAZAAZZBMvvvvcvvbbzgaq2-$Oo.",
"XoO$-2qyglvnmvvvvvvmMMNNMMNNBNNNNNNNNNNNNNMMnvvvvvvmbvzgy02-$Oo.",
"XoO$-20ydklvxvvvvvvvvvvvvvvvvmvvvvvvvvvvvvvvvvvvvvvvvzjdyq2-#OoX",
"XoO$-20widhkzxmvvvvvvvvvxvvvvcvxvvvvvvvcvvvvvvvbmvvlkgdaw02-$+oX",
"XoO$-200wesgjcbmnbvvvbvvvcvcvvvvvvvvvvcvvvvvvbvbvvvkgaywq62-%Ooo",
"XoO$-25000wsgzvvvvvvvvcvvvcvccvvvcvvcvvcvvvcvvvvmvlhsw06752-%Oo.",
".oO$-255550yfjzzzzzlzzzzzzlzzlzzlzzllzzzzkzzzzlzzkkdy055552-$Oo.",
"Xo+%-255555qisfggfffffffffffgffgfffgffggfgffgffhghsiw555552-$OoX",
"XoO$-2555550weyiiiiiiiiiyiyyyiyyyyyyyyyyiiyiiieiiiew0555652:%Ooo",
".o+$-255555660qq0600000600qqqwq0q0qw00qq0000000000065655552:%Oo.",
"Xo+$:256555555555555555555555555555555655555555555555555052:$Oo.",
"XoO$:206656555555555555555555555555555555555555555555666652-$+oX",
"XoO%-266665655555555555555555555555565555555555555565666662:%OoX",
"XoO$-250555655555555555555555555555655555555555555555556552-%OoX",
"XoO$-,2222222222222222222222222222222222222222222222222222,-#OoX",
"XoO#&=::--->:---::::::::::::::::----::--:::::::::-::--::---*#OoX",
"TTT@@$$$$$%$%%%%#%%%%%%%#$%%%%%$%%%%%%%%$$%%%%$%$%%%$$%%%%$#@TTT",
"TTTTO+OOOO+OOOOOOOOOOOOOOOOOOOOOOOOOOOOOOOOOOOOOOOOOOOOOOOOOTTTT",
"TTTTooooooooooooooooooooooooooooooXoooooooooooooooooooooooooTTTT",
"TTTTXXXXX..o.X.oXXXXXXXXXXXXXXXXXXXXXXXXXXXXXXXXXXXXXXXXXXXoTTTT"
};
