/* XPM */
static char *result[] = {
/* columns rows colors chars-per-pixel */
"64 64 74 1 ",
"  c #633F3F",
". c #63403F",
"X c #654341",
"o c #694644",
"O c #724D4A",
"+ c #76534E",
"@ c #78554F",
"# c #7A5651",
"$ c #805753",
"% c #815954",
"& c #875E58",
"* c #866059",
"= c #8D645D",
"- c #92655E",
"; c #8F6E60",
": c #936760",
"> c #936C62",
", c #9D6F66",
"< c #917163",
"1 c #9C7469",
"2 c #A4746B",
"3 c #A07D6E",
"4 c #A37F70",
"5 c #AD7B71",
"6 c #B17E74",
"7 c #AD8676",
"8 c #AB8C76",
"9 c #AC8E79",
"0 c #B28376",
"q c #B48578",
"w c #B5897A",
"e c #B98E7D",
"r c #AD907A",
"t c #B0917C",
"y c #BB907E",
"u c #B79680",
"i c #BD9381",
"p c #BC9A83",
"a c #C09683",
"s c #C19A85",
"d c #C49E88",
"f c #C6A48B",
"g c #C9A58C",
"h c #C7AB8F",
"j c #C9AB8F",
"k c #CCAD91",
"l c #CEB193",
"z c #D1B395",
"x c #D5B997",
"c c #D6BB9A",
"v c #D8BE9C",
"b c #D8BFA0",
"n c #DBC3A5",
"m c #DCC4A8",
"M c #DEC9AE",
"N c #DFCAB0",
"B c #E0CAAC",
"V c #E1CCB3",
"C c #E4D0B5",
"Z c #E4D3BD",
"A c #E6D5C1",
"S c #E7D8C5",
"D c #E9D8C2",
"F c #E9DAC9",
"G c #EDE1D2",
"H c #EFE5D8",
"J c #F0E6DA",
"K c #F2E9DD",
"L c #F5EEE6",
"P c #F7F1EA",
"I c #FAF6F2",
"U c #FBF8F5",
"Y c #FFFFFF",
"T c None",
/* pixels */
"TTTTTTTTTTTTTTTTTTTTTTTTTTTTTTTTTTTTTTTTTTTTTTTTTTTTTTTTTTTTTTTT",
"TTTTTTTTTTTTTTTTTTTTTTTTTTTTTTTTTTTTTTTTTTTTTTTTTTTTTTTTTTTTTTTT",
"TTTTTTTTTTTTTTTTTTTTTTTTTTTTTTTTTTTTTTTTTTTTTTTTTTTTTTTTTTTTTTTT",
"TTTTTTTTTTTTTTTTTTTTTTTTTTTTTTTTTTTTTTTTTTTTTTTTTTTTTTTTTTTTTTTT",
"TTTTTTTTTXXXXX  .....................X............X.XXXTTTTTTTTT",
"TTTTTTTToooXooooooooooooooooooooooooooooooooooooooooooooTTTTTTTT",
"TTTTTTTTOO++++##@@@@@@@@#@@@@@@@@@@@@@#@@@@@#@@@#@@+++OOTTTTTTTT",
"TTTTTTTO@#%*=;;<;;;;;;;;<;;;<;;;;<;;;;;;;;;;;;;;<<;=*##@+TTTTTTT",
"TTTTToO#%-:14889r8888888888888889888988898888889r9741:-%@OoTTTTT",
"TTTTXoO%=,5wpfhhjjjjhhhhhhhhhjjjhhhhjjjjhhhhjjjjhhfpq5,=$OoXTTTT",
"TTTTXoO#:4wsgzcnnnnnmmmmmmmmmmnnmmmmnmnnmmmmBnnnnczgpe4:$OoXTTTT",
"TTTTXo+*2qsgzxnMCZDDDDDDDZDDDDDDZDDZDDDZZDDDDZZCMvczgsq1&OoXTTTT",
"TTTTXX+=7ygzzcnCFGKKKKKKKKKKKKKKKKKKKKKKKKKKKKGFCncxzgp3=+oXTTTT",
"TTTTXo+;8gzxxcnZGLUUUIIIIIIIIIIIUUIIIIIIIIIUUULGZmxxczf8;@o.TTTT",
"TTTT.o@;8hxvcvnZJIYYYYYYYYYYYYYYYYYYYYYYYYYYYYIJZmcccch9;@oXTTTT",
"TTTTXo@;rhcvccnDKUYYYYYYYYYYYYYYYYYYYYYYYYYYYYIKDnccvvhr;@o.TTTT",
"TTTT o#<9hccccnZKUYYYYYYYYYYYYYYYYYYYYYYYYYYYYUKZmccvxj9<@o.TTTT",
"TTTT o#;9hccvcBZJIYYYYYYYYYYYYYYYYYYYYYYYYYYYYIJAmccvcj9;@o.TTTT",
"TTTT.o@;9hcvvcnZGLIIUIIIIIIIIIIIIIIIIIIUYYYYYYIHZncvvch9<@o.TTTT",
"TTTT o@;9hcvvcnBDGJJJJHJJJJJJJHHHHHHHHLLIUYYYYIJZBcccch9;@o.TTTT",
"TTTT X+;9hcvccbnNZZAAZAZZAZDZZDZAAZZZZAGLUYYYYIHZBvcvxj9;+o TTTT",
"TTTT o+<9hcvvccbnnmmmmmmmmmmmmmnmmnnnmNFKIYYYYIJZmcxvcjr<@o.TTTT",
"TTTTo+#19hcvvcccccccccccccccccccccvvbmNFLUYYYYIJZmccvxjt<%OoTTTT",
"TTTO+#*8ukcbvcccczxxxxxcxczxxcxxzzcbMVSGLUYYYYUJDmccvxjy3;%@OTTT",
"ooO#&-,7plcvvcccxxxxzcxxxxxxzcczxzcMZFKLUUYYYYUJDmcxcclp71-%@OoX",
"XoO#&,5efzcvccccccccccccccccccczxcnZGLIYUYYYYYIJZmcccczfy5,=$OoX",
"XoO#-20igzcvcccccccccccccccccccbvmMFKIYYYYYYUILGZncccczgi02-$OoX",
"XoO$:2qaglcvcccccccccccccccxxxbbMZFJPUYYYYYUPLGABbcxcczgiw2-$OoX",
"XoO$:2wagzcvccccccccccccccczxxbMZGLPUYYYYYULHFZNmbcccczgaq2-$Oo.",
"XoO$:20agzcvvcccccxcccccccccccbZGLIUYYYYYYULFVnbvcccvczga02-$OoX",
"XoO$-26igzcccccccccccccccccbbmNFJUYYYYYYYILGZncxcccccczgi02-$OoX",
"XoO$-20igzcvvcccccccxccxxcbbMZFHLYYYYYYUPJGZMvxxzccvcczgi02-$OoX",
".oO$:2qigzccccccccccccccxcbMAGLPUYYYYYUPJFZMncxxxcccvclgiq2-#OoX",
"ooO$:20iflcvcxccxccccccxxcmCGLIUYYYYYYILFNnvvccccccccclgi02-$OoX",
".oO$-20igzccbccccccccccxxcnAJIYYYYYYUULGZncxccccccccvczgi02-$OoX",
"XoO#-20igzcvcccccccccccxxcmAJUYYYYUUPHGAmnxzxcccccccvvzgiq2:$OoX",
"XoO$=20igzcvvccccxcccccxxcmSJUYYYYUPHFZNnccxxccccccvcclgi02-$OoX",
"XoO$:20igzcvvcccccccccczxcbAJIYYYYILFNnbccccccccccccvclhi02-$OoX",
"XoO$:20ifzccccccbxcccccxxcmSHIYYYYIHZmcccccccccccccccclfi02-$OoX",
"XoO$:20igzcvcxccxxbxcccxxcmAJUYYYYUHZnxzxzccccccccccvcxfi02-$OoX",
"XoO$:20igzccvcccbzccxxbzxcmAJUYYYYUHZnczxxcccccccccvvczgiq2-$OoX",
".oO$-20igzcvccccccccbxccxcmAHIYYYYIHZncxxcccccccccccvczgi02-$OoX",
"XoO$-20igzcvvcccccccccczxcnZGLIIUILGZnccxccccccccccvvczgi02-#OoX",
"XoO$-20agzcvbcccccccccccxcbVSGHLLHGSMnczcccccccccccvvczga02-$OoX",
"XoO$-20igzbvbccccccccccccccmVCZDZZZMnvccccccccccccccvvzga02-$OoX",
"XoO$-20igzccvccccccccccccccbbmmmmmnnbvcccccccccccccvcczgi02-$OoX",
"XoO$:20idkzcxcccccccccccccccccccvcccccccccccccccvcczczkdi02-$OoX",
"XoO$-26widgkzxcvcccbccccvvccccxxxccccccvcccccccvvvczkgdaw62-$OoX",
"XoO$-250wesgkxcvbccbccccbccvccccccccccvvvcvvvcvvvczlgaywq62-%OoX",
"XoO$:25000wsgzcvxbccccccccccxcccxxcccccccccccccvvczfaw06052-%OoX",
"XoO%:256550edkzzlzzllzlzzzlzzlzzzzzzzzzkllzlllzzzlkde055552-%OoX",
"XoO%:255555widfgggggfffgffffffffffffffgfgffgffffgfdiw555552-%OoX",
"XoO%:2555550weiiiiiiiiiiiiiiiiiyyiiiiieiiiiiiieiiiew0555552:%OoX",
"XoO%:2555556600066q65u66000006q0000000q000000000qqq57555652:%OoX",
"XoO%:256555555555555555555555555555555555555555555555556652:$OoX",
"XoO$:256665555555555555555555555555555555555555555555656652:%OoX",
"XoO%-250666655555555555555555555565555555555555555556566052:%OoX",
"XoO%:256555555555555555555555555555555555555555555555556552:%OoX",
"XoO$-,2222222222222222222222222222222222222222222222222222,=$OoX",
"XoO#&=::-:::::--::::--::::::::::--::::::::::::::::::--::-:-&#OoX",
"TTT@#$%%%$%$%%$%$%%%%%%%#%%%$%%%%%%$#$$$%%%%%%%$%%%%$$$%%%$#@TTT",
"TTTTOOOOOOOOOOOOOOOOOOOOOOOOOOOOOOOOOOOOOOOOOOOOOOOOOOOOOOOOTTTT",
"TTTToooooooooooooooooooooooooooooooooooooXooooooooooooooooooTTTT",
"TTTTXXXXXXXXXXXXXXXXXXXXXXXXXXXXXXXXXXXXXXXXXXXXXXXXXXXoXXXXTTTT"
};
