/* XPM */
static char *result[] = {
/* columns rows colors chars-per-pixel */
"64 64 74 1 ",
"  c #633F3F",
". c #63403F",
"X c #654341",
"o c #694644",
"O c #724D4A",
"+ c #76534E",
"@ c #79554F",
"# c #7A5651",
"$ c #805753",
"% c #815954",
"& c #875E58",
"* c #866059",
"= c #8D645D",
"- c #92655E",
"; c #8F6E61",
": c #936760",
"> c #936D62",
", c #9D6F66",
"< c #917164",
"1 c #9C7469",
"2 c #A4746B",
"3 c #A07D6E",
"4 c #A37F70",
"5 c #AD7B71",
"6 c #B17E74",
"7 c #AD8676",
"8 c #AB8C76",
"9 c #AC8E79",
"0 c #B28376",
"q c #B48578",
"w c #B5897A",
"e c #B98E7D",
"r c #AD907A",
"t c #B0917C",
"y c #BB917D",
"u c #B79680",
"i c #BE9482",
"p c #BD9983",
"a c #C09683",
"s c #C29B85",
"d c #C49E88",
"f c #C6A187",
"g c #C5A38A",
"h c #C9A58C",
"j c #C7AB8F",
"k c #C9AB8F",
"l c #CCAC90",
"z c #CEB193",
"x c #D2B495",
"c c #D5B997",
"v c #D6BB9A",
"b c #D9BE9C",
"n c #D8BFA0",
"m c #DAC09D",
"M c #DBC3A5",
"N c #DCC5A8",
"B c #DEC8AE",
"V c #DFCAB0",
"C c #E1CCB3",
"Z c #E4D2BC",
"A c #E6D6C1",
"S c #E7D8C5",
"D c #E9D8C3",
"F c #E9DAC9",
"G c #EDE1D2",
"H c #EFE5D8",
"J c #F0E6DA",
"K c #F2E9DD",
"L c #F5EEE6",
"P c #F7F1EA",
"I c #FAF6F2",
"U c #FBF8F6",
"Y c #FFFFFE",
"T c None",
/* pixels */
"TTTTTTTTTTTTTTTTTTTTTTTTTTTTTTTTTTTTTTTTTTTTTTTTTTTTTTTTTTTTTTTT",
"TTTTTTTTTTTTTTTTTTTTTTTTTTTTTTTTTTTTTTTTTTTTTTTTTTTTTTTTTTTTTTTT",
"TTTTTTTTTTTTTTTTTTTTTTTTTTTTTTTTTTTTTTTTTTTTTTTTTTTTTTTTTTTTTTTT",
"TTTTTTTTTTTTTTTTTTTTTTTTTTTTTTTTTTTTTTTTTTTTTTTTTTTTTTTTTTTTTTTT",
"TTTTTTTTTXXXXX  XX...................X..X....X....XXXXXTTTTTTTTT",
"TTTTTTTToooooooooooooooooooooooooooooooooooooooooooooXooTTTTTTTT",
"TTTTTTTTOO+++@##@@@@#@@@#@@@##@@#@@@@@#@@@@@@#@####+++OOTTTTTTTT",
"TTTTTTTO@##*=;;<<<<;;;;-;;;;;;;;;;;;;;;;;;;;<;-<<;;=*##@OTTTTTTT",
"TTTTToO#%-:1488999998899888888889888888888899999r9741:&&#OoTTTTT",
"TTTTXoO%=,5wpgjjkkkkjjkkjjkkjkkkjjjjjkkjjjjjkkjkjjgpw52&$OoXTTTT",
"TTTTXoO#:4wslzvvbcbbMMNNNNNNNNNNNNNNNNNNNNMmmbvvvvxhpw5>%OoXTTTT",
"TTTTXo+*2qshxvmbbbmNCZZDDZDDDZDDZDDZDDDDDDZCNmvbvMvxhs91&+oXTTTT",
"TTTTXo+*4phxcvvvvbMBDGKKKKKKKKKKLKKKKKKKKKGDCMvvvbvczjp3=+oXTTTT",
"TTTT o@;7gxvvvvvcbMZGLIUUUIIIIIIIIIIIIIIUILGZMbvvvvvvzg8-@o.TTTT",
"TTTTXo@;9jvbbvvvbMCFKUYYYYYYYYYYYYYYYYYYYYIKFBNbbvvbmcj9;#oXTTTT",
"TTTTXo@<rlvnbvnNBZFHPYYYYYYYYYYYYYYYYYYYYYYPHFZBNbbbmmjr<#o TTTT",
"TTTT o#<rkvmvvMVZGKPUYYYYYYYYYYYYYYYYYYYYYYUPKGAVnvbmvkr;#o.TTTT",
"TTTT o@<9jcmvbNZGLIYYYYYYYYYYYYYYYYYYYYYYYYYYILGZMvvmvk8;#o.TTTT",
"TTTT o@<9jcvvvNZJIYYYYYUUIIIIIIIIIIIIIUUUYYYYYIHZNvbvvj9;@o.TTTT",
"TTTT o+;rkcbvvNZKUYYYYYUPKHHJJHJJHHHGHKLIUYYYYUJAMvvvcjr;@o.TTTT",
"TTTT X+;8jvbvvNAKUYYYYUPHFZZZAZZAZZZZZSGLUYYYYUKANbvbvk8;@o TTTT",
"TTTT o+<rjvvvvNZHIYYYYILFVNNMNNNNNNNMNVFLIYYYYIJANvvvvkr;@o.TTTT",
"TTTTo+#1tkvbvvMZGLUUUILGZNvcvvcvvvvvnMVSLUYYYYUHZNvvvvjt<&OoTTTT",
"TTTO+#*8ukvbbvMVSGHKKHGAVvcccxccccvMNZSGLUYYYYIHANvvbvky7=%@OTTT",
"ooO#&-,7pzvbvvnNVZZAAAZVMvvxcccczcvNZFKPIUYYYYUKANbcvvzp7<-%#OoX",
"XoO#&,5egzvvnvvnMMNNNNMnnvvvvvvxccMZGLIYYYYYYYIHZMvvvvzge5,=#OoX",
".oO$-20ihxvvvvvvvvvvvvvvvvvvvvvvbMCFKUYYYYYYUILGZMvvvvxhp02-$OoX",
"XoO$:2qahxvbvvvvccvxccxcvvvvvvvMBZFHPUYYYYYUPLGABMvvvvxhi02-$OoX",
"XoO$:2wahxvnvvvvvcxvvcvvvvvxccvVZGLPUYYYYYULJFZBMnvvvvxhaq2-$OoX",
"XoO$:20ihxvvvvvvvvvcvvvvvvvvcvMZGLIUYYYYYYULFCMnvvvbvvxha02-$OoX",
"XoO$-26ihxvvvvvvvvvvvvvvcvvvbMVFLIYYYYYYYILGZMvcvvvvbvxha62-$OoX",
"XoO$-20ihxvvvvvvvvvvvvvxcvvMVZFHLUYYYYYULKGABbcxvvvvvvxhi02-$OoX",
"XoO$:20ihxvvvvvvvvvvvvvcvxnBAGLPUYYYYYUPJFZBMvccvvvvvvxhp02-#OoX",
"XoO$:20ihxvbvvvvvvvvvvvvcvMZGLIUYYYYYYILFCMbvvvvvvvvvvxhi02-$OoX",
"XoO$-20ihxvvvvvvvvvvvvvvvNVFKIYYYYYYUULGZMvcvvvvvvvvvvxhi02:$OoX",
"XoO#-20ihxvnvvvvcccvzcvMBZFKPUYYYYUULKFZNvxcxcvcvvvvvvxhi02:$OoX",
"XoO$-26ihxcvvvvvvxcxcxmBAGKPUYYYYYULHSCBnvcxccccvvvvMvzhi02-$OoX",
"XoO$-20ihxvvvvvvvvvvvvMZGLUUYYYYYYUHFCNnvvvvvvvvvvvvvvxhi02-$OoX",
".oO$-20ihxvnvvvnMNNNMNVSLUYYYYYYYYULFVNnMNNNMMMMvvvvvvxhi02-$OoX",
"XoO$:20ihxvvvvnMBZZZAAFHLUYYYYYYYYULHSZZZZAZAAZVNnvvvvxhi02-$OoX",
"XoO$-20ihxcvvvMCAGHHHHLLIYYYYYYYYYUILKHGHHHKJJGACMvvvcxhi02-$OoX",
"XoO$-20ihxcvvvnZGLIUUIUUYYYYYYYYYYYYUUIIIIIUUILGZMvcvvxhi02-$OoX",
"XoO$-20ihxvvvvNAHIYYYYYYYYYYYYYYYYYYYYYYYYYYYYIJZMbvvvxhi02-#OoX",
"XoO$-20ihcvvvvNAKUYYYYYYYYYYYYYYYYYYYYYYYYYYYYUKANvvvvxha02-$OoX",
".oO$-20ahcvvvvNZKUYYYYYYYYYYYYYYYYYYYYYYYYYYYYUKANvvvvxha02-$OoX",
"XoO$-20igxcvvvNZJIYYYYYYYYYYYYYYYYYYYYYYYYYYYYIJANvcvcxhi62-$OoX",
"XoO$:20edlxccvNZGLIUUIIIIIIIIIIIIIIIIIIIIIIUUILGZMvccxldi62-$OoX",
"XoO$:20wadgkccMCFGJKKJJKKJJKJJJKJKJJKJJKKJJKKJGFCnvxlhdaw02:$OoX",
"XoO$-25wweaglcnBCZAAAAZZDZDZZZDZDZDZZDZZAAAAAAZCNbvkgaywq62-%Oo.",
"XoO$:25660wakxbbMMNNNNNMNNNNNMNNNNNNNNNMNMNNNMMMMvxhawq0652-%+o.",
"XoO%:255550edlxxxxxxcxxxxxxxxxzczxxxxxxxxxxxxxxxxxldeq55552-%Oo.",
"XoO%:255556widgggfffdfdfffffffffffffffffffffffggggdiq555552-%+oX",
"XoO%:2555550weiiieyyeiuiyyyyyyyyyyyyeyyyyyyyeyyiiiew0555552:%Oo.",
"XoO%:256555560000000666600000000000000000000060000065655052:%Oo.",
"XoO%:256655555555555555555555555555055555555555555555556552-%OoX",
"XoO%:256656555555555555555555555555555555555555555555656652-%+oX",
"XoO%:256666565555555555555555555555555555555555555565666062:%OoX",
"XoO%:256555655555555555555555555555555555555555555555556552-%OoX",
"XoO%-,2222222222222222222222222222222222222222222222222222,=%OoX",
"XoO#&=:---:::---::::::::::::::::----:::::::::::::-::--::---&#OoX",
"TTT@#%%%%%%%%%%%$$%%%%%$#%%%#%%%%%%%#%%%#%%%%%%$$%%%%%%%%%$#@TTT",
"TTTTOOOOOOOOOOOOOOOOOOOOOOOOOOOOOOOOOOOOOOOOOOOOOOOOOOOOOOOOTTTT",
"TTTTooooooooooooooooooooooooooooooooooooooooooooooooooooooooTTTT",
"TTTTXXXXX.XXXXXXXXXXXXXXXXXXXXXXXXXXXXXXXXXXXXXXXXXXXXXXXXXXTTTT"
};
