/* XPM */
static char *result[] = {
/* columns rows colors chars-per-pixel */
"64 64 75 1 ",
"  c #633F3F",
". c #63403F",
"X c #654341",
"o c #694644",
"O c #724D4A",
"+ c #76534E",
"@ c #79554F",
"# c #795650",
"$ c #805753",
"% c #815954",
"& c #875E58",
"* c #866059",
"= c #8D645D",
"- c #92655E",
"; c #8E6E61",
": c #936760",
"> c #916E62",
", c #9D6F66",
"< c #917164",
"1 c #9C7469",
"2 c #A4746B",
"3 c #A07D6E",
"4 c #A37F70",
"5 c #AD7B71",
"6 c #B17E74",
"7 c #AD8676",
"8 c #AB8B76",
"9 c #AC8E79",
"0 c #B28376",
"q c #B48578",
"w c #B5897A",
"e c #B98E7D",
"r c #AD907A",
"t c #B0917C",
"y c #BB907E",
"u c #B79680",
"i c #BD9381",
"p c #BC9A83",
"a c #C09683",
"s c #C19A85",
"d c #C49E88",
"f c #C6A48B",
"g c #C9A58C",
"h c #C7AB8E",
"j c #C9AB8F",
"k c #CDAD91",
"l c #CEB193",
"z c #D1B395",
"x c #D5B997",
"c c #D6B798",
"v c #D6BB9A",
"b c #D9BE9D",
"n c #D8BFA0",
"m c #DBC09E",
"M c #DBC2A5",
"N c #DCC4A8",
"B c #DFC8AE",
"V c #DFCAB0",
"C c #E1CCB3",
"Z c #E4D3BD",
"A c #E6D5C1",
"S c #E7D8C5",
"D c #E9D9C4",
"F c #E9DAC9",
"G c #EDE1D3",
"H c #EFE5D8",
"J c #F0E6DA",
"K c #F2E9DE",
"L c #F5EEE5",
"P c #F6EFE8",
"I c #F7F1EA",
"U c #FAF6F2",
"Y c #FBF9F6",
"T c #FFFFFE",
"R c None",
/* pixels */
"RRRRRRRRRRRRRRRRRRRRRRRRRRRRRRRRRRRRRRRRRRRRRRRRRRRRRRRRRRRRRRRR",
"RRRRRRRRRRRRRRRRRRRRRRRRRRRRRRRRRRRRRRRRRRRRRRRRRRRRRRRRRRRRRRRR",
"RRRRRRRRRRRRRRRRRRRRRRRRRRRRRRRRRRRRRRRRRRRRRRRRRRRRRRRRRRRRRRRR",
"RRRRRRRRRRRRRRRRRRRRRRRRRRRRRRRRRRRRRRRRRRRRRRRRRRRRRRRRRRRRRRRR",
"RRRRRRRRRXXXXX  X    X    XX  X .... X  ...........XXXXRRRRRRRRR",
"RRRRRRRRooooooooooooooooooooooooooooooooooooooooooooooooRRRRRRRR",
"RRRRRRRROO+++@###########################+#########+++OORRRRRRRR",
"RRRRRRRO@##*=;;<<;;<;;;;<>;;;;<;;;;;;=;;;;;;;;<;<;;=*##@ORRRRRRR",
"RRRRRoO#&=:1488rr999999999999999888898888888999r98941:&&#OoRRRRR",
"RRRRXoO#=,5wpfhhjhhhhhhhhhhhhhhhhhhhjjjhjhhhhhhjkhfpw5,=$OoXRRRR",
"RRRRXoO%:5wsklvvvvvxvvvvvvxxvvvbMNNNNNNNNNMMmvvvvvzgse4:%OoXRRRR",
"RRRRXo+*,wsglvbmmbbmbmbbbbbbbvmNCZZDDDZDZDZCNmmmbbvzgsq1&+oXRRRR",
"RRRRXo+*4pgzcvbbbbbbbbbbbbbvvvMCDGJKKKKKLKGDCNmvbbvcxhu3=+oXRRRR",
"RRRR o#;8fzvvvvvbvvvvvvvvvxxvvMZGPUYYUUYYULGZNvxvvvvvlf8=@o RRRR",
"RRRRXo#;9hvbbvvvvvxvvvvvvvbbnMVFKYTTTTTTTTUJZNmxxvvbmvhr<#oXRRRR",
"RRRR o#;9kvmnvvvvvvvvvvxxxvMBZFHIYTTTTTTTTUJZNvxxvvbmvhr<#o RRRR",
"RRRR o#<9hvmbbvvvvvvvvxxxxbBAGLPUTTTTTTTTTULAMvxxvvbbbh9<@o RRRR",
"RRRR o#<9hvbbvvvvvvvvvvvvvMZGLUYTTTTTTTTTTUHAMvxxvvbbvh9<#o RRRR",
"RRRR o@;9hvbbvvvvvvvvvvvnMVFHUTTTTTTTTTTTTUHAMvxxvvbbvh9;@oXRRRR",
"RRRR o#;9hvbbvvvvvvxxvvMVZFJPTTTTTTTTTTTTTUHANvxxvvbbvh9;@X.RRRR",
"RRRR X+;9hvbvvvvvvvvxxbBZGKIUTTTTTTTTTTTTTUHAMvcvvvbmvh9;@X RRRR",
"RRRR o#;9hvbbvvvvvvvxvBVGPUYTTTTTTTTTTTTTTUHANvvcvvbbvh9>#oXRRRR",
"RRRRo+#1rkvbbvvvxvvvnMVFKUTTTTTYYUUYYTTTTTUHZMvxxvvbbvht<&OoRRRR",
"RRRO+#*8ukvbvvvxxvvMBZFHPTTTTTYULLKPUTTTTTUJAMvxxvvvbvju1=$@ORRR",
"XoO#&:,7plvbbvvxlvbBAGHPUTTTTTYIGFFHPYTTTTUJANvxxvvbbvkp91:&#OXX",
"XoO#&,5efzvbvvvvvvMZGLUTTTTTTTYKSVVSKUTTTTUHZNvxvvvvbvzfy5,&$OoX",
"XoO$-20igzvvvvvbnMVFLUTTTTTTYULGZMNAHUTTTTUHAMvxxvvvbvzgp02-$OoX",
"XoO$:20agzvvvvnMBZFHIYTTTTYUIKFZMbMVGUTTTTUHZMvxxvvbvvzgp02:$OoX",
"XoO$:2wagzvvvvMBAGLPUTTTTTYLGSVNbvMZHUTTTTUHZMxxxxvvbvzgaq2-$OoX",
"XoO$-26agzvvxvMZGLYYTTTTTTULFVMbvvMAHUTTTTUHAMvxxvvvvvzga02-$OoX",
"XoO$-20agzvvvvNZHUTTTTTTTTUKFVNMMMVFKYTTTTULSVMnbvvvbvzga62-$OoX",
"XoO$-20igzvvxvNAHYTTTTTTTTYPGFZZZZSHPYTTTTYPHFZVMnvvvczga02-$OoX",
"XoO$-20ifzvxvvNAKUTTTTTTTTTIPKHGGHKPUYTTTTTUPKGZVMvxvxzgp02-$Oo.",
"XXO$-20ifzvvvvNZJUTTTTTTTTTTYYUUUUYYTTTTTTTTTUPGZMvxbxzgi02-$Ooo",
"XoO$-20agzxvxvNAJUTTTTTTTTTTTTTTTTTTTTTTTTTTTTIHZNvvvxzga02-%Oo.",
"XoO$-20igzvvvvNZJUTTTTTTTTTTTTTTTTTTTTTTTTTTTTTJSNvxvxzgy02-%Oo.",
"XoO$-20igzvvvvNAKYTTTTTTTTTTTTTTTTTTTTTTTTTTTTYHSMvvvxzgy02-$Oo.",
"XoO$-20igzcvvvNAJUTTTTTTTTTTTTTTTTTTTTTTTTTTTTUHZNvvvvzga02-$OoX",
"XoO$-20agzvxvvMZFPUUYUUUUUUUUUUUUUUYTTTTTTTTTULGZMvvvxzga02-%OoX",
"XoO$-20agzxbvvnCSGJKJKHJHJHHHHHHHJKPUTTTTTTUIKGABMvvvvzgi02-$OoX",
"XoO$-20igzvbvvnMCZAAZAZAAZAAAZAZZZFHPYTTTTYIHFZVMbvbbvzgp02-$Oo.",
"XoO$-20agzvvvvvnMMNMNNNMNMMNNMMMMNVFLUTTTTULFVMnbvvvvvzga02-$OoX",
"XoO$-20igzvbbvvvvvvvvvvvvvvvvvvxxvNZGLUYYULGVBvxvvvvbvzgi62-$OoX",
"XoO$-20agzvbvvvvcxxxxxxvxxxxvxxxxvbBAGHKKHGABnxxvcvbbvzga02-$OoX",
"XoO$-20ygzvnvvvvxxxxxxxxxxxvxxxcxxbMVZAAAAZBMbvxxvvvbbzgp02-$OoX",
"XoO$-20ahzvvvvvvvvvvvvvvvvvvvvvvvvvbnMMNNMMMbvvvvvvvvvzga02-$OoX",
"XoO$-20edklvvvvvvvvvvvvvvvvvvvvvvvvvvvvvbvvvvvvvvvvvczjde62-%Oo.",
"XoO%-26eidgkzvvbbvbbvvbvbvvvvvbvvvvvvvvvvxvvvvbvbvcxlgdaw02-%OoX",
"XoO$-26wwysfkvvbvnvvbvvvbvbvvvvbbvbvvvvvvvvvvbbbbvvkfayw062-%OoX",
"XoO%:25560wsgzvbvnvvvvvvvvvvvvvvvvvvxvxxcvvvvvvvvvzhsw00652-%OoX",
"XoO%-256550ydjlzzzzzzzzzzzlzzzzzzzzzzzzzzlzzlzlzzzksy055652-%OoX",
".oO%-255555widfgfffffffffffffffffffffffgffffffffgfdiw555552-%OoX",
"XoO%-2555550weiiiiiiiiiiiiiiiieiyyayyyiyyiyiiiiiiiew0555552:%OoX",
"XoO%:2555556600000006006000000000000000qq000060000055655652:%OoX",
"XoO%:256555555655555555555555555556655555565555555555555652:%Oo.",
"XoO%:250655555555555555555555555555555555555555555555666652:%OoX",
"XoO%-260665655555555555555555555556555555555555555556566052:%OoX",
"XoO%-256556655555555555555555555555555555555555555555556552:%OoX",
"XoO$-,22222222222222222222222222,22222,2222222222222222222,=%OoX",
"XoO#&=:---:::---::::::::::::::::::::::::::::::::::::--::-:-&#OoX",
"RRR@#%%%%%%%%%%%%$%%%%%$#$$$$%%%%%%$$$$&%%%%%%%%$%%%%%%%%%$#@RRR",
"RRRROOOOOOOOOOOOOOOOOOOOOOOOOOOOOOOOOOOOOOOOOOOOOOOOOOOOOOOORRRR",
"RRRRoooooooooooooooooooooooooooooooooooooXooooooooooooooooooRRRR",
"RRRRXXXXX.XXXXXXXXXXXXXXXXXXXXXXXXXXXXX XXXXXXXXXXXXXXXXXXXXRRRR"
};
