/* XPM */
static char *result[] = {
/* columns rows colors chars-per-pixel */
"64 64 75 1 ",
"  c #633F3F",
". c #63403F",
"X c #654341",
"o c #694644",
"O c #724D4A",
"+ c #76534E",
"@ c #79554F",
"# c #7A5651",
"$ c #805753",
"% c #815954",
"& c #875E58",
"* c #866059",
"= c #8D645D",
"- c #92655E",
"; c #8F6E61",
": c #936760",
"> c #936C62",
", c #9D6F66",
"< c #917163",
"1 c #9C7469",
"2 c #A4746B",
"3 c #A07D6E",
"4 c #A37F70",
"5 c #AD7B71",
"6 c #B17E74",
"7 c #AD8676",
"8 c #AB8C76",
"9 c #AC8E79",
"0 c #B28376",
"q c #B48578",
"w c #B5897A",
"e c #B98E7D",
"r c #AD907A",
"t c #B0917C",
"y c #BB907E",
"u c #B79680",
"i c #BD9381",
"p c #BC9A83",
"a c #C09683",
"s c #C19A85",
"d c #C49E88",
"f c #C6A48B",
"g c #C9A58C",
"h c #C7AB8F",
"j c #C9AB8F",
"k c #CCAD91",
"l c #CEB193",
"z c #D1B395",
"x c #D5B997",
"c c #D6BB9A",
"v c #D9BE9C",
"b c #D8BFA0",
"n c #DAC09D",
"m c #DBC3A5",
"M c #DCC4A8",
"N c #DEC9AF",
"B c #DFCAB0",
"V c #E0CAAC",
"C c #E1CCB3",
"Z c #E4D0B5",
"A c #E4D2BD",
"S c #E6D5C1",
"D c #E7D8C5",
"F c #E9D8C2",
"G c #E9DBC9",
"H c #EEE3D5",
"J c #EFE5D8",
"K c #F0E6DA",
"L c #F2E9DD",
"P c #F5EEE6",
"I c #F7F1EB",
"U c #F9F6F1",
"Y c #FBF9F5",
"T c #FFFFFF",
"R c None",
/* pixels */
"RRRRRRRRRRRRRRRRRRRRRRRRRRRRRRRRRRRRRRRRRRRRRRRRRRRRRRRRRRRRRRRR",
"RRRRRRRRRRRRRRRRRRRRRRRRRRRRRRRRRRRRRRRRRRRRRRRRRRRRRRRRRRRRRRRR",
"RRRRRRRRRRRRRRRRRRRRRRRRRRRRRRRRRRRRRRRRRRRRRRRRRRRRRRRRRRRRRRRR",
"RRRRRRRRRRRRRRRRRRRRRRRRRRRRRRRRRRRRRRRRRRRRRRRRRRRRRRRRRRRRRRRR",
"RRRRRRRRRXXXXX  ...X.................X..X..X.X....XX.XXRRRRRRRRR",
"RRRRRRRRoooXooooooooooooooooooooooooooooooooooooooooooooRRRRRRRR",
"RRRRRRRROO++++##@@@@#@@@#@@@#@#@#@@@@@#@@@@#+#+##@@+++OORRRRRRRR",
"RRRRRRRO@#%*=;;<;;;;;;;;;;;;;;;;;;;;;;;;;;;;;;><<;;=*###ORRRRRRR",
"RRRRRo+#&&:14888988888988888888899888888888r899998741>=%#OoRRRRR",
"RRRRooO#-,5wpfhhjjjhhhhhhhhhhhhkhhhhhkhhhhhhhjhjhhfpq5,=$OoXRRRR",
"RRRRXoO#:4wsjlvmmmMMmMMmMMmMmMmmMMmMmmMMmmmmvccxvczgsw5>%OoXRRRR",
"RRRRXoO*2qsgzxmNZAFFFFFFFFFFFFFFFFFAFFFFFFACVmvvnvczks71&+oXRRRR",
"RRRRXo+=7igzxxMCFHLLLLLLLLLLLLLLLLLLLLLLPLHAVmvxvvcxlku3=+oXRRRR",
"RRRRXo+;8fzxxxMAHPUYYUUUUUUUUUUUUUUUUUUUUUPHAmcxccccvlf8=@o RRRR",
"RRRR.o@;8fxvxvVAKUTTTTTTTTTTTTTTTTTTTTTTTTUPGCmmvccvnchr;@oXRRRR",
"RRRR.o@<rhvvvxMALYTTTTTTTTTTTTTTTTTTTTTTTTYIKGZVmbcvnnhr<@o RRRR",
"RRRR o#<rhvvxvMSLYTTTTTTTTTTTTTTTTTTTTTTTTTYILGSBbcvvvhr<@o RRRR",
"RRRR o@<rhcvxvMSJUTTTTTTTTTTTTTTTTTTTTTTTTTTYYIHAmccvxh8;@o RRRR",
"RRRR o@<8hcvvcmZHPUYUUUUUUUUUUUUUUYYYTTTTTTTTTUJSmvcvch9;@o RRRR",
"RRRR o+;8hcvvvmNSHJJJJJJHJJJJHJHHHLPYYTTTTTTTTULSmvcvch9<@o RRRR",
"RRRR X+;8hcnvcbMBASSAAAZAAZAAAAAZSSHPYTTTTTTTTULSmccvch8;+X RRRR",
"RRRR o+<rhcvvcvvmmmMMMMMMMMMmMmmmMBGLUTTTTTTTTUKSMvcxcj9>#oXRRRR",
"RRRRo+#1tkcmvccccccbmMMNmMMmMMmmmMBGPUTTTTTTTTUJSmvcvcjr<&OoRRRR",
"RRRO+#*8thcvvcccxxvmBBZAAAAAAAAZAADJPYTTTTTTTTULSmccvcku8=$#ORRR",
"ooO#&:,7plcvmccllcbNAGJJJJJJJJHHHJJPUYTTTTTTTTUJSMcccckd7>:&@OXX",
"XoO#&,5eflcvccccccmZHIUYYUUUUUUUUUUYTTTTTTTTTTUKAmcccczdt5,&$OoX",
"XoO#-20igzcvvcczccMSKUTTTTTTTTTTTTTTTTTTTTTTTTUKSmcccczgi02-$OoX",
"XoO$:2qagzcvcccxlcMSKYTTTTTTTTTTTTTTTTTTTTTTTTUJSMcxcczgaw2:$OoX",
"XoO$:2qagzcvcccxccMSPYTTTTTTTTTTTTTTTTTTTTTTTTYJSMvcxczgaw2-$OoX",
"XoO$:20agzcccccxccMSKITTTTTTTTTTTTTTTTTTTTTTTTYJAmccvxzga62-$OoX",
"XoO$-26agzcvvcccxcmBHIUYUUUUUUUUUUYYYTTTTTTTTTUJSmcccxzgi62-$OoX",
"XoO$-20igzcbcccczcmNAGJJJJJJJJHJHJKPYYTTTTTTTTUJSmcccxzgaq2-$OoX",
"XoO$:20igzcvcccxxccmNZAAAAAAASAAZADHPYTTTTTTTTUJSMvccclgi02-$OoX",
"XoO$:20agzcvvcccccvbmmMMMMMMmMmmmMBGLUTTTTTTTTYJSMcxcxzgi02-$OoX",
"XoO$-26ifzcccccbbmmmmMMMMMmmmMmmmmBGPUTTTTTTTTUJSMcccczgi02-$OoX",
"XoO$-2qpgzcvccbmBASASAAZAAAAAAAZZSDJPYTTTTTTTTYJSMcxcvzgi02-$OoX",
"XoO#-20igzccccbCSHJJKJJJHHJJHJHHHJKPITTTTTTTTTYKAMcxcczga02-$OoX",
"XoO$-26igzccccmAHPUYUUUUUUUUUUUUUUYYYTTTTTTTTTUJSMcccczgi02-$OoX",
"XoO$-20igzccccMSJUTTTTTTTTTTTTTTTTTTTTTTTTTTYUIHAmcxcclgi02-#OoX",
"XoO$:20igzccccMSPYTTTTTTTTTTTTTTTTTTTTTTTTTUIPGSNmcccxlgi02-$OoX",
"XoO$-26agzvcxcMSJYTTTTTTTTTTTTTTTTTTTTTTTTYIJGABmbccvczga02-$OoX",
"XoO$-20igzxcccmSJUTTTTTTTTTTTTTTTTTTTTTTTTUPGBmbbccccczgi02-$OoX",
"XoO$-20igzccccmAHIUUYYUUYUUUUUUYUUUUUUUUYUPGZMvccccvvczgi02-$OoX",
"XoO$-20agzccxvmBSGJPJJJJKKJKJJJKKKJJKKKJKJHSNbxlxxcvvcxga02-$OoX",
"XoO$-20igxbvccbMBAASSSSASSSSASSSSAASSASSSSBBMvcxccccvvzgi02-$Oo.",
"XoO$-20igzcccccvmmMMMMMMMMmmMMMMMMMMMMMMMMmmbccccccvxczgi02-$OoX",
"XoO$:20idkzcccccccccccvcccccccccccccccccvcccccccccccczjfy02-$OoX",
"XoO$-26wppgkzcvccccxxccccxccxcxxcccccccxcccccvcbbcczkgdaw02-$OoX",
"XoO$-250wysfkcxvcccccccccccxcccccccxxxccccvcvvvvvvxkfaiww52-$OoX",
"XoO$:25060wsgzcvcbcccxccxccccxxcxcxxvxcxxccccccccczgsw05052:%OoX",
"XoO%:256550ydkzzzzzzkzzzzzkzzzkzzzzzzzzzzkzllllzzlkdeq55552:%OoX",
"XoO%-255555widfggffgffffffffffgffffgfffffgfffgffgfdiw655552-%OoX",
"XoO%:2555550weiiiiiiiiiiiiiiiiiiiiiiiyiiiiiiiiiiiiiw0555552:%OoX",
"XoO%:2555556600066q6qq6q00q00600000600000000060000055555552:%OoX",
"XoO%:256555555555555555555555555555555555555555555555555652:%OoX",
"XoO%:256665555555555555555555555555555555555555555555566652:%OoX",
"XoO%:256666565555555555555555555555555555555555555565666662:%OoX",
"XoO%:256555555555555555555555555555555555555555555555556552:%OoX",
"XoO$-,22222222222222,222,222222222222222222222222222222222,=$OoX",
"XoO#&=::::::::--:::::::::::::::::::::::::::::::::-:::-::::-&#OoX",
"RRR+#$%%$%%$%%$%%%%%%%%$$$%%$%%%%%%%#$%%%%%%%%%%$$%%%%$%$&%#+RRR",
"RRRROOOOOOOOOOOOOOOOOOOOOOOOOOOOOOOOOOOOOOOOOOOOOOOOOOOOOOOORRRR",
"RRRRooooooooooooooooooooooooooooooooooooooXoooooooooooooXoooRRRR",
"RRRRXXXXXXXXXXXXXXXXXXXXXXXXXXXXXXXXXXXXXXXXXXXXXXXXXXXXXXXXRRRR"
};
