/* XPM */
static char *result[] = {
/* columns rows colors chars-per-pixel */
"64 64 74 1 ",
"  c #633F3F",
". c #63403F",
"X c #654341",
"o c #694644",
"O c #724D4A",
"+ c #76534E",
"@ c #78554F",
"# c #7A5651",
"$ c #805753",
"% c #815954",
"& c #875E58",
"* c #866059",
"= c #8D645D",
"- c #92655E",
"; c #8F6E60",
": c #936760",
"> c #936C62",
", c #9D6F66",
"< c #917163",
"1 c #9C7469",
"2 c #A4746B",
"3 c #A07D6E",
"4 c #A37F70",
"5 c #AD7B71",
"6 c #B17E74",
"7 c #AD8676",
"8 c #AB8C76",
"9 c #AC8E79",
"0 c #B28376",
"q c #B48578",
"w c #B5897A",
"e c #B98E7D",
"r c #AD907A",
"t c #B0917C",
"y c #BB907E",
"u c #B79680",
"i c #BD9381",
"p c #BC9A83",
"a c #C09683",
"s c #C19A85",
"d c #C49E88",
"f c #C6A48B",
"g c #C9A58C",
"h c #C7AB8F",
"j c #C9AB8F",
"k c #CCAD91",
"l c #CEB193",
"z c #D1B395",
"x c #D5B997",
"c c #D6BB9A",
"v c #D8BE9C",
"b c #D8BFA0",
"n c #DBC3A5",
"m c #DCC5A8",
"M c #DFC9AF",
"N c #DFCAB0",
"B c #E0CAAC",
"V c #E1CDB4",
"C c #E4D0B5",
"Z c #E4D2BC",
"A c #E6D5C1",
"S c #E7D8C5",
"D c #E9D8C2",
"F c #EADBCA",
"G c #EEE3D6",
"H c #EFE4D8",
"J c #F0E6DA",
"K c #F2E9DD",
"L c #F5EEE6",
"P c #F7F1EB",
"I c #F9F6F1",
"U c #FBF8F5",
"Y c #FFFFFF",
"T c None",
/* pixels */
"TTTTTTTTTTTTTTTTTTTTTTTTTTTTTTTTTTTTTTTTTTTTTTTTTTTTTTTTTTTTTTTT",
"TTTTTTTTTTTTTTTTTTTTTTTTTTTTTTTTTTTTTTTTTTTTTTTTTTTTTTTTTTTTTTTT",
"TTTTTTTTTTTTTTTTTTTTTTTTTTTTTTTTTTTTTTTTTTTTTTTTTTTTTTTTTTTTTTTT",
"TTTTTTTTTTTTTTTTTTTTTTTTTTTTTTTTTTTTTTTTTTTTTTTTTTTTTTTTTTTTTTTT",
"TTTTTTTTTXXXXX  .....................X.......X.......XXTTTTTTTTT",
"TTTTTTTToooXooooooooooooooooooooooooooooooooooooooooooooTTTTTTTT",
"TTTTTTTTOO++++##@@@@@@@@#@@@@@@@@@@@@@#@@@@@+#@@###++++OTTTTTTTT",
"TTTTTTTO@#%*=;;<;;;;;;;;<;;;;;;;;<;;;;;;;;;;;;;;<;;=*##@OTTTTTTT",
"TTTTToO#%-:14889r888888888888888988888888888888r99741:=%#OoTTTTT",
"TTTTXoO#=,5wpfhhkjhhhhhhhhhhhhhkhhhhhkhhhhhhhjkhhhfpw4,=$OoXTTTT",
"TTTTXo+#:4wsglcnnnnnmmmmmmmnmmnnmmmmnnnnmmmmnnnnnxzgae7:%OoXTTTT",
"TTTTXo+*2qsgzxnMCZDDDDDDDDDDDDDDDDDZDDDDDDDDDDZCMnczgsw1&+oXTTTT",
"TTTTXo+*3pgzxcnVDGJKKKKKJKJKKKKKKKKKKKKKJKKKKKGDCnxxzgp1=+oXTTTT",
"TTTTXo+;8fzxxxnZGLUUUIIIIIUUIIIIIIIIIIIIIIIUUULGCmxxxzf8;+o.TTTT",
"TTTT.o#;8gxvccmZJIYYYYYYYYUYYYYYYYYYYYYYYYYYYYIJAmvcvch9;@oXTTTT",
"TTTTXo#;rkcvvvmDJUYYYYYYYYYYYYYYYYYYYYYYYYYYYYUKAmxvvchr<@o TTTT",
"TTTT o#<9kcvccmAKIYYYYYYYYYYYYYYYYYYYYYYYYYYYYUHAmcvvck9<@oXTTTT",
"TTTT o#<9hxvcvmAJIYYYYYYYYYYYYYYYYYYYYYYYYYYYYUGAmccvxh9<@o.TTTT",
"TTTTXo+;9hxvccmZJIYYYYYUUUIIIIIIIIIIIIIIIIUIUILGCnvcvxh9;#o.TTTT",
"TTTT o@;9hxvccmAJIYYYYUILHHGGGGHHGHGHGGGHGHHHHGAVncvvxh9;+X.TTTT",
"TTTT X+;9hccccmAHIYYYYULHSZZZZZCCZZZZZZZCZZAAZZNmvcvvch9;+o TTTT",
"TTTT o@;9hcvcxmZJIYYYYILFNmnnmmmmmmmmmnmmmmmmmnnbccvbch9;#o TTTT",
"TTTTo+#1rhxvxvmAHIYYYYIKSNmbnmmmmmmmmmmmmmnnbccccccvvck91#OoTTTT",
"TTTO@#*7ukxvccmAJIYYYYULGSZZZZZCZZCZZZZZZZNMnxxxxxcvvckp3;$#OTTT",
"XoO#&-17pkxvxvmAJIYYYYUULKHGGHGHHHGHGGHJHHGZmczzzccvvcls71:&#Oo ",
"XoO#&,5efzxcccmAJIYYYYYUUUIIIIIIIIIIIIIIUPKGNmcxxccvbczfy5,&#OoX",
"XoO$-20igzxvxcmZHIYYYYYYYYYYYYYYYYYYYYYYYYUKGNmbbcccvxzgp02-$Oo ",
"XoO$-2wagzcxxcmAKUYYYYYYYYYYYYYYYYYYYYYYYYYPHSZMmbccvczgiq2:$Ooo",
"XoO$:2qagzcxxvmAKUYYYYYYYYYYYYYYYYYYYYYYYYYUPHGANncccczgaq2-$OoX",
"XoO$-20agzccccmAHIYYYYYYYYYYYYYYYYYYYYYYYYYUYILGNmcccxzga02-$OoX",
"XoO$-20igzccxcmZGLIUIIIIIIIPIIIIIIIIIIIUYYYYYYIHAmcccczgi02-$Oo ",
"XoO$-20igzcccvbNZFHHJHHHHHHHHHHHHGHGGHKLIUYYYYUKAmcxxxzgi02:$OoX",
" oO$:20igzcvccbbNNZZZZCZZZCZZZZZCZZZNASGLUYYYYUHAmcxcxzgi02:#Oo ",
"XoO$:20igzccbccbnmmmmmmmmmmmmmmmmmmmmmNSKUYYYYUJAmcxcczgi02:$OoX",
"XoO$:20igzcvcccbbmmmmmmmmmmmmmmmmmmmnmNFKIYYYYIHAmcccxzgi02:$OoX",
"XoO#-20igzccccbnMZZZZAZCZZZZZCCZZZZNNASHLUYYYYUHAmcccczfi02:$OoX",
"XoO$-26igzcccvnMAFGHJHHHHHHHHHHHHGGGHHHPIUYYYYUJAmccccxfi02-$OoX",
"XoO$-20igzccccnZGLIUIIIIIIIPIIPIIIIIUIUUUYYYYYIHAmcxcxlgi62-$OoX",
"XoO$:20igzccxcmAHIYYYYYYYYYYYYYYYYYYYYYYYYYYUULFNmcccclgiq2-$OoX",
"XoO$:20igzccxxmALUYYYYYYYYYYYYYYYYYYYYYYYYYUPKGANncccclhi02:$OoX",
"XoO$-20igzccxcmSHUYYYYYYYYYYYYYYYYYYYYYYYYUPHFZMmbcvcczgiq2-$OoX",
"XoO$-20igzccccmAHIYYYYYYYYYYYYYYYYYYYYYYYYUKSMnnccccvczgi02-$OoX",
"XoO$-20ifzccxcmZGLIUUIIIUUIIIIIUIIIIUIIUIIPGZncxxccvbxzgi02-#OoX",
"XoO$-20agxccccbNAGHHHKHHHHHHHHHHHKHHHHHKHHGZMnxxxcccbczga02:$OoX",
"XoO$-20agxccccbnNZASAAAZAAAAAAAAAZAAZAAAAAZNnccxcccvvvxga02-$OoX",
"XoO$-20igzcbcccnnnmmmmmmmmmmmmmmmmmmmmmmmmnnnccccccccczgi02-$OoX",
"XoO#:20iskzcccccxccccvvcccccxccvccccccccccccxcccccccxzkdi62-$OoX",
"XoO$:26qpdgkzccccxcxxxxxxccxcxxxcxccxxcxxxccccccbcczkgdie62-$OoX",
"XoO$-250wesfkxvvcccccxccxcxcccxcxcxccxxxcccccvvvvcxkfsewq52-%OoX",
"XoO%-2506qwsgzcxcbccccccccccxxcccccccccxxcxcccccvczgaw00652:%OoX",
"XoO%:256550edkzxzzlklzzzzzzklzkzzzzkzzzzzzzllzzzzzkdi055652:%OoX",
"XoO%-255556widffgffddgdgfffggfgffgfgfffffgfgffffggsiw555552-%OoX",
"XoO%:2555556qiiiiiiiiiiiiiiiiiiiiiiiiieiiiiiiiiiiiiq0555652:#OoX",
"XoO%:25655666070666u5u6606qq0600000600q000000q0007065555552:%OoX",
"XoO%:256555555555555555555555555555555555555555555555556652:%OoX",
"XoO%:256665555555555555555555555555555555555555555555566652:%OoX",
"XoO%:266666565556555555555555565555555555555555555565666662:%OoX",
"XoO$:256555555555555555555555555555555555555552555555556552:%OoX",
"XoO$=,2222222222222222222222222222222222222222222222222222,=$OoX",
"XoO#&=::::::::--:::::::::::::::::::::::::::::::::-:::-::::-&#OoX",
"TTT+#$%$%%%$$$%%$$%%%%$$#$%%%$%%%%$$#$$$$%%%%%%$$$%%$%%%%%%#+TTT",
"TTTTOOOOOOOOOOOOOOOOOOOOOOOOOOOOOOOOOOOOOOOOOOOOOOOOOOOOOOOOTTTT",
"TTTTooooooooooooooooooooooooooooooooooooooooooooooooooooooooTTTT",
"TTTTXXXXXXXXXXXXXXXXXXXXXXXXXXXXXXXXXXXXXXXXXXXXXXXXXXXXXXXXTTTT"
};
