/* XPM */
static char *result[] = {
/* columns rows colors chars-per-pixel */
"64 64 75 1 ",
"  c #633F3F",
". c #63403F",
"X c #654341",
"o c #694644",
"O c #724D4A",
"+ c #76534E",
"@ c #79554F",
"# c #7A5651",
"$ c #805753",
"% c #815954",
"& c #875E58",
"* c #866059",
"= c #8D645D",
"- c #92655E",
"; c #8F6E61",
": c #936760",
"> c #936C62",
", c #9D6F66",
"< c #917163",
"1 c #9C7469",
"2 c #A4746B",
"3 c #A07D6E",
"4 c #A37F70",
"5 c #AD7B71",
"6 c #B17E74",
"7 c #AD8676",
"8 c #AB8C76",
"9 c #AC8E79",
"0 c #B28376",
"q c #B48578",
"w c #B5897A",
"e c #B98E7D",
"r c #AD907A",
"t c #B0917C",
"y c #BB907E",
"u c #B79680",
"i c #BD9381",
"p c #BC9A83",
"a c #C09683",
"s c #C19A85",
"d c #C49E88",
"f c #C6A48B",
"g c #C9A58C",
"h c #C7AB8F",
"j c #C9AB8F",
"k c #CCAD91",
"l c #CEB193",
"z c #D1B494",
"x c #D5B997",
"c c #D6BB9A",
"v c #D8BE9B",
"b c #D8BFA0",
"n c #DAC09D",
"m c #DBC3A5",
"M c #DCC4A8",
"N c #DFC9AF",
"B c #DFCAB0",
"V c #E0CAAC",
"C c #E1CCB3",
"Z c #E4D0B5",
"A c #E5D3BE",
"S c #E6D5C1",
"D c #E9D8C2",
"F c #E9DAC8",
"G c #EDE1D3",
"H c #EFE5D9",
"J c #F0E6DA",
"K c #F3E9DD",
"L c #F5EEE6",
"P c #F5EFE8",
"I c #F7F1EB",
"U c #F9F6F2",
"Y c #FBF9F5",
"T c #FFFFFF",
"R c None",
/* pixels */
"RRRRRRRRRRRRRRRRRRRRRRRRRRRRRRRRRRRRRRRRRRRRRRRRRRRRRRRRRRRRRRRR",
"RRRRRRRRRRRRRRRRRRRRRRRRRRRRRRRRRRRRRRRRRRRRRRRRRRRRRRRRRRRRRRRR",
"RRRRRRRRRRRRRRRRRRRRRRRRRRRRRRRRRRRRRRRRRRRRRRRRRRRRRRRRRRRRRRRR",
"RRRRRRRRRRRRRRRRRRRRRRRRRRRRRRRRRRRRRRRRRRRRRRRRRRRRRRRRRRRRRRRR",
"RRRRRRRRRXXXXX  X..X.X..X X..........X............XXXXXRRRRRRRRR",
"RRRRRRRRoooXoooooooooooooooooooooooooooooooooooooooooXooRRRRRRRR",
"RRRRRRRROO++++##@@@@@@@@#+@@#+@@@@@@@@#@@@@@@@@@#@@+++OORRRRRRRR",
"RRRRRRRO@#%*=;;<<;<;;;;-;;;;;;;;;<;;;;;;;;;;;;;<<<;=*##@+RRRRRRR",
"RRRRRoO#&&>1478r99999898889999889888989888889889r8741:=&@OoRRRRR",
"RRRRXoO#-,5wpfhhjjjhhhjjhhhhhjjjhhhhhkhhhhhhjjjjhhfpq5,=$OoXRRRR",
"RRRRXoO%:4wsjlcccccvbmmMmmmmmmmmMMmmMmmmmmmmMmmmmczgsw4>$OoXRRRR",
"RRRRXo+#2qsgzcvnvvbVCADDFDDDDDDDDDDDDDDDDDDFDAAZNmvzgsw1&OoXRRRR",
"RRRRXo+;4pgzxcvvccmCDGKKKKKKKKKKKKKKKKKKKKKKKKGFCmvzzgp1=+oXRRRR",
"RRRRXo+;7fzvcccxcvmZGLUYUUUUUUUUUUUUUUUUUUUYYULGZmccclf8;@o.RRRR",
"RRRR.o#;8hxvvcvcbmCFKYTTTTTTTTTTTTTTYTTTTTTTTTUJAMcvcch8;#oXRRRR",
"RRRR o#<rhvbvcbMVAFJIYTTTTTTTTTTTTTTTTTTTTTTTTUKSmcvvvkr;@o.RRRR",
"RRRRXo#>rjcnccmNSGLPYYTTTTTTTTTTTTTTTTTTTTTTTTYKSMcvvch9<@o.RRRR",
"RRRR o#<rhcvvcMZGLYYTTTTTTTTTTTTTTTTTTTTTTTTTTUJAMvcnxh9;@o.RRRR",
"RRRR o@<8hxcccmAHUTTTTTYYUUUUUUUUUUUUUUYYTTTTTUHSmccvch9;@o.RRRR",
"RRRR o+;rjxvcvmDHYTTTTTUPKJHHHHJJHJHHHKIYYTTTTUJAmcvcxhr;@o.RRRR",
"RRRR X+;9hcvccMSJYTTTTYPHFAAAAAAASAAAAFHIYTTTTUJAMvcvxhr;+X RRRR",
"RRRR o+<rhxvccMAJUTTTTYKFCMmmmmmMMmmmmBFKYTTTTUHSMcvvxhr<#o RRRR",
"RRRRoO#1tjcvccMSJUTTTTUHAmxxccxcccccxcMSHUTTTTUJAMvcvcjr<%OoRRRR",
"RRROO#;8ykxcccMAJUTTTTUHZnxzxzxxzxzzzzmZHUTTTTUJSMvxvxjy3;&+ORRR",
"XoO#&:,7pkccccMSJUTTTTUHZmzzzzxzxxzxzxnZHUTTTTUHSMcxccks71:&@OXX",
"XoO#&,5udzcvccMSJUTTTTUHSMcxcccccxccxxmAHUTTTTUJAMcccvzdy5,&$OoX",
"XoO$:2qifzccccMSHUTTTTULFBmmmmMMmmmmmMCFLUTTTTUJAMcccczfp02-$OoX",
"XoO$:2qagzxcxcMSJYTTTTYLHFAAAASAAAAAAAFHPYTTTTUHSMcxcxzgiq2-$OoX",
"XoO$:2qigzxcxcMSKYTTTTYYLKHHJJHJHHHHHJKIUTTTTTUJAMcxcczgaq2-$OoX",
"XoO$:2qafzcxccbSHUTTTTTYYYUUUUUUUUUUUUUYYTTTTTUJSMccxczgaq2-$OoX",
"XoO$:26igzvvxcMAGLUYTTTTTTTTTTTTTTTTTTTTTTTTTTUJSMcccczga62-$OoX",
"XoO$:26igzccccbCSGKIYTTTTTTTTTTTTTTTTTTTTTTTTTUJAMcxcczfi02-$OoX",
"XoO$:2qiglcvccbMNAFHIYTTTTTTTTTTTTTTTTTTTTTTTTUHSMcccxzfa02-$Oo.",
"XoO$=2qiglcvcccvbMBFLUTTTTTTTTTTTTTTTTTTTTTTTTUJAMcccczfiq2-$Oo.",
"XoO$:26igzccvccczvMZGLUYYUUUUUUUUUUUUUUYYTTTTTUJAMcccxzgi02:$OoX",
"XoO#-2qihzcvccczzcvNAGHHJHJHHHHHHJHJHHKIYYTTTTUHAMcxcczfi02:$OoX",
"XoO$:26ifzcbvccccccmNZSSSSASSSAAAAAAASFGPYTTTTUJSMcccxzgiq2-$OoX",
"XoO$:2qigzcccccccccbmmMMMMMMMMMMMMmmmMCFKYTTTTUJAMcccczgi62-$OoX",
".oO$:2qigzccccccccccccccccccccccvvcxzcMSHYTTTTUHSMvcxxlgiq2-$OoX",
"XoO$:26igzcccccccccccczxxxxxxczxxxxxzcmAHUTTTTYJSmvxcczgi02:$OoX",
"XoO$-2qigzcbccccccccczcczcczcczcxxxzxcmAJYTTTTYJSVcxcczgiq2-#OoX",
"XoO$-20igzcccccccccccccccccccccccccczcmAJUTTTTUHSbcccczgi02-$OoX",
"XoO$-20igzcbcccccccccccccccccccccccxccmAGPUYYUPGZbvccczgi02-$OoX",
"XoO$-20agzcvbccczccccccccccccccccccxzcmBSGJJJHGSCbcccczgaq2-$OoX",
"XoO$-20agzbvccccccccczccccccccccccccccbMBZASSAZBMbcvvczgi02-$OoX",
"XoO$-20igzcccccccccccccccccccccccccccccbmMMMMMmmbbccvczgi02-$OoX",
"XoO$:26idklcccccccccccccccccccccccccccccccccccccccccczkdi62-$OoX",
"XoO$:26widhkzccvbcccbcvvcvccvccvcccvcccccccccccccbczkfdpe62-$OoX",
"XoO$-250wysfkccvcbccccccccbcvvcvcvvcvccvcccccccvccckfaiwq62:#OoX",
"XoO$:25000wsgzcvbbcccccbcccccccccccccccccxcxcccccczgiwq5552:%OoX",
"XoO%:256550ydklzzzllzzzzzzzkzlzklzzlzlkzzzzzzkzzzzkdiq55652:%OoX",
"XoO%-255555qidfgffffffdffffgffffffgfffggfffgffffggsiw655552:%OoX",
"XoO%:2555550qeiiiiiiiiiiiiiiiiiiiiiieyiyiiiiiiiiiiiw6555552:%OoX",
"XoO$:2555556000066q05u66qqq6q600qq000qqq60q0q676q6666655652:%OoX",
"XoO%:256555555555555555555555555555555555555555555555555652:%OoX",
"XoO%:256665555555555555555555555555555555555555555555556652:%OoX",
"XoO%-266665655556555555555555555555555555555555555556566662:$OoX",
"XoO$:256555655555555555555555555555555555555555555555555552:%OoX",
"XoO$=,22222222222222222222222222,2222222222222222222222222,-$OoX",
"XoO#&-::->-:::--::::::::::::::::::::::::::::::::::::::::::=&#OoX",
"RRR+#$$%%%%%%$%%$$%%%%$$#$%%%%%%%%$$$$$$%%%%%%%$$%%%%%%%%%$##RRR",
"RRRROOOOOOOOOOOOOOOOOOOOOOOOOOOOOOOOOOOOOOOOOOOOOOOOOOOOOOOORRRR",
"RRRRooooooooooooooooooooooooooooooooooooooXoooooooooooooooooRRRR",
"RRRRXXXXXXXXXXXXXXXXXXXXXXXXXXXXXXXXXXXXXXXXXXXXXXXXXXXXXXXXRRRR"
};
