/* XPM */
static char *result[] = {
/* columns rows colors chars-per-pixel */
"64 64 74 1 ",
"  c #633F3F",
". c #63403F",
"X c #654341",
"o c #694644",
"O c #724D4A",
"+ c #76534E",
"@ c #79554F",
"# c #7A5651",
"$ c #805753",
"% c #815954",
"& c #875E58",
"* c #866059",
"= c #8D645D",
"- c #92655E",
"; c #8F6E61",
": c #936760",
"> c #936D62",
", c #9D6F66",
"< c #917164",
"1 c #9C7469",
"2 c #A4746B",
"3 c #A07D6E",
"4 c #A37F70",
"5 c #AD7B71",
"6 c #B17E74",
"7 c #AD8676",
"8 c #AB8C76",
"9 c #AC8E79",
"0 c #B28376",
"q c #B48578",
"w c #B5897A",
"e c #B98E7D",
"r c #AD907A",
"t c #B0917C",
"y c #BB907E",
"u c #B79680",
"i c #BD9381",
"p c #BC9A83",
"a c #C09683",
"s c #C19A85",
"d c #C49E88",
"f c #C6A48B",
"g c #C9A58C",
"h c #C7AB8F",
"j c #C9AB8F",
"k c #CDAD91",
"l c #CEB193",
"z c #D1B395",
"x c #D5B997",
"c c #D6BB9A",
"v c #D8BE9C",
"b c #D8BFA0",
"n c #DAC09D",
"m c #DBC3A5",
"M c #DCC4A8",
"N c #DFC9AE",
"B c #DFCAB0",
"V c #E1CDB4",
"C c #E4D2BC",
"Z c #E6D5C1",
"A c #E7D8C5",
"S c #E9D8C2",
"D c #EADBC9",
"F c #EEE3D5",
"G c #EFE4D8",
"H c #F0E6DA",
"J c #F2E9DD",
"K c #F4EDE5",
"L c #F6EFE8",
"P c #F7F1EB",
"I c #F9F6F2",
"U c #FBF9F5",
"Y c #FFFFFE",
"T c None",
/* pixels */
"TTTTTTTTTTTTTTTTTTTTTTTTTTTTTTTTTTTTTTTTTTTTTTTTTTTTTTTTTTTTTTTT",
"TTTTTTTTTTTTTTTTTTTTTTTTTTTTTTTTTTTTTTTTTTTTTTTTTTTTTTTTTTTTTTTT",
"TTTTTTTTTTTTTTTTTTTTTTTTTTTTTTTTTTTTTTTTTTTTTTTTTTTTTTTTTTTTTTTT",
"TTTTTTTTTTTTTTTTTTTTTTTTTTTTTTTTTTTTTTTTTTTTTTTTTTTTTTTTTTTTTTTT",
"TTTTTTTTTXXXXX  .....................X..X..X  XXX XXXXXTTTTTTTTT",
"TTTTTTTTooooooooooooooooooooooooooooooooooooooooooooooooTTTTTTTT",
"TTTTTTTTOO+++@##@@@@@@@@#@@@@@@@@@@@@@#@@@@@@@@@#@@@O+OOTTTTTTTT",
"TTTTTTTO@##*=;;<<<<<;<;=;;;;;;<;;<;;;;;;;;;;;;><<;;**###+TTTTTTT",
"TTTTToO#%-:148899998889888898988888898898889999999871::%#OoTTTTT",
"TTTTXoO#=,5wpfhhjjhhhjhjhhhjhjjjhhhhhhhhhhhhhjhjhhdiq5,=$OoXTTTT",
"TTTTXoO%:4wsjzccvcvnmmMMMMMMmMMMMMMMMMMMMMmvvvcxcczgpe4:%OoXTTTT",
"TTTTXo+*2qsgzcnvvvnMVCSSSCSSSCSSSSSCSSSSSSCVMnvvcnczgsw1&OoXTTTT",
"TTTTXo+*4pgzxcccxvmNSFJJJJJJJJJJJJJJJJJJJJFSNmcvcncxzgp3=+oXTTTT",
"TTTTXo+;7fzccccccvmCFLIUUUIIIIIIIUIIIIIUIILFCMvcccccczf8;#o TTTT",
"TTTT o@<9kcvvcccvmVDJIYYYYYYYYYYUYYYYYYYYYIKDVmnbcccnch9;@oXTTTT",
"TTTTXo@;rhvbvcbMNCDHPUYYYYYYYYYYYYYYYYYYYYUPFDCMMccmnchr<@o TTTT",
"TTTT o#<9hcnccmNZFJPUYYYYYYYYYYYYYYYYYYYYYYUPJFZBmxcnchr<@o.TTTT",
"TTTT o#<9hxnvcMCFKUUYYYYYYYYYYYYYYYYYYYYYYYYUIKFCmccnxh8;@o.TTTT",
"TTTT o@;9hxvxvMCGIYYYYYUUIIIIIIIIIIIIIIUUYYYYYIGCMccxch8<@o.TTTT",
"TTTT o@;9hcvvcMCJUYYYYUILHFFGGFGGGGGFGHLIUYYYYUHZMvcnchr;+o.TTTT",
"TTTT X+;9hxvccMZJUYYYYULFZCCVCCCCCCVCCZFLUYYYYUKZMcvvxhr;+o TTTT",
"TTTT o+<rhccccMZGIYYYYUJDVMmMmMMMMMMmMVDKIYYYYIGZMcvvxhr<@o.TTTT",
"TTTTo+#1whcvccbCFLIYYYIKDVMmMMMMMmMmmmBDKUYYYUKFCmccvxjr<%OoTTTT",
"TTTO+#*8ukxvvcbVZDHPUUULFACCVCCCCCCCCCAFLUUUPHDZNmccvxky3;%++TTT",
"XoO#&-17plccccbmNBAGLUUILHGGFGGGGGFGFGJLIUULFZBBmbcccxls71-%#OXX",
"ooO#&,5eflcvvccbmmBDKUYYUUIIIIIIIIIIIIIUYYUKDBmmvccvvczfe5,=$OoX",
" oO$-20igzcvcccvnMBDJIYYYYYYYYYYUYYYYYYYYYIKDBMcvccccczgi02-$OoX",
"XoO$:2qagzccccbbNCAGPUYYYYYYYYYYYYYYYYYYYYULGACNmbccvczgiw2-$OoX",
"XoO$:2wagzccccbVCFHPIUYYYYYYYYYYYYYYYYYYYYUILHDCNbcccczgaw2-$OoX",
"XoO$:2qigzccccmCFKUUYYYYYYYYYYYYYYYYYYYYYYYYYILFCmcccczga02-$OoX",
"XoO$-20igzccccMCFIYYYYYUUUIIIIPIIIPIIIIUYYYYYYIHZMcccczfi62-$OoX",
"XoO$-26igzccxcMZHUYYYYUILHGFGGGGGGGGFGJLIUYYYYIHZMcccczfa02-$OoX",
"XoO$-20igzccxcMZJIYYYYUKFZCCVCCCCCCCVCDFLUYYYYIHZMcccxzfa02-$OoX",
"XoO$-20iglcxccMCHIYYYYIJDVMmMmMMMMMmmMBDJIYYYYIHZMcccczga02-$OoX",
"XoO$-20igzcccxMZHIYYYYUKDVMmMMMMMMMMmMVDJUYYYYIHZMcccxzfi02-$OXX",
"XoO$-20agzxcccmZHIYYYYULFZCCVCCCCCCVCCZFLUYYYYIJZMcxcczgi02-$OoX",
"XoO$-20igzccxcMZJUYYYYUILJGFFGGGGFGGFFHLIUYYYYUHZmcccczga02-$OoX",
"XoO$-20igzccccMZHIYYYYYUUIIIIIIIIIIIIIIUUYYYYYIGZMccxczgi02-$OoX",
"XoO$-20ifzccccmCDLIUYYYYYYYYYYYYYYYYYYYYYYYYUUPFCmcccczgi02-$OoX",
"XoO$-20afzccccbBZFKPUYYYYYYYYYYYYYYYYYYYYYYIPKDZNbcccczfi02-$OoX",
"XoO$-20agzccccbMVCDGPYYYYYYYYYYYYYYYYYYYYYUPGDCNMbccvczga02-$OoX",
"XoO$-20igzcvccccvmBDJIYYYYYYYYYYYYYYYYYYYYIKDBmbbccccczfi02-$OoX",
"XoO$-20igzcvbcccccMCFKIIIIIIIIIIIIIIIIIIIILFCmxxcccvvczgi02-$OoX",
"XoO#-20agzcvvccczxbNCFHJHHGKHHGHGHHHHHGJJGFCBbxxxxcvvcxga02-$OoX",
"XoO$-20agzcvnccccccmBCCCZZZZZZZZCZZCZCCZZCCNmcccxcccvczgi02-$Oo.",
"XoO$-20igzcbcccccccbmmMMMMbMbMMMMMMMMMMMMMmmbccccccccczgi02-$OoX",
"XoO$-20edkzxxccccccccccccccccbccccccccccccccccccccccczkdy02-$OoX",
"XoO$-26eidhkzccvccccccccxxccxxcxcccxcccccccccccvbcczkgdaw02-$OoX",
"XoO$-260wesflxcvbcccccxccccccccxccccccccccccvcvvccckfayww62-%OoX",
"XoO%:25760wagzcvcbcccccccxcxxxxcxxxxxxxcxccccccvcclksw06652:%OoX",
"XoO%:255650eskzzzzzzlzzzlzllzzllzzzzzlzllzzzzlzzzlkde055552-%OoX",
"XoO%-255556widfggffgfffffgffffffffffgfffffgfffffgfdiw655552-%OoX",
"XoO%-2555550weiiiiiiiiiiaiiiiiiiaiiiyiyaiiieiiiiiiiw6555552:%OoX",
"XoO%:2565556600w66q6u6q6q6q6q6006q6q00000q0q067600065555552:%OoX",
"XoO%:256555555555555255565555555555655555555555555555555652:%OoX",
"XoO$:256665555555555555555555555555555555555555555555650052-%OoX",
"XoO%-266666655555555555555555555555555555555555555555666662:%OoX",
"XoO%:256555555555555555555555555555555555555555555555555552-%OoX",
"XoO$=,22222222222222222222222222222222,2222222222222222222,-$OoX",
"XoO#&-::--::::--:::::::::::::::::::::::::::::::::::::::-::=&#OoX",
"TTT+#$%%%%%%%%%%$$%%%%$$#%%%$%%%%%%$$$$$%%%%%%%%$%%%%%%%%%$$+TTT",
"TTTTOOOOOOOOOOOOOOOOOOOOOOOOOOOOOOOOOOOOOOOOOOOOOOOOOOOOOOOOTTTT",
"TTTToooooooooooooooooooooooooooooooooooooooooXooooooooooooooTTTT",
"TTTTXXXXX.XXXXXXXXXXXXXXXXXXXXXXXXXXXXXXXXXXXXXXXXXXXXXXXXXXTTTT"
};
