/* XPM */
static char *result[] = {
/* columns rows colors chars-per-pixel */
"64 64 71 1 ",
"  c #633F3F",
". c #63403F",
"X c #654341",
"o c #694644",
"O c #724D4A",
"+ c #76534E",
"@ c #79554F",
"# c #7A5650",
"$ c #805753",
"% c #815954",
"& c #875E58",
"* c #866059",
"= c #8D645D",
"- c #92655E",
"; c #8E6E61",
": c #936760",
"> c #916E62",
", c #9D6F66",
"< c #917164",
"1 c #9C7469",
"2 c #A4746B",
"3 c #A07D6E",
"4 c #A37F70",
"5 c #AD7B71",
"6 c #B17E74",
"7 c #AD8676",
"8 c #AB8C76",
"9 c #AC8E79",
"0 c #B28376",
"q c #B48578",
"w c #B5897A",
"e c #B98E7D",
"r c #AD907A",
"t c #B0917C",
"y c #BB907E",
"u c #B79680",
"i c #BD9381",
"p c #BC9A83",
"a c #C09683",
"s c #C19A85",
"d c #C49E88",
"f c #C6A48B",
"g c #C9A58C",
"h c #C7AB8E",
"j c #C9AB8F",
"k c #CDAD91",
"l c #CEB193",
"z c #D1B395",
"x c #D5B997",
"c c #D6B798",
"v c #D6BB9A",
"b c #D9BE9D",
"n c #DBC09E",
"m c #DBC3A5",
"M c #DCC4A8",
"N c #DFC8AB",
"B c #E1CCB2",
"V c #E5D3BE",
"C c #E6D5C1",
"Z c #E9D8C3",
"A c #E9DAC8",
"S c #EDE1D2",
"D c #EFE5D9",
"F c #F0E6DA",
"G c #F2E9DE",
"H c #F5EEE6",
"J c #F5EFE8",
"K c #F9F6F1",
"L c #FBF9F5",
"P c #FFFFFF",
"I c None",
/* pixels */
"IIIIIIIIIIIIIIIIIIIIIIIIIIIIIIIIIIIIIIIIIIIIIIIIIIIIIIIIIIIIIIII",
"IIIIIIIIIIIIIIIIIIIIIIIIIIIIIIIIIIIIIIIIIIIIIIIIIIIIIIIIIIIIIIII",
"IIIIIIIIIIIIIIIIIIIIIIIIIIIIIIIIIIIIIIIIIIIIIIIIIIIIIIIIIIIIIIII",
"IIIIIIIIIIIIIIIIIIIIIIIIIIIIIIIIIIIIIIIIIIIIIIIIIIIIIIIIIIIIIIII",
"IIIIIIIIIXXXXX  ...................X.o..X  X X XX XXXXXIIIIIIIII",
"IIIIIIIIooooooooooooooooooooooooooooooooooXooooooooXoXooIIIIIIII",
"IIIIIIIIOO+++@##@@#@@@@@#@@@@@@@#@@@##@@############+OOOIIIIIIII",
"IIIIIIIO@##*=;;<<<<;;<;;;;;;<;<;;;;;;<;;;<;;;;;;<;;**%##+IIIIIII",
"IIIIIoO#&=:14889r8r8888888888888888889999999899rr8741::%#OoIIIII",
"IIIIXoO#=,5wpfhhjhjhjjhjjhhhjjjhhhhhhhhhhhhhhhhhhhfi75,=$OoXIIII",
"IIIIXoO#:5wshlvvvvvmmmMNMmmMmmMMMMmmbvvvxvvvvvvvvvzksw5>$OoXIIII",
"IIIIXo+&,wsgzvnnbnmNBVVZZZZZZZZZZZVBNmbnvbnbnbnnnmczks71&OoXIIII",
"IIIIXo+=3pgzcvbbbbmBZSGGGGGGGGGGGGSZBNbvbbnbbbnbbbvczgp3=+oXIIII",
"IIIIXo+;8fzvvvvvxbmBSJLKLKKLKKKLLKJSVmbxxvvvvvvvvvvvvlf8;#o.IIII",
"IIII.o#;9hvbbvvcxvMVFKPPPPPPPPPPPPKFVmvxxvvvvvvvvvvbbvh9;#oXIIII",
"IIII.o#<rjvnbvvcxbMCGLPPPPPPPPPPPPKFVMvxxvvvvvvvvvvbnbk9;#o.IIII",
"IIII.o#<9hvnbvvxxvMCGLPPPPPPPPPPPPLDCMvxcvvvvvvvvvbbnvk9;#o IIII",
"IIII.o#>9hvnbvvxxvMCDKPPPPPPPPPPPPLDCMvxxvvvvvvvvvvbbvh9;#o IIII",
"IIIIXo#;9hvnbvvxxvmBSJKKKKKKPPPPPPKDVMvxvvvvcvvvvvvbbvh9;#o.IIII",
"IIII X#;9hvbbvvvvvmBCSDFDDHJKLPPPPKDVMvxlvvvvvvvvvvvbvh9<+o.IIII",
"IIII X#;9hvbbvvvvvbMBVVVVVADJKPPPPKDVMvxvvvvvvvvvvvbnvh9;+o IIII",
"IIII X#<9hvbvvvvvvbbmmmmmMBAHKPPPPKDCMvxxvvvvvvvvvvbbvhr>#oXIIII",
"IIIIo+#1tkvbbvvvvvvvvvvxxvMVDKPPPPKDVMvxvvvvvvvvvvvbbvhr<&OoIIII",
"IIIO+#*7tkvbbvvvvvvvxxxzzxmVDKPPPPKDVMvxxvvvvvvvvvvbvvku7=%+OIII",
"ooO+&-27plvbbvvvvvvvvxxzzxmVDKPPPPKDVMbxxvvvvvvvvvvbbvlp7<-%@OXX",
"XoO#&,5wflvbvvvvvvvvvvvxxvmVDKPPPPKFCmvxxvvvvvvvvvvvbvzfw5,-$OoX",
"XoO$-20igzvbbvvvcvvvvvvxxvMVDKPPPPKFVMvxxvvvvvvvvvvbvvzgp02-$OoX",
"XoO$-2wahlvvvvvvvvvvvvvxxvMCDKPPPPKDCMvxxvvvvvvvvvvvbvzgp02-$OoX",
"XoO$-20agzvbbvvvvvvvvvvxxvMCFKPPPPKDVMvxxvvvvvvvvvvvvvzgaq2:$OXX",
"XoO$-20agzvvvvvvvvvvvvvvxvmCFKPPPPKFVMvxxvvvvvvvvvvbbvzga02-$OoX",
"XoO$-20agzvbbvvvvvvvvvvvxvmVFKPPPPKFVmvzvvvvvvvvvvvvvvzga62-$OoX",
"XoO$-20igzvvvvvvvvvvzvclxxmVDKPPPPKDVmvxlxcvcvvvvvvbvvzga02:$OoX",
"XoO$:20iklvvvvvvvvvvxxxzzxmVDKPPPPKDVmczlxxvvvvvvvvvvvlgi02-#OoX",
"XXO$-20iflvvvvvvvvvvvvvvxbmCFKPPPPKFVMvxvvvvvvvvvvvvbvzgi02-$OoX",
"XoO$-20ifzvvvvvvvvbbmmMmmMBAFKPPPPKHABMmmmmmbvvvvvvvbvlgi02-$OoX",
"XoO$-20igzvmvvvvvvbMNVVVVVAFJLPPPPKJDZVVCCBBMbvvvvvvbvzgiq2:$OoX",
"XoO$-20igzbbvvvvcvmNZSDDDFHJKLPPPPLKJHDFDGSCNmvvvvvvbvlgi02-$OoX",
"XoO$-20pgzvvvvvvxvmVAJLLKKLKPPPPPPPPKKKKKKHSVmvxvvvvvvcfi02-$OoX",
"XoO$-2qiglvbvvvxvvmCDKPPPPPPPPPPPPPPPPPPPPKDVmvxvvvvnvlgi02-$OoX",
"XoO$-2qiglvvvvvxzvmCHKPPPPPPPPPPPPPPPPPPPPLGCMbxxvvvvvlhi02-$OoX",
"XoO$-20igzvbvvvxvvMCGLPPPPPPPPPPPPPPPPPPPPLFCMvzzvvbbvzgiq2-$OoX",
"XoO$-20igzvvvvvxvvmCDKPPPPPPPPPPPPPPPPPPPPKFVmvxvvvvbvzgi02-$OoX",
"XoO$-20igzvbbvvvzvmVSHKKKKKKKKKKKKKKKKKLKKJSVmvzvvvbvvzgi02-#OoX",
"XoO$-20agzvbbvvvvvmNCSDGFFFFFFDFDFFFFFFFFFSCBmvvxvvbbvzgaq2-$OoX",
"XoO$-20igcvbvvvvvvvmNVVCCVCVVVVVVVVVCVVCCCVNMbvvvvvvbbzga02-$OoX",
"XoO$-20igzvvvvvvvvvmmMMmMMMMMMMMMMMMMMMMMMmmbbvvvvvvvvzgi02-$OoX",
"XoO$-20ydklxvvvvvvvvvvvvvvbvvbbvvvvvvvvvbvvvvvvvvvvvvzkdy02-$OoX",
"XoO$:26eidhlzxnvnvvvvxvvxxvxxvccvvvxvvvxxvvvbvvbbbvzkgsae62-$OoX",
"XoO$-250wyaflvvbbvbbvvvvvvvvvvxvxbvvxbcvvvvvbbvbvvvkfaywq62-%Ooo",
"XoO%:25000wsgzvbvvvvvvvccvvvvcvvxvxxccvvcvvvvvvvbvzfaw00052-%Oo.",
"XoO$:256550edjzzzzzzlzzzlzkzzzzzzzzzzzzzzzzlllzzzlkdy055552-#Oo.",
"XoO%-255555widffffffffffffgffffffffffffffffgffffggspw555552-%Ooo",
"XoO%-2555550weiiiiiiiiiiiiiyiyyyyyyiyyyyyiiyiiiiiiew0555652:%Ooo",
"XoO%:25555556000000060060000q000qqqq00qq00q0060000066555562:%Oo.",
"XoO%:256655555655555555555555565555555555556555555555556652:#Oo.",
"XoO%:256656555555555555555555555555555555555555555555656652-%Ooo",
"XoO%-266666565555555555555555565555555555555555555566560052:%Ooo",
"XoO%:256555655255555555555555555555555555555555555555555652-%OoX",
"XoO%-,2222222222222222222222222222222222222222222222222222,=#Oo.",
"XoO#&=:---::::::::::::::::::::::--:::::::::::::::-::--:----&#Ooo",
"III+#$%%%%%%%%%%%$%%%%%$#$$$%#%%%$%%$$$%%%%%%%#%$%%%%%%%%%$$+III",
"IIIIOOOOOOOOOOOOOOOOOOOOOOOOOOOOOOOOOOOOOOOOOOOOOOOOOOOOOOOOIIII",
"IIIIooooooooooooooooooooooooooooooooooooooooooooooooooooooooIIII",
"IIIIXX.oX.XXXXXXXXXXXXXXXXXXXXXXXXXXXXXXXXXXXXXXXXXXXX.oX.XXIIII"
};
