/* XPM */
static char *result[] = {
/* columns rows colors chars-per-pixel */
"64 64 73 1 ",
"  c #633F3F",
". c #63403F",
"X c #654341",
"o c #694644",
"O c #724D4A",
"+ c #76534E",
"@ c #79554F",
"# c #7A5650",
"$ c #805753",
"% c #815954",
"& c #875E58",
"* c #866059",
"= c #8D645D",
"- c #92655E",
"; c #8E6E61",
": c #936760",
"> c #916E62",
", c #9D6F66",
"< c #917164",
"1 c #9C7469",
"2 c #A4746B",
"3 c #A07D6E",
"4 c #A37F70",
"5 c #AD7B71",
"6 c #B17E74",
"7 c #AD8676",
"8 c #AB8C76",
"9 c #AC8E79",
"0 c #B28376",
"q c #B48578",
"w c #B5897A",
"e c #B98E7D",
"r c #AD907A",
"t c #B0917C",
"y c #BB907E",
"u c #B79680",
"i c #BD9381",
"p c #BC9A83",
"a c #C09683",
"s c #C19A85",
"d c #C49E88",
"f c #C6A48B",
"g c #C9A58C",
"h c #C7AB8E",
"j c #C9AB8F",
"k c #CDAD91",
"l c #CEB193",
"z c #D1B394",
"x c #D5B997",
"c c #D6B798",
"v c #D6BB9A",
"b c #D9BE9C",
"n c #D8BFA0",
"m c #DBC19E",
"M c #DAC3A5",
"N c #DCC4A8",
"B c #DFC9AF",
"V c #DFCAB0",
"C c #E1CCB3",
"Z c #E5D3BE",
"A c #E6D5C0",
"S c #E9D8C2",
"D c #E9DAC8",
"F c #EDE1D3",
"G c #EFE5D9",
"H c #F0E6DA",
"J c #F2E9DE",
"K c #F5EFE7",
"L c #F7F1EB",
"P c #F9F6F2",
"I c #FBF8F5",
"U c #FFFFFF",
"Y c None",
/* pixels */
"YYYYYYYYYYYYYYYYYYYYYYYYYYYYYYYYYYYYYYYYYYYYYYYYYYYYYYYYYYYYYYYY",
"YYYYYYYYYYYYYYYYYYYYYYYYYYYYYYYYYYYYYYYYYYYYYYYYYYYYYYYYYYYYYYYY",
"YYYYYYYYYYYYYYYYYYYYYYYYYYYYYYYYYYYYYYYYYYYYYYYYYYYYYYYYYYYYYYYY",
"YYYYYYYYYYYYYYYYYYYYYYYYYYYYYYYYYYYYYYYYYYYYYYYYYYYYYYYYYYYYYYYY",
"YYYYYYYYYXXXXX  .... X X..X   .......X  X..X...X..XXXXXYYYYYYYYY",
"YYYYYYYYooooooooooooooooooooooooooooooooooooooooooooooooYYYYYYYY",
"YYYYYYYYOO+++@####+##+#####@#@@@@@@@###@###########@O+OOYYYYYYYY",
"YYYYYYYO@##*=;;<<;<<<;;;;;;;;;;;;;;;;;;;;;;<;;;;<;;**###+YYYYYYY",
"YYYYYoO#&=:14889r999999998898888988888898999999r99741:=%@OoYYYYY",
"YYYYXoO#=,5wpfhhkhhhhhhhhhjjjjjjhhhhjjjjjjhhhhhhhhfpw5,:$OoXYYYY",
"YYYYXoO%:5wsjlvvxxxxvxvbmMNNNNNNNNNNNNMMbbxbxvvvbvzgsw4:%OoXYYYY",
"YYYYXo+*,wsgzxbMMmmbbbmNCZSSSZSZSSZSSZZCNmmxmvbMMbbzgs71&OoXYYYY",
"YYYYXo+*4pgzcbbbbbbbvvMBSFJJKJJJJJJJJJFSVMbxbbbbbbvzzkp3=+oXYYYY",
"YYYYXo+;7fzvvxxbbxxxxvMZFKPIPPPPPPPPIIKFZNvvxxvvxbxbxlf7;#o YYYY",
"YYYY o#;9hxbbvvvxbvvmNCDHPUUUUUUUUUUUUPJSCNmbvvvvvvbmvh9>@oXYYYY",
"YYYYXo#<rhvMbvvvxbbMBZDHLUUUUUUUUUUUUUUKGSZBMbvvxvbbmbhr;#o YYYY",
"YYYY o#<9kxMbbvxzbMVAFJLPUUUUUUUUUUUUUUIKKFAVMxvvvvbmxkr<#oXYYYY",
"YYYY o#<9hvbbxvvxvNVFKIIUUUUUUUUUUUUUUUUIPKFZNvzvvxbnvh9;#o.YYYY",
"YYYY o#;9hvbbxbxxvNAGPUUUUUIPPPPPPPPIUUUUUPGZMvxvvbbnxh9;#o.YYYY",
"YYYY o#;9hvbbbvxxvNAJPUUUUUPLJGGGHJKPUUUUUIGANvxxvvbbvh9;+X.YYYY",
"YYYY X+;9hvnvvvxvbNAGIUUUUPKGDZCZZDGKPUUUUIGANvxxvbbbvh9;+o.YYYY",
"YYYY X#<9hvbbvvxxxNZGIUUUUPKDCNmnNVDKPUUUUIGZNvxxvxbbvh9>#o YYYY",
"YYYYo+#1rhvbbvvxxvNAGPUUUUPGZNxxxxNZHPUUUUPGANvxxvvbbvhr1#OoYYYY",
"YYYO+#*8uhvbbvvxxvNAGPUUUUPGZNxzzxMZGPUUUUPGANvxzvvbbvku3;$#OYYY",
"XoO#&:,7plxbbvvxxvNZGPUUUUPGZNxlzxNZGPUUUUPGANvxzvvvvvlp71:&@OXX",
"XoO#&,5efzvbbvvxxvNAGPUUUUPGZNbxzbNZGPUUUUPGANvxxvvbnnzde5,&$OoX",
"XoO$-20iglvbvvbzxvNZGPUUUUPGZNxzxxNZHPUUUUIGZNxxxbxbvvzgp02-$OoX",
"XoO$:20aglvbbvvxxvNAGPUUUUPHZNxxzxNZHPUUUUPGANbxxvvbvvzgp02:$OoX",
"XoO$:2wagzvvbvvvxvNZGPUUUUPGZNbzxxNZHPUUUUPGANvxxvvbbvzga02-$OoX",
"XoO$-26agzvbvvbxxvNAGPUUUUPHZNxxzbNZHPUUUUPGANvxxvvvvvzga62-$OoX",
"XoO$-20agzvvbvvxxvNZGPUUUUPHANxxxxNZGPUUUUPGZNvxvvvbvvzga02:$Oo ",
"XoO$-20igzvnvvvzxvNAGPUUUUPHZMxzzxMZHPUUUUPGANvvzvvvbczga02:$OoX",
" oO$:20ijlvvvvvxxvNZHPUUUUPHZMxzzxNZGPUUUUPGANvxxvvvbvzgi02:#Oo ",
"ooO$:20iglvvbvvvxvNAHPUUUUPHZNbzxxNZGLUUUUPGANvxxvvbvvzgi02:$OoX",
" oO$:20agzvbvvvxxvNZHPUUUUPJDVMMmNVDKPUUUUPGZNxxxvvvvvzgi02:$OoX",
"XoO#-26igzvvvvvvcvNAHIUUUUPKGDZZZZDGKPUUUUPJANbvvvvvvvzgi02:$OoX",
"XoO$-,0agzxbvvvzxvNAHIUUUUUPLJGGGGKKPUUUUUPJANvxxvvvvvxfi02-$OoX",
"XoO$-20agzvbvvvvxxNAGPUUUUUIIPPPPPPPIUUUUUPGZNvxxvvbvvlgi62-$OoX",
"XoO$:20iglvvbvvvvvNZFKPIUUUUUUUUUUUUUUUUIIKFVNvvxvvvbvlgi02-$OoX",
"XoO$:20pglvbvvvvvxnBAFKLPUUUUUUUUUUUUUUILJFAVMvzvvzbvvzhi02:$OoX",
"XoO$-20igzvvbvvzzbnNBZAGLIUUUUUUUUUUUUILGDZBMnvvxvxbnvzgi02-$Oo ",
"XoO$-20igzvbvvvvvvxvnMVDJPUUUUUUUUUUUUPKDVMnvvvvvvvbvvzgp02-$OoX",
"XoO$-20igzvbbvvvvvvvxvNZFKPIIIPPPPPIPPKFZMxxvvvvvvvvvvzga62:$OoX",
"XoO$-20aglvbbvvvvvvxxvnVAFGGGGGGGHHHJGFABnxvxvvvvvvbnvzga02:$OoX",
"XoO$-20agzbbbvvvvvvvxvvNVZAAAAAAAAAAAAVVMbvxzvvvvvvbbbxgi02-$OoX",
"XoO$-20iglxbvvvvvvvvzbxnnNNNNNNNNNNNNNMMbvvvvvvvvvvvvvkgp62-$OoX",
"XoO$-26ifklvvvvvvvvvvvvvbvvbxvvbxbbbvvvvvvvvvvvvvvvcczkdi62-$OoX",
"XoO#:26eidgklvvbvvvbvbvbvxvxxxvxxxxxvvxvvvbvbvvbbbvzkgdae62:$OoX",
"XoO$-25wwesfkxbbnvvnvvvvvvvxvvxxvvxvvxxbvbvnbvbbbvvkfsew062-%OoX",
"XoO$:25660wsgzxbnnvvvvvvvvvvxcvvxcvcvbxxxvvvvvvbvvlgaw00652:%OoX",
"XoO%:256550edklzllllllzzzzzzzzkzzlzzzzzkzlzllllzzlkdi055552:%OoX",
"XoO%-255556widfggggffgffdfffffgggffffffffgfffffggfdiw555552:%OoX",
"XoO%:2555550qiiiiiiiiiiiiiiiiiiiiiiiiiiiiiiiiiiiiiiq0555552:%OoX",
"XoO%:25555550005qq666q6000000600000000000000050007065555662:%OoX",
"XoO%:256655555555555555555555555555555555555555555555556652:#OoX",
"XoO$:266665555555555555555555555555555555555555555555656652:%OoX",
"XoO%:266666565555555555555555555555555555555555555556666662:%OoX",
"XoO$:256555555555555555555555555555555555555555555555556552-%OoX",
"XoO$-,2222222222222222222222222222222222222222222222222222,-$OoX",
"XoO#&=:::::::::-::::-:::--:::::::::::::-::::::::::::--::::=&#OoX",
"YYY+#$%%%%%%%#%%%$%%%%%$$$%%#%%%%%%%#$%%%%$%%%%$$$%%$%%%%%%#+YYY",
"YYYYOOOOOOOOOOOOOOOOOOOOOOOOOOOOOOOOOOOOOOOOOOOOOOOOOOOOOOOOYYYY",
"YYYYooooooooooooooooooooooooooooooooooooooooooooooooooooooooYYYY",
"YYYYXXXXXXXXXXXXXXXXXXXXXXXXXXXXXXXXXXXXXXXXXXXXXXXXXXXXXXXXYYYY"
};
