/* XPM */
static char *result[] = {
/* columns rows colors chars-per-pixel */
"64 64 168 2 ",
"   c #2B2B37",
".  c #2D2E3A",
"X  c #2F303C",
"o  c #32333C",
"O  c #4A433C",
"+  c #353541",
"@  c #383745",
"#  c #3A3945",
"$  c #3E3C4C",
"%  c #3E3C51",
"&  c #403E4D",
"*  c #423F52",
"=  c #4D4542",
"-  c #44434D",
";  c #534B4F",
":  c #434054",
">  c #4D4C54",
",  c #464359",
"<  c #49455C",
"1  c #4E4B5A",
"2  c #494751",
"3  c #504F56",
"4  c #504C5C",
"5  c #54525A",
"6  c #5B5A5F",
"7  c #58565E",
"8  c #4C4762",
"9  c #4E4963",
"0  c #514B66",
"q  c #534D69",
"w  c #5E5465",
"e  c #5C5A60",
"r  c #57506E",
"t  c #5A546F",
"y  c #584F72",
"u  c #575070",
"i  c #595272",
"p  c #5E557A",
"a  c #605B6B",
"s  c #60577C",
"d  c #61587D",
"f  c #6B5E7F",
"g  c #605974",
"h  c #626065",
"j  c #65616C",
"k  c #6D6A6E",
"l  c #69666C",
"z  c #6E6A71",
"x  c #6D667C",
"c  c #706E70",
"v  c #767375",
"b  c #75717A",
"n  c #7C797B",
"m  c #797678",
"M  c #846C44",
"N  c #866D48",
"B  c #846C54",
"V  c #826D69",
"C  c #807D7E",
"Z  c #BD934D",
"A  c #B48E58",
"S  c #B79058",
"D  c #A6866D",
"F  c #B7926D",
"G  c #C39747",
"H  c #C0954D",
"J  c #CD9F5A",
"K  c #D9A74F",
"L  c #DFAA4A",
"P  c #655B83",
"I  c #685E87",
"U  c #6A5F8A",
"Y  c #6D618D",
"T  c #6A6281",
"R  c #7E6C81",
"E  c #72688B",
"W  c #7D768A",
"Q  c #7B7484",
"!  c #6F6391",
"~  c #726594",
"^  c #756995",
"/  c #7B6E95",
"(  c #75679A",
")  c #76689A",
"_  c #796B9D",
"`  c #7E7299",
"'  c #7768A0",
"]  c #7C6DA3",
"[  c #7D6EA8",
"{  c #7F70A6",
"}  c #816E83",
"|  c #837F81",
" . c #957C84",
".. c #806F99",
"X. c #857296",
"o. c #897597",
"O. c #867398",
"+. c #877C9C",
"@. c #8171A6",
"#. c #887AA7",
"$. c #8171A9",
"%. c #8B7DAA",
"&. c #8779A6",
"*. c #848182",
"=. c #8E8A8A",
"-. c #8B878A",
";. c #9E8284",
":. c #938E8D",
">. c #95918F",
",. c #8F869C",
"<. c #958D9A",
"1. c #969096",
"2. c #9A9594",
"3. c #9F9B98",
"4. c #9E9A96",
"5. c #A29C9B",
"6. c #A6A19F",
"7. c #8E82A3",
"8. c #9385AE",
"9. c #9B8FAB",
"0. c #9588A9",
"q. c #9D93A4",
"w. c #9B8DB3",
"e. c #9F92B4",
"r. c #A69CAB",
"t. c #A194B5",
"y. c #AA9DBA",
"u. c #A79AB8",
"i. c #A9A3A4",
"p. c #AEA9A4",
"a. c #B0AAA7",
"s. c #B4ADA9",
"d. c #B6B0AB",
"f. c #ADA0BD",
"g. c #B8AFB7",
"h. c #B6ABBA",
"j. c #BCB5B2",
"k. c #BBB0BE",
"l. c #C5BDBE",
"z. c #CAC3BD",
"x. c #C7C0BB",
"c. c #B2A4C1",
"v. c #B9AEC0",
"b. c #BEB1C5",
"n. c #C2B7C5",
"m. c #C6BAC9",
"M. c #C8BDCA",
"N. c #C5B9C6",
"B. c #CEC7C1",
"V. c #CDC1CD",
"C. c #D3CBC4",
"Z. c #D2C8C8",
"A. c #D0C6CB",
"S. c #D8D0C7",
"D. c #DCD4CC",
"F. c #D5C9D2",
"G. c #DED4D3",
"H. c #E0D7D3",
"J. c #E6DDD5",
"K. c #E6DCD8",
"L. c #E8DEDA",
"P. c #E8DFD6",
"I. c #EEE4DC",
"U. c #F5ECE1",
"Y. c #F9EFE3",
"T. c #FDF3E6",
"R. c #FFFAEC",
"E. c None",
/* pixels */
"E.E.E.E.E.E.E.E.E.E.E.E.E.E.E.E.E.E.E.E.E.E.E.E.E.E.E.E.E.E.E.E.E.E.E.E.E.E.E.E.E.E.E.E.E.E.E.E.E.E.E.E.E.E.E.E.E.E.E.E.E.E.E.E.",
"E.E.E.E.E.E.E.E.E.E.E.E.E.E.E.E.E.E.E.E.E.E.E.E.E.E.E.E.E.E.E.E.E.E.E.E.E.E.E.E.E.E.E.E.E.E.E.E.E.E.E.E.E.E.E.E.E.E.E.E.E.E.E.E.",
"E.E.E.E.E.E.E.E.E.E.E.E.E.E.E.E.E.E.E.E.E.E.E.E.E.E.E.E.E.E.E.E.E.E.E.E.E.E.E.E.E.E.E.E.E.E.E.E.E.E.E.E.E.E.E.E.E.E.E.E.E.E.E.E.",
"E.E.E.E.E.E.E.E.E.E.E.E.E.E.E.E.E.E.E.E.E.E.E.E.E.E.E.E.E.E.E.E.E.E.E.E.E.E.E.E.E.E.E.E.E.E.E.E.E.E.E.E.E.E.E.E.E.E.E.E.E.E.E.E.",
"E.E.E.E.E.E.E.E.E.E.E.E.E.E.E.E.E.E.E.E.E.E.E.E.E.E.E.E.E.E.E.E.E.E.E.E.E.E.E.E.E.E.E.E.E.E.E.E.E.E.E.E.E.E.E.E.E.E.E.E.E.E.E.E.",
"E.E.E.E.E.E.E.E.E.E.E.E.E.E.E.E.E.E.E.E.E.E.E.E.E.E.E.E.E.E.E.E.E.E.E.E.E.E.E.E.E.E.E.E.E.E.E.E.E.E.E.E.E.E.E.E.E.E.E.E.E.E.E.E.",
"E.E.E.E.E.E.E.E.E.E.E.E.E.E.E.E.E.E.E.E.E.E.E.E.E.E.E.E.E.E.E.E.E.E.E.E.E.E.E.E.E.E.E.E.E.E.E.E.E.E.E.E.E.E.E.E.E.E.E.E.E.E.E.E.",
"E.E.E.E.E.E.E.E.E.E.E.E.E.E.E.E.E.E.E.E.E.E.E.E.E.E.E.E.E.E.E.E.E.E.E.E.E.E.E.E.E.E.E.E.E.E.E.E.E.E.E.E.E.E.E.E.E.E.E.E.E.E.E.E.",
"E.E.E.E.E.E.E.E.E.E.E.E.E.E.E.E.E.E.E.E.E.E.E.E.E.E.E.E.E.E.E.E.E.E.E.E.E.E.E.E.E.E.E.E.E.E.E.E.E.E.E.E.E.E.E.E.E.E.E.E.E.E.E.E.",
"E.E.E.E.E.E.E.E.E.E.E.E.E.E.E.E.E.E.E.E.E.E.E.E.E.E.E.E.E.E.E.E.E.E.E.E.E.E.E.E.E.E.E.E.E.E.E.E.E.E.E.E.E.E.E.E.E.E.E.E.E.E.E.E.",
"E.E.E.E.E.+ + o o o o o o o o o o o o o o o o o o o o o o o o o o o o . X .                   + o + + E.E.E.E.E.E.E.E.E.E.E.E.E.",
"E.E.E.E.+ + + + + + + + o @ + o + + + + + + o @ + o # + + o @ + o @ o @ o @ @ @ @ # # # @ + + + + + + # E.E.E.E.E.E.E.E.E.E.E.E.",
"E.E.E.E.+ + + # & * : : : : : : : : : : : : : : : : : : * * * : : : , > 5 7 6 e 6 6 6 6 6 6 9 > - + o o E.E.E.E.E.E.E.E.E.E.E.E.",
"E.E.E.E.o o $ & < q t i i t u u u u u u u q t t u u u u r r y y q t g x Q -.:.2.>.>.:.>.>.=.D k 5 - + o E.E.E.E.E.E.E.E.E.E.E.E.",
"E.E.E.E.o + $ < t P ! ! ! Y Y ! Y Y Y Y Y ~ ! ! ! Y ! ! ! ! ! U U Y ` ,.r.j.z.z.z.z.z.z.z.l.s.:.l 2 + X E.E.E.E.E.E.E.E.E.E.E.E.",
"E.E.E.E.o o $ 9 s ~ _ ] { ] ] _ ] _ ] ] ] _ _ ] _ ] ] _ ' ] ] ) ' [ #.t.k.A.G.H.H.H.H.I.I.I.z.6.m > + . E.E.E.E.E.E.E.E.E.E.E.E.",
"E.E.E.E.o + & 0 d ~ @.$.@.[ @.@.@.@.$.$.$.$.$.$.$.$.$.$.$.$.$.[ ] @.&.w.y.b.M.M.M.M.V.G.I.I.D.p.n 3 +   E.E.E.E.E.E.E.E.E.E.E.E.",
"E.E.E.E.o o $ 9 d ~ [ @.@.] [ @.[ [ $.$.@.@.@.@.$.$.@.$.@.@.@.@.] [ @.#.8.w.t.t.t.t.y.m.G.K.D.p.n > +   E.E.E.E.E.E.E.E.E.E.E.E.",
"E.E.E.E.o + & 9 d ~ ] [ [ ] ] _ ) _ ) ) ' ) ( ' _ ) _ _ ( ) ' ' ' ] ] @.@.&.@.@.$.$.8.y.M.F.B.5.m > +   E.E.E.E.E.E.E.E.E.E.E.E.",
"E.E.E.E.o + $ 9 s ~ ] @.@.] _ ( ~ U U I I I I I P I I I I I U ~ ) _ ] [ ] ' ' ' ' ' &.e.c.n.j.1.z > o X E.E.E.E.E.E.E.E.E.E.E.E.",
"E.E.E.E.o + $ 9 d ~ ] @.$.[ _ ! P y 0 9 0 0 q q 0 q 0 0 0 0 t P Y _ @.@.] ' ' ) ' ' @.%.w.t.9.X.t - + o E.E.E.E.E.E.E.E.E.E.E.E.",
"E.E.E.E.o o $ 9 d ~ ] @.@.] ~ P r * & & & & $ & & & & $ $ $ , q P ~ _ [ ] ] ] ] ] ] ] &.&.&...T q - o o E.E.E.E.E.E.E.E.E.E.E.E.",
"E.E.E.E.o + & 9 d ~ ' ] ) ~ P u * & + o o + o o o + o o o o # < y I ~ ~ _ ] ] ] ] ] ] [ @.' ! s 9 $ o o E.E.E.E.E.E.E.E.E.E.E.E.",
"E.E.E.E.o + $ 9 d ~ ) ~ P i 0 , & @ o X o o o o o o o .   . o $ * 0 y P Y ) ] ] ] ] ] ] [ ' ! s 9 $ + o E.E.E.E.E.E.E.E.E.E.E.E.",
"E.E.E.E.o + $ 0 P ~ ~ U u 8 * # @ @ o o o + o + o o o o X X o o @ * < u P ) ] [ @.] ] ] [ ) ~ s 9 $ o o E.E.E.E.E.E.E.E.E.E.E.E.",
"E.E.E.E.X + $ 9 d ~ ^ Y i 1 - & @ @ @ o + + @ o + + @ # - - - 2 2 , 1 i T ) _ [ ] ] _ @.@.] ~ s 9 $ + X E.E.E.E.E.E.E.E.E.E.E.E.",
"E.E.E.E.o + $ 8 d ! _ ` W b k 6 ; & o o o + + + o o & > a k v m v v b R / ` ] ] ] ] ] [ @.] ~ s 9 & + o E.E.E.E.E.E.E.E.E.E.E.E.",
"E.E.E.E.o + $ 8 p ~ +.0.r.i.4.*.a - @ o X + + o o o - a | 5.a.d.s.a.i.q.7.@.] ] ] ] _ ] @.' ~ s 9 $ + o E.E.E.E.E.E.E.E.E.E.E.E.",
"E.E.E.E.o + $ 8 p ~ %.u.n.A.l.6.v 2 @ o o o + X o # > c 5.l.D.P.I.D.Z.k.e.%.] _ ] ] ] @.@._ ~ d 9 $ + o E.E.E.E.E.E.E.E.E.E.E.E.",
"E.E.E.E.o + $ 8 p ~ %.c.V.K.D.s.C 3 o X o o o X o o 3 m p.D.U.T.T.U.K.M.u.7.] ' ' ] ] ] [ ] ~ d 9 & + o E.E.E.E.E.E.E.E.E.E.E.E.",
"E.E.E.E.X + $ 8 p ~ %.c.F.L.G.d.C 3 o . o + o X . + 3 C s.D.Y.R.R.Y.I.M.y.%.{ _ ' ] ] [ @._ ~ d 9 $ + o E.E.E.E.E.E.E.E.E.E.E.E.",
"E.E.E.E.o + $ 8 p ~ %.c.M.H.Z.s.m ; @ X . o + o . + 3 n i.S.I.Y.U.I.G.N.u.%.] ' _ ] _ ] @.] ~ d 9 $ o o E.E.E.E.E.E.E.E.E.E.E.E.",
"E.E.E.E.X + & 8 s ~ #.t.h.l.j.2.z > + X X + + o o o 2 c 2.j.z.S.S.C.l.h.9.&.] ' ' @.@.@.@._ ~ P 8 & + . E.E.E.E.E.E.E.E.E.E.E.E.",
"E.E.E.E.X + $ 8 d ~ O.%.<.1.-.v 6 - + X o o + + o o - 6 v =.5.5.4.2.1.,.+.` ] ] ' _ _ @.@.' ~ p 8 & + o E.E.E.E.E.E.E.E.E.E.E.E.",
"E.E.E.E.o + * 8 d ~ _ E x a 6 3 - # + + + + + o o @ & - 3 e a h h h j x E ) ] ] ' @._ @.@...~ p 8 & + o E.E.E.E.E.E.E.E.E.E.E.E.",
"E.E.E.E.X + & 0 d ~ ^ U i 1 & @ # o o + + + + o @ o o @ # # # # # - , r P ~ ] [ @.@.' [ @.' ~ P 8 & @ . E.E.E.E.E.E.E.E.E.E.E.E.",
"E.E.E.E.o o & 9 d ~ ( U s 8 * % # + o o o + + + o o o o . . o + $ * 8 p Y ^ ] { @._ ] ] @.] ~ d 9 & + . E.E.E.E.E.E.E.E.E.E.E.E.",
"E.E.E.E.o + & 9 d ~ _ ( U s p 8 * @ o o o + + + o @ o o . . @ & 8 y P U ~ ) ] ] ] ] ] @.@._ ~ s 8 & @ . E.E.E.E.E.E.E.E.E.E.E.E.",
"E.E.E.E.o + & 9 d ~ ] @.] ( U s 8 & # o + + + + + + # o o @ & 8 p U ^ _ ] _ ] ] ] ] ] [ @._ ~ s 9 & + o E.E.E.E.E.E.E.E.E.E.E.E.",
"E.E.E.E.. + & 8 d ~ ] @.@.@.( U i 8 * & @ + + o o + + # & * < y U ( ] { [ ] ] ] ] ] _ ] @.] ~ s 9 & + X E.E.E.E.E.E.E.E.E.E.E.E.",
"E.E.E.E.o + & 0 d ( @.$.$.@._ ~ U s r < * @ +   . X @ % 8 q s I ~ ] [ @.@.] ] _ ] ] ] ] @.] ~ s 0 & o o E.E.E.E.E.E.E.E.E.E.E.E.",
"E.E.E.E.o o & 0 d ~ ] @.@.@._ _ ~ ~ I i < @ + + . @ $ < y I ~ ( _ ' ] ] ] ] ] ] ] ] ] @.@._ ~ s 8 & + o E.E.E.E.E.E.E.E.E.E.E.E.",
"E.E.E.E.o + $ < i U ~ ) ' ] ] [ @._ ~ f a ; & O O O ; a P ^ ] ] [ _ ] ] ] ] _ ] ] ] ] ] @.] ~ s 0 $ o o E.E.E.E.E.E.E.E.E.E.E.E.",
"E.E.E.E.o + # * 0 i d U ~ ) ] [ $.[ ..} V B M M M N B V } ..@.[ [ ] ] ] _ ] @.] ] ] _ [ @.] ~ s < $ o o o E.E.E.E.E.E.E.E.E.E.E.",
"E.E.E.E.o + + $ & < 0 p U ( ' [ $.@.o. .D S G G G H S D  .O.] [ ] ] ] ] ] ] ] ] ] _ ] @.@.] ~ d 8 $ o o o o + E.E.E.E.E.E.E.E.E.",
"E.E.E.E.+ + + o o # * 0 P ~ ] [ [ ..o. .F J K L L K J F ;.O.] ' ' ] ] ] @._ ] _ ] ] _ @.@.' ~ P q * # o + + + + E.E.E.E.E.E.E.E.",
"E.E.E.E.E.+ o o o o & 9 s ~ ] $.[ ' X. .V A H G G Z S D  .X.] ] ' ] ] _ ] ] ] ] ] ] _ ] ] ] ( U p 0 < & # + o o o E.E.E.E.E.E.E.",
"E.E.E.E.E.E.E.o . o $ < s ~ ' [ $.] .. .V B M M M N N c R / ] ] [ ] ] ] _ ] ] ] ] ] @.] ] ] ) ~ U P u 0 , # o o o o + E.E.E.E.E.",
"E.E.E.E.E.E.E.E.o o $ 9 d ~ ] @.$.] ^ f w ; - O O = > w f ~ ] [ [ ] ] _ ] _ _ ] _ ] ] ] ] ] ] _ _ ~ U s 8 $ @ o o @ + + E.E.E.E.",
"E.E.E.E.E.E.E.E.o + & 9 d ~ ' @.$.] ~ P 8 $ + .   X $ 9 P ~ ] { @.] ] ] ] ] { ] { ] ] ] ] ] ] ] @.] ~ I y < * @ + @ o o E.E.E.E.",
"E.E.E.E.E.E.E.E.o + & 8 s ~ [ @.$.{ ( d 8 $ +     + $ 8 P ~ { { ] ] _ @.] ] ] ] ] _ ] _ _ ] ] { @.@._ ~ I g q < & @ o o E.E.E.E.",
"E.E.E.E.E.E.E.E.o o & 0 s ~ ] $.$.] ~ d 9 % +   . + $ 8 d ~ [ { @.] { _ ] ] ] ] ] ] ] ] ] ] ] { ] ] ] _ ~ ~ P r < $ @ o E.E.E.E.",
"E.E.E.E.E.E.E.E.. + & 9 d ~ ] @.] ) Y p 9 - o o X + # 8 p Y ) _ _ ] ] ] ] _ ] _ ] ] _ ] ] ] ] _ ] ] ] [ ] _ ~ s 9 $ o o E.E.E.E.",
"E.E.E.E.E.E.E.E.o + * 9 d ~ _ ( Y P i 0 : # # o X + $ , 9 i P Y ( _ ] @.[ { @.[ { { [ @.{ ] ] [ ] ] $.$.$.@.( s 0 & + o E.E.E.E.",
"E.E.E.E.E.E.E.E.. + & 9 P ~ _ ~ s q < : $ + o o X + @ # : < q p U ( [ @.$.@.] { { { { ] { { [ { @.@.@.$.$.@.( P 0 $ + o E.E.E.E.",
"E.E.E.E.E.E.E.E.o + & 0 s Y ~ s q : # + o + @ o + + + + + # : 9 d ~ _ ] _ _ _ _ _ _ _ _ _ _ _ _ ) _ ) ] [ ) ! s 8 $ + o E.E.E.E.",
"E.E.E.E.E.E.E.E.o o $ < r s s r , # o o o o o # o o @ o o o $ , q d I U U U I I I I I P Y P P U I P I U U I d q < $ + o E.E.E.E.",
"E.E.E.E.E.E.E.E.o + # & < 9 9 < & @ o o o # o # @ @ o o o o + $ , 0 q q q 0 q q q q q q q q q q q q q q q q 0 : & + + o E.E.E.E.",
"E.E.E.E.E.E.E.E.+ + + # & & & @ # @ @ o o @ o o o @ + o + + + # $ & & & & * & $ & $ & $ $ - $ $ & $ & * $ & & $ @ + + o E.E.E.E.",
"E.E.E.E.E.E.E.E.+ + + + o + o o # o o o @ o o # o o + + o + + + o o o + o o + o + + o o o + + + o + o + o + + o o + + + E.E.E.E.",
"E.E.E.E.E.E.E.E.E.E.+ o o o o o o o # @ o @ o @ # @ o o + + o o o o o o o o o   o X o o X o X o o o o . o o o o o + E.E.E.E.E.E.",
"E.E.E.E.E.E.E.E.E.E.E.E.E.E.E.E.E.E.E.E.E.E.E.E.E.E.E.E.E.E.E.E.E.E.E.E.E.E.E.E.E.E.E.E.E.E.E.E.E.E.E.E.E.E.E.E.E.E.E.E.E.E.E.E.",
"E.E.E.E.E.E.E.E.E.E.E.E.E.E.E.E.E.E.E.E.E.E.E.E.E.E.E.E.E.E.E.E.E.E.E.E.E.E.E.E.E.E.E.E.E.E.E.E.E.E.E.E.E.E.E.E.E.E.E.E.E.E.E.E.",
"E.E.E.E.E.E.E.E.E.E.E.E.E.E.E.E.E.E.E.E.E.E.E.E.E.E.E.E.E.E.E.E.E.E.E.E.E.E.E.E.E.E.E.E.E.E.E.E.E.E.E.E.E.E.E.E.E.E.E.E.E.E.E.E."
};
