/* XPM */
static char *result[] = {
/* columns rows colors chars-per-pixel */
"64 64 169 2 ",
"   c #2B2C37",
".  c #2D2E39",
"X  c #2F303B",
"o  c #32333C",
"O  c #443F3C",
"+  c #50473D",
"@  c #2F3140",
"#  c #353541",
"$  c #383744",
"%  c #3A3946",
"&  c #3E3C4C",
"*  c #383748",
"=  c #3E3D52",
"-  c #403E4E",
";  c #423F52",
":  c #474242",
">  c #44434C",
",  c #4E474F",
"<  c #524943",
"1  c #454255",
"2  c #4C4B54",
"3  c #464259",
"4  c #4A465D",
"5  c #4C4A56",
"6  c #504E56",
"7  c #584E50",
"8  c #524F5E",
"9  c #57555D",
"0  c #58575D",
"q  c #5B5A5F",
"w  c #7C6644",
"e  c #7C6753",
"r  c #4C4762",
"t  c #4E4963",
"y  c #504A65",
"u  c #554E6C",
"i  c #5A5165",
"p  c #5D5C62",
"a  c #57506E",
"s  c #5B566D",
"d  c #574F72",
"f  c #575070",
"g  c #5A5273",
"h  c #5E557A",
"j  c #625666",
"k  c #615F64",
"l  c #605D69",
"z  c #60577C",
"x  c #62587D",
"c  c #695D7F",
"v  c #605973",
"b  c #636166",
"n  c #6C6A6E",
"m  c #656268",
"M  c #7C6968",
"N  c #6B617D",
"B  c #6C6871",
"V  c #726F72",
"C  c #716B7F",
"Z  c #757276",
"A  c #7A767B",
"S  c #7C797B",
"D  c #8C7148",
"F  c #8D7242",
"G  c #8B7155",
"H  c #87716A",
"J  c #807D7E",
"K  c #BC9247",
"L  c #B8904C",
"P  c #B08B58",
"I  c #BB9359",
"U  c #A6866D",
"Y  c #B7916D",
"T  c #C4984D",
"R  c #C99B48",
"E  c #CC9F5A",
"W  c #D9A64F",
"Q  c #DFAA4A",
"!  c #655B83",
"~  c #685E87",
"^  c #6A5E89",
"/  c #6A6083",
"(  c #6D618D",
")  c #776987",
"_  c #7D758A",
"`  c #6E6291",
"'  c #726594",
"]  c #766896",
"[  c #756799",
"{  c #77699A",
"}  c #796B9E",
"|  c #7C6C96",
" . c #7C7195",
".. c #7E719D",
"X. c #7D6DA3",
"o. c #7D6EA8",
"O. c #7768A0",
"+. c #7F70A6",
"@. c #847083",
"#. c #827D87",
"$. c #957C84",
"%. c #806F99",
"&. c #897597",
"*. c #857498",
"=. c #847497",
"-. c #8172A6",
";. c #8779A6",
":. c #8171A9",
">. c #8B7DAA",
",. c #8A7EA0",
"<. c #878384",
"1. c #888585",
"2. c #928E8F",
"3. c #9E8284",
"4. c #94908F",
"5. c #918B92",
"6. c #90879A",
"7. c #969191",
"8. c #9A9593",
"9. c #8B8395",
"0. c #A49E9C",
"q. c #A6A19E",
"w. c #8F81AC",
"e. c #948AA4",
"r. c #9588AB",
"t. c #9A8CB2",
"y. c #9F91B4",
"u. c #A49AAB",
"i. c #A094B3",
"p. c #AA9DBB",
"a. c #A598B6",
"s. c #AEA9A4",
"d. c #ADA5AB",
"f. c #A9A4A1",
"g. c #B2ADA8",
"h. c #B6B0AC",
"j. c #B9B3AE",
"k. c #AEA4B4",
"l. c #B4A9BA",
"z. c #BCB6B0",
"x. c #C1B9BA",
"c. c #CCC4BE",
"v. c #B1A3C2",
"b. c #BAAEC2",
"n. c #BEB3C1",
"m. c #C4B9C6",
"M. c #C5B9C8",
"N. c #C4B9C8",
"B. c #CEC6C0",
"V. c #CCC0CC",
"C. c #D3CBC3",
"Z. c #D5CBCC",
"A. c #D0C5CB",
"S. c #DCD4CC",
"D. c #D5CAD3",
"F. c #DDD3D3",
"G. c #E0D6D3",
"H. c #E2DAD1",
"J. c #E6DCD9",
"K. c #E8DEDB",
"L. c #EBE2D7",
"P. c #ECE3DB",
"I. c #F5ECDF",
"U. c #F6ECE1",
"Y. c #F9EFE4",
"T. c #FFF6E9",
"R. c #FFFAEC",
"E. c #F9F0E5",
"W. c None",
/* pixels */
"W.W.W.W.o # # o o o o o o o o o o o o o o o o X o o o o o o o X o o o X . . .   .   . .   . . . o o o % W.W.W.W.W.W.W.W.W.W.W.W.",
"W.W.W.W.# # # # $ $ $ $ o $ $ # # # # # $ # $ $ $ o $ $ # $ # $ $ # $ $ $ % % % % % % % % % % % o $ o o W.W.W.W.W.W.W.W.W.W.W.W.",
"W.W.W.W.# # $ % - 1 1 3 1 1 1 1 1 1 1 1 1 1 1 1 1 1 1 1 1 1 3 ; 1 3 4 8 0 q k b b p k b b k 0 2 > % % o W.W.W.W.W.W.W.W.W.W.W.W.",
"W.W.W.W.o # % ; 4 u g g g g g g g g g g g g g g g g g g g g g g f g v C #.2.8.8.8.8.8.8.8.7.<.Z q > o o W.W.W.W.W.W.W.W.W.W.W.W.",
"W.W.W.W.o o & 4 g ~ ' ' ' ` ' ( ' ` ' ' ( ' ( ' ( ' ` ' ( ' ' ` ` ` | e.d.x.B.C.C.B.C.C.C.c.j.4.n 2 o X W.W.W.W.W.W.W.W.W.W.W.W.",
"W.W.W.W.o # & t z ' } +.+.X.X.X.X.X.} X.X.X.X.X.} +.X.X.X.X.X.O.O.X.;.y.b.A.F.G.F.F.F.K.P.L.C.q.Z 2 $   W.W.W.W.W.W.W.W.W.W.W.W.",
"W.W.W.W.o # - t x ' +.:.:.-.+.+.:.:.:.:.:.:.:.:.-.:.:.:.-.:.:.:.X.+.>.t.p.b.m.m.M.M.M.F.P.U.S.s.S 6 o   W.W.W.W.W.W.W.W.W.W.W.W.",
"W.W.W.W.o o & y ! ' X.:.X.X.X.+.X.:.X.-.X.-.+.+.+.+.+.+.X.+.X.X.X.+.:.>.w.t.t.t.t.y.p.N.D.J.S.s.S 2 $   W.W.W.W.W.W.W.W.W.W.W.W.",
"W.W.W.W.o # - t x ' X.X.X.X.X.} } } [ [ [ } { { } [ { [ { [ } } } X.X.+.+.+.-.+.X.-.w.p.M.Z.B.q.Z 2 o   W.W.W.W.W.W.W.W.W.W.W.W.",
"W.W.W.W.o # & t z ' X.+.:.X.X.[ ( / ~ ! ! ! ~ ! ~ ! ~ ~ ! ~ / ` [ X.X.X.X.O.} { { O.;.t.v.n.l.5.B 2 $ . W.W.W.W.W.W.W.W.W.W.W.W.",
"W.W.W.W.o o & t z ' X.-.:.X.{ ( z a y y t t t y t t t t t t a h ( } X.X.X.X.O.O.} O.+.>.t.i.e._ s > # X W.W.W.W.W.W.W.W.W.W.W.W.",
"W.W.W.W.o # & t x ' X.+.+.X.' ! u 1 & % & & & % & & & % % & 1 a ! ' } X.X.X.X.X.X.X.+.:.;.;...~ y > # o W.W.W.W.W.W.W.W.W.W.W.W.",
"W.W.W.W.X # & y z ' } } [ ( ! d 4 % o o o $ o o o o o o X o % 3 u ! ( ' { O.X.X.X.X.X.X.X.O.' z y & # o W.W.W.W.W.W.W.W.W.W.W.W.",
"W.W.W.W.o # & t x ' [ ' ! d t 1 & % o o o o o o o o o X . X X * ; t d ! ` { X.X.X.X.X.X.X.O.` h t & # o W.W.W.W.W.W.W.W.W.W.W.W.",
"W.W.W.W.o # & y ! ' ] ~ d 3 = $ $ o o o o o o # $ o o o o o o $ * & 4 a ~ ] X.X.X.X.X.X.:.X.' z t & # o W.W.W.W.W.W.W.W.W.W.W.W.",
"W.W.W.W.o # - t x ' ] ( v 8 5 > % $ $ # o $ # # o o $ > > > 2 2 5 5 8 g ~ ] X.X.X.X.X.X.X.X.' z t - o X W.W.W.W.W.W.W.W.W.W.W.W.",
"W.W.W.W.o # & t ! ` }  .#.A V p 2 & # o o # # o o $ & 6 b Z S S S S _ _  ...X.X.X.X.X.X.-.X.' x t & # o W.W.W.W.W.W.W.W.W.W.W.W.",
"W.W.W.W.o # & r h ' ;.r.u.d.q.<.m > # X o # # o X $ > m <.q.h.j.z.g.f.u.e.-.X.X.O.X.X.:.:.} ' z t & # o W.W.W.W.W.W.W.W.W.W.W.W.",
"W.W.W.W.o # & r h ' >.a.N.Z.c.q.S 2 # X o # o o X o 2 Z 0.c.H.L.L.H.Z.z.y.;.X.O.O.X.} X.-.} ' z t - # o W.W.W.W.W.W.W.W.W.W.W.W.",
"W.W.W.W.X # & r h ' w.v.D.J.S.g.J 2 # X X o # X X $ 2 S s.S.U.T.T.U.J.M.p.w.X.O.} X.X.-.:.} ' x t - o X W.W.W.W.W.W.W.W.W.W.W.W.",
"W.W.W.W.o # & r h ' w.v.D.K.S.h.J 6 # X X # o X X # 2 S h.S.E.R.R.E.K.V.p.w.X.{ O.O.X.:.X.X.' z t & # o W.W.W.W.W.W.W.W.W.W.W.W.",
"W.W.W.W.o o & r h ' >.v.V.F.C.s.S 6 # X X # # X X $ 2 A f.C.P.I.U.P.F.m.a.>.X.} X.X.X.X.-.X.' z t & o o W.W.W.W.W.W.W.W.W.W.W.W.",
"W.W.W.W.o # & r h ' ;.y.b.x.k.7.n 2 # X X # # X X $ 2 n 4.j.c.C.c.c.x.k.t.;.X.O.O.X.X.X.:.} ' x t - # o W.W.W.W.W.W.W.W.W.W.W.W.",
"W.W.W.W.o # & r z ' +.,.9.5.U V 0 > # o o # # o X o > 0 V 1.7.8.8.4.5.9.*.%.X.X.X.} X.-.-.} ' z t & # o W.W.W.W.W.W.W.W.W.W.W.W.",
"W.W.W.W.o # & t ! ' [ ) N p i 2 > % # o o # # o # # % > 6 0 p p q q s N ) { X.+.X.X.X.:.X.X.' x t - o o W.W.W.W.W.W.W.W.W.W.W.W.",
"W.W.W.W.o # & y x ' [ ^ a 4 - % # o # # # # # # # o # # $ $ $ $ % > 3 u ! ' X.+.X.X.X.X.:.X.' z t & # X W.W.W.W.W.W.W.W.W.W.W.W.",
"W.W.W.W.o o & y ! ' [ ( h y 3 = % # o o # # # # o # o o X X X # & 3 y h ^ [ } X.X.X.X.X.X.} ] x t & # o W.W.W.W.W.W.W.W.W.W.W.W.",
"W.W.W.W.o # - t x ' { [ ` ! g t 1 % o o o X # # # # # o X X # = t g ! ` ' { X.+.X.X.X.X.:.} ' x t - # o W.W.W.W.W.W.W.W.W.W.W.W.",
"W.W.W.W.o # & t h ' X.+.X.[ ` h y - # # # # # # # # # # o # = t h ` [ X.X.X.X.X.} X.X.X.X.X.' x t - # o W.W.W.W.W.W.W.W.W.W.W.W.",
"W.W.W.W.o # - t x [ X.:.:.+.[ ^ g t 1 & * # # X X # # * = 1 r h ( [ X.X.+.X.X.X.X.X.X.X.-.X.' x t & o o W.W.W.W.W.W.W.W.W.W.W.W.",
"W.W.W.W.X # & t x [ +.+.:.X.X.' ( h s r = @ @ @ X @ * = r f ! / ' } X.+.X.X.X.} X.X.X.:.:.X.' ! y & # o W.W.W.W.W.W.W.W.W.W.W.W.",
"W.W.W.W.o o - t x ' X.+.+.X.X.} { ' ( g 4 & # X X # % r g / ' { } X.X.X.X.X.X.X.X.X.X.+.X.X.' x t - o o W.W.W.W.W.W.W.W.W.W.W.W.",
"W.W.W.W.o # % 4 g ^ ] { X.O.X.X.:.} ] ) j 7 < + + 7 7 j c ] O.:.+.X.X.X.X.X.X.} X.X.X.} } ' ~ g 4 % # o W.W.W.W.W.W.W.W.W.W.W.W.",
"W.W.W.W.o $ % ; 4 a z ^ ' } X.o.X.-.%.@.H G D F F D G H @.%.:.o.X.X.O.X.X.X.X.X.X.X.[ ' ^ z g 4 ; % # o W.W.W.W.W.W.W.W.W.W.W.W.",
"W.W.W.W.o # $ % & ; t g ~ [ X.X.o.X.&.$.U I T R R T T U $.&.-.O.X.X.X.X.X.X.X.X.X.X.] ^ g t 1 - % $ # # W.W.W.W.W.W.W.W.W.W.W.W.",
"W.W.W.W.# # $ o # $ ; y z ] X.o.o.X.&.$.Y E W Q Q W E Y $.&.:.O.X.X.X.X.X.X.X.X.-.O.] x y ; $ o # o # # W.W.W.W.W.W.W.W.W.W.W.W.",
"W.W.W.W.W.# o o o o - 4 z ' } X.o.X.%.$.U P L K T L P H J &.%.O.X.X.X.} } X.X.+.-.X.' z 4 & o o o o # W.W.W.W.W.W.W.W.W.W.W.W.W.",
"W.W.W.W.W.W.W.o X o % t z ' X.:.o.X.%.C M e w w w w G H ) | -.:.X.X.X.X.X.X.} +.-.} ' z t & o o o W.W.W.W.W.W.W.W.W.W.W.W.W.W.W.",
"W.W.W.W.W.W.W.W.o # - y z ' X.:.:.%.' c i , + O O - , i c ' X.+.X.X.X.X.X.X.X.X.+.} ' z t > o o W.W.W.W.W.W.W.W.W.W.W.W.W.W.W.W.",
"W.W.W.W.W.W.W.W.X # - t z ' X.:.:.-.' z y * X X X @ * 4 x ' X.X.X.X.X.X.} X.X.+.+.X.' h t & o o o W.W.W.W.W.W.W.W.W.W.W.W.W.W.W.",
"W.W.W.W.W.W.W.W.X o - t z ' X.:.:.O.' ! r = @   . @ * t ! ` X.+.X.X.X.X.X.X.} +.+.} ` h t & o o o o W.W.W.W.W.W.W.W.W.W.W.W.W.W.",
"W.W.W.W.W.W.W.W.o $ - y z ' } :.:.-.' x r * @ . o o & t h [ X.X.+.X.X.X.X.X.X.X.+.X.' ! t & o o o o # $ W.W.W.W.W.W.W.W.W.W.W.W.",
"W.W.W.W.W.W.W.W.o o - t z ' -.:.:.O.] x t - $ o o o - t ! ` X.+.X.X.X.} X.} X.X.+.X.[ ! a 1 & $ $ $ $ o W.W.W.W.W.W.W.W.W.W.W.W.",
"W.W.W.W.W.W.W.W.X o - t z ' } :.:.O.' x y - o o o o & t h [ X.+.X.X.X.X.X.X.X.X.X.+.{ ( x a 4 1 % $ o o o W.W.W.W.W.W.W.W.W.W.W.",
"W.W.W.W.W.W.W.W.o # - t z ' } :.:.X.' x t - o X o o - y z ' X.-.X.X.X.} X.X.X.X.X.X.} [ ' ( x a 3 % o o o # # W.W.W.W.W.W.W.W.W.",
"W.W.W.W.W.W.W.W.o o - r z ' X.:.:.X.' x y - o o o # - y x ' X.X.X.X.X.X.X.X.X.X.X.} X.} +.[ ` z y 1 % # # # # o W.W.W.W.W.W.W.W.",
"W.W.W.W.W.W.W.W.X $ - t z ' X.:.:.X.' ! y - $ o X o & y ! ] X.-.+.X.X.X.X.X.X.} X.X.X.+.+.X.[ ( h y 3 - % $ # o W.W.W.W.W.W.W.W.",
"W.W.W.W.W.W.W.W.o o - t z ' X.:.:.:.' c y - o . o # & y x [ X.:.+.X.X.X.} X.X.X.X.X.X.X.+.X.X.' ( ! g t 1 % # o W.W.W.W.W.W.W.W.",
"W.W.W.W.W.W.W.W.o # - y z ' X.:.+.+.` h t & o o o $ & t z ' } X.+.X.X.X.X.X.X.X.} X.X.X.X.X.X.X.} ] ^ g 4 & # o W.W.W.W.W.W.W.W.",
"W.W.W.W.W.W.W.W.o # % y x ] X.} } ` ~ g 4 & $ o o o & 4 g ! ' ] { } X.+.X.X.X.X.+.X.X.X.X.X.X.+.-.X.' ! y & # o W.W.W.W.W.W.W.W.",
"W.W.W.W.W.W.W.W.o # - y ! ] } ] ( g a 4 1 % $ o o # $ > 4 u h ~ ` X.X.+.+.+.+.+.+.X.+.+.+.X.+.:.:.+.[ ! y & o o W.W.W.W.W.W.W.W.",
"W.W.W.W.W.W.W.W.X o - y x ' [ ^ g 4 1 & $ o o o # # # % & 1 4 g / [ +.+.+.X.+.+.X.X.X.+.X.X.+.+.:.X.[ x y - # o W.W.W.W.W.W.W.W.",
"W.W.W.W.W.W.W.W.o # & t h ( ( h t > # o o # $ o # o # o o $ - 4 h ( ' { } ] [ ] ' [ ' [ ] [ [ [ } ] ( g r & # o W.W.W.W.W.W.W.W.",
"W.W.W.W.W.W.W.W.o # % 3 y g g y 1 $ X X o o o $ # # # o o o % 1 t g h ! x h h h h x x h x h h x ! h g y 1 % # o W.W.W.W.W.W.W.W.",
"W.W.W.W.W.W.W.W.o # % % ; 3 4 1 > $ # o # # $ o # # # o o o % % 1 3 4 r 4 4 4 4 4 4 4 4 4 4 4 4 4 4 3 ; & $ # o W.W.W.W.W.W.W.W.",
"W.W.W.W.W.W.W.W.# # # # % % % # # % # # o # o $ # o # # $ o $ $ # $ % $ $ & $ $ & % $ & % % & % % % $ $ # # # # W.W.W.W.W.W.W.W.",
"W.W.W.W.W.W.W.W.W.# # o o o o # o $ o $ o $ $ o $ # o $ o $ o $ # X o o o o o o o o o o o o o o o o o o o # # W.W.W.W.W.W.W.W.W.",
"W.W.W.W.W.W.W.W.W.W.W.W.W.W.W.W.W.W.W.W.W.W.W.W.W.W.W.W.W.W.W.W.W.W.W.W.W.W.W.W.W.W.W.W.W.W.W.W.W.W.W.W.W.W.W.W.W.W.W.W.W.W.W.W.",
"W.W.W.W.W.W.W.W.W.W.W.W.W.W.W.W.W.W.W.W.W.W.W.W.W.W.W.W.W.W.W.W.W.W.W.W.W.W.W.W.W.W.W.W.W.W.W.W.W.W.W.W.W.W.W.W.W.W.W.W.W.W.W.W.",
"W.W.W.W.W.W.W.W.W.W.W.W.W.W.W.W.W.W.W.W.W.W.W.W.W.W.W.W.W.W.W.W.W.W.W.W.W.W.W.W.W.W.W.W.W.W.W.W.W.W.W.W.W.W.W.W.W.W.W.W.W.W.W.W.",
"W.W.W.W.W.W.W.W.W.W.W.W.W.W.W.W.W.W.W.W.W.W.W.W.W.W.W.W.W.W.W.W.W.W.W.W.W.W.W.W.W.W.W.W.W.W.W.W.W.W.W.W.W.W.W.W.W.W.W.W.W.W.W.W.",
"W.W.W.W.W.W.W.W.W.W.W.W.W.W.W.W.W.W.W.W.W.W.W.W.W.W.W.W.W.W.W.W.W.W.W.W.W.W.W.W.W.W.W.W.W.W.W.W.W.W.W.W.W.W.W.W.W.W.W.W.W.W.W.W.",
"W.W.W.W.W.W.W.W.W.W.W.W.W.W.W.W.W.W.W.W.W.W.W.W.W.W.W.W.W.W.W.W.W.W.W.W.W.W.W.W.W.W.W.W.W.W.W.W.W.W.W.W.W.W.W.W.W.W.W.W.W.W.W.W.",
"W.W.W.W.W.W.W.W.W.W.W.W.W.W.W.W.W.W.W.W.W.W.W.W.W.W.W.W.W.W.W.W.W.W.W.W.W.W.W.W.W.W.W.W.W.W.W.W.W.W.W.W.W.W.W.W.W.W.W.W.W.W.W.W."
};
