/* XPM */
static char *result[] = {
/* columns rows colors chars-per-pixel */
"64 64 166 2 ",
"   c #2A2A36",
".  c #2D2E3A",
"X  c #2F303C",
"o  c #32333D",
"O  c #403C3C",
"+  c #554B3D",
"@  c #353541",
"#  c #383744",
"$  c #3A3946",
"%  c #3E3C4D",
"&  c #393748",
"*  c #433F41",
"=  c #403E4E",
"-  c #413F52",
";  c #44434D",
":  c #4B454E",
">  c #584D43",
",  c #444154",
"<  c #4D4C54",
"1  c #464359",
"2  c #4A465D",
"3  c #4D4A5B",
"4  c #484750",
"5  c #504F56",
"6  c #5D5150",
"7  c #56555A",
"8  c #756243",
"9  c #776353",
"0  c #4C4662",
"q  c #4E4963",
"w  c #514B65",
"e  c #534D6A",
"r  c #5C5B60",
"t  c #57506F",
"y  c #59526D",
"u  c #565167",
"i  c #564E70",
"p  c #575070",
"a  c #5A5273",
"s  c #5E557A",
"d  c #625D65",
"f  c #635F6D",
"g  c #60577C",
"h  c #62587D",
"j  c #645F71",
"k  c #646267",
"l  c #676569",
"z  c #69666A",
"x  c #796769",
"c  c #696570",
"v  c #6F637E",
"b  c #6F6D70",
"n  c #716E73",
"m  c #716D78",
"M  c #747275",
"N  c #7A7779",
"B  c #7D797C",
"V  c #787577",
"C  c #947743",
"Z  c #937649",
"A  c #907555",
"S  c #8B7369",
"D  c #807D7E",
"F  c #B58D46",
"G  c #B28C4C",
"H  c #AB8858",
"J  c #BF9559",
"K  c #9F816C",
"L  c #AD8A6C",
"P  c #B6916D",
"I  c #CC9D4B",
"U  c #CB9E5A",
"Y  c #D8A64F",
"T  c #DDA94A",
"R  c #655B83",
"E  c #685E87",
"W  c #6A5E8A",
"Q  c #6D618D",
"!  c #6F6784",
"~  c #736C82",
"^  c #7B6A82",
"/  c #756B8E",
"(  c #777086",
")  c #6F6391",
"_  c #736695",
"`  c #766996",
"'  c #7D6E94",
"]  c #75679A",
"[  c #76699A",
"{  c #796B9D",
"}  c #7B7094",
"|  c #7C6DA3",
" . c #7F70A6",
".. c #847081",
"X. c #857E8F",
"o. c #917984",
"O. c #987E83",
"+. c #867397",
"@. c #887597",
"#. c #857299",
"$. c #877C9B",
"%. c #8171A6",
"&. c #8678A6",
"*. c #887AA7",
"=. c #8171A8",
"-. c #8B7DAA",
";. c #8779A8",
":. c #858182",
">. c #9E8284",
",. c #928E8E",
"<. c #938A9C",
"1. c #9A9695",
"2. c #9B959A",
"3. c #9E9997",
"4. c #A29C9A",
"5. c #A6A19C",
"6. c #8E82A3",
"7. c #8E80AC",
"8. c #9488A8",
"9. c #9D94A3",
"0. c #9D90AF",
"q. c #9A8CB2",
"w. c #9F92B1",
"e. c #A39DA1",
"r. c #A297AC",
"t. c #A294B6",
"y. c #A699B8",
"u. c #AA9DBA",
"i. c #ABA5A2",
"p. c #AFA9A4",
"a. c #B1ABA6",
"s. c #B2ACAA",
"d. c #B8B2AD",
"f. c #AEA0BF",
"g. c #B2A5BF",
"h. c #B8AEBD",
"j. c #B4AAB9",
"k. c #BDB7B1",
"l. c #BFB7B7",
"z. c #C0B9B3",
"x. c #C5BEB8",
"c. c #CCC5BF",
"v. c #AFA1C0",
"b. c #B6A9C2",
"n. c #BCB1C0",
"m. c #C6BBC9",
"M. c #C5BAC6",
"N. c #CBC3C3",
"B. c #CDC2CD",
"V. c #D5CDC6",
"C. c #D1C6CD",
"Z. c #D7CFC8",
"A. c #DCD4CC",
"S. c #D6CAD3",
"D. c #D0C4D1",
"F. c #DED5D1",
"G. c #E0D7D3",
"H. c #E3DAD3",
"J. c #E9DEDC",
"K. c #E4DAD8",
"L. c #EDE4DD",
"P. c #F1E7DD",
"I. c #F3EADF",
"U. c #FBF1E5",
"Y. c #FFFAEC",
"T. c None",
/* pixels */
"T.T.T.T.T.T.T.T.T.T.T.T.T.T.T.T.T.T.T.T.T.T.T.T.T.T.T.T.T.T.T.T.T.T.T.T.T.T.T.T.T.T.T.T.T.T.T.T.T.T.T.T.T.T.T.T.T.T.T.T.T.T.T.T.",
"T.T.T.T.T.T.T.T.T.T.T.T.T.T.T.T.T.T.T.T.T.T.T.T.T.T.T.T.T.T.T.T.T.T.T.T.T.T.T.T.T.T.T.T.T.T.T.T.T.T.T.T.T.T.T.T.T.T.T.T.T.T.T.T.",
"T.T.T.T.T.T.T.T.T.T.T.T.T.T.T.T.T.T.T.T.T.T.T.T.T.T.T.T.T.T.T.T.T.T.T.T.T.T.T.T.T.T.T.T.T.T.T.T.T.T.T.T.T.T.T.T.T.T.T.T.T.T.T.T.",
"T.T.T.T.T.T.@ o o o o . o . X o . X o o o X o X o . X o X X o X o X X . .                     X o o T.T.T.T.T.T.T.T.T.T.T.T.T.T.",
"T.T.T.T.@ @ o @ @ o o @ o o @ o @ o @ @ @ @ @ # o o o @ @ o @ @ @ o o o o @ @ o o o @ o @ o @ o @ @ @ @ T.T.T.T.T.T.T.T.T.T.T.T.",
"T.T.T.T.@ o @ $ % % = % = % - ; % % % % % % % % = = % % % ; % % = % - , 4 < < 5 5 5 7 5 5 5 < ; % # @ o T.T.T.T.T.T.T.T.T.T.T.T.",
"T.T.T.T.o @ $ % 1 q w e e e e w e e e w w w w w e w w q e e w w w e u c m B :.:.:.:.:...:.D M k 5 ; o o T.T.T.T.T.T.T.T.T.T.T.T.",
"T.T.T.T.o @ % 1 t h E E Q E E E E E E W W W E E E Q E Q W E E E R E / $.9.s.k.x.k.k.k.x.k.k.i.:.k ; o o T.T.T.T.T.T.T.T.T.T.T.T.",
"T.T.T.T.o @ % q s Q { | { { | { | { { { { | { { | { { { | { { { [ | &.0.h.C.A.H.G.F.F.H.J.H.c.4.M < @   T.T.T.T.T.T.T.T.T.T.T.T.",
"T.T.T.T.o @ % q h ` | =. . .| | | %.%. .=.| =.=.|  .=.=.|  . .| |  .;.q.v.m.C.D.C.C.S.K.L.L.A.i.N 5 @   T.T.T.T.T.T.T.T.T.T.T.T.",
"T.T.T.T.X @ % q h ]  . .=.| | =.%.=.=.%.=.=.=. .=.=.| =.=. .|  .|  .=.7.w.y.f.y.u.u.b.B.K.L.A.p.N 5 @ . T.T.T.T.T.T.T.T.T.T.T.T.",
"T.T.T.T.o @ ; q h _ |  .| | | | | { | { | { | { | | | { | | | | | | %.=.=.*.=.=.&.*.q.g.m.F.V.i.N < @   T.T.T.T.T.T.T.T.T.T.T.T.",
"T.T.T.T.o o % q g _ |  .=.| | [ _ _ Q Q Q ) Q Q W Q Q Q Q Q _ _ [ { | | | | | ] { | ;.t.b.m.l.2.n < #   T.T.T.T.T.T.T.T.T.T.T.T.",
"T.T.T.T.o @ % q g _ |  .=. .{ ) R g t t t p p t i p p p t p a E _ { |  .| | | ] ] | %.7.t.f.r.X.k , @ X T.T.T.T.T.T.T.T.T.T.T.T.",
"T.T.T.T.o @ % q g _ | =.=.| [ E p 2 , = - , , , - , , - - , 2 t E ` | | | | | | | | | =.7.7.$.! u , @ o T.T.T.T.T.T.T.T.T.T.T.T.",
"T.T.T.T.o o = q g _ { | | _ W s 2 % # # o o @ @ # @ # o o @ % 0 a Q _ { | | | [ | | | | %.| _ g q % o o T.T.T.T.T.T.T.T.T.T.T.T.",
"T.T.T.T.o @ % q h _ { _ Q s i 0 % # o o o o o o o o o o . . o % 0 i g W ) [ | | | | | | | | ) s q % o o T.T.T.T.T.T.T.T.T.T.T.T.",
"T.T.T.T.o o % w h _ _ Q s 0 - % $ @ o o o o o o o o o o . . o o & - 0 a W ] | | | | | | | | ) g q % o o T.T.T.T.T.T.T.T.T.T.T.T.",
"T.T.T.T.o @ - w h _ _ Q p 2 ; $ $ @ @ @ o o # o # o # # * % $ ; = = 2 t R ] | | =.| | | | | _ g q % @ o T.T.T.T.T.T.T.T.T.T.T.T.",
"T.T.T.T.o @ % q h _ ` ' ~ c r 7 ; $ o @ # # # o o o $ < 7 k z z l l z v / [ | | | | | | | | _ g q % @ o T.T.T.T.T.T.T.T.T.T.T.T.",
"T.T.T.T.o @ % 0 R ) %.6.9.2.,.N 7 ; # o o # o o o o ; 7 N ,.4.5.4.4.1.<.-.#.=.| | | | | %.| _ g q % @ o T.T.T.T.T.T.T.T.T.T.T.T.",
"T.T.T.T.X @ % 0 s _ ;.t.h.N.k.3.M < @ . o o o o o # < b 3.z.V.A.A.Z.c.j.q.;.| | | | | | %.{ _ g q % @ o T.T.T.T.T.T.T.T.T.T.T.T.",
"T.T.T.T.o @ % 0 s _ -.v.B.F.Z.p.D 5 @ . X o @ o X o 5 N 5.A.P.U.U.I.G.M.y.-.| { ] | | | | | _ g q % @ o T.T.T.T.T.T.T.T.T.T.T.T.",
"T.T.T.T.X @ % 0 s _ 7.v.S.J.A.d.D 5 # . X @ o o o o 5 B a.F.U.Y.Y.U.J.m.y.-.| ] | | | | %.| _ g q % @ o T.T.T.T.T.T.T.T.T.T.T.T.",
"T.T.T.T.X @ % 0 s _ -.v.D.K.A.s.B 5 o . o @ o X . @ 5 B 5.A.I.U.U.I.K.m.u.-. .{ [ | | | | | _ g q = o o T.T.T.T.T.T.T.T.T.T.T.T.",
"T.T.T.T.o @ % 0 s _ *.y.M.N.x.3.M < # . o o @ o . @ < n 1.c.A.H.H.A.N.h.w.*.| | | | | | %.| _ g q % @ X T.T.T.T.T.T.T.T.T.T.T.T.",
"T.T.T.T.X @ % q s _ %.8.9.e.1.D d ; o o o @ @ o o # ; d X.1.i.a.a.5.e.9.6.%.{ | | | | | | | _ g q % @ o T.T.T.T.T.T.T.T.T.T.T.T.",
"T.T.T.T.o # % q R _ ' } ( n l 7 4 * # o @ o @ @ o o % 4 7 z b b b b m ^ / [ | | | | | | %.| _ g q % @ o T.T.T.T.T.T.T.T.T.T.T.T.",
"T.T.T.T.o @ = q h ) ] Q y 3 , % # # # o @ @ # o o @ # $ ; ; ; ; ; 4 3 p ! _ | | | | | %. .| _ h q % @ o T.T.T.T.T.T.T.T.T.T.T.T.",
"T.T.T.T.o @ % w R _ _ W s 2 - & $ o @ o @ o o @ @ @ @ o . . o @ & % 0 i R _ |  .| | | |  .{ _ h q = o o T.T.T.T.T.T.T.T.T.T.T.T.",
"T.T.T.T.X @ % q s _ { _ E s w 1 = # o o o o # o o # o o . . o $ - i s E ) { | | | | | |  .{ _ g q % @ o T.T.T.T.T.T.T.T.T.T.T.T.",
"T.T.T.T.o o = q h _ { | [ _ E a 2 % o o o # o # # o o o o o % 2 a E ) ] { | | | | | | %.%.{ _ h q % @ o T.T.T.T.T.T.T.T.T.T.T.T.",
"T.T.T.T.o @ % q R _ |  . .| _ R t 2 % & @ @ @ @ @ @ @ & & = 2 e R _ | | | | | | | { | %.%.| _ g 0 = o o T.T.T.T.T.T.T.T.T.T.T.T.",
"T.T.T.T.o @ = q s _ |  . .| | ) R a q 1 & @ @ .   @ @ - - w a R ) | | |  .| | | | | | | %.{ _ g q = @ o T.T.T.T.T.T.T.T.T.T.T.T.",
"T.T.T.T.X o = q s _ |  . .| | { _ Q R e 1 & @ . @ @ # - i R W _ { | | | | | | | | | | | | | _ g 0 = @ . T.T.T.T.T.T.T.T.T.T.T.T.",
"T.T.T.T.o @ % q s _ |  . .| | | | { _ h w 1 * O o # : u h _ | | | | | | | | | | | | | | %.| _ g w = @ o T.T.T.T.T.T.T.T.T.T.T.T.",
"T.T.T.T.o o = q R _ | =. .| | |  . .' ^ S 9 8 8 8 8 9 x ..{ %.| | | | | | { | | | | | %. .| _ g q = # o T.T.T.T.T.T.T.T.T.T.T.T.",
"T.T.T.T.o @ % w h _ | =.| | | | | | #.o.S H G G F G H L o.#.| | | | | | | | | | { | | |  .{ _ g q % o o T.T.T.T.T.T.T.T.T.T.T.T.",
"T.T.T.T.X o % q s ) | | | | | | | | #.>.P U T T T Y U L O.@.| | | | | | | | | | | | | |  .{ _ h q = o o T.T.T.T.T.T.T.T.T.T.T.T.",
"T.T.T.T.o o % 2 t E ) _ [ | |  .| | #.>.L J I I I I J L o.#.| | | | { | | | | { | | | %.%.{ _ h 2 = o o o T.T.T.T.T.T.T.T.T.T.T.",
"T.T.T.T.o @ $ % 1 w a R _ [ | | | | ' ..S A Z C C Z A S ..' | | | | | | | | | | | | | | | | _ s 3 % o . o o T.T.T.T.T.T.T.T.T.T.",
"T.T.T.T.@ @ @ $ % = 2 p E ` | |  .| _ R d 6 > + + > 6 d ! ` | | | | | | | | | { | | | |  .| _ h w = o o o @ @ @ T.T.T.T.T.T.T.T.",
"T.T.T.T.@ @ @ o o o % q h _ |  . .| ] R q % @ o X @ = w h _ | | | | | | | { | | | | | | | | _ E e 1 % # # @ o o T.T.T.T.T.T.T.T.",
"T.T.T.T.T.@ o o o o % 0 s _ | %. .| ) R 0 & @     @ & 0 g _ | =.| | | | | | | { | | | | | | [ Q h t q , % # o o o T.T.T.T.T.T.T.",
"T.T.T.T.T.T.T.o o o % q g _ | =. .| _ h w % @   . o = 0 g _ | %.| | | | | | | | | { | | | | { ] _ W h e 1 $ o o o o @ T.T.T.T.T.",
"T.T.T.T.T.T.T.T.o @ % q h _ | =. .| _ h w % @ X . # = w g _ | | | | | | | | | | | | | | | { | | | { ) h w - $ @ @ @ @ @ T.T.T.T.",
"T.T.T.T.T.T.T.T.o o % q h _ | =.=.| _ R q % @ X o o = q R _ | =.| | | | | | | | | | { | | | | | %.| [ Q g w 1 = % # @ o T.T.T.T.",
"T.T.T.T.T.T.T.T.o @ % q g _ | =.=.| _ R e % @ X . @ = q R _ %.=.| | | | | | { | | | | | | | | | | %.{ _ Q R p q , $ @ o T.T.T.T.",
"T.T.T.T.T.T.T.T.o @ = q h _ | %.%.| _ g q % @ o o o = w h _ { | | | | {  .{  .{ { | | {  .{ | { | | | | { [ Q s 2 % @ o T.T.T.T.",
"T.T.T.T.T.T.T.T.o @ % q h _ { | { _ E p 2 % @ o o o % 2 p E _ ` { | | | |  .{  . .|  .| | |  .| | | | | =.| _ h q % o o T.T.T.T.",
"T.T.T.T.T.T.T.T.X # ; w R ` { ] Q a t 2 = $ @ o o o # = 2 e g E _ {  . . . . . . . .|  . . . . .=.| %.=.=.=.[ R w % @ o T.T.T.T.",
"T.T.T.T.T.T.T.T.. o % q R _ _ Q p 2 , % # @ @ o @ @ @ $ % - 2 p E [ |  . .|  . .| |  .| | |  . .| | | =.=.| _ R q % @ o T.T.T.T.",
"T.T.T.T.T.T.T.T.o @ % q a Q Q s q % @ @ o @ @ @ @ @ # o o # = 3 a Q [ [ { ] _ [ _ [ _ ` [ _ [ _ ] ] ] [ [ _ Q a 2 % @ o T.T.T.T.",
"T.T.T.T.T.T.T.T.o @ $ , e p a w 4 $ o o o @ o @ o @ o o o o # , q a s h h s s s s s h s s h s h g g h s h g p w 1 % @ o T.T.T.T.",
"T.T.T.T.T.T.T.T.o @ $ % , 1 1 1 % o # o o # @ @ # o # o o o # = , 1 2 q 0 2 2 2 2 0 2 2 2 2 2 2 2 2 2 2 2 2 2 - $ # o o T.T.T.T.",
"T.T.T.T.T.T.T.T.@ @ @ @ $ $ $ @ # $ o o # o @ o o # o # o # o $ @ $ $ $ $ $ $ $ $ $ $ $ $ $ $ $ $ $ % $ $ $ # # # @ @ @ T.T.T.T.",
"T.T.T.T.T.T.T.T.T.@ @ o o o o @ o @ @ @ @ @ @ @ @ @ @ @ @ @ @ o o o o o o o o o o o o o o o o o o o o o o o o o o @ @ T.T.T.T.T.",
"T.T.T.T.T.T.T.T.T.T.T.T.T.T.T.T.T.T.T.T.T.T.T.T.T.T.T.T.T.T.T.T.T.T.T.T.T.T.T.T.T.T.T.T.T.T.T.T.T.T.T.T.T.T.T.T.T.T.T.T.T.T.T.T.",
"T.T.T.T.T.T.T.T.T.T.T.T.T.T.T.T.T.T.T.T.T.T.T.T.T.T.T.T.T.T.T.T.T.T.T.T.T.T.T.T.T.T.T.T.T.T.T.T.T.T.T.T.T.T.T.T.T.T.T.T.T.T.T.T.",
"T.T.T.T.T.T.T.T.T.T.T.T.T.T.T.T.T.T.T.T.T.T.T.T.T.T.T.T.T.T.T.T.T.T.T.T.T.T.T.T.T.T.T.T.T.T.T.T.T.T.T.T.T.T.T.T.T.T.T.T.T.T.T.T.",
"T.T.T.T.T.T.T.T.T.T.T.T.T.T.T.T.T.T.T.T.T.T.T.T.T.T.T.T.T.T.T.T.T.T.T.T.T.T.T.T.T.T.T.T.T.T.T.T.T.T.T.T.T.T.T.T.T.T.T.T.T.T.T.T.",
"T.T.T.T.T.T.T.T.T.T.T.T.T.T.T.T.T.T.T.T.T.T.T.T.T.T.T.T.T.T.T.T.T.T.T.T.T.T.T.T.T.T.T.T.T.T.T.T.T.T.T.T.T.T.T.T.T.T.T.T.T.T.T.T.",
"T.T.T.T.T.T.T.T.T.T.T.T.T.T.T.T.T.T.T.T.T.T.T.T.T.T.T.T.T.T.T.T.T.T.T.T.T.T.T.T.T.T.T.T.T.T.T.T.T.T.T.T.T.T.T.T.T.T.T.T.T.T.T.T.",
"T.T.T.T.T.T.T.T.T.T.T.T.T.T.T.T.T.T.T.T.T.T.T.T.T.T.T.T.T.T.T.T.T.T.T.T.T.T.T.T.T.T.T.T.T.T.T.T.T.T.T.T.T.T.T.T.T.T.T.T.T.T.T.T."
};
