/* XPM */
static char *result[] = {
/* columns rows colors chars-per-pixel */
"64 64 170 2 ",
"   c #2B2B37",
".  c #2D2E3A",
"X  c #2F313D",
"o  c #32333C",
"O  c #3B393B",
"+  c #5E513E",
"@  c #6B5A3F",
"#  c #2F3140",
"$  c #353541",
"%  c #383744",
"&  c #3A3945",
"*  c #363748",
"=  c #3E3C4C",
"-  c #3F3D52",
";  c #413E4D",
":  c #423F52",
">  c #45434D",
",  c #434054",
"<  c #4D4C54",
"1  c #464259",
"2  c #4A465D",
"3  c #4E4B5A",
"4  c #494751",
"5  c #504D59",
"6  c #54525B",
"7  c #59575E",
"8  c #5B5A5F",
"9  c #605344",
"0  c #6C5B45",
"q  c #645651",
"w  c #6E5D52",
"e  c #4C4762",
"r  c #4E4963",
"t  c #514B65",
"y  c #534D6A",
"u  c #5C5B60",
"i  c #5A546C",
"p  c #595172",
"a  c #5E557A",
"s  c #575070",
"d  c #6B5D67",
"f  c #605B6B",
"g  c #60577C",
"h  c #62587D",
"j  c #605974",
"k  c #636166",
"l  c #69666D",
"z  c #6D6A6E",
"x  c #66626E",
"c  c #726267",
"v  c #6E6A71",
"b  c #6E677B",
"n  c #757275",
"m  c #75717A",
"M  c #7C797B",
"N  c #797678",
"B  c #9F7E44",
"V  c #9D7D4A",
"C  c #997B56",
"Z  c #92786B",
"A  c #997D6B",
"S  c #AC8745",
"D  c #A9854B",
"F  c #A38256",
"G  c #B18D6D",
"H  c #B4906D",
"J  c #CF9F4E",
"K  c #C4995A",
"L  c #C99C5A",
"P  c #D5A34C",
"I  c #DAA74A",
"U  c #655B83",
"Y  c #685D87",
"T  c #6A5E8B",
"R  c #615780",
"E  c #6A6183",
"W  c #6D618D",
"Q  c #756581",
"!  c #746C86",
"~  c #777183",
"^  c #7D768A",
"/  c #7E7883",
"(  c #6F6391",
")  c #726695",
"_  c #756897",
"`  c #7A6C95",
"'  c #75679A",
"]  c #76689A",
"[  c #796B9D",
"{  c #7E7299",
"}  c #7C6DA3",
"|  c #7768A0",
" . c #7F70A6",
".. c #8C7583",
"X. c #837F81",
"o. c #827096",
"O. c #887497",
"+. c #827199",
"@. c #867D96",
"#. c #8171A6",
"$. c #897DA4",
"%. c #8171A8",
"&. c #8A7CAA",
"*. c #848182",
"=. c #8E8A8A",
"-. c #8B878A",
";. c #9C8184",
":. c #938E8D",
">. c #95918F",
",. c #8D8599",
"<. c #979195",
"1. c #9F9999",
"2. c #A29C9C",
"3. c #A6A19F",
"4. c #8F83A3",
"5. c #9385AE",
"6. c #9589A8",
"7. c #9D93A4",
"8. c #9B8DB3",
"9. c #9384B1",
"0. c #9F92B4",
"q. c #A89FAD",
"w. c #A399AA",
"e. c #A194B5",
"r. c #A699B7",
"t. c #A799BA",
"y. c #AA9DBB",
"u. c #A9A3A4",
"i. c #AEA9A4",
"p. c #ABA4A8",
"a. c #B1ABA7",
"s. c #B4AEA9",
"d. c #B6B0AB",
"f. c #ADA0BD",
"g. c #B8AFB7",
"h. c #B2A6BD",
"j. c #B6ACB8",
"k. c #BDB6B3",
"l. c #BBB0BE",
"z. c #C5BCBE",
"x. c #CAC3BD",
"c. c #C7C0BB",
"v. c #AFA2C0",
"b. c #B3A5C1",
"n. c #B9AEC1",
"m. c #BEB1C5",
"M. c #C2B7C5",
"N. c #C6BAC9",
"B. c #C9BDCA",
"V. c #C2B7C7",
"C. c #CEC7C1",
"Z. c #CEC3CD",
"A. c #D4CCC5",
"S. c #D2C8C8",
"D. c #D0C6CB",
"F. c #DCD4CC",
"G. c #D2C6D2",
"H. c #D9CFD0",
"J. c #DED4D3",
"K. c #E0D7D3",
"L. c #E5DCD5",
"P. c #E6DDD8",
"I. c #E8DFD7",
"U. c #EEE4DC",
"Y. c #F4EADF",
"T. c #F8EFE2",
"R. c #F7EEE1",
"E. c #FEF4E7",
"W. c #FFF9EA",
"Q. c None",
/* pixels */
"Q.Q.Q.Q.Q.Q.Q.Q.Q.Q.Q.Q.Q.Q.Q.Q.Q.Q.Q.Q.Q.Q.Q.Q.Q.Q.Q.Q.Q.Q.Q.Q.Q.Q.Q.Q.Q.Q.Q.Q.Q.Q.Q.Q.Q.Q.Q.Q.Q.Q.Q.Q.Q.Q.Q.Q.Q.Q.Q.Q.Q.Q.Q.Q.",
"Q.Q.Q.Q.Q.Q.Q.Q.Q.Q.Q.Q.Q.Q.Q.Q.Q.Q.Q.Q.Q.Q.Q.Q.Q.Q.Q.Q.Q.Q.Q.Q.Q.Q.Q.Q.Q.Q.Q.Q.Q.Q.Q.Q.Q.Q.Q.Q.Q.Q.Q.Q.Q.Q.Q.Q.Q.Q.Q.Q.Q.Q.Q.Q.",
"Q.Q.Q.Q.Q.Q.Q.Q.Q.Q.Q.Q.Q.Q.Q.Q.Q.Q.Q.Q.Q.Q.Q.Q.Q.Q.Q.Q.Q.Q.Q.Q.Q.Q.Q.Q.Q.Q.Q.Q.Q.Q.Q.Q.Q.Q.Q.Q.Q.Q.Q.Q.Q.Q.Q.Q.Q.Q.Q.Q.Q.Q.Q.Q.",
"Q.Q.Q.Q.Q.Q.Q.Q.Q.Q.Q.Q.Q.Q.Q.Q.Q.Q.Q.Q.Q.Q.Q.Q.Q.Q.Q.Q.Q.Q.Q.Q.Q.Q.Q.Q.Q.Q.Q.Q.Q.Q.Q.Q.Q.Q.Q.Q.Q.Q.Q.Q.Q.Q.Q.Q.Q.Q.Q.Q.Q.Q.Q.Q.",
"Q.Q.Q.Q.Q.Q.Q.Q.Q.Q.Q.Q.Q.Q.Q.Q.Q.Q.Q.Q.Q.Q.Q.Q.Q.Q.Q.Q.Q.Q.Q.Q.Q.Q.Q.Q.Q.Q.Q.Q.Q.Q.Q.Q.Q.Q.Q.Q.Q.Q.Q.Q.Q.Q.Q.Q.Q.Q.Q.Q.Q.Q.Q.Q.",
"Q.Q.Q.Q.Q.Q.Q.Q.Q.Q.Q.Q.Q.Q.Q.Q.Q.Q.Q.Q.Q.Q.Q.Q.Q.Q.Q.Q.Q.Q.Q.Q.Q.Q.Q.Q.Q.Q.Q.Q.Q.Q.Q.Q.Q.Q.Q.Q.Q.Q.Q.Q.Q.Q.Q.Q.Q.Q.Q.Q.Q.Q.Q.Q.",
"Q.Q.Q.Q.Q.Q.Q.Q.Q.Q.Q.Q.Q.Q.Q.Q.Q.Q.Q.Q.Q.Q.Q.Q.Q.Q.Q.Q.Q.Q.Q.Q.Q.Q.Q.Q.Q.Q.Q.Q.Q.Q.Q.Q.Q.Q.Q.Q.Q.Q.Q.Q.Q.Q.Q.Q.Q.Q.Q.Q.Q.Q.Q.Q.",
"Q.Q.Q.Q.Q.Q.Q.Q.Q.Q.Q.Q.Q.Q.Q.Q.Q.Q.Q.Q.Q.Q.Q.Q.Q.Q.Q.Q.Q.Q.Q.Q.Q.Q.Q.Q.Q.Q.Q.Q.Q.Q.Q.Q.Q.Q.Q.Q.Q.Q.Q.Q.Q.Q.Q.Q.Q.Q.Q.Q.Q.Q.Q.Q.",
"Q.Q.Q.Q.Q.Q.Q.Q.Q.Q.Q.Q.Q.Q.Q.Q.Q.Q.Q.Q.Q.Q.Q.Q.Q.Q.Q.Q.Q.Q.Q.Q.Q.Q.Q.Q.Q.Q.Q.Q.Q.Q.Q.Q.Q.Q.Q.Q.Q.Q.Q.Q.Q.Q.Q.Q.Q.Q.Q.Q.Q.Q.Q.Q.",
"Q.Q.Q.Q.Q.Q.Q.Q.Q.Q.Q.Q.Q.Q.Q.Q.Q.Q.Q.Q.Q.Q.Q.Q.Q.Q.Q.Q.Q.Q.Q.Q.Q.Q.Q.Q.Q.Q.Q.Q.Q.Q.Q.Q.Q.Q.Q.Q.Q.Q.Q.Q.Q.Q.Q.Q.Q.Q.Q.Q.Q.Q.Q.Q.",
"% $ o o o o o o o o o o o o o o o o X o o o o o o o o o o o o . . .                 . X o o $ Q.Q.Q.Q.Q.Q.Q.Q.Q.Q.Q.Q.Q.Q.Q.Q.Q.",
"% o $ $ $ $ $ $ $ $ o $ o $ % o % $ o % $ $ o $ $ o $ $ $ $ $ % O % % % & & & $ % & % $ $ $ $ $ Q.Q.Q.Q.Q.Q.Q.Q.Q.Q.Q.Q.Q.Q.Q.Q.",
"o $ % & = : , , , , , , , , , , , , , : , : , , , , , , : : , 3 6 7 8 8 8 8 8 8 8 8 2 1 = * $ o Q.Q.Q.Q.Q.Q.Q.Q.Q.Q.Q.Q.Q.Q.Q.Q.",
"o $ & , 2 y s p p s s p p i s p p p i s p s i p p p s s s s j b / -.>.<.>.>.>.>.>.=.G z 6 > $ X Q.Q.Q.Q.Q.Q.Q.Q.Q.Q.Q.Q.Q.Q.Q.Q.",
"o $ = 2 i U W ) W W W W W W W W W W W W W ( W W W W W T T ( [ ,.p.k.c.C.x.x.x.x.x.c.s.=.l 4 $ . Q.Q.Q.Q.Q.Q.Q.Q.Q.Q.Q.Q.Q.Q.Q.Q.",
"o o = r g ) [  .} } } [ } } } } [ } } } | } } [ } } } | [ } $.0.n.Z.J.J.J.J.J.U.U.U.A.3.n < $   Q.Q.Q.Q.Q.Q.Q.Q.Q.Q.Q.Q.Q.Q.Q.Q.",
"o o ; r U _ } %. . . . . . . . . .%. .%.%.%.%.%. . . . . . .&.8.f.m.N.Z.B.B.Z.J.U.U.F.i.M 5 $   Q.Q.Q.Q.Q.Q.Q.Q.Q.Q.Q.Q.Q.Q.Q.Q.",
"o $ = r h ) } %. . .}  . . . . .%. . . . .%.%. . . . . .}  .%.&.5.0.0.0.0.e.f.N.H.U.A.i.M < $   Q.Q.Q.Q.Q.Q.Q.Q.Q.Q.Q.Q.Q.Q.Q.Q.",
"o $ = r h ) }  . .} } } | | [ [ | | [ [ [ [ | [ [ [ [ [ | } } }  . .%. . .%.5.f.B.H.C.u.n < $   Q.Q.Q.Q.Q.Q.Q.Q.Q.Q.Q.Q.Q.Q.Q.Q.",
"o o ; r g ) }  . .} [ ' ( ( Y Y E T Y Y Y Y Y Y Y E W ( ' } } } } [ | ' | } %.0.b.m.j.<.v < O   Q.Q.Q.Q.Q.Q.Q.Q.Q.Q.Q.Q.Q.Q.Q.Q.",
"o $ = r h ) }  . . .| W R s y 6 t y y y y t y r t y s U ( |  . .} } | | [ |  .4.0.0.6.^ u 4 * X Q.Q.Q.Q.Q.Q.Q.Q.Q.Q.Q.Q.Q.Q.Q.Q.",
"o $ ; r h ) } }  .} ' U s 1 = & = = = = = = = = & = 1 y U ) |  .} } } } | }  .#.&.&.{ E y ; $ X Q.Q.Q.Q.Q.Q.Q.Q.Q.Q.Q.Q.Q.Q.Q.Q.",
"o $ = r a ) } } | ( E s 2 & $ o o o $ o $ o $ o X o * 1 s E ) ' [ } } } |  .| }  . ._ a r = O X Q.Q.Q.Q.Q.Q.Q.Q.Q.Q.Q.Q.Q.Q.Q.Q.",
"X $ ; r h ) ' ) E p r 1 = * o o o o o o o o o . X X # * 1 r p U ( _ } }  .}  .} } | ) a e = $ X Q.Q.Q.Q.Q.Q.Q.Q.Q.Q.Q.Q.Q.Q.Q.Q.",
"o $ = t h ) ' T p e - & & $ o $ o $ o $ $ $ o o o X X o * - 2 s U ) }  .} } } }  .| ) a r - $ X Q.Q.Q.Q.Q.Q.Q.Q.Q.Q.Q.Q.Q.Q.Q.Q.",
"X o = t h ) _ E j 5 > ; & o $ o $ o $ $ o $ % & > > 4 4 > 4 3 i Y ' } } } } } }  .{ ) a r ; O X Q.Q.Q.Q.Q.Q.Q.Q.Q.Q.Q.Q.Q.Q.Q.Q.",
"o $ = r h ) [ { ^ m z 8 < > o o o $ $ o o $ & < k z n N n n m ~ ` {  . .} } }  . .[ ) h r = $ X Q.Q.Q.Q.Q.Q.Q.Q.Q.Q.Q.Q.Q.Q.Q.Q.",
"o $ = r j ) #.6.7.q.,.G k > $ X o $ $ o X $ > k G 2.i.d.d.i.p.7.4.+.} | | } } }  . .) h r ; $ X Q.Q.Q.Q.Q.Q.Q.Q.Q.Q.Q.Q.Q.Q.Q.Q.",
"o $ = e a ) &.t.m.D.c.2.n < $ X o $ $ o . $ < n 6.z.F.L.L.K.S.g.e.&.} | } } } }  .} ) a r ; O X Q.Q.Q.Q.Q.Q.Q.Q.Q.Q.Q.Q.Q.Q.Q.Q.",
"X $ = e a ) &.v.G.P.F.s.M < $ X . o o X . $ 3 ~ i.A.Y.W.W.R.L.N.r.&.} | | } } }  .[ ) a r ; # o Q.Q.Q.Q.Q.Q.Q.Q.Q.Q.Q.Q.Q.Q.Q.Q.",
"o $ = e a ) &.b.G.P.F.d.M < * X X o $ . . $ 5 Z a.K.R.W.W.R.L.Z.r.5. .[ | } } }  .} ( U r = O X Q.Q.Q.Q.Q.Q.Q.Q.Q.Q.Q.Q.Q.Q.Q.Q.",
"X o = e a ) &.v.Z.J.A.i.M < $ X X $ $ X o $ 5 N u.A.U.R.R.U.F.V.r.&.} | | } }  . .} ) a r ; & o Q.Q.Q.Q.Q.Q.Q.Q.Q.Q.Q.Q.Q.Q.Q.Q.",
"o $ = e g ) &.t.V.Z.M.2.n < % . . o $ o o $ 4 v <.k.A.F.J.H.Z.n.0.&.} [ | } } } #.[ ) g e ; % o Q.Q.Q.Q.Q.Q.Q.Q.Q.Q.Q.Q.Q.Q.Q.Q.",
"o $ = e g ) #.8.y.h.p.,.x 4 o . o $ $ o o o > 7 n -.1.p.j.j.h.r.5.$.} } } } } } #.#.) g e ; o o Q.Q.Q.Q.Q.Q.Q.Q.Q.Q.Q.Q.Q.Q.Q.Q.",
"o $ = e g ) #.&.9.9.@.! i ; $ . o $ $ o o $ & > < 8 l m @.4.9.5.$. .} | | } } } %.[ ) g e ; o o Q.Q.Q.Q.Q.Q.Q.Q.Q.Q.Q.Q.Q.Q.Q.Q.",
"o $ ; e g ) } %.%.#.` Y t : & $ $ $ $ o $ $ $ * & ; 2 i E [ #.%.} } } } } } } %.#.[ ) g t ; $ . Q.Q.Q.Q.Q.Q.Q.Q.Q.Q.Q.Q.Q.Q.Q.Q.",
". $ ; r h ) | } %.} ) T g t 1 : * * # # . $ $ * = : r p Y ) | } } } } [ } } } } %.[ ) g t & o . o Q.Q.Q.Q.Q.Q.Q.Q.Q.Q.Q.Q.Q.Q.Q.",
"o o = r g ) } %.} | ' ) T U a t : * # . . # * - e p R T ) [ | | } } } } } } } #.%.} ) g 2 ; o o o o $ Q.Q.Q.Q.Q.Q.Q.Q.Q.Q.Q.Q.Q.",
"o $ ; r g ) } %.%.} | } } ' ( g 2 = % o o O ; 5 g W ' | | } } | } [ } } [ } [ %.} [ ) h t ; % o o o $ $ Q.Q.Q.Q.Q.Q.Q.Q.Q.Q.Q.Q.",
"o $ = r g ) } } } } } } } #.] Q d q 9 @ 9 9 q d Q ] } %. .} } } } } } } } } } } %.} ] Y p e : = & % o $ o Q.Q.Q.Q.Q.Q.Q.Q.Q.Q.Q.",
"o $ ; r h ) [  .} } }  . .} O...Z C V B B V C Z ..O.%.} } } } } } } [ } } } } } } } ] ) Y g y 2 ; % o o o $ Q.Q.Q.Q.Q.Q.Q.Q.Q.Q.",
"X $ = r h ) } } } } } | } } O.;.G K J P P J K G ;.O.#.} } }  .| } } } } } [ } } } } [ ] ) ) Y s 2 = o o o o $ $ Q.Q.Q.Q.Q.Q.Q.Q.",
"o $ ; r j ) } #.%.} } | } } +...G L P I I P L G ..O.} | } } } } } } } } #.} } } } } #.} } } ) U y 1 = % $ $ $ $ Q.Q.Q.Q.Q.Q.Q.Q.",
"X o = r R ) } } } } } } } } +...A F D S S D F A ..o.} } } } | } } } [ } [ } } } } [ } %.#.%.] ) h p r , = & o o o Q.Q.Q.Q.Q.Q.Q.",
"o $ = r h ) } } %.} } } } } ` Q c w 0 0 @ @ w c b ` #.} } } } } } } [ } } } } [ } } } } #.} [ ] ) T h y , & $ o o o $ Q.Q.Q.Q.Q.",
"o $ ; r g ) } %.} } } } } } ) U t > O O O ; > t U ) } #.} [ } } #.[ } #.} } #.[ } [ } [ } } } } } [ ) j t : & $ % % o % Q.Q.Q.Q.",
". $ ; r j ) [ %.} } } } %.} ) R r = #   . # ; e h ) } %.#.} } } } } } [ } } } } } } } } [ } } } #.} ' T a t 1 ; & % o o Q.Q.Q.Q.",
"o $ = t g ) } } %.} } %.%.} ' R e = $   . X = e h ' } %.%.} } } [ } } } [ } } } } } [ #.} } } #.} } } ' W U p t , & % o Q.Q.Q.Q.",
"o $ = e g ) } } } } } } } [ ) j r = o o X o - r h ) [ } } } } } } } } } } } } } } } } } [ } } [ } } } } | _ W a 2 = $ o Q.Q.Q.Q.",
"o $ = r h ) } %.#.} } [ ] ) T p 2 = $ o o o & 2 p Y ) _ [ } } } } } } } } } } } } } } }  .}  . .} } } } %.} ) h r = o o Q.Q.Q.Q.",
"o $ = t U ) } %.%.%.| ) Y a y 2 , & $ o o O & : 2 y a Y ) [ } %. . . .}  . . . . . . . . .}  . .%.} #.%.%.%._ U t = $ o Q.Q.Q.Q.",
"o $ = r h ' } %.%.} _ T p 2 : = & $ $ o o % $ & & : r p T _ } %. .}  .} } }  . .} } } }  .}  . .} } } %.%.} ' h r = $ o Q.Q.Q.Q.",
"o o = e a W ) [ [ ' T a r = $ o o $ $ $ $ $ $ $ $ $ = r a E ) _ ' ] ] _ ] ] ) ] _ ' _ _ ] _ _ ] ' _ _ [ [ ) T a 2 = $ o Q.Q.Q.Q.",
"o $ & , t i g U U j p t , & o o o $ $ $ $ $ O o o o & , t p a U a a a a a a a a a a a a a a a a g g a h U a p r , = $ o Q.Q.Q.Q.",
"o $ & = : 1 2 e 2 2 1 , = % o o o $ $ $ $ $ $ o o o & = : 1 2 e r 3 e 3 r 2 2 2 2 r 2 2 r 2 2 2 2 2 e 2 2 2 1 : = % o o Q.Q.Q.Q.",
"$ $ $ $ $ & & & & & & % $ $ $ % $ o $ $ $ o o $ $ $ $ $ & * & & * & * * & & & & * & & & & & & & & & & & & & & % % $ $ $ Q.Q.Q.Q.",
"$ $ $ $ o o o o o o o o $ $ $ $ $ $ O $ $ $ $ $ $ $ $ $ o o o o o o o o o o o o o o o o o o o o o o o o o o o o o o % Q.Q.Q.Q.Q.",
"Q.Q.Q.Q.Q.Q.Q.Q.Q.Q.Q.Q.Q.Q.Q.Q.Q.Q.Q.Q.Q.Q.Q.Q.Q.Q.Q.Q.Q.Q.Q.Q.Q.Q.Q.Q.Q.Q.Q.Q.Q.Q.Q.Q.Q.Q.Q.Q.Q.Q.Q.Q.Q.Q.Q.Q.Q.Q.Q.Q.Q.Q.Q.Q.",
"Q.Q.Q.Q.Q.Q.Q.Q.Q.Q.Q.Q.Q.Q.Q.Q.Q.Q.Q.Q.Q.Q.Q.Q.Q.Q.Q.Q.Q.Q.Q.Q.Q.Q.Q.Q.Q.Q.Q.Q.Q.Q.Q.Q.Q.Q.Q.Q.Q.Q.Q.Q.Q.Q.Q.Q.Q.Q.Q.Q.Q.Q.Q.Q.",
"Q.Q.Q.Q.Q.Q.Q.Q.Q.Q.Q.Q.Q.Q.Q.Q.Q.Q.Q.Q.Q.Q.Q.Q.Q.Q.Q.Q.Q.Q.Q.Q.Q.Q.Q.Q.Q.Q.Q.Q.Q.Q.Q.Q.Q.Q.Q.Q.Q.Q.Q.Q.Q.Q.Q.Q.Q.Q.Q.Q.Q.Q.Q.Q.",
"Q.Q.Q.Q.Q.Q.Q.Q.Q.Q.Q.Q.Q.Q.Q.Q.Q.Q.Q.Q.Q.Q.Q.Q.Q.Q.Q.Q.Q.Q.Q.Q.Q.Q.Q.Q.Q.Q.Q.Q.Q.Q.Q.Q.Q.Q.Q.Q.Q.Q.Q.Q.Q.Q.Q.Q.Q.Q.Q.Q.Q.Q.Q.Q.",
"Q.Q.Q.Q.Q.Q.Q.Q.Q.Q.Q.Q.Q.Q.Q.Q.Q.Q.Q.Q.Q.Q.Q.Q.Q.Q.Q.Q.Q.Q.Q.Q.Q.Q.Q.Q.Q.Q.Q.Q.Q.Q.Q.Q.Q.Q.Q.Q.Q.Q.Q.Q.Q.Q.Q.Q.Q.Q.Q.Q.Q.Q.Q.Q.",
"Q.Q.Q.Q.Q.Q.Q.Q.Q.Q.Q.Q.Q.Q.Q.Q.Q.Q.Q.Q.Q.Q.Q.Q.Q.Q.Q.Q.Q.Q.Q.Q.Q.Q.Q.Q.Q.Q.Q.Q.Q.Q.Q.Q.Q.Q.Q.Q.Q.Q.Q.Q.Q.Q.Q.Q.Q.Q.Q.Q.Q.Q.Q.Q.",
"Q.Q.Q.Q.Q.Q.Q.Q.Q.Q.Q.Q.Q.Q.Q.Q.Q.Q.Q.Q.Q.Q.Q.Q.Q.Q.Q.Q.Q.Q.Q.Q.Q.Q.Q.Q.Q.Q.Q.Q.Q.Q.Q.Q.Q.Q.Q.Q.Q.Q.Q.Q.Q.Q.Q.Q.Q.Q.Q.Q.Q.Q.Q.Q."
};
