/* XPM */
static char *result[] = {
/* columns rows colors chars-per-pixel */
"64 64 212 2 ",
"   c #2C2E3D",
".  c #2B2B37",
"X  c #312E3E",
"o  c #2F303F",
"O  c #33323F",
"+  c #2F3240",
"@  c #353540",
"#  c #383740",
"$  c #363941",
"%  c #3A3D42",
"&  c #423D41",
"*  c #423F49",
"=  c #3B4444",
"-  c #3D4A46",
";  c #3D4E48",
":  c #364044",
">  c #3F5246",
",  c #3E5349",
"<  c #454142",
"1  c #4D4542",
"2  c #404E47",
"3  c #43424A",
"4  c #414F48",
"5  c #4B484E",
"6  c #4B474A",
"7  c #5A4E42",
"8  c #514843",
"9  c #4C5247",
"0  c #425449",
"q  c #455B4A",
"w  c #47574A",
"e  c #535447",
"r  c #5A5547",
"t  c #4D4B52",
"y  c #585759",
"u  c #515553",
"i  c #665644",
"p  c #665A46",
"a  c #6C5B44",
"s  c #685744",
"d  c #715F46",
"f  c #605A5F",
"g  c #46624C",
"h  c #4A644E",
"j  c #4B6A4E",
"k  c #476B4B",
"l  c #51634D",
"z  c #5B674C",
"x  c #4D6D50",
"c  c #476B51",
"v  c #596A57",
"b  c #4E7252",
"n  c #4E7A54",
"m  c #517453",
"M  c #557D55",
"N  c #597E55",
"B  c #5A7E5A",
"V  c #597954",
"C  c #4D724F",
"Z  c #696D4C",
"A  c #756246",
"S  c #7C6546",
"D  c #75684A",
"F  c #68724E",
"G  c #77734C",
"H  c #776959",
"J  c #657B52",
"K  c #687C52",
"L  c #7F7254",
"P  c #665F64",
"I  c #676164",
"U  c #696365",
"Y  c #6D6768",
"T  c #6E6869",
"R  c #697B64",
"E  c #75736B",
"W  c #797579",
"Q  c #736B6D",
"!  c #826A46",
"~  c #8D7248",
"^  c #87764A",
"/  c #9C7C4A",
"(  c #967B49",
")  c #568156",
"_  c #5C8155",
"`  c #5D825B",
"'  c #648354",
"]  c #6B8554",
"[  c #62845E",
"{  c #6A8956",
"}  c #7C8251",
"|  c #748954",
" . c #7B8D54",
".. c #718752",
"X. c #658661",
"o. c #668A64",
"O. c #6C8A66",
"+. c #6F8C68",
"@. c #718D6A",
"#. c #75816E",
"$. c #75916E",
"%. c #7C9372",
"&. c #7A9877",
"*. c #7B8C71",
"=. c #9A854D",
"-. c #8D8A51",
";. c #828A53",
":. c #849054",
">. c #8C9254",
",. c #939554",
"<. c #959854",
"1. c #969756",
"2. c #8C804D",
"3. c #A98446",
"4. c #A6844B",
"5. c #AB864A",
"6. c #A58147",
"7. c #B28A4B",
"8. c #B48B48",
"9. c #BA994F",
"0. c #AA8A59",
"q. c #A59C54",
"w. c #AB9E53",
"e. c #A49250",
"r. c #B59A54",
"t. c #BCA452",
"y. c #B6A557",
"u. c #8A827D",
"i. c #819575",
"p. c #849B7C",
"a. c #8C9B7D",
"s. c #869479",
"d. c #8C9268",
"f. c #AA9372",
"g. c #8FA179",
"h. c #B9AD7B",
"j. c #C69C4F",
"k. c #CD9D4D",
"l. c #C1974D",
"z. c #CFA14F",
"x. c #D4A34E",
"c. c #D9A64D",
"v. c #DEAA4E",
"b. c #C2A752",
"n. c #CBA852",
"m. c #C9A752",
"M. c #D4AD52",
"N. c #DCAC51",
"B. c #D6A656",
"V. c #E4AD4D",
"C. c #E2AE50",
"Z. c #E3B052",
"A. c #EBB452",
"S. c #D9B265",
"D. c #D4B073",
"F. c #EDBE6D",
"G. c #F4C36F",
"H. c #F9C670",
"J. c #968B86",
"K. c #998D88",
"L. c #988D87",
"P. c #9C938A",
"I. c #929E82",
"U. c #839D80",
"Y. c #A79D8D",
"T. c #96A185",
"R. c #9EA48B",
"E. c #95A68A",
"W. c #A3A78E",
"Q. c #A5A990",
"!. c #AAAB93",
"~. c #ABA29A",
"^. c #B1AF98",
"/. c #B5B29A",
"(. c #BAB49F",
"). c #BBBB94",
"_. c #AAB69E",
"`. c #AAA5A7",
"'. c #BCAEA1",
"]. c #AABAA4",
"[. c #BCB5A1",
"{. c #B2BEAB",
"}. c #BFB8A3",
"|. c #D6BB86",
" X c #C3B3A6",
".X c #C2B8A5",
"XX c #C6BBA8",
"oX c #CABCAB",
"OX c #C7B7A9",
"+X c #D0BFAF",
"@X c #BAC3AD",
"#X c #BAC4B3",
"$X c #E8C994",
"%X c #F9D59C",
"&X c #FFD99F",
"*X c #D1C1AF",
"=X c #D5C5A5",
"-X c #D3C2B2",
";X c #D9C6B6",
":X c #DCCAB8",
">X c #D9CAB8",
",X c #C9CBB9",
"<X c #EDDABF",
"1X c #D3CDC8",
"2X c #CCD1C4",
"3X c #DED9CB",
"4X c #DAD6C5",
"5X c #DEDDD4",
"6X c #F1DEC2",
"7X c #F5E2C5",
"8X c #E9E2D7",
"9X c None",
/* pixels */
"9X9X9X9X9X9X9X9X9X9X9X9X9X9X9X9X9X9X9X9X9X9X9X9X9X9X9X9X9X9X9X9X9X9X9X9X9X9X9X9X9X9X9X9X9X9X9X9X9X9X9X9X9X9X9X9X9X9X9X9X9X9X9X9X",
"9X9X9X9X9X9X9X9X9X9X9X9X9X9X9X9X9X9X9X9X9X9X9X9X9X9X9X9X9X9X9X9X9X9X9X9X9X9X9X9X9X9X9X9X9X9X9X9X9X9X9X9X9X9X9X9X9X9X9X9X9X9X9X9X",
"9X9X9X9X9X9X9X9X9X9X9X9X9X9X9X9X9X9X9X9X9X9X9X9X9X9X9X9X9X9X9X9X9X9X9X9X9X9X9X9X9X9X9X9X9X9X9X9X9X9X9X9X9X9X9X9X9X9X9X9X9X9X9X9X",
"9X9X9X9X9X9X9X9X9X9X9X9X9X9X9X9X9X9X9X9X9X9X@ + + + + + + @ 9X9X9X9X9X9X9X9X9X9X9X9X@ @ + +   + @ @ 9X9X9X9X9X9X9X9X9X9X9X9X9X9X",
"9X9X9X9X9X9X9X9X9X9X9X9X9X9X9X9X9X9X9X9X@ @ @ @ @ @ @ @ @ @ @ @ 9X9X9X9X9X9X9X9X@ @ @ # @ O @ @ @ @ @ @ 9X9X9X9X9X9X9X9X9X9X9X9X",
"9X9X9X9X9X9X9X9X9X9X9X9X9X9X9X9X9X9X9X9X+ @ # & & < 1 < & # @ @ 9X9X9X9X9X9X9X9X+ @ @ # & 1 1 < % @ @ @ 9X9X9X9X9X9X9X9X9X9X9X9X",
"9X9X9X9X9X9X9X9X9X9X9X9X9X9X9X9X9X9X. + + + # 8 s A A s 8 & # @ @ @ 9X9X9X9X+ + +   % 1 s A A s 8 & @ @ 9X9X9X9X9X9X9X9X9X9X9X9X",
"9X9X9X9X9X9X9X9X9X9X9X9X9X@ @ @ + + + + + + & s ~ 4.4.~ s < @ @ + @ @ @ +   + +   @ & s ~ 4.4.~ s 1 @   9X9X9X9X9X9X9X9X9X9X9X9X",
"9X9X9X9X9X9X9X9X9X9X9X9X@ @ @ # # & & # # & 7 ! 7.k.z.5.S 1 @ o + @ @ # O & & & O & 7 ! 5.k.k.5.A 1 @   9X9X9X9X9X9X9X9X9X9X9X9X",
"9X9X9X9X9X9X9X9X9X9X9X@ O @ # 1 7 i d d d d ! 5.k.C.N.7.S 1 @ + + X # 1 7 i a a a d ! 3.k.V.c.7.S 1 @ + 9X9X9X9X9X9X9X9X9X9X9X9X",
"9X9X9X9X9X@ @ @ O O O   X O & 7 ! / 5.5.7.7.8.z.C.A.N.7.S 1 o     @ & 7 S ( 6.3.6.3.8.k.v.V.c.4.S 8 @   9X9X9X9X9X9X9X9X9X9X9X9X",
"9X9X9X9X@ @ @ @ @ @ @ @ @ # 1 A / l.M.N.c.c.N.C.A.A.x.5.S 8 $   + # 8 d / j.c.C.N.N.v.V.A.A.B.4.A 1 @ + 9X9X9X9X9X9X9X9X9X9X9X9X",
"9X9X9X9X@ @ @ $ % = = : $ - 9 D =.9.M.M.M.M.M.M.M.n.9.=.D 9 - $ @ = e L 0.D.G.H.H.G.G.G.H.F.S.0.D 6 #   9X9X9X9X9X9X9X9X9X9X9X9X",
"9X9X9X9XX @ $ = - 0 q w , q l F 2.1.q.w.w.q.q.q.q.q.,.^ F e q > , q v d.h.$X%X&X&X%X%X%X%X$X|.f.H t @   9X9X9X9X9X9X9X9X9X9X9X9X",
"9X9X9X9X@ @ % - w h x m b x m J ' ..| | | | | | | | ] ' V m b k c x J a./.:X<X7X6X6X6X7X7X<X;XY.E t @   9X9X9X9X9X9X9X9X9X9X9X9X",
"9X9X9X9X@ @ % 2 h b M M M M M M M N N N ) ) M N M N M M M M M n n M O.U.].,X4X3X3X3X3X8X8X8X>X`.W t @ . 9X9X9X9X9X9X9X9X9X9X9X9X",
"9X9X9X9X@ @ % 2 h m M ` ) ) ) M M n n n M n n M n n M M ) ) ) M ) ) o.&.E.].@X@X@X@X#X2X5X8X1X`.W u #   9X9X9X9X9X9X9X9X9X9X9X9X",
"9X9X9X9X+ @ % 4 q m ) ) ) ) M M M M n M M n n M M M M n M M B ) ) ) ` o.$.&.U.&.&.&.E.@X2X5X1X`.W t @ . 9X9X9X9X9X9X9X9X9X9X9X9X",
"9X9X9X9X@ @ = 2 h m M ) M M M M M M M M M M ) M N M M M M M M M M M m V M ` ` N ) ` $.E.#X4X>X`.W t @   9X9X9X9X9X9X9X9X9X9X9X9X",
"9X9X9X9X+ @ % 2 h m M ) M ) M M ) M M M M B M ) M M M M M M M b b j c c g c k k c n [ a.).=X=XW.E t @ . 9X9X9X9X9X9X9X9X9X9X9X9X",
"9X9X9X9XX @ % 2 h m B ) ) M M N B M M M ) ) M ) M M M M N M m x g q 0 ; ; ; 0 q k n [ d.h.F.|.f.! t +   9X9X9X9X9X9X9X9X9X9X9X9X",
"9X9X9X9X@ @ % 2 h b M M ) M M M M M M B M M M M M M M ) B M m j 0 = % % # % = > g b { 1.y.S.n.0.! 5 + + 9X9X9X9X9X9X9X9X9X9X9X9X",
"9X9X9X9X@ @ % 2 w h m m M M M M M M M m m x b m m M M ) ) M m q ; % O X + @ $ ; q m { <.t.v.c.5.d 1 # + 9X9X9X9X9X9X9X9X9X9X9X9X",
"9X9X9X9XO @ % % - w q h m m M ) ) M V x h g g h x M M ) ) M m h ; % X X   @ $ - g m ] <.b.v.c.5.! 8 # + 9X9X9X9X9X9X9X9X9X9X9X9X",
"9X9X9X9X@ @ @ % % = - q x m M ) ) M b c w - - w h m B ) ) M m h 2 % O X X O % - q m ] <.t.N.x.5.S 1 + + 9X9X9X9X9X9X9X9X9X9X9X9X",
"9X9X9X9X@ @ @ @ @ % = 0 j m M M ) M m h 0 = - 0 h m M ) ) M m h w = % $ $ % = > h m ] >.y.n.z.4.d 1 @ + 9X9X9X9X9X9X9X9X9X9X9X9X",
"9X9X9X9X@ O $ % = 2 w q j m M ) M M m x w w 0 q c m M M M M m x q w 0 - ; > w q c m '  .<.w.e.^ s 1 @ + 9X9X9X9X9X9X9X9X9X9X9X9X",
"9X9X9X9XO @ % = 2 q h m m M M ) M M M m x x h x m M M ) N M M m x j h h h h x c n M _ {  . .} Z e < @ @ 9X9X9X9X9X9X9X9X9X9X9X9X",
"9X9X9X9XO @ % ; q x M M M M M M M M M M M m M m M M M N M M M M M M m M m m M M M M B ) ' B V h 0 % @ @ 9X9X9X9X9X9X9X9X9X9X9X9X",
"9X9X9X9XO @ % 0 h m ) ) ) M M M M N M M ) M ) ) M M M M M M M ) M M M M ) B M M M M M n M M x g ; % @ O 9X9X9X9X9X9X9X9X9X9X9X9X",
"9X9X9X9XO @ % ; h m ` ) ` ) ) ) ) ) ) ` ) ) ) ) ) M M ) ) M M M M M ) ) M ) B M B M ) n n n c g ; % @ O 9X9X9X9X9X9X9X9X9X9X9X9X",
"9X9X9X9XO @ % 0 h m M ) M M M M M M M M M M M M M N M M M M M M M M M M M M M M M M M M ) M b h > % @ X 9X9X9X9X9X9X9X9X9X9X9X9X",
"9X9X9X9X@ @ % - w x m m m x m m b j x C b j b b C C C n M M M M M M M M M M M M M M M ' ' ] J l 9 = @ O 9X9X9X9X9X9X9X9X9X9X9X9X",
"9X9X9X9XO @ $ = 2 q w q g g q q q q q q q q q 0 0 q q g k C n M M M n M M M M M M M ' { :.>.-.G r < @   9X9X9X9X9X9X9X9X9X9X9X9X",
"9X9X9X9X@ @ # % % = = - 3 = 3 = = = = = : = = : = = - q j C M M M M M M M M M M n M ' :.q.t.r.( a 1 @ o 9X9X9X9X9X9X9X9X9X9X9X9X",
"9X9X9X9X@ @ @ @ @ $ $ $ @ $ # % % < = 3 3 < 3 3 = < 5 w v B ` ` ` ` ` N M M M n M M ] ,.y.M.k.4.A 1 @   9X9X9X9X9X9X9X9X9X9X9X9X",
"9X9X9X9X9X@ @ @ @ @ + X X @ # 3 u y P P U P P P P P Y E W $.%.i.i.%.$.+.X.M M n n M ] ,.b.N.c.7.S 8 @ + 9X9X9X9X9X9X9X9X9X9X9X9X",
"9X9X9X9X9X9X9X9X9X9X9XX X @ * y Q J.K.K.K.K.K.K.K.K.K.P.R.W.Q.!.!.W.R.s.+.` n n n M ] ,.b.C.c.7.S 8 @ + 9X9X9X9X9X9X9X9X9X9X9X9X",
"9X9X9X9X9X9X9X9X9X9X9X9X  @ 5 P J.~.OXOXOX X[.OXOXOX}.OXOXXXXXXXoXXX(.R.i.X.M M n M ] ,.t.M.x.3.S 1 $   9X9X9X9X9X9X9X9X9X9X9X9X",
"9X9X9X9X9X9X9X9X9X9X9X9X  @ 5 Y J.'.;X:X;X;X-X-X-X-X-X-X;X-X-X;X;X-XXX/.I.%.+.` B B ' :.q.t.9.=.A < @ +   9X9X9X9X9X9X9X9X9X9X9X",
"9X9X9X9X9X9X9X9X9X9X9X9X  O t Y J. X;X:X:X;X;X;X;X;X;X-X;X-X-X;X;X-XoX.X^.W.a.%.O.` _ ..:.,.-.G r & @     X O O @ @ 9X9X9X9X9X9X",
"9X9X9X9X9X9X9X9X9X9X9X9X. % 5 Y J.'.+X;X;X-X-X-X-X-X-X-X-X-X-X-X-X-X-XoXoX[.!.I.*.X.N _ ' ] K z 9 % @ @ @ @ @ @ @ @ @ @ 9X9X9X9X",
"9X9X9X9X9X9X9X9X9X9X9X9X  O e Y J.'.+X;X-X-X*X-X+X-X+X;X-X-X+X+X-X+X-X-X;X+X.XW.s.[ M M n M m j w - % % % % % % @ # @ @ 9X9X9X9X",
"9X9X9X9X9X9X9X9X9X9X9X9X  O 5 Y J.'.+X;X;X-X*X*X-X-X+X+X-X-X-X-X-X-X-X;X;X;XXX!.p.X.M n n n n j g 0 0 2 0 0 2 - = @ @ @ 9X9X9X9X",
"9X9X9X9X9X9X9X9X9X9X9X9X+ @ 5 Y J.'.+X;X-X-X*X-X+X+X;X-X-X+X+X*X+X-X-X;X;X;XOX!.s.[ M n n n C C b x j j x c h w - % @ O 9X9X9X9X",
"9X9X9X9X9X9X9X9X9X9X9X9X  @ 5 Y J.'.+X;X;X-X*X-X;X+X+X+X-X-X-X-X+X-X+X-X+XoX[.W.s.[ M M N N ' N M M m m M m x w - % @ O 9X9X9X9X",
"9X9X9X9X9X9X9X9X9X9X9X9X  + 5 Y K.'.+X>X;X-X-X-X+X+X;X+X-X-X-X;X;X+X+XoX}.^.W.U.$.[ _ ' .. . ...{ _ N M b x h 0 = % @ O 9X9X9X9X",
"9X9X9X9X9X9X9X9X9X9X9X9X  @ 5 Y K. X;X>X>X;X;X-X;X;X+X;X-X;X;X;X;X;XoX[.Q.I.%.+.[ ` ' | ,.q.q.,. .[ M x g w 0 = % % @ @ 9X9X9X9X",
"9X9X9X9X9X9X9X9X9X9X9X9X  O 5 T J./.+X;X-X*X+X+X-X+X+X-X*X*X*X-X-X*X.X!.U.+.[ M M N ' >.w.m.m.y.>.] m g , - $ $ @ @ @ @ 9X9X9X9X",
"9X9X9X9X9X9X9X9X9X9X9X9X  O 6 U u.~.(.[.[.(.(.(.(.[.[.(.(.(.(.[.}.(.!.T.%.[ M n n M ] ,.t.N.v.t.-.J j , = % @ @ O @ @ 9X9X9X9X9X",
"9X9X9X9X9X9X9X9X9X9X9X9XX $ 3 y E s.T.T.T.I.T.I.T.T.T.T.T.T.T.T.T.T.a.%.O.` M n n M ] 1.b.Z.N.9.2.z w = $ $ O O O @ 9X9X9X9X9X9X",
"9X9X9X9X9X9X9X9X9X9X9X9XO @ = w v [ O.@.@.@.@.@.O.+.+.O.+.+.@.@.@.+.+.o.` M M M n M ] <.t.v.N.8.^ e = $ $ @ @ @ @ 9X9X9X9X9X9X9X",
"9X9X9X9X9X9X9X9X9X9X9X9XO O = 2 h m N ) ) M N M M M m m m M C M M M m m m m M m n M ] >.y.m.j.4.A 1 $ O + @ @ @ 9X9X9X9X9X9X9X9X",
"9X9X9X9X9X9X9X9X9X9X9X9XO O = ; h C M M ) n M b j g g q q q g g q q g q q h h c b M '  .1.q.e.^ p < O O o @ @ 9X9X9X9X9X9X9X9X9X",
"9X9X9X9X9X9X9X9X9X9X9X9XO O % ; h C ) ) ) M m j q > - - - > - - - - - - - - 0 q x m _ { | ;.} Z e % O O O 9X9X9X9X9X9X9X9X9X9X9X",
"9X9X9X9X9X9X9X9X9X9X9X9XO O % 2 q C n M M M x h 4 = $ $ O O O % O $ % O @ % = 2 h m M ) _ [ m l 4 = O O 9X9X9X9X9X9X9X9X9X9X9X9X",
"9X9X9X9X9X9X9X9X9X9X9X9XO O % - w h c x x j h 0 = % @ O O O O O O O O O O @ % = 0 h j m M n b g ; % @ O 9X9X9X9X9X9X9X9X9X9X9X9X",
"9X9X9X9X9X9X9X9X9X9X9X9X@ $ % % = 2 0 0 0 4 0 = % @ O O O O 9X9X9X9XO O O O $ % = 0 q h b n b g > = @ O 9X9X9X9X9X9X9X9X9X9X9X9X",
"9X9X9X9X9X9X9X9X9X9X9X9X@ O O % % % % % % % % % % @ @ @ 9X9X9X9X9X9X9X9X@ @ @ $ $ % - w x m m h 2 % @ O 9X9X9X9X9X9X9X9X9X9X9X9X",
"9X9X9X9X9X9X9X9X9X9X9X9X$ $ O O @ @ @ @ # @ @ @ @ @ @ @ 9X9X9X9X9X9X9X9X@ @ @ O O O % 2 q h x q ; % @ O 9X9X9X9X9X9X9X9X9X9X9X9X",
"9X9X9X9X9X9X9X9X9X9X9X9X9X9X@ @ @ O X @ X O O O @ @ 9X9X9X9X9X9X9X9X9X9X9X9X@ O O O % = - 0 w 2 = % @ @ 9X9X9X9X9X9X9X9X9X9X9X9X",
"9X9X9X9X9X9X9X9X9X9X9X9X9X9X9X9X9X9X9X9X9X9X9X9X9X9X9X9X9X9X9X9X9X9X9X9X9X9X9X@ O @ O % % = = = % @ @ @ 9X9X9X9X9X9X9X9X9X9X9X9X",
"9X9X9X9X9X9X9X9X9X9X9X9X9X9X9X9X9X9X9X9X9X9X9X9X9X9X9X9X9X9X9X9X9X9X9X9X9X9X9X9X@ @ @ @ $ @ @ @ @ @ @ @ 9X9X9X9X9X9X9X9X9X9X9X9X",
"9X9X9X9X9X9X9X9X9X9X9X9X9X9X9X9X9X9X9X9X9X9X9X9X9X9X9X9X9X9X9X9X9X9X9X9X9X9X9X9X@ @ @ @ O O O O @ @ @ @ 9X9X9X9X9X9X9X9X9X9X9X9X"
};
