/* XPM */
static char *_3d66ec4d9c14cacefecc4ae246db3fcn7NLcLgK8hlmUzIT[] = {
/* columns rows colors chars-per-pixel */
"64 64 216 2 ",
"   c None",
".  c #2B2B37",
"X  c #2C2D3D",
"o  c #312E3E",
"O  c #2F313F",
"+  c #33323F",
"@  c #2C3340",
"#  c #353540",
"$  c #383740",
"%  c #373941",
"&  c #393D42",
"*  c #433F41",
"=  c #364445",
"-  c #3B4244",
";  c #3E4A46",
":  c #3D4E48",
">  c #3D5045",
",  c #3E5448",
"<  c #454142",
"1  c #4D4542",
"2  c #404E47",
"3  c #4E4A44",
"4  c #43434B",
"5  c #49474F",
"6  c #414F48",
"7  c #4C494D",
"8  c #504742",
"9  c #524A43",
"0  c #5A4E43",
"q  c #405647",
"w  c #4D5347",
"e  c #435449",
"r  c #455C4B",
"t  c #485F4C",
"y  c #585948",
"u  c #4D4A52",
"i  c #585759",
"p  c #665644",
"a  c #685C46",
"s  c #705E45",
"d  c #605F5E",
"f  c #46634D",
"g  c #49634D",
"h  c #4B694E",
"j  c #456C4A",
"k  c #57684D",
"l  c #4D6D50",
"z  c #556456",
"x  c #4E7252",
"c  c #4D7A53",
"v  c #517553",
"b  c #547D55",
"n  c #5A7D54",
"m  c #5B7D59",
"M  c #5E715D",
"N  c #4C714F",
"B  c #6A6D4C",
"V  c #746146",
"C  c #7C6546",
"Z  c #786849",
"A  c #63734F",
"S  c #7D754C",
"D  c #786855",
"F  c #687953",
"G  c #717F51",
"H  c #6D6768",
"J  c #6C6768",
"K  c #756C67",
"L  c #667962",
"P  c #796F71",
"I  c #7B7272",
"U  c #797677",
"Y  c #836A45",
"T  c #886F48",
"R  c #886E47",
"E  c #8A754A",
"W  c #9A7B49",
"Q  c #947544",
"!  c #827A5B",
"~  c #568156",
"^  c #5B8155",
"/  c #5C815B",
"(  c #658355",
")  c #6B8554",
"_  c #6D8956",
"`  c #62845E",
"'  c #688558",
"]  c #728553",
"[  c #758B55",
"{  c #7D8C53",
"}  c #788351",
"|  c #648561",
" . c #658962",
".. c #6A8A65",
"X. c #6E8C6A",
"o. c #688763",
"O. c #748F6D",
"+. c #6F906D",
"@. c #72916E",
"#. c #78906F",
"$. c #789372",
"%. c #7B8A71",
"&. c #9D814B",
"*. c #92854E",
"=. c #838E54",
"-. c #888951",
";. c #968C50",
":. c #8C9254",
">. c #859255",
",. c #949654",
"<. c #9B9653",
"1. c #989854",
"2. c #AC864A",
"3. c #A9864A",
"4. c #B38B4B",
"5. c #B18848",
"6. c #BB924B",
"7. c #BC9A4F",
"8. c #A88750",
"9. c #AC9D53",
"0. c #A59752",
"q. c #B99D51",
"w. c #B5A152",
"e. c #BEA552",
"r. c #BDA959",
"t. c #ABA054",
"y. c #858875",
"u. c #819676",
"i. c #859778",
"p. c #869A7A",
"a. c #8B9B7D",
"s. c #8D9A77",
"d. c #919B63",
"f. c #AA8E65",
"g. c #AE9975",
"h. c #BCAF6D",
"j. c #C3964C",
"k. c #C69C4E",
"l. c #D5A34D",
"z. c #DAA54E",
"x. c #DDAC4E",
"c. c #C2A652",
"v. c #C5A853",
"b. c #CAAA53",
"n. c #CEA256",
"m. c #D4AB52",
"M. c #DDAD51",
"N. c #D5A957",
"B. c #CCA14F",
"V. c #E5AD4C",
"C. c #E1AF51",
"Z. c #E3B151",
"A. c #EAB150",
"S. c #EBB65A",
"D. c #E9B45A",
"F. c #EDB654",
"G. c #D9B675",
"H. c #D3AF71",
"J. c #F8CB7F",
"K. c #F6CA7F",
"L. c #EEC47C",
"P. c #958B85",
"I. c #998E88",
"U. c #988D87",
"Y. c #8F9D80",
"T. c #9D9C8A",
"R. c #AA9D95",
"E. c #A79E96",
"W. c #AC9981",
"Q. c #9BA389",
"!. c #96A385",
"~. c #94AB90",
"^. c #A1A78D",
"/. c #ADA196",
"(. c #A6A990",
"). c #ADAE96",
"_. c #AEA199",
"`. c #B4AB9B",
"'. c #A2B39B",
"]. c #B4B19B",
"[. c #BAB49F",
"{. c #B9B389",
"}. c #A9A4A5",
"|. c #BDAEA2",
" X c #BDB6A2",
".X c #ABB9A6",
"XX c #D4BC98",
"oX c #C4B9A6",
"OX c #CCBDAD",
"+X c #C4B6A7",
"@X c #D0BFB0",
"#X c #BEC3AC",
"$X c #D7C599",
"%X c #FDCE81",
"&X c #E0C99F",
"*X c #CFC1AF",
"=X c #D0C2AF",
"-X c #C4CCBB",
";X c #D4C2B2",
":X c #D9C5B6",
">X c #DCC9B8",
",X c #D8C9B8",
"<X c #D8D1BA",
"1X c #FBDCAD",
"2X c #F7D9AC",
"3X c #EED3A7",
"4X c #D3CDC9",
"5X c #CED0C1",
"6X c #D1D2C4",
"7X c #D9DACF",
"8X c #DEDCD0",
"9X c #EBDECA",
"0X c #E2DFD9",
"qX c #EFE0CC",
"wX c #F1E2CE",
"eX c #E8E3D9",
/* pixels */
"                                        # # # # o @ @ o # # # #                 + + + + O O + + + + + +                         ",
"                                        # # # # $ $ $ $ # * # #                 + + - + + & + + + & + &                         ",
"                                      @ # @ # * 9 0 0 9 * * # # #             @ O + + * w 0 0 9 < & + +                         ",
"                            # # @ @ @ @ @ @ * 9 s R R s * * # # # # #     @ @ @ X O * 9 V R R V 0 < + &                         ",
"                        # # # # $ $ # # @ # < s W 6.6.W s 1 # @ + + + + # # # X . + 1 V W 6.6.W V 1 + O                         ",
"                        # # + & * 8 8 * 1 9 p Q 6.z.l.4.C 1 # @ + + + * * 1 1 1 < 8 p Q 6.z.B.2.C 1 + O                         ",
"                    o o + + * 8 p s Y R Y R W 4.z.A.C.4.Y 1 # @ + + $ 8 p s Y Y Y Y Q 5.B.V.z.5.C 8 + O                         ",
"          # # # # # + + + + * p R 2.j.j.j.j.k.z.A.A.z.2.C 1 # @ O + < p R 3.6.6.j.j.j.l.V.V.l.3.V 8 + O                         ",
"        # # # # # % # # # & 3 V &.k.M.C.M.M.M.Z.Z.V.B.3.Z 3 & O O + w Z 8.n.D.D.D.D.D.D.S.S.N.8.Z 3 + O                         ",
"        # # % % - ; ; ; = : y B *.q.c.b.b.v.v.v.v.c.9.*.B w ; = = ; y ! r.G.%X%X%X%X%X%XJ.L.G.f.D w + O                         ",
"        # # % ; 6 r g g g g l A } >.,.1.,.,.,.,.,.:.=.G A k g r r g F y.{.=X2X1X1X2X3X2X2X3XoXg.K 7 + O                         ",
"        # # & ; r l v v v v v n m ( ( ` ( ( ( ' ( ( ( n n v v N N v o.a.].<X9XqXwX9X9XwXwX9X,X/.P 7 + O                         ",
"        # # & 6 g v b ~ n ~ b b b b c b b b b b b b b b b ~ b b c ~  .p.'.#X5X4X4X5X7X0X0XeX4X}.U u % X                         ",
"        @ # & 6 g v ~ ~ ~ ~ ~ b b c c b c c c c b c c b b b ~ ~ ~ ~  .@.~.~.'.'.'.'..X#X7X0X4X}.U u # X                         ",
"        # # & 6 g v b ~ ~ ~ b b b b b c b b b b b b b b b b b b ~ ~ ~  . .X.@.+.+.@.Y.'.#X8X4X}.U u # .                         ",
"        # # & 6 t v b ~ ~ b b b b b m m b b b b b b b b b b b b v v v v c c b c c b ..!.#X6X,X_.U u + X                         ",
"        # # & e g v m ~ ~ ~ b b b b b b n ~ b ~ b n b b b n v v h g g g r r f j j c ' s.{.$XXXW.K u & X                         ",
"        o # & 6 g v b ~ ~ b b b m b b b b ~ ~ b b b b b ~ b v l t q ; ; = ; ; , j c ' d.h.G.H.f.D 9 + X                         ",
"        @ # & : t l v b b b b b b b b b b v b b b b b ~ ~ b v g q - + + + + = : f v ) ,.r.N.m.2.C 3 + +                         ",
"        o # & ; e t l v v b b n ~ b b v l l l l v b b ~ ~ b v g 2 & + + + + & ; r v _ 1.e.M.l.2.C 1 % O                         ",
"        # # $ & - ; e g l v b ~ m b v h t r e t l v n ~ ~ n l g 2 % o o X # # ; r v ) ,.v.M.z.5.C 1 % X                         ",
"        # # # $ & & ; e h v b ~ ~ n v h e 4 ; e g v b ~ ~ b v g 2 & # + # # % 6 f c ) ,.e.N.l.2.C 1 # O                         ",
"        # # $ # $ & 2 e h v b ~ ~ b v h e 2 ; e g v b ~ ~ b v g e 2 - & - - : e g v ( >.9.c.q.W V 1 + O                         ",
"        # # & & ; 6 r g v v b m b b v h g e r g l b b ~ ~ b n N g r r e e e r f x v ( [ :.1.;.E y < + +                         ",
"        + # % ; e g l v b b b b ~ b b v v l l v v b b n b b b v v l l h l h l v b b n ( _ ] ' k w & # o                         ",
"        + # & 6 g x b b ~ b b b b b b b b b b b b b b b b b b b b b b b b b b b b b b b ~ ~ v g e - # +                         ",
"        + # & 6 h v ~ ~ ~ ~ ~ b ~ ~ n ~ ~ ~ ~ ~ ~ n b ~ b b b b n b ~ ~ ~ ~ n b b b b b b c x f : & # +                         ",
"        # # & e g v ~ / ~ ~ b n b b ~ ~ ~ ~ ~ ~ ~ ~ ~ b ~ b b ~ b b ~ m b ~ n b ~ b b b c c x , : & # +                         ",
"        # # & ; g v b b b b v b b b b v b v v b b b b b b b ^ b b b b b b b b b b b b ~ ^ m v h 6 & # #                         ",
"        + # & ; e g h l h l l h l h h h h h h h h g h h v v c b b c b b b b b b b b n ( ] { G k w < # @                         ",
"        # # # & ; 6 e e e e e e 6 ; > ; > > > : ; > , f h c v c b c b b b b ~ b b b / { :.<.;.E p < # X                         ",
"        # # # & % & - & & - - - & - - - - - - & & - ; e h v ~ ~ b b b b b b b b b b ' >.w.v.7.&.V 1 # @                         ",
"        # # # # & + + + # # % * * 5 u u u u u 7 u u u i F L ........o.` ~ b b b c b ) ,.e.M.l.2.C 8 # @                         ",
"            # # + + + o @ # & u d K I I I P I P P I U %.P.s.a.s.a.s.i.O.o.m v c c b ) 1.v.M.z.5.Y 1 # @                         ",
"                      o @ # 4 i U I.R.R./.E.R.R.E.E._._._.).].].[.].(.Y.@./ b c c b ) ,.v.M.z.2.s 8 # X                         ",
"                        o $ 7 J P.|.OX;X@XOXOXOXOXOXOXOXOXOXOX@X=XOX X(.p.X./ c b b ) :.w.b.B.8.C 1 # @                         ",
"                        . + 7 H P.+X@X>X>X:X;X>X:X:X:X;X:X;X:X:X:X:XOX[.^.p.#.../ / ( { <.0.9.E a * # X X                       ",
"                        X % u H P.+X@X>X>X:X:X;X;X:X;X:X;X;X;X:X:X;XOXoX[.).Q.i.O.` ^ ) [ -.-.B y * + o o # + + # # #           ",
"                        X + 5 J P.|.@X>X;X;X@X;X=X;X;X=X@X;X;X@X@X;X@X@XOXOX[.Q.$.` ~ ^ ^ ( n z 7 - # + # $ # $ # # # #         ",
"                        X # 7 J P.+X@X:X;X;X;X=X;X;X=X;X;X@X;X;X;X@X;X:X:X;XoX(.s.` b c c v c f r ; ; - - ; - & & # # #         ",
"                        X + u J P.|.@X>X@X:X@X@X;X@X;X;X;X@X;X@X@X@X;X:X>X:XOX(.p.` n c c c c l g t r r r t e 2 - & # +         ",
"                        X & 7 H P.|.@X>X:X@X@X:X@X;X=X@X@X;X;X@X;X=X@X:X:X;XoX(.i.o.b v v b c c v l l v v l h r ; & # +         ",
"                        . + 7 H P.|.@X@X:X@X@X:X@X;X;X;X;X@X;X@X;X=X@X@XOXoX].!.$.o.~ n ^ ( ( ( / n b b v v l r ; & # +         ",
"                        X + u K U.+X@X>X>X:X@X:X;X:X;X;X:X;X:X:X:X:X@XoX`.(.!.u...( ^ ) =.>.:.{ _ ( b v l h r : - & # +         ",
"                        X $ u H U.|.;X>X:X:X;X:X:X;X:X;X;X;X;X:X:X;XOX].Q.i.@.o.m / F { <.w.w.0.>.( b l r e ; & & % # #         ",
"                        X # 5 H P.`.OX*X@X@XOXOXOXOXOXOXOXOXOXOXOXOX X^.i...~ c b b ) ,.w.m.m.w.>.) l r : - % # # # # #         ",
"                        o + 4 z U T.).].).).).).).).).).].).).].`.).^.s.@./ ~ c c b ' ,.c.M.M.7.;.A g : = % # + + # #           ",
"                        + + < i L %.i.a.s.i.i.i.p.p.p.p.p.p.p.p.a.p.u.@.` ^ b c c b ) ,.c.Z.M.7.E y 6 = % # # + +               ",
"                        + + - e z m ` `  .` ' ` ` ` ` o.` o.` ` | ` | ~ m m b b b b ) ,.w.M.n.4.Z w & # # # # #                 ",
"                        + # & 6 g x b ~ ~ b c v v v x h N N l l l l l l l l l l c ~ ( >.9.e.7.W V 1 # @ # # # #                 ",
"                        # # & 6 g N b ~ ~ b c h f r q q , q q q , q e r r r r h l b ( [ :.1.;.S y < + o X #                     ",
"                        + # & 6 f x b b ~ b v h q ; - - - - - - - - - - & - 2 r l v ~ ( _ _ G k w & # # +                       ",
"                        + # & : t l v b b v l t q & % + + & # # + % + % # # & 6 r l v b b n v g 2 & # +                         ",
"                        + # # ; 6 r t g g t r 6 - % + + + + + + + + + + @ # $ & : r h x c c x t e & # +                         ",
"                        # # # & - ; ; ; 2 2 ; - & % + + +             + # # # % & ; 6 g l b v f 6 & # +                         ",
"                        # # # % # # & & $ # # & # + % +                 # # # # % % - e g v l g 6 & # #                         ",
"                          # # # # + + + + + + # # # #                     # # + + # & ; e g g e ; & # +                         ",
"                                                                            # + + + # - ; 2 6 ; & % # #                         ",
"                                                                                # # + & & & & & % # # #                         ",
"                                                                                # # # # + # # # # # # #                         ",
"                                                                                    # + + + + + + #                             ",
"                                                                                                                                ",
"                                                                                                                                ",
"                                                                                                                                "
};
