/* XPM */
static char *_84cb019099b4b79e27ed0b5f6e3044aVZBZehr7Mrcw7Ut9[] = {
/* columns rows colors chars-per-pixel */
"64 64 218 2 ",
"   c None",
".  c #2B2B37",
"X  c #2C2D3D",
"o  c #312E3E",
"O  c #2F313F",
"+  c #33323F",
"@  c #2C3340",
"#  c #353540",
"$  c #383740",
"%  c #373941",
"&  c #393C42",
"*  c #433F41",
"=  c #354344",
"-  c #3B4244",
";  c #3E4A46",
":  c #3D4E48",
">  c #3D5045",
",  c #3E5149",
"<  c #3F5948",
"1  c #464142",
"2  c #4D4542",
"3  c #404E47",
"4  c #4E4A44",
"5  c #49474F",
"6  c #414F48",
"7  c #4C494D",
"8  c #44434B",
"9  c #504742",
"0  c #524A43",
"q  c #5A4E43",
"w  c #405647",
"e  c #4E5247",
"r  c #435449",
"t  c #455C4B",
"y  c #485F4C",
"u  c #565A49",
"i  c #4D4A52",
"p  c #585759",
"a  c #665644",
"s  c #685C46",
"d  c #705E45",
"f  c #605F5E",
"g  c #46634D",
"h  c #4A634D",
"j  c #4B694E",
"k  c #456C4A",
"l  c #56684D",
"z  c #4D6D50",
"x  c #556556",
"c  c #4D7251",
"v  c #4D7A53",
"b  c #517553",
"n  c #547D55",
"m  c #5A7D54",
"M  c #5B7D59",
"N  c #5E715D",
"B  c #4C714F",
"V  c #6A6D4C",
"C  c #746246",
"Z  c #7C6546",
"A  c #776849",
"S  c #65724F",
"D  c #786855",
"F  c #667754",
"G  c #717F51",
"H  c #7D754C",
"J  c #6D6768",
"K  c #6C6768",
"L  c #756C67",
"P  c #667962",
"I  c #796F71",
"U  c #7B7272",
"Y  c #787478",
"T  c #836A45",
"R  c #886F48",
"E  c #886E47",
"W  c #8A7549",
"Q  c #9A7B49",
"!  c #947544",
"~  c #827A5B",
"^  c #807F75",
"/  c #578156",
"(  c #5B8155",
")  c #5C815B",
"_  c #658355",
"`  c #6A8554",
"'  c #6D8955",
"]  c #62845E",
"[  c #688558",
"{  c #728453",
"}  c #748A55",
"|  c #7D8C53",
" . c #788351",
".. c #648561",
"X. c #658962",
"o. c #6A8A65",
"O. c #6E8C6A",
"+. c #688763",
"@. c #748F6D",
"#. c #6F906D",
"$. c #72916E",
"%. c #78906F",
"&. c #789372",
"*. c #7B8A71",
"=. c #9E834C",
"-. c #92854E",
";. c #838E54",
":. c #878851",
">. c #988D50",
",. c #8C9254",
"<. c #859255",
"1. c #949654",
"2. c #9B9853",
"3. c #989754",
"4. c #AC864A",
"5. c #A9864A",
"6. c #B38B4B",
"7. c #B18848",
"8. c #BB924B",
"9. c #BC9A4F",
"0. c #A88750",
"q. c #AC9D53",
"w. c #A59752",
"e. c #B99C50",
"r. c #B5A152",
"t. c #BDA552",
"y. c #BDA959",
"u. c #ABA054",
"i. c #858875",
"p. c #819676",
"a. c #859778",
"s. c #869A7A",
"d. c #8B9B7D",
"f. c #8D9A77",
"g. c #919B63",
"h. c #AA8E65",
"j. c #AE9975",
"k. c #BCAF6D",
"l. c #C3964C",
"z. c #C69C4E",
"x. c #D5A34D",
"c. c #DAA54E",
"v. c #DDAC4E",
"b. c #C2A652",
"n. c #C5A853",
"m. c #CAAA53",
"M. c #CEA256",
"N. c #D4AB52",
"B. c #DDAD51",
"V. c #D5A957",
"C. c #CCA14F",
"Z. c #E5AD4C",
"A. c #E1AF51",
"S. c #E3B151",
"D. c #EAB150",
"F. c #EBB65A",
"G. c #E9B45A",
"H. c #EDB654",
"J. c #D9B675",
"K. c #D3AF71",
"L. c #F8CB7F",
"P. c #F6CA7F",
"I. c #EEC47C",
"U. c #958B85",
"Y. c #998E88",
"T. c #988D87",
"R. c #8F9D80",
"E. c #9D9C8A",
"W. c #AA9D95",
"Q. c #A79E96",
"!. c #AC9981",
"~. c #9BA389",
"^. c #96A385",
"/. c #94AB90",
"(. c #A1A78D",
"). c #ADA196",
"_. c #A6A990",
"`. c #ADAE96",
"'. c #AEA199",
"]. c #B4AB9B",
"[. c #A2B39B",
"{. c #B4B19B",
"}. c #BAB49F",
"|. c #B9B389",
" X c #A9A4A5",
".X c #BDAEA2",
"XX c #BDB6A2",
"oX c #ABB9A6",
"OX c #D4BC98",
"+X c #C4B9A6",
"@X c #CCBDAD",
"#X c #C4B6A7",
"$X c #D0BFB0",
"%X c #BEC3AC",
"&X c #D7C599",
"*X c #FDCE81",
"=X c #E0C99F",
"-X c #CFC1AF",
";X c #D0C2AF",
":X c #C4CCBB",
">X c #D4C2B2",
",X c #D9C5B6",
"<X c #DCC9B8",
"1X c #D8C9B8",
"2X c #D8D1BA",
"3X c #FBDCAD",
"4X c #F7D9AC",
"5X c #EED3A7",
"6X c #D3CDC9",
"7X c #CED0C1",
"8X c #D1D2C4",
"9X c #D9DACF",
"0X c #DEDCD0",
"qX c #EBDECA",
"wX c #E2DFD9",
"eX c #EFE0CC",
"rX c #F1E2CE",
"tX c #E8E3D9",
/* pixels */
"                                        # # # @ @ o @ o # # # #                 + & + + O O + + + & + +                         ",
"                                        # # $ $ $ $ $ $ # * # #                 + + + & - + + + + + + &                         ",
"                                      @ # @ $ * 0 q q 0 * * # # $             O O O + * 0 q q 4 * & + %                         ",
"                            # # @ @ @ @ X @ * 0 d E E d * * # @ # # #     X @ X O O * 0 C E R C q 1 % O                         ",
"                        # # # # $ # # @ @ # 1 d Q 8.8.Q d 8 # @ + + + o # # # @ . + 2 d Q 8.8.Q d 2 + O                         ",
"                        # # + & * * 9 9 2 9 s ! 8.c.x.6.T 9 # @ + + + * * 2 2 2 2 9 a ! 8.x.x.4.Z 2 + O                         ",
"                    + o + + * 9 a T T E T E Q 6.c.D.A.6.Z 9 # @ . + * 9 a d T T T T ! 7.C.Z.c.7.Z 4 + O                         ",
"          # # # # # + o + + * a E 0.8.l.l.l.z.c.D.D.c.7.Z 9 # @ O + * a E 5.8.8.8.l.l.x.Z.Z.x.5.Z 2 + O                         ",
"        # # # % # % % # @ & 4 C 5.z.c.S.B.B.B.S.S.Z.C.5.A 4 + O O + e A 4.M.G.H.F.G.G.F.F.F.V.0.A 4 + X                         ",
"        # # % & - ; ; ; ; : u V -.q.b.m.n.n.n.n.n.t.q.-.V u , = = ; u ~ j.J.P.L.*X*XP.*XL.I.J.h.D 4 + O                         ",
"        + # & - 6 t y h h h l S  .,.1.3.3.3.1.1.1.,.;. .S j g t t h F i.|.=X4X3X3X4X4X4X3X5XOXE.L 7 + O                         ",
"        + # & ; t z b b b b b n m _ ] [ _ _ _ _ _ _ F m m n b B c b +.R.oX2XqXrXrXqXqXrXrXqX>X'.U i + O                         ",
"        + # & 6 g b / / / n n n n v n n n n n n n n n n n n / n v / X.&.oX%X7X8X8X7X9X9XtXtX6X XY i & X                         ",
"        + # = 6 h b M / / / / / / v v v v v v v n v v n n / / n / / X.$././.[.[.[.[.oX%X9XwX6X XY i + X                         ",
"        + # & 6 h b n / / / n n n n n v n n n n n n n n n M n n / n ( ..X.O.#.#.O.$.R.[.:X9X8X XY i + .                         ",
"        + + - ; h b n / n n n n n n M n M n n n n n n n n n n b v b b b v n n c c M o./.%X2X>X'.Y i + O                         ",
"        + # & r h b n / / n n n n / n n / m / n n n n / n n n b j h h g t t g g k v X.f.|.&XOX!.L i + +                         ",
"        + # & 6 h b M / / n n n n n n n n / / n n n n m / n b j y w ; > = ; ; < k v ' g.k.J.K.h.H 7 & .                         ",
"        # # & : y c b n n n n n n n n n n n n n n n n / / n b h r & + + + + = , g B ` 1.n.V.M.4.A 2 + O                         ",
"        + # & - r y z b b n n M M n n b z z j j b n n / / n b h r + + + + + & ; t B ' 1.y.S.x.7.Z 0 # X                         ",
"        # # # & - 6 r h z n n / / n b z y r r y j b n / m n B h 3 - + o X o & ; g b ` 1.b.v.c.7.Z 9 % X                         ",
"        # # # # % & ; r h b n / ( n b h r 3 1 r h b M / / m b h r + + + # # & : g b ` 1.y.V.x.5.Z 9 # X                         ",
"        # # % % & & ; t h b n ( / n b j r ; ; r j b n / / n b h r 3 - - & - ; r h b _ ,.q.b.9.=.d 2 + +                         ",
"        + # % & - 6 t h z n n n n n b z h t t h j n n m / n n B j y r r r t t g z n ( } ,.3.>.H u 1 + +                         ",
"        + # % ; r h z b n n n n n n n b b j b b b n n n / n n b B c j j j z b b n n M _ ' { G l e - # o                         ",
"        + # & , h b n n M n n n n n M n n n n n n n n n n n n n n m n n n n b n n n n n ( n b g 6 & # #                         ",
"        + # & r h b n ( / / n n n / / / / / / ( / / M n n n n n n n / / / / M n / n / v n v c < : & # o                         ",
"        + # & 6 h n / / / / / n / n / / / / / n / ( n n / n n n n M n ( n / n / n n n n v v c g : & # #                         ",
"        + # - 6 h b n n n n b n n n n n b n n n n n n n n n n n n n n n n n n n n n n / M M b j 6 - # #                         ",
"        + # & - r h z z z j z z j h j j j j j k j j j B b n n n n n n n n n m n n M ( _ } | G l e 1 # @                         ",
"        # # % & - r r r r r r r r , > > ; ; > > ; > < t j b v n n v n v n n n n n n _ | ,.2.>.W a * # X                         ",
"        # # # & & & & - & & - - - & - & - - & & + - ; r j B n / / n n n n n n n v n _ ,.q.b.9.=.C 2 # @                         ",
"        # # # # % + + + # # % 8 8 i i i i 7 i i i i p p N P [ o.[ o...] / n n n v n ` 1.t.v.x.4.A 9 # @                         ",
"            # # + + + + o # & i f J U U U I I I I I U *.i.d.R.d.d.d.a.%.o.M v v v n ` 3.b.A.c.6.T 2 # X                         ",
"                      o o + 8 p ^ T.W.'.).).Q.W.W.W.).).].{.].}.}.{._.R.@.) n v v n ` 1.t.A.c.4.T 9 # @                         ",
"                        . # 7 K U.].+X>X$X@X@X@X@X@X@X@X@X@X@X$X;X@XXX_.s.O./ n n M ` ,.r.m.C.5.d * # @                         ",
"                        . + 7 J U.#X$X<X1X,X,X,X,X,X>X,X,X>X,X,X,X,X@X}.(.s.%.o.) ) _ | 3.q.w.W s * + + X                       ",
"                        O + i J T.#X$X<X,X,X>X,X>X,X,X>X,X>X>X>X,X>X@X+X}.`.E.a.O.] ( ` | ;.:.V u * + + o + + + # # #           ",
"                        X + 7 K U.#X$X<X>X>X$X>X>X>X;X>X>X$X$X>X$X>X$X$X>X+X{.~.p.] m n ( _ m x 7 & + + # % % % # # # #         ",
"                        X # 5 K U.#X$X$X,X>X>X$X;X;X>X;X>X$X>X>X$X>X>X,X,X,X+X_.a.] n n v v v g t 6 ; - - - - & & # # #         ",
"                        O + i K U.#X$X,X,X$X$X$X>X>X$X$X>X$X>X$X>X;X>X,X<X,X+X`.s.+.n b v v c z h y t t t t r 6 - & # +         ",
"                        O + 7 K U..X$X,X,X$X$X,X$X;X>X;X>X>X>X$X$X>X$X>X,X;X+X_.a...n n n n v v b c c b b z z r ; & # +         ",
"                        . % 7 K U..X$X$X<X$X$X$X$X>X;X>X$X$X>X$X>X>X$X>X@X#X{.~.%.] n m ( _ _ _ m M n n b b z t ; & # +         ",
"                        . & i K U.#X$X,X<X$X,X<X,X>X,X>X,X>X,X,X,X>X$X+X}._.^.&.O.] m ` | ,.,.| ' _ n b z j t r - & # +         ",
"                        . # i J U.#X>X<X<X$X,X$X>X>X>X>X>X>X>X>X,X>X@X{.~.a.%.X.) ( _ ;.2.e.r.w.<._ n z t r - - & % # #         ",
"                        O # i J U.].@X;X$X$X$X$X@X-X-X@X@X@X-X-X$X+X}.(.a.o./ v v M ` ,.r.N.N.r.,.F c g , - % # # # # #         ",
"                      o X + 5 p ^ E.`.`.{.`.].`.`.`.`.`.`.`.`.{.{.`.(.d.@.] n v v n ` 1.t.v.B.e.-.S t , = % # + + + #           ",
"                  + + + + + - e K *.a.d.f.a.a.a.a.d.s.s.s.d.s.d.d.d.&.%.] ( n v v n ` 3.b.A.A.8.W u ; = % # + + +               ",
"                # # # + + % - r l M ..X.....[ ] ] ..] ..] ........] ] ) M M n n v n ' 1.t.B.M.6.H e & % @ % # #                 ",
"                # # # # & - 3 t j b n n / n n n b j z z j j c j c j z z z z c c v n _ <.q.b.e.=.A 4 - % # # # #                 ",
"                + # & - 3 r y j B v n / n n v k k t w w < < w w w w w w w t h h c n _ } <.3.>.:.S u , ; & % # +                 ",
"                + # & ; r j c b v n n n / n b j r ; - - - - - - - - = - & ; 8 t j b / _ ' } ` [ m b h r ; & # +                 ",
"                + + % ; y j b b b b b b b b z t ; - % + # # # # + & + + # # $ 6 y z b b b n b n n n b y 6 & # +                 ",
"                + + & ; 6 y h h j h y h h y y r - % + + + + + + + + + + @ # % & 6 t y h t g g z b n b h r & # +                 ",
"                # # % - - ; 8 ; ; ; ; ; 8 ; - - & % + + +             + # # % % & ; ; ; ; ; r g b b b j r & # +                 ",
"                # # + # % % & & & = + % & & $ & # # # #                 # # % % % % % % % % - r h b c h 6 & # +                 ",
"                  # # # # + + + + + + + + + + $ # # #                     # # # # + + # o # & - r h h r - & # +                 ",
"                                                                                    + o o # # & ; 6 6 ; - % # #                 ",
"                                                                                        # # # & & & & & & # # #                 ",
"                                                                                        # # # # # # # + # # # #                 ",
"                                                                                            # + + + + + + #                     ",
"                                                                                                                                ",
"                                                                                                                                ",
"                                                                                                                                "
};
