/* XPM */
static char *result[] = {
/* columns rows colors chars-per-pixel */
"64 64 218 2 ",
"   c #2B2B37",
".  c #2C2D3D",
"X  c #312E3E",
"o  c #2F313F",
"O  c #33323F",
"+  c #2C3340",
"@  c #353540",
"#  c #383740",
"$  c #373941",
"%  c #393C42",
"&  c #433F41",
"*  c #354344",
"=  c #3B4244",
"-  c #3E4A46",
";  c #3D4E48",
":  c #3D5045",
">  c #3E5149",
",  c #3F5948",
"<  c #464142",
"1  c #4D4542",
"2  c #404E47",
"3  c #4E4A44",
"4  c #49474F",
"5  c #414F48",
"6  c #4C494D",
"7  c #44434B",
"8  c #504742",
"9  c #524A43",
"0  c #5A4E43",
"q  c #405647",
"w  c #4E5247",
"e  c #435449",
"r  c #455C4B",
"t  c #485F4C",
"y  c #565A49",
"u  c #4D4A52",
"i  c #585759",
"p  c #665644",
"a  c #685C46",
"s  c #705E45",
"d  c #605F5E",
"f  c #46634D",
"g  c #4A634D",
"h  c #4B694E",
"j  c #456C4A",
"k  c #56684D",
"l  c #4D6D50",
"z  c #556556",
"x  c #4D7251",
"c  c #4D7A53",
"v  c #517553",
"b  c #547D55",
"n  c #5A7D54",
"m  c #5B7D59",
"M  c #5E715D",
"N  c #4C714F",
"B  c #6A6D4C",
"V  c #746246",
"C  c #7C6546",
"Z  c #776849",
"A  c #65724F",
"S  c #786855",
"D  c #667754",
"F  c #717F51",
"G  c #7D754C",
"H  c #6D6768",
"J  c #6C6768",
"K  c #756C67",
"L  c #667962",
"P  c #796F71",
"I  c #7B7272",
"U  c #787478",
"Y  c #836A45",
"T  c #886F48",
"R  c #886E47",
"E  c #8A7549",
"W  c #9A7B49",
"Q  c #947544",
"!  c #827A5B",
"~  c #807F75",
"^  c #578156",
"/  c #5B8155",
"(  c #5C815B",
")  c #658355",
"_  c #6A8554",
"`  c #6D8955",
"'  c #62845E",
"]  c #688558",
"[  c #728453",
"{  c #748A55",
"}  c #7D8C53",
"|  c #788351",
" . c #648561",
".. c #658962",
"X. c #6A8A65",
"o. c #6E8C6A",
"O. c #688763",
"+. c #748F6D",
"@. c #6F906D",
"#. c #72916E",
"$. c #78906F",
"%. c #789372",
"&. c #7B8A71",
"*. c #9E834C",
"=. c #92854E",
"-. c #838E54",
";. c #878851",
":. c #988D50",
">. c #8C9254",
",. c #859255",
"<. c #949654",
"1. c #9B9853",
"2. c #989754",
"3. c #AC864A",
"4. c #A9864A",
"5. c #B38B4B",
"6. c #B18848",
"7. c #BB924B",
"8. c #BC9A4F",
"9. c #A88750",
"0. c #AC9D53",
"q. c #A59752",
"w. c #B99C50",
"e. c #B5A152",
"r. c #BDA552",
"t. c #BDA959",
"y. c #ABA054",
"u. c #858875",
"i. c #819676",
"p. c #859778",
"a. c #869A7A",
"s. c #8B9B7D",
"d. c #8D9A77",
"f. c #919B63",
"g. c #AA8E65",
"h. c #AE9975",
"j. c #BCAF6D",
"k. c #C3964C",
"l. c #C69C4E",
"z. c #D5A34D",
"x. c #DAA54E",
"c. c #DDAC4E",
"v. c #C2A652",
"b. c #C5A853",
"n. c #CAAA53",
"m. c #CEA256",
"M. c #D4AB52",
"N. c #DDAD51",
"B. c #D5A957",
"V. c #CCA14F",
"C. c #E5AD4C",
"Z. c #E1AF51",
"A. c #E3B151",
"S. c #EAB150",
"D. c #EBB65A",
"F. c #E9B45A",
"G. c #EDB654",
"H. c #D9B675",
"J. c #D3AF71",
"K. c #F8CB7F",
"L. c #F6CA7F",
"P. c #EEC47C",
"I. c #958B85",
"U. c #998E88",
"Y. c #988D87",
"T. c #8F9D80",
"R. c #9D9C8A",
"E. c #AA9D95",
"W. c #A79E96",
"Q. c #AC9981",
"!. c #9BA389",
"~. c #96A385",
"^. c #94AB90",
"/. c #A1A78D",
"(. c #ADA196",
"). c #A6A990",
"_. c #ADAE96",
"`. c #AEA199",
"'. c #B4AB9B",
"]. c #A2B39B",
"[. c #B4B19B",
"{. c #BAB49F",
"}. c #B9B389",
"|. c #A9A4A5",
" X c #BDAEA2",
".X c #BDB6A2",
"XX c #ABB9A6",
"oX c #D4BC98",
"OX c #C4B9A6",
"+X c #CCBDAD",
"@X c #C4B6A7",
"#X c #D0BFB0",
"$X c #BEC3AC",
"%X c #D7C599",
"&X c #FDCE81",
"*X c #E0C99F",
"=X c #CFC1AF",
"-X c #D0C2AF",
";X c #C4CCBB",
":X c #D4C2B2",
">X c #D9C5B6",
",X c #DCC9B8",
"<X c #D8C9B8",
"1X c #D8D1BA",
"2X c #FBDCAD",
"3X c #F7D9AC",
"4X c #EED3A7",
"5X c #D3CDC9",
"6X c #CED0C1",
"7X c #D1D2C4",
"8X c #D9DACF",
"9X c #DEDCD0",
"0X c #EBDECA",
"qX c #E2DFD9",
"wX c #EFE0CC",
"eX c #F1E2CE",
"rX c #E8E3D9",
"tX c None",
/* pixels */
"tXtXtXtXtXtXtXtXtXtXtXtXtXtXtXtXtXtXtXtX@ @ @ @ X . X @ @ + @ @ tXtXtXtXtXtXtXtXO % O O o o O O $ O O % tXtXtXtXtXtXtXtXtXtXtXtX",
"tXtXtXtXtXtXtXtXtXtXtXtXtXtXtXtXtXtXtXtX@ @ O @ % @ % @ @ @ @ @ tXtXtXtXtXtXtXtXO O O % = O O O O % O O tXtXtXtXtXtXtXtXtXtXtXtX",
"tXtXtXtXtXtXtXtXtXtXtXtXtXtXtXtXtXtXtX+ O @ @ & 8 0 0 8 & & @ @ # tXtXtXtXtXtX@ o o O & 8 0 0 8 & % $ O tXtXtXtXtXtXtXtXtXtXtXtX",
"tXtXtXtXtXtXtXtXtXtXtXtXtXtX@ @ + + + + . + % 0 V R R V 0 & @ + @ @ @ tXtX. + + . o & 9 V T T V 0 < $ o tXtXtXtXtXtXtXtXtXtXtXtX",
"tXtXtXtXtXtXtXtXtXtXtXtX@ @ @ @ & @ @ @ + @ & s W 7.7.W s 1 @ + O O O O @ @ @ .   O 1 V W 7.7.W s < $ o tXtXtXtXtXtXtXtXtXtXtXtX",
"tXtXtXtXtXtXtXtXtXtXtXtX@ @ O % & 6 & 8 8 9 p Q 7.z.z.5.C 1 @ + O O O & & 1 1 1 < 8 p Q 7.z.z.4.C 1 O o tXtXtXtXtXtXtXtXtXtXtXtX",
"tXtXtXtXtXtXtXtXtXtXO X O O & 8 p s Y R Y R W 5.z.S.N.5.Y 1 @ + O O # 8 p s Y Y Y Y Q 6.V.C.x.6.C 8 O o tXtXtXtXtXtXtXtXtXtXtXtX",
"tXtXtXtXtX@ @ @ @ @ O X O O & p Q W k.k.k.k.l.x.S.S.x.5.C 1 @ + o O < p R 4.7.7.k.7.k.z.C.S.x.4.C 1 O o tXtXtXtXtXtXtXtXtXtXtXtX",
"tXtXtXtX@ @ @ $ @ $ $ @ + % 3 V 4.l.N.Z.Z.N.N.A.A.C.l.4.Z 3 O o o O w Z 3.m.F.G.D.F.F.D.D.D.B.9.C 1 @ + tXtXtXtXtXtXtXtXtXtXtXtX",
"tXtXtXtX@ @ $ % = - - - - ; y B =.0.v.b.b.b.b.b.b.r.0.=.B y > * * - y ! h.H.L.K.&X&XL.&X&XP.J.g.S 6 @ . tXtXtXtXtXtXtXtXtXtXtXtX",
"tXtXtXtXO @ % = 5 r t g g g k A | >.<.2.2.2.<.<.<.>.-.| A h g r , g D u.}.*X3X2X2X3X3X3X2X4XoXR.K 6 $   tXtXtXtXtXtXtXtXtXtXtXtX",
"tXtXtXtXO @ % - r l v v v v v b n ) ) ' ) ) ) ) ) ) ) D n c v N N b O.s.XX1X0XeXeX0X0XeXeX0X:X`.P u $   tXtXtXtXtXtXtXtXtXtXtXtX",
"tXtXtXtXO @ % 5 f v ^ ^ ^ b b b b c b ^ b b b b b b b b b b b b b b ..%.XX$X6X7X7X6X8X8XrXrX5X|.U u $ . tXtXtXtXtXtXtXtXtXtXtXtX",
"tXtXtXtXO @ * 5 g v m ^ ^ ^ ^ ^ ^ c c c c c c c b c c b b ^ ^ ^ ^ ^ ..%.^.^.].].].].XX$X8XqX5X|.U u $   tXtXtXtXtXtXtXtXtXtXtXtX",
"tXtXtXtXO @ % 5 g v b ^ ^ ^ b b b b b c b b b b b b b b b b b b b ^ / ( ..o.@.@.o.#.T.].;X8X7X|.U u @ . tXtXtXtXtXtXtXtXtXtXtXtX",
"tXtXtXtXO O = - g v b ^ b b b b b b m b m b b b b b b b m b b v b x v v c b b x x m X.^.$X1X:X`.U u @   tXtXtXtXtXtXtXtXtXtXtXtX",
"tXtXtXtXO @ % e g v b ^ ^ b b b b ^ b b ^ n ^ b b b m ^ b b b v h g g f r r f f j c ] d.}.%XoXQ.I u O O tXtXtXtXtXtXtXtXtXtXtXtX",
"tXtXtXtXO @ % 5 g v m ^ ^ b b b b b b b b ^ ^ b b b b b ^ b v h t q - : * - - , j c ] f.j.H.J.g.S 9 $   tXtXtXtXtXtXtXtXtXtXtXtX",
"tXtXtXtX@ @ % ; t x v b b b b b b b b b b b b b b b b b ^ b v g e & O O O O = ; f v ] <.t.N.B.3.Z 1 O o tXtXtXtXtXtXtXtXtXtXtXtX",
"tXtXtXtXO @ % = e t l v v b b m m b b v l l h h v b b ^ ^ b v g e O O O O O $ ; r v ` <.r.N.z.6.C 1 $ . tXtXtXtXtXtXtXtXtXtXtXtX",
"tXtXtXtX@ @ @ % = 5 e g l b b ^ ^ b v l t e e t l v b ^ n b N g - = O X X + @ ; r v _ 2.b.N.x.3.C 8 @ . tXtXtXtXtXtXtXtXtXtXtXtX",
"tXtXtXtX@ @ @ @ $ % - e g v b ^ / b v g e 2 < e g v b / ^ b v g e O O O @ @ % 5 f x ) <.r.B.z.4.C 8 @ + tXtXtXtXtXtXtXtXtXtXtXtX",
"tXtXtXtX@ @ $ $ % % - r g v b / ^ b v h e - - e h v b ^ / b v h r - = = = = ; e h v ) >.y.v.w.W s 1 O . tXtXtXtXtXtXtXtXtXtXtXtX",
"tXtXtXtXO @ $ % = 5 r g l b b b b b v l g r r g h b b b ^ b b h g r e q e e r f l b / { >.2.:.G y 1 O O tXtXtXtXtXtXtXtXtXtXtXtX",
"tXtXtXtXO @ $ - e g l v b b b b b b b v v h v v v b b b b b b c v x l l h h x v v b / ) ` { D A w & # + tXtXtXtXtXtXtXtXtXtXtXtX",
"tXtXtXtXO @ % > g v b b m b b b b b m b b b b b b b b b b b n b b b b b b b v b b b b b / b v f 5 % @ X tXtXtXtXtXtXtXtXtXtXtXtX",
"tXtXtXtXO @ % e g v b / ^ ^ b b b ^ ^ ^ ^ ^ ^ / ^ ^ m b ^ b b ^ n b / ^ ^ ^ m b ^ b b b c c x f ; % @ @ tXtXtXtXtXtXtXtXtXtXtXtX",
"tXtXtXtXO @ % 5 g b ^ ^ ^ ^ ^ b ^ b ^ ^ ^ ^ ^ b ^ / b b b b b b b b b ^ ^ b ^ m b b b b b c x , ; % @ @ tXtXtXtXtXtXtXtXtXtXtXtX",
"tXtXtXtXO @ = 5 g v b b b b v b b b b b v b b b b b b b b b n b b b b b b b b b b b b ^ n m v g 5 % @ @ tXtXtXtXtXtXtXtXtXtXtXtX",
"tXtXtXtXO @ % = e g l l l h l l h g h h h h h j h h h h v b b b b b b b b b b b b b m ) { { F A w = # + tXtXtXtXtXtXtXtXtXtXtXtX",
"tXtXtXtX@ @ $ % = e e e e e e e e > : : - - : : - : , f h N c c c c b b b b b b b b ) { >.1.:.G p & @ + tXtXtXtXtXtXtXtXtXtXtXtX",
"tXtXtXtX@ @ @ % % % % = % % = = = % = % = = % % O = - e h v n ^ ^ n b b b b b b b n ) >.0.b.l.*.s 1 # . tXtXtXtXtXtXtXtXtXtXtXtX",
"tXtXtXtX@ @ @ @ @ @ @ @ @ @ $ % & 4 u u u u u 6 u u i z D L O.o.] ..O.' ^ b b b c b _ <.r.M.z.3.C 8 @ + tXtXtXtXtXtXtXtXtXtXtXtX",
"tXtXtXtXtXtX@ @ @ @ X X + @ & u d K P I I P I I P I I U u.d.s.d.s.s.p.$.O.m c c c ^ _ 2.b.A.x.5.C 8 @ + tXtXtXtXtXtXtXtXtXtXtXtX",
"tXtXtXtXtXtXtXtXtXtXtXX + @ - i U U.E.(.E.E.E.E.E.E.W.'.'.'.[.[.{.[.).s.+.( b c c b _ 2.b.N.x.3.Y 8 @ + tXtXtXtXtXtXtXtXtXtXtXtX",
"tXtXtXtXtXtXtXtXtXtXtXtXX @ 4 J I. X+X-X#X#X+X+X+X+X+X+X+X+X#X#X:X+X.X).s.o.^ b c m _ >.e.n.V.4.s & @ + tXtXtXtXtXtXtXtXtXtXtXtX",
"tXtXtXtXtXtXtXtXtXtXtXtX  O u K Y.@X#X,X<X>X:X>X>X>X>X:X>X:X>X>X,X:X+X{./.a.$.O.' ^ ) } 2.0.q.E a & @ . . tXtXtXtXtXtXtXtXtXtXtX",
"tXtXtXtXtXtXtXtXtXtXtXtXX O 6 K Y.@X#X,X<X>X<X:X:X>X:X>X:X:X:X:X>X:X+XOX{._.!.p.o.) m _ { ;.;.B y & @ @ X @ @ # @ @ @ tXtXtXtXtX",
"tXtXtXtXtXtXtXtXtXtXtXtX. O 4 H I. X#X,X:X:X#X:X:X#X:X-X:X#X:X#X#X:X#X#X+X+X{.!.%.O.n n / ) m k 6 % @ @ @ @ @ @ @ @ @ @ tXtXtXtX",
"tXtXtXtXtXtXtXtXtXtXtXtX. $ 4 H I.@X#X>X:X:X:X#X:X:X-X:X:X#X:X:X:X#X:X>X>X:X@X).i.O.b c c b c f r 2 = = = = = = % @ @ @ tXtXtXtX",
"tXtXtXtXtXtXtXtXtXtXtXtXo O 6 H I. X#X>X>X#X#X#X:X#X:X:X-X#X:X#X:X:X:X>X,X>X+X).a.O.b c c c x l g t e r r r e - = % @ O tXtXtXtX",
"tXtXtXtXtXtXtXtXtXtXtXtXo O 4 H I. X#X,X#X>X#X>X#X:X:X#X:X:X:X#X#X:X#X:X:X:XOX).p.O.b c b b c c v x v x v x h r - % @ O tXtXtXtX",
"tXtXtXtXtXtXtXtXtXtXtXtX  $ 4 H I. X#X#X>X#X#X:X:X:X:X:X#X:X:X:X:X:X#X:X+X@X[.!.%. .n n / ) ) / n m b b v v l r - % @ O tXtXtXtX",
"tXtXtXtXtXtXtXtXtXtXtXtX  % 4 H Y.@X#X,X>X>X>X>X:X:X:X:X:X:X:X>X:X>X+X@X{.).~.%.o.) n _ } >.>.,.{ / m v l h r 5 = % @ O tXtXtXtX",
"tXtXtXtXtXtXtXtXtXtXtXtX. @ 4 H U. X:X,X>X>X:X>X>X:X>X:X:X>X:X:X>X:X+X[.!.p.#.O.m ^ ) -.1.w.e.q.,.) b h r e - = % $ @ @ tXtXtXtX",
"tXtXtXtXtXtXtXtXtXtXtXtX. @ 4 J I.'.+X=X-X+X+X+X+X=X+X+X+X+X+X=X+X+X{.).p.X./ c c m ) >.e.M.M.e.>.) v r > = @ @ @ @ @ @ tXtXtXtX",
"tXtXtXtXtXtXtXtXtXtXtXX X O 4 d I !._.'._._._._._._._._._._._.[.[._./.s.+.( ^ c c b _ 2.v.N.N.w.=.A t ; * $ @ O O O @ tXtXtXtXtX",
"tXtXtXtXtXtXtXtXtXO O O O O % i L &.p.s.d.a.p.p.a.a.a.a.a.a.a.a.s.p.i.#.' / b c c b _ 2.v.A.c.7.E y - * $ @ O O O tXtXtXtXtXtXtX",
"tXtXtXtXtXtXtXtX@ @ O O O O = e k m  .O. . .] ' O.' ' O.' ' O.O. .' ' ( m m b b c ^ _ <.r.M.z.5.G 9 % $ + @ @ @ tXtXtXtXtXtXtXtX",
"tXtXtXtXtXtXtXtX@ @ $ $ % - 2 r h v b b b b c c v h x h h h N h l x l h l l l x b b ) ,.0.r.w.*.Z w * $ $ @ @ @ tXtXtXtXtXtXtXtX",
"tXtXtXtXtXtXtXtXO @ % % 2 e r h N c b ^ ^ b c N f r q q , q q q , q , e q r r h l b ) { >.2.<.;.A y > - % $ @ O tXtXtXtXtXtXtXtX",
"tXtXtXtXtXtXtXtXO @ % - e h x v b b b b ^ c v h q - = = * = - = = = = = % - - r l v / ' ` ` { D n v g e - % @ O tXtXtXtXtXtXtXtX",
"tXtXtXtXtXtXtXtX@ @ $ ; r k v v v v v v v v l t e % O O % O $ O O O O % @ @ % 5 r l v v v v b b m b v t 5 % @ O tXtXtXtXtXtXtXtX",
"tXtXtXtXtXtXtXtX@ @ $ - e t g g g g t g g g r e - O O O O O O O O O O O X @ % = ; r t g f r f l v b v h e % @ O tXtXtXtXtXtXtXtX",
"tXtXtXtXtXtXtXtX@ @ $ % = 2 ; 2 - - 2 - 2 = = = % O $ O O tXtXtXtXtXtXO @ @ @ % = = ; - ; - > r h b v h e % @ O tXtXtXtXtXtXtXtX",
"tXtXtXtXtXtXtXtX@ @ @ @ @ $ $ @ % $ $ $ % % @ % O O O % tXtXtXtXtXtXtXtX@ @ @ @ % @ % @ @ $ - e h x h g 5 % @ O tXtXtXtXtXtXtXtX",
"tXtXtXtXtXtXtXtXtX@ @ @ @ @ O O O O O O O O O @ @ @ @ tXtXtXtXtXtXtXtXtXtX@ @ @ @ O O O O @ $ - e g g e - % @ O tXtXtXtXtXtXtXtX",
"tXtXtXtXtXtXtXtXtXtXtXtXtXtXtXtXtXtXtXtXtXtXtXtXtXtXtXtXtXtXtXtXtXtXtXtXtXtXtXtXtXtXO O X O @ % - 5 5 - % $ @ @ tXtXtXtXtXtXtXtX",
"tXtXtXtXtXtXtXtXtXtXtXtXtXtXtXtXtXtXtXtXtXtXtXtXtXtXtXtXtXtXtXtXtXtXtXtXtXtXtXtXtXtXtXtX@ @ @ % % % % % $ @ @ @ tXtXtXtXtXtXtXtX",
"tXtXtXtXtXtXtXtXtXtXtXtXtXtXtXtXtXtXtXtXtXtXtXtXtXtXtXtXtXtXtXtXtXtXtXtXtXtXtXtXtXtXtXtX@ @ @ @ @ O @ @ @ @ @ @ tXtXtXtXtXtXtXtX",
"tXtXtXtXtXtXtXtXtXtXtXtXtXtXtXtXtXtXtXtXtXtXtXtXtXtXtXtXtXtXtXtXtXtXtXtXtXtXtXtXtXtXtXtXtXtX@ O O O O O O @ tXtXtXtXtXtXtXtXtXtX",
"tXtXtXtXtXtXtXtXtXtXtXtXtXtXtXtXtXtXtXtXtXtXtXtXtXtXtXtXtXtXtXtXtXtXtXtXtXtXtXtXtXtXtXtXtXtXtXtXtXtXtXtXtXtXtXtXtXtXtXtXtXtXtXtX",
"tXtXtXtXtXtXtXtXtXtXtXtXtXtXtXtXtXtXtXtXtXtXtXtXtXtXtXtXtXtXtXtXtXtXtXtXtXtXtXtXtXtXtXtXtXtXtXtXtXtXtXtXtXtXtXtXtXtXtXtXtXtXtXtX",
"tXtXtXtXtXtXtXtXtXtXtXtXtXtXtXtXtXtXtXtXtXtXtXtXtXtXtXtXtXtXtXtXtXtXtXtXtXtXtXtXtXtXtXtXtXtXtXtXtXtXtXtXtXtXtXtXtXtXtXtXtXtXtXtX"
};
