/* XPM */
static char *_b2a478fbaae4d73eaaec56e339b3683PeInQtz8zXRi2622[] = {
/* columns rows colors chars-per-pixel */
"64 64 217 2 ",
"   c None",
".  c #2B2B37",
"X  c #2C2D3D",
"o  c #312E3E",
"O  c #2F313F",
"+  c #33323F",
"@  c #2C3340",
"#  c #353540",
"$  c #383740",
"%  c #373941",
"&  c #393D42",
"*  c #433F41",
"=  c #354344",
"-  c #3B4244",
";  c #3E4B46",
":  c #3D4E48",
">  c #3D5045",
",  c #3E5348",
"<  c #464142",
"1  c #4D4542",
"2  c #404E47",
"3  c #4E4A44",
"4  c #43434B",
"5  c #49474F",
"6  c #414F48",
"7  c #4C494D",
"8  c #504742",
"9  c #524A43",
"0  c #5A4E43",
"q  c #405647",
"w  c #435349",
"e  c #455C4B",
"r  c #485F4C",
"t  c #4E5447",
"y  c #565848",
"u  c #4D4A52",
"i  c #585759",
"p  c #665644",
"a  c #685C46",
"s  c #705E45",
"d  c #605F5E",
"f  c #46634D",
"g  c #4A634E",
"h  c #4B694E",
"j  c #456C4A",
"k  c #55674D",
"l  c #4D714F",
"z  c #4D6D50",
"x  c #556456",
"c  c #4E7251",
"v  c #4D7A53",
"b  c #517552",
"n  c #547D55",
"m  c #5A7D54",
"M  c #5B7D59",
"N  c #5E715D",
"B  c #6A6D4C",
"V  c #746246",
"C  c #7C6546",
"Z  c #776849",
"A  c #65724F",
"S  c #786855",
"D  c #667754",
"F  c #717F51",
"G  c #7D754C",
"H  c #6D6768",
"J  c #6C6768",
"K  c #756C67",
"L  c #667962",
"P  c #796F71",
"I  c #7B7272",
"U  c #797677",
"Y  c #836A45",
"T  c #876E48",
"R  c #886F48",
"E  c #8A6E46",
"W  c #8A7549",
"Q  c #9A7B49",
"!  c #947544",
"~  c #827A5B",
"^  c #578156",
"/  c #5B8155",
"(  c #5C815B",
")  c #658355",
"_  c #6A8554",
"`  c #6D8955",
"'  c #62845E",
"]  c #688558",
"[  c #728453",
"{  c #748A55",
"}  c #7D8C53",
"|  c #788351",
" . c #648561",
".. c #658962",
"X. c #6A8A65",
"o. c #6E8C6A",
"O. c #688763",
"+. c #748F6D",
"@. c #6F906D",
"#. c #72916E",
"$. c #78906F",
"%. c #789372",
"&. c #7B8A71",
"*. c #9E834C",
"=. c #92854E",
"-. c #838E54",
";. c #878851",
":. c #988D50",
">. c #8C9254",
",. c #859255",
"<. c #949654",
"1. c #9B9853",
"2. c #989754",
"3. c #AC864A",
"4. c #A9864A",
"5. c #B38B4B",
"6. c #B18848",
"7. c #BB924B",
"8. c #BC9A4F",
"9. c #A88750",
"0. c #AC9D53",
"q. c #A59752",
"w. c #B99C50",
"e. c #B5A152",
"r. c #BDA552",
"t. c #BDA959",
"y. c #ABA054",
"u. c #858875",
"i. c #819676",
"p. c #859778",
"a. c #869A7A",
"s. c #8B9B7D",
"d. c #8D9A77",
"f. c #919B63",
"g. c #AA8E65",
"h. c #AE9975",
"j. c #BCAF6D",
"k. c #C3964C",
"l. c #C69C4E",
"z. c #D5A34D",
"x. c #DAA54E",
"c. c #DDAC4E",
"v. c #C2A652",
"b. c #C5A853",
"n. c #CAAA53",
"m. c #CEA256",
"M. c #D4AB52",
"N. c #DDAD51",
"B. c #D5A957",
"V. c #CCA14F",
"C. c #E5AD4C",
"Z. c #E1AF51",
"A. c #E3B151",
"S. c #EAB150",
"D. c #EBB65A",
"F. c #E9B45A",
"G. c #EDB654",
"H. c #D9B675",
"J. c #D3AF71",
"K. c #F8CB7F",
"L. c #F6CA7F",
"P. c #EEC47C",
"I. c #958B85",
"U. c #998E88",
"Y. c #988D87",
"T. c #8F9D80",
"R. c #9D9C8A",
"E. c #AA9D95",
"W. c #A79E96",
"Q. c #AC9981",
"!. c #9BA389",
"~. c #96A385",
"^. c #94AB90",
"/. c #A1A78D",
"(. c #ADA196",
"). c #A6A990",
"_. c #ADAE96",
"`. c #AEA199",
"'. c #B4AB9B",
"]. c #A2B39B",
"[. c #B4B19B",
"{. c #BAB49F",
"}. c #B9B389",
"|. c #A9A4A5",
" X c #BDAEA2",
".X c #BDB6A2",
"XX c #ABB9A6",
"oX c #D4BC98",
"OX c #C4B9A6",
"+X c #CCBDAD",
"@X c #C4B6A7",
"#X c #D0BFB0",
"$X c #BEC3AC",
"%X c #D7C599",
"&X c #FDCE81",
"*X c #E0C99F",
"=X c #CFC1AF",
"-X c #D0C2AF",
";X c #C4CCBB",
":X c #D4C2B2",
">X c #D9C5B6",
",X c #DCC9B8",
"<X c #D8C9B8",
"1X c #D8D1BA",
"2X c #FBDCAD",
"3X c #F7D9AC",
"4X c #EED3A7",
"5X c #D3CDC9",
"6X c #CED0C1",
"7X c #D1D2C4",
"8X c #D9DACF",
"9X c #DEDCD0",
"0X c #EBDECA",
"qX c #E2DFD9",
"wX c #EFE0CC",
"eX c #F1E2CE",
"rX c #E8E3D9",
/* pixels */
"                                        # # # @ # o @ o # # # #                 + & + + O O O O + + + +                         ",
"                                        # # $ $ $ $ $ $ # * # #                 + + + - - + - + + + + -                         ",
"                                      @ # @ $ * 8 0 0 8 * * # # $             O O O + < 8 0 0 8 < - + +                         ",
"                            # # @ @ @ @ @ @ $ 0 s R E s * * # # # # #     X @ X X O * 9 V E E V 0 < + +                         ",
"                        # # # # $ $ # @ @ # 1 s Q 7.7.Q s 1 # @ + + + + # # # @ . + 8 s Q 7.7.Q V < + O                         ",
"                        # # + & * 8 1 1 1 8 p W 7.x.m.5.C 8 # @ + + + * * 1 1 1 < 8 p ! 7.x.V.3.C 3 + X                         ",
"                    + o + + * 8 p s Y T Y E Q 5.x.S.N.5.Y 8 $ @ + + $ 8 p s Y Y Y Y ! 6.V.C.x.3.C 8 + O                         ",
"          # # # # # + o + + * p T 3.k.k.k.k.l.x.S.S.x.5.s 8 # @ . + * p E 4.7.7.k.7.k.z.C.S.z.9.C 8 + O                         ",
"        # # # % # % % # @ & 3 V 4.k.N.Z.N.N.N.S.S.A.V.4.Z 3 % O O & 3 Z 3.m.F.G.D.F.F.D.F.F.m.9.V 3 + O                         ",
"        # # % & - ; ; ; ; : y B =.0.v.n.n.b.b.b.b.r.q.=.B t ; = = > y ~ h.H.L.K.&X&XL.&X&X&XJ.g.S t + O                         ",
"        # # & - 6 e r g g g k D | >.<.<.<.<.<.<.<.>.;.| A k g e e g D u.}.*X3X2X2X3X3X3X3X4XoXR.K 7 + O                         ",
"        @ # & ; e z b b b b b n m ) '  .) ) ) ) ) ) ) / n b v l c b  .T.XX1X0XeXeX0X0XeXeX0X:X`.I u + O                         ",
"        o # & 6 g b ^ ^ n ^ n n n n n n n n n n n n n n n n ^ n v ^ ..T.].$X6X5X7X6X8X8XrXrX5X|.U u % X                         ",
"        + # - 6 g b ^ ^ ^ ^ ^ n n n v v v v v v n v n v n M ^ n ^ ^ ..#.s.^.].].].].XX$X8XqX5X|.U u + X                         ",
"        + # & 2 g b n ^ ^ ^ n n n n n n n n n n n n n n n m n n n n ^ ..@.@.@.@.o.#.T.].6X8X6X|.U u % .                         ",
"        + # - 2 r b n ^ n n n n n n n n n n n n n n n n n n n n b n b b v v v v v M X.~.$X1X:X`.U u # .                         ",
"        + # & 6 g b M ^ ^ n n n n n n n ^ M ^ n m n n ^ n n b b h g f f e e f f j v ] d.}.%XoXQ.K u & X                         ",
"        + # & 6 g b n ^ ^ n n n n n n n m ^ ^ n n n n n ^ n b z r w 2 : = ; > , j v ] f.j.H.J.g.S 9 # X                         ",
"        # # - : r c b n n n n M ^ n n n n b n n n n n n ^ n b g w - + + + + = , f b ] <.t.N.B.3.C 8 $ X                         ",
"        + # & - w r z b b n n m n n n b z z z z b n n ^ ^ n b g w + + + + + % ; e b ` <.r.N.z.3.C 1 # @                         ",
"        # # # & - ; w g z n n ^ ^ n b z r w w g z n n ^ m n b r 2 - + o # # # ; f b ] <.v.N.x.6.C 8 # @                         ",
"        # # # # & & ; w g b m ^ ^ m b g w ; - w g b n m ^ m b h 6 + + + # # % ; f c _ <.r.B.z.4.C 1 $ X                         ",
"        # # $ % % - ; e g b n ^ ^ n b g w 2 2 w g b n ^ ^ n b h w 2 - - - - : , j b ) >.0.v.w.Q s 1 # @                         ",
"        + # & & - 6 e g z n n n ^ n b z r e e g h n n ^ n n b l h e e w w w e g z b ) { >.2.:.G y 1 # @                         ",
"        + # & ; w g z b n n n n n n n v b l z b b n n m ^ n n b b k h z z k c b n n m ) ` [ D A t - # o                         ",
"        + # & 2 g c n n n n n n m M n n n n n n n n n n n n n n n n n n n n n n n n n n ^ ^ n g 6 & # #                         ",
"        + # & 2 g b ^ / ^ ^ M n ^ M n ^ ^ ^ ^ ^ ^ ^ n n n n n n n ^ ^ ^ ^ ^ n n n n n n n v c f 6 & # o                         ",
"        + # & w g n ^ / ^ ^ ^ n n ^ ^ n ^ ^ / ^ n ^ ^ m ^ n n n n n n ^ n ^ n n ^ n n n v v c , : & # #                         ",
"        + # & : f b n n n n b n n n n n b n n n n n n n n n n n n n n n n n n n n n n ^ M m b g 6 & $ #                         ",
"        + # & ; w g z z z z z z h g h h g h h h h g h h b n n n n n n n n m n n n n m ) { { F A t - # o                         ",
"        # # # & ; 6 w w w w w w q > > > > : : > : > , f j l n n v v n n n n n n n n ) { >.1.:.G a * # @                         ",
"        # # # & % & - & & & - - - & - & - - - + & - ; w h b n n ^ n n n n n n n n n ] >.0.b.l.Q s 1 $ X                         ",
"        # # # $ # # $ $ # # $ & * u u u u u u 7 u 7 i i D L O.X.O.O.' ' ( m n n v n _ <.r.M.z.3.C 8 # @                         ",
"            # # o # o @ # # * u d H U ~ I P I P P P I u.u.d.s.s.s.s.a.$.O.m v v v n _ 2.b.A.x.5.C 8 # @                         ",
"                      X @ # 4 i U U.E.`.(.E.W.W.W.E.(.(.|.'.[.{.{.[.).s.$.( n v v n _ <.b.N.x.3.Y 8 # @                         ",
"                        . # u J I. XOX:X#X+X+X=X+X+X+X+X+X+X#X#X-X#X{.).a.X.( n n m _ >.e.n.V.4.s * # @                         ",
"                        O # u H Y.@X#X>X<X>X>X>X>X>X>X:X>X:X>X>X<X:X+X{.!.a.$.X.( M ) } 2.0.0.W a * # X X                       ",
"                        . # 7 H Y.@X#X,X>X>X>X:X:X>X:X>X:X:X:X:X>X:X+XOX.X_.!.p.+.' / _ | -.;.B y * # # o # # # # # #           ",
"                        . # 5 H Y. X#X>X:X:X:X:X=X:X:X-X:X:X#X:X#X:X#X#X=XOX X!.%...m n / ) n k 7 & $ # # # $ % # # # #         ",
"                        X # 7 H I.@X#X>X>X:X=X=X:X:X=X:X#X:X-X#X:X#X:X>X<X:XOX).p.O.n v v n v f e 2 - - - - - & & # # #         ",
"                        . $ 5 H I. X#X>X#X#X#X>X#X:X:X#X:X:X:X:X:X#X:X>X,X>XOX_.p.O.n v v v v h g r e e r e w 6 - % # +         ",
"                        X $ u H I. X#X>X>X#X#X#X:X#X#X:X:X#X#X:X#X:X#X>X>X:XOX).p...n b v b v n v b z z b z z w ; & # +         ",
"                        X # u H Y. X#X>X>X#X#X#X#X:X#X#X:X#X#X#X:X#X#X-X+XOX'.!.%.' m m ) ) ) ' m m n n b b z e ; & # +         ",
"                        . $ 5 H Y.@X#X>X,X>X>X5X#X>X>X>X:X>X>X>X>X>X#XOX[.).~.i.+.( / _ } >.>.} ` ) n n z g e w - & # #         ",
"                        @ # 5 J I.@X:X>X>X#X>X#X>X:X>X>X>X>X:X,X>X:X+X[.!.p.#...^ M ) -.1.w.e.q.,.] n z e w ; & & % # #         ",
"                        X # 5 J I.'.+X=X#X#X#X#X+X+XOX+X+XOX+X+X+X+X{./.p.O./ v v m _ >.e.M.M.e.>.D z f : - % # + # # #         ",
"                        X # 5 d ~ R._.[.[._.'._._._._._._._._.[.'._./.s.#.( ^ v v n _ <.r.Z.N.w.=.A f : = % # + + # #           ",
"                        @ # - x H &.p.a.d.p.p.p.d.a.a.a.a.a.a.a.s.a.i.#.] ( n v v n _ 2.v.A.N.7.W y ; = % # + + +               ",
"                        + # & w x M ' O...' ] '  . .'  .' ' .... .' ' ( M M n n n n ) <.r.M.z.5.G 9 - @ # # # #                 ",
"                        + # & 6 f l n m n n n n b l z z l l h z h c z h z z z v v ^ ) >.0.v.w.*.Z t - % # # # #                 ",
"                        # # & 6 f l v ^ ^ n v h f e q , , q q , q q , e e w r g c n ( { >.<.<.;.B k w ; - & # $                 ",
"                        + # & 6 f l n ^ ^ n l j q ; - - - - - - - - - - - - 6 w g b m ] ` ` [ ] m b g e - & # o                 ",
"                        + # & w r b n M m b z e w & & + + & # % % + + % $ $ % 6 r z b b n b b n b b z e 2 & # @                 ",
"                        o # & : g b b b c g e w ; + + + + + + + + + + + @ # $ - w e r g f e e f g g r w - & # #                 ",
"                        + # - 6 g b b z g w ; & % & + + +             + # # # & - - ; ; ; ; ; ; ; : ; - % & # #                 ",
"                        + # & w g b b g w - % # + + + +                 # # # # % & % % % % % & % % $ # # # # #                 ",
"                        + # & w g b b g w & # o + # #                     # # # # + + + + + + + + + # # # # #                   ",
"                        + # & w g b b g w & # + +                                                                               ",
"                        + # & w g b b g 6 & # +                                                                                 ",
"                        + # & ; r h g e : & # +                                                                                 ",
"                        + # % - 2 w w 2 - & # +                                                                                 ",
"                        # # # & - - - - & # # #                                                                                 ",
"                        # # # # % % # # # # # #                                                                                 ",
"                        # # # # + + + + # # # #                                                                                 "
};
