/* XPM */
static char *result[] = {
/* columns rows colors chars-per-pixel */
"64 64 209 2 ",
"   c #2C2E3D",
".  c #2B2B37",
"X  c #312E3D",
"o  c #2F303F",
"O  c #33313F",
"+  c #353540",
"@  c #383740",
"#  c #363941",
"$  c #393D42",
"%  c #423D41",
"&  c #423F49",
"*  c #3B4444",
"=  c #3E4A46",
"-  c #3A4947",
";  c #3F5246",
":  c #3E5349",
">  c #454142",
",  c #4D4542",
"<  c #404E47",
"1  c #43424A",
"2  c #414F48",
"3  c #4B484E",
"4  c #4B474A",
"5  c #504742",
"6  c #514B44",
"7  c #5A4E42",
"8  c #4C5247",
"9  c #425349",
"0  c #455B4A",
"q  c #47564B",
"w  c #525346",
"e  c #585647",
"r  c #4D4B52",
"t  c #585759",
"y  c #515553",
"u  c #665644",
"i  c #6C5B44",
"p  c #675945",
"a  c #715F46",
"s  c #605A5F",
"d  c #45624C",
"f  c #4A644E",
"g  c #4B6A4E",
"h  c #476B4B",
"j  c #51634C",
"k  c #59684D",
"l  c #4D724F",
"z  c #4D6D50",
"x  c #476B51",
"c  c #596A57",
"v  c #4E7252",
"b  c #4D7A54",
"n  c #517452",
"m  c #557D55",
"M  c #5A7E55",
"N  c #5A7E5A",
"B  c #597B56",
"V  c #6C6E4C",
"C  c #756246",
"Z  c #7C6546",
"A  c #76694A",
"S  c #68724E",
"D  c #77734C",
"F  c #776959",
"G  c #657B52",
"H  c #687C52",
"J  c #7F7254",
"K  c #665F64",
"L  c #676164",
"P  c #696365",
"I  c #6D6768",
"U  c #6E6869",
"Y  c #697B64",
"T  c #75736B",
"R  c #797579",
"E  c #736B6D",
"W  c #826A46",
"Q  c #826F49",
"!  c #8D7248",
"~  c #8A7C4C",
"^  c #9C7C4A",
"/  c #967B49",
"(  c #578156",
")  c #5C8155",
"_  c #5D825B",
"`  c #648354",
"'  c #6B8554",
"]  c #62845E",
"[  c #6A8956",
"{  c #748954",
"}  c #7C8D54",
"|  c #778452",
" . c #658661",
".. c #668A64",
"X. c #6C8A66",
"o. c #6F8C68",
"O. c #718D6A",
"+. c #75816E",
"@. c #75916E",
"#. c #7C9372",
"$. c #7A9877",
"%. c #7B8C71",
"&. c #9A854D",
"*. c #8D8A51",
"=. c #828A53",
"-. c #849054",
";. c #8C9254",
":. c #939554",
">. c #959854",
",. c #969756",
"<. c #8E864F",
"1. c #A98446",
"2. c #A6834B",
"3. c #AB864A",
"4. c #A58348",
"5. c #B28A4B",
"6. c #B48B48",
"7. c #BA984F",
"8. c #AA8A59",
"9. c #A59C54",
"0. c #AA9E53",
"q. c #A59551",
"w. c #B59A54",
"e. c #BCA452",
"r. c #B6A557",
"t. c #8A827D",
"y. c #819575",
"u. c #849B7C",
"i. c #8C9B7D",
"p. c #869479",
"a. c #8C9268",
"s. c #AA9372",
"d. c #8FA179",
"f. c #B9AD7B",
"g. c #CD9D4D",
"h. c #C49A4E",
"j. c #CFA14F",
"k. c #D4A34E",
"l. c #D9A64D",
"z. c #DEAA4E",
"x. c #C3A552",
"c. c #CBA852",
"v. c #C9A752",
"b. c #D4AD52",
"n. c #DCAC51",
"m. c #D6A656",
"M. c #E4AD4D",
"N. c #E2AE50",
"B. c #E3B052",
"V. c #EBB452",
"C. c #D9B265",
"Z. c #D4B073",
"A. c #EDBE6D",
"S. c #F4C36F",
"D. c #F9C670",
"F. c #968B86",
"G. c #998D88",
"H. c #988D87",
"J. c #839D80",
"K. c #9C938A",
"L. c #929E82",
"P. c #A79D8D",
"I. c #96A185",
"U. c #9EA48B",
"Y. c #95A68A",
"T. c #A3A78E",
"R. c #A5A990",
"E. c #AAAB93",
"W. c #ABA29A",
"Q. c #B1AF98",
"!. c #B5B29A",
"~. c #BAB49F",
"^. c #BBBB94",
"/. c #AAB69E",
"(. c #AAA5A7",
"). c #BCAEA1",
"_. c #AABAA4",
"`. c #BCB5A1",
"'. c #B2BEAB",
"]. c #BFB8A3",
"[. c #D6BB86",
"{. c #C3B3A6",
"}. c #C2B8A5",
"|. c #C6BBA8",
" X c #CABCAB",
".X c #C7B7A9",
"XX c #D0BFAF",
"oX c #BAC3AD",
"OX c #BAC4B3",
"+X c #E8C994",
"@X c #F9D59C",
"#X c #FFD99F",
"$X c #D1C1AF",
"%X c #D5C5A5",
"&X c #D3C2B2",
"*X c #D9C6B6",
"=X c #DCCAB8",
"-X c #D9CAB8",
";X c #C9CBB9",
":X c #EDDABF",
">X c #D3CDC8",
",X c #CCD1C4",
"<X c #DED9CB",
"1X c #DAD6C5",
"2X c #DEDDD4",
"3X c #F1DEC2",
"4X c #F5E2C5",
"5X c #E9E2D7",
"6X c None",
/* pixels */
"6X6X6X6X6X6X6X6X6X6X6X6X6X6X6X6X6X6X6X6X6X6X6X6X6X6X6X6X6X6X6X6X6X6X6X6X6X6X6X6X6X6X6X6X6X6X6X6X6X6X6X6X6X6X6X6X6X6X6X6X6X6X6X6X",
"6X6X6X6X6X6X6X6X6X6X6X6X6X6X6X6X6X6X6X6X6X6X6X6X6X6X6X6X6X6X6X6X6X6X6X6X6X6X6X6X6X6X6X6X6X6X6X6X6X6X6X6X6X6X6X6X6X6X6X6X6X6X6X6X",
"6X6X6X6X6X6X6X6X6X6X6X6X6X6X6X6X6X6X6X6X6X6X6X6X6X6X6X6X6X6X6X6X6X6X6X6X6X6X6X6X6X6X6X6X6X6X6X6X6X6X6X6X6X6X6X6X6X6X6X6X6X6X6X6X",
"6X6X6X6X6X6X6X6X6X6X6X6X6X6X6X6X6X6X6X6X6X6X+ + + + + + + + 6X6X6X6X6X6X6X6X6X6X6X6X+ + +   +   + + 6X6X6X6X6X6X6X6X6X6X6X6X6X6X",
"6X6X6X6X6X6X6X6X6X6X6X6X6X6X6X6X6X6X6X6X+ + @ @ + + + + + + + + 6X6X6X6X6X6X6X6X+ + + + + O + O + + + + 6X6X6X6X6X6X6X6X6X6X6X6X",
"6X6X6X6X6X6X6X6X6X6X6X6X6X6X6X6X6X6X6X6X+ + @ @ % & , > $ @ + + 6X6X6X6X6X6X6X6X+ + + @ > , , > $ + + + 6X6X6X6X6X6X6X6X6X6X6X6X",
"6X6X6X6X6X6X6X6X6X6X6X6X6X6X6X6X6X6X    + + % 5 u a C p 5 % + + + + 6X6X6X6X+     + @ 6 u C C u 6 % + + 6X6X6X6X6X6X6X6X6X6X6X6X",
"6X6X6X6X6X6X6X6X6X6X6X6X6X+ + + + +       + % u ! 2.3.! i , + + + + + + + +   +   + % u ! 2.3.! p , +   6X6X6X6X6X6X6X6X6X6X6X6X",
"6X6X6X6X6X6X6X6X6X6X6X6X+ + + @ $ % % % @ % 7 W 5.j.g.3.Z , + o + + + + O % % % O % 7 W 3.j.g.3.C , + + 6X6X6X6X6X6X6X6X6X6X6X6X",
"6X6X6X6X6X6X6X6X6X6X6XO O + @ , 7 p i i a a ! ^ g.N.n.6.Z , + o   + $ % 7 u i i i a W 1.g.M.l.3.Z > +   6X6X6X6X6X6X6X6X6X6X6X6X",
"6X6X6X6X6X+ + + O O O o X O % u Z ^ 3.3.5.5.6.j.N.V.z.5.Z 5 o     X % 7 Z / 4.1.4.1.6.g.M.M.l.1.Z , + + 6X6X6X6X6X6X6X6X6X6X6X6X",
"6X6X6X6X+ + + + + + + + + + , i ^ h.k.n.l.l.n.N.V.V.k.3.A 6 #   + @ 5 a ^ h.l.N.n.z.z.M.V.V.k.2.C 6 +   6X6X6X6X6X6X6X6X6X6X6X6X",
"6X6X6X6X+ + + # $ * * * $ - w A &.7.b.b.b.b.b.b.b.c.7.&.A 8 * # # * w J 8.Z.S.D.D.S.S.S.D.A.Z.8.A 4 +   6X6X6X6X6X6X6X6X6X6X6X6X",
"6X6X6X6XO + # * = 9 9 q : 0 f S <.:.9.0.0.9.9.0.9.q.*.=.V j q ; : 0 c a.f.+X@X#X#X@X@X@X@X+X[.s.F r +   6X6X6X6X6X6X6X6X6X6X6X6X",
"6X6X6X6X+ + $ = 0 f z n v z n G ` { { { { { { { { { ' H B n z x x v G i.!.=X:X4X4X3X3X3X4X:X*XP.T r + . 6X6X6X6X6X6X6X6X6X6X6X6X",
"6X6X6X6X+ + $ = f n m m m m m m m M m ) m ( m M m m M M m m m b v m X.J._.;X1X<X<X<X<X5X5X5X-X(.R r + . 6X6X6X6X6X6X6X6X6X6X6X6X",
"6X6X6X6XO + $ 9 f n m ( ( ( ( m m b b m b b b m b m b b ( ( ( ( m ( ..$.Y._.'.oX'.'.OX,X2X5X>X(.R r #   6X6X6X6X6X6X6X6X6X6X6X6X",
"6X6X6X6XO + $ 2 d n m ) ( m m ( m m b m m b b m m m m m m m m m ( ( _ ..@.$.J.u.$.J.Y.oX,X2X>X(.R y + . 6X6X6X6X6X6X6X6X6X6X6X6X",
"6X6X6X6X+ + $ = f n m ( ( m m m m m m m m m ( N m m m m m m m m m m m m ( _ ( N ( _ @.Y.OX1X>XW.R r @ . 6X6X6X6X6X6X6X6X6X6X6X6X",
"6X6X6X6XX + * 9 f v m ) m m m m m ( m m m m ( m m m m m ( m m n z x x f x d h h x b  .d.^.%X%XP.E 3 + + 6X6X6X6X6X6X6X6X6X6X6X6X",
"6X6X6X6X+ + $ 2 f n ( ( ( m m m m m m m ( ( ( m m m M m M m n z f 0 2 = - = ; 0 h v [ a.f.A.[.s.F r + . 6X6X6X6X6X6X6X6X6X6X6X6X",
"6X6X6X6XX + * = 0 n m N ( m m m m m m N m m m m m m m ( m m n f q * $ $ + + - : d v [ ,.r.C.c.8.W 5 + + 6X6X6X6X6X6X6X6X6X6X6X6X",
"6X6X6X6X+ + $ = q x n n m m m ( m m m n n n n n n m m ( ( m n f 9 $ O O + + $ : 0 n [ >.e.z.k.1.a 5 @ + 6X6X6X6X6X6X6X6X6X6X6X6X",
"6X6X6X6X+ + # $ = q 0 f n n m m N m B z f 0 0 x z m m ( ( m v f = @ + . + + # - 0 b [ >.x.z.l.6.W 5 @ + 6X6X6X6X6X6X6X6X6X6X6X6X",
"6X6X6X6X+ + + @ $ * = 0 z n m ( ( m b f q < < 9 f n M ( ( m n f = $ + X X + # = 0 n ' >.e.n.l.3.a , + + 6X6X6X6X6X6X6X6X6X6X6X6X",
"6X6X6X6X+ + + + # $ - q g n m M ( m n f 9 - * 9 f n m ( ( m n f q - $ # + $ * : f n ' ;.r.c.h.2.a & + + 6X6X6X6X6X6X6X6X6X6X6X6X",
"6X6X6X6X+ + # $ * < 2 0 z n m ( m m n z 0 q 9 0 z n m ( ( m n z 0 q = = 2 2 0 0 x n ] } >.0.q.~ u , + + 6X6X6X6X6X6X6X6X6X6X6X6X",
"6X6X6X6X+ + @ - 2 0 f n n m m m m m m n z f f x n m m m M m m n z z g f f f x z n m ) [ } } | V w * + + 6X6X6X6X6X6X6X6X6X6X6X6X",
"6X6X6X6XO + $ = 0 z m m m m m m m m m m m n m m m m m m m m m m m m n m n m n m m m m ( ` N B f 8 * O O 6X6X6X6X6X6X6X6X6X6X6X6X",
"6X6X6X6XO + $ 2 f n ( ( ( m ( m m m m m N ( ( ( M m m m m ( m m m m m ( m ( N m m m m m m b z d = $ + O 6X6X6X6X6X6X6X6X6X6X6X6X",
"6X6X6X6XO + $ 9 f n ) _ ( ( ( m ( ( ( ( ( ( ( ) ( m ( N m m m ( m m N m ( ( m m ( m m b b b l d - $ + O 6X6X6X6X6X6X6X6X6X6X6X6X",
"6X6X6X6XO + * = f n m ( ( m m m m N m m m m m m m m m m m m m m m m m m m m m m m m m ( ( m v f = * + O 6X6X6X6X6X6X6X6X6X6X6X6X",
"6X6X6X6XO + $ = 0 g n n n n n n l l v l v l v v l l v m m m m m m m m m m m m m m m M ) ` ' G k 8 * + + 6X6X6X6X6X6X6X6X6X6X6X6X",
"6X6X6X6XO + @ - 2 q 0 0 0 d q q 0 0 0 ; 0 0 9 9 9 0 0 h h l b m m m m m m m m m m m ) { -.;.=.D e % + X 6X6X6X6X6X6X6X6X6X6X6X6X",
"6X6X6X6X+ + # @ $ * - 1 - 1 * - * * * * * $ * * * * = : g l m ( m m m m m m m m b m ` -.9.r.w./ p , + + 6X6X6X6X6X6X6X6X6X6X6X6X",
"6X6X6X6X+ + O # @ O # # + # @ $ $ > 1 1 1 * 1 1 & * 3 q c N _ _ _ _ ( ( m m m b m m ' :.e.b.g.1.C % + + 6X6X6X6X6X6X6X6X6X6X6X6X",
"6X6X6X6X6X+ + + O O O O X + @ & t K K I P K L K K L P T R %.$.#.y.#.@.X. .M m b b m ' ,.x.N.l.5.Z 5 +   6X6X6X6X6X6X6X6X6X6X6X6X",
"6X6X6X6X6X6X6X6X6X6X6XO   + & t E ~ G.K.G.H.H.G.H.H.K.K.U.R.R.E.E.R.U.p.o.N b b b m ' ,.x.N.l.5.W 5 + + 6X6X6X6X6X6X6X6X6X6X6X6X",
"6X6X6X6X6X6X6X6X6X6X6X6X  + 3 K t.W.'..X.X{.{.}.{.{.}.}..X|..X.X X|.~.U.y. .m b b m ' ;.r.b.j.3.C , +   6X6X6X6X6X6X6X6X6X6X6X6X",
"6X6X6X6X6X6X6X6X6X6X6X6X  + r I G.{.XX>X=X&X&X*X&X&X*X&X&X&X&X*X*X&X XQ.I.#.X.] ( ) ` -.9.e.7.^ a , + + + 6X6X6X6X6X6X6X6X6X6X6X",
"6X6X6X6X6X6X6X6X6X6X6X6X+ + r I G.{.*X>X=X*X*X*X-X*X*X-X&X*X*X*X*X*X X}.Q.U.L.#.X.N ` ' -.:.*.D e % O   X O O O O + 6X6X6X6X6X6X",
"6X6X6X6X6X6X6X6X6X6X6X6X+ + 3 I G.{.XX*X*X*XXXXX&X&XXX&X&XXX&X&XXX&XXX X.X].Q.L.@. .M ) ` ' H k 8 * + O O + + O + + + + 6X6X6X6X",
"6X6X6X6X6X6X6X6X6X6X6X6X  + 1 I F.).XX*X*XXX*XXX&XXX&XXXXX&X&X&X&X&X&X&X&XXX}.T.y. .m m m m n f q = * # $ $ $ @ @ + + + 6X6X6X6X",
"6X6X6X6X6X6X6X6X6X6X6X6X  + 3 I F.).XXXX*X*XXXXX&XXX&X&X&XXXXX&XXX&X&X*X=X*X|.E.u. .m b b b b h 0 0 9 9 9 9 2 - * # + + 6X6X6X6X",
"6X6X6X6X6X6X6X6X6X6X6X6X  + r I ^ {.XX*XXX*XXXXX&XXX*X&X$X&X$X&X&X&X&X*X*X&X.XE.p. .m b b b b l z g g z z g f q = $ + O 6X6X6X6X",
"6X6X6X6X6X6X6X6X6X6X6X6X  + r I G.{.&X=X*XXXXXXXXXXXXXXX&XXX&X&X&XXX&XXX&X X`.U.y. .m m M ) M ) M m m n m n z 0 = $ + O 6X6X6X6X",
"6X6X6X6X6X6X6X6X6X6X6X6X  + r K G.).XX>X=XXX*XXXXX*X&X&X&X&X&X&X&XXXXX X].Q.T.i.O.] M ` { } } { [ ( M m n g f 9 - @ + O 6X6X6X6X",
"6X6X6X6X6X6X6X6X6X6X6X6X  + r E G.{.XX=X=X*X*X=X*XXX*X&X*X&X*X*X*X*XXX`.R.L.#.o. ._ ` | :.q.9.:.} ` m z f q 2 - * @ + + 6X6X6X6X",
"6X6X6X6X6X6X6X6X6X6X6X6X. # 3 I F.~. X&X&X&XXXXXXXXXXX$X&X$X$X&X&X$X}.E.i.o._ m m M ' =.0.v.v.r.;.' n d : - $ # O O O # 6X6X6X6X",
"6X6X6X6X6X6X6X6X6X6X6X6XO + 1 L t.R.`.].`.`.~.`.`.`.`.`.`.^.`.`.`.`.E.I.#. .m b b m ' :.e.z.z.e.*.G z : - # O O O $ # 6X6X6X6X6X",
"6X6X6X6X6X6X6X6X6X6X6X6XX @ 1 t T p.I.I.I.L.I.L.I.I.I.I.I.I.I.I.Y.I.i.#...( m b b m [ ,.v.B.n.7.~ k 9 - * + O O O # 6X6X6X6X6X6X",
"6X6X6X6X6X6X6X6X6X6X6X6XO + - q c Y X.o.O.o.O.O.o.o.o.X.o.o.O.O.O.o.X. . .( m m b m ' >.e.n.n.6.Q w * + # O # O O 6X6X6X6X6X6X6X",
"6X6X6X6X6X6X6X6X6X6X6X6XO O * 2 f n M ) ) m M M m m n n n B n n n n m n n n n n b m ' ;.r.v.h.2.Z 6 O O O $ $ O 6X6X6X6X6X6X6X6X",
"6X6X6X6X6X6X6X6X6X6X6X6XO + $ = d l m m ( m b l x d d d 0 0 0 d 0 d d 0 0 f z x v m ` } >.0.9.<.V y < * * O O O 6X6X6X6X6X6X6X6X",
"6X6X6X6X6X6X6X6X6X6X6X6XO # * = d l b ( ( b n g 0 ; - = = ; = ; = = = = = = 9 0 z n ( [ } =.} | G z d 9 = $ O O 6X6X6X6X6X6X6X6X",
"6X6X6X6X6X6X6X6X6X6X6X6XO O $ 2 d l m ( ( m z f 2 * # O O O O $ O O $ O # # * 2 f n m ) M M B B M m z q = * O O 6X6X6X6X6X6X6X6X",
"6X6X6X6X6X6X6X6X6X6X6X6XO + $ 9 f n n m n z f 9 = @ + O O O O O O O O O O @ $ = 9 f g x f x x x g x f q = $ + O 6X6X6X6X6X6X6X6X",
"6X6X6X6X6X6X6X6X6X6X6X6XO + $ 2 f n n n f q 2 - $ + O O O O 6X6X6X6XO O O O + * - 9 9 9 9 9 : : q 9 9 = * @ + O 6X6X6X6X6X6X6X6X",
"6X6X6X6X6X6X6X6X6X6X6X6X+ + * = f z n z q - $ # + + + + 6X6X6X6X6X6X6X6X+ + O @ @ $ $ $ $ $ $ $ $ * $ $ + + + + 6X6X6X6X6X6X6X6X",
"6X6X6X6X6X6X6X6X6X6X6X6XO + $ 9 f n n f : * + O + + + + 6X6X6X6X6X6X6X6X+ + + # + + + + + + + + O O + + + + + + 6X6X6X6X6X6X6X6X",
"6X6X6X6X6X6X6X6X6X6X6X6XO + $ 9 f v n f 9 @ + X + + 6X6X6X6X6X6X6X6X6X6X6X6X+ + + O X + X O O O O O O O + + 6X6X6X6X6X6X6X6X6X6X",
"6X6X6X6X6X6X6X6X6X6X6X6XX + $ : f n v f 2 $ + + X 6X6X6X6X6X6X6X6X6X6X6X6X6X6X6X6X6X6X6X6X6X6X6X6X6X6X6X6X6X6X6X6X6X6X6X6X6X6X6X",
"6X6X6X6X6X6X6X6X6X6X6X6X+ + $ 9 f n v f 9 $ + X 6X6X6X6X6X6X6X6X6X6X6X6X6X6X6X6X6X6X6X6X6X6X6X6X6X6X6X6X6X6X6X6X6X6X6X6X6X6X6X6X",
"6X6X6X6X6X6X6X6X6X6X6X6XO + $ 2 f v n f 9 $ + + 6X6X6X6X6X6X6X6X6X6X6X6X6X6X6X6X6X6X6X6X6X6X6X6X6X6X6X6X6X6X6X6X6X6X6X6X6X6X6X6X"
};
