/* XPM */
static char *result[] = {
/* columns rows colors chars-per-pixel */
"64 64 213 2 ",
"   c #2B2B37",
".  c #2C2E3D",
"X  c #312E3E",
"o  c #2F313F",
"O  c #33323F",
"+  c #2C3340",
"@  c #353540",
"#  c #383740",
"$  c #373941",
"%  c #393C42",
"&  c #433E41",
"*  c #364445",
"=  c #3B4244",
"-  c #3D4A46",
";  c #3D4E48",
":  c #3E5045",
">  c #3E5448",
",  c #454142",
"<  c #4D4542",
"1  c #404E47",
"2  c #4D4944",
"3  c #43434B",
"4  c #49474F",
"5  c #414F48",
"6  c #4C494D",
"7  c #504742",
"8  c #534A43",
"9  c #5A4E43",
"0  c #405647",
"q  c #435449",
"w  c #455C4B",
"e  c #4A5E4C",
"r  c #4E5447",
"t  c #565849",
"y  c #4D4A52",
"u  c #585859",
"i  c #665644",
"p  c #6C5C45",
"a  c #615A47",
"s  c #705E45",
"d  c #46644D",
"f  c #4A634D",
"g  c #4B6A4E",
"h  c #456C4A",
"j  c #57674C",
"k  c #4C714F",
"l  c #4D6D50",
"z  c #556456",
"x  c #4E7251",
"c  c #4D7A53",
"v  c #517552",
"b  c #547D55",
"n  c #5A7D54",
"m  c #5B7D59",
"M  c #5E715D",
"N  c #686B4B",
"B  c #746246",
"V  c #7C6546",
"C  c #786849",
"Z  c #63734F",
"A  c #60605F",
"S  c #786855",
"D  c #657753",
"F  c #717F51",
"G  c #7D754C",
"H  c #6D6768",
"J  c #6C6768",
"K  c #756C67",
"L  c #667963",
"P  c #796F71",
"I  c #7B7272",
"U  c #787478",
"Y  c #836A45",
"T  c #876E48",
"R  c #886F48",
"E  c #8A6E46",
"W  c #8A7549",
"Q  c #9A7B49",
"!  c #957646",
"~  c #827A5B",
"^  c #568156",
"/  c #5B8155",
"(  c #5C815B",
")  c #658355",
"_  c #6A8554",
"`  c #6E8955",
"'  c #62845E",
"]  c #688558",
"[  c #758A55",
"{  c #7D8C53",
"}  c #788352",
"|  c #648561",
" . c #6A8A65",
".. c #6E8C6A",
"X. c #658962",
"o. c #748E6C",
"O. c #6F906D",
"+. c #73916F",
"@. c #7E9373",
"#. c #739371",
"$. c #7C8C72",
"%. c #98834D",
"&. c #838E54",
"*. c #888951",
"=. c #988D50",
"-. c #8C9254",
";. c #829155",
":. c #949654",
">. c #999854",
",. c #AC864A",
"<. c #A7874B",
"1. c #B38B4B",
"2. c #B18848",
"3. c #BB924B",
"4. c #BC9A4F",
"5. c #A88750",
"6. c #AD9C52",
"7. c #A59752",
"8. c #B99D51",
"9. c #B5A152",
"0. c #BDA552",
"q. c #BDA959",
"w. c #ABA054",
"e. c #848675",
"r. c #859778",
"t. c #869A7A",
"y. c #8B9C7D",
"u. c #879877",
"i. c #919B63",
"p. c #AA8E65",
"a. c #AE9975",
"s. c #BCAF6D",
"d. c #C3964C",
"f. c #C69C4E",
"g. c #CCA14F",
"h. c #D5A34D",
"j. c #DAA54E",
"k. c #DDAC4E",
"l. c #C2A652",
"z. c #C5A853",
"x. c #CAAA53",
"c. c #CEA256",
"v. c #D4AB52",
"b. c #DCAD51",
"n. c #D5A957",
"m. c #E5AD4C",
"M. c #E1AF51",
"N. c #E3B152",
"B. c #EAB150",
"V. c #EBB65A",
"C. c #E9B45A",
"Z. c #EDB654",
"A. c #D3AF71",
"S. c #D9B675",
"D. c #F8CB7F",
"F. c #F6CA7F",
"G. c #EEC47C",
"H. c #958B85",
"J. c #998E88",
"K. c #988D87",
"L. c #8F9D80",
"P. c #9D9E8A",
"I. c #AA9D95",
"U. c #A79E96",
"Y. c #AC9981",
"T. c #9BA389",
"R. c #96A385",
"E. c #94AB90",
"W. c #A1A68D",
"Q. c #ADA196",
"!. c #A6A990",
"~. c #ADAE96",
"^. c #AEA199",
"/. c #B3AC9A",
"(. c #A2B39B",
"). c #B4B29B",
"_. c #BAB49F",
"`. c #B9B389",
"'. c #A9A4A5",
"]. c #BDAEA2",
"[. c #BDB6A2",
"{. c #ABB9A6",
"}. c #D4BC98",
"|. c #C4B9A6",
" X c #CCBDAD",
".X c #C4B6A7",
"XX c #D0BFB0",
"oX c #BEC3AC",
"OX c #D7C599",
"+X c #FDCE81",
"@X c #E0C99F",
"#X c #CFC1AF",
"$X c #D0C2AF",
"%X c #C4CCBB",
"&X c #D4C2B2",
"*X c #D9C5B6",
"=X c #DCC9B8",
"-X c #D8C9B8",
";X c #D8D1BA",
":X c #FBDCAD",
">X c #F7D9AC",
",X c #EED3A7",
"<X c #D3CDC9",
"1X c #CED0C1",
"2X c #D1D2C4",
"3X c #D9DACF",
"4X c #DEDCD0",
"5X c #EBDECA",
"6X c #E2DFD9",
"7X c #EFE0CC",
"8X c #F1E2CE",
"9X c #E8E3D9",
"0X c None",
/* pixels */
"0X0X0X0X0X0X0X0X0X0X0X0X0X0X0X0X0X0X0X0X@ @ @ @ . . @ . @ @ @ @ 0X0X0X0X0X0X0X0XO O O O O o O O O O O O 0X0X0X0X0X0X0X0X0X0X0X0X",
"0X0X0X0X0X0X0X0X0X0X0X0X0X0X0X0X0X0X0X0X@ @ # # # % # # @ & @ @ 0X0X0X0X0X0X0X0XO O = O = O O O O = = O 0X0X0X0X0X0X0X0X0X0X0X0X",
"0X0X0X0X0X0X0X0X0X0X0X0X0X0X0X0X0X0X0X+ O @ @ & 7 9 9 7 & & @ @ @ 0X0X0X0X0X0X+ o O O & 8 9 9 7 , $ O O 0X0X0X0X0X0X0X0X0X0X0X0X",
"0X0X0X0X0X0X0X0X0X0X0X0X0X0X@ @ + + + + . + % 8 s R R B & & @ @ @ @ @ 0X0X. + + . o & 9 B T T B 9 , $ O 0X0X0X0X0X0X0X0X0X0X0X0X",
"0X0X0X0X0X0X0X0X0X0X0X0X@ @ @ @ # # @ @ @ @ & s Q 3.3.Q s < @ + O O O O @ @ @ .   O < s Q 3.3.Q p < O o 0X0X0X0X0X0X0X0X0X0X0X0X",
"0X0X0X0X0X0X0X0X0X0X0X0X@ @ O % & 7 7 < , 8 i ! 3.j.h.1.V < @ + O O O O & < < < < 7 i W 3.h.g.,.V < O o 0X0X0X0X0X0X0X0X0X0X0X0X",
"0X0X0X0X0X0X0X0X0X0XO . O O & 7 i s Y T Y E Q 1.j.B.j.1.Y 7 @ + O O & 7 i s Y Y Y Y ! 2.h.m.j.2.V < O o 0X0X0X0X0X0X0X0X0X0X0X0X",
"0X0X0X0X0X@ @ @ @ @ O O X O , i T ,.d.d.d.d.f.j.B.B.j.1.C < @ + o O & i E ,.3.3.3.d.d.h.m.m.h.<.V < O o 0X0X0X0X0X0X0X0X0X0X0X0X",
"0X0X0X0X@ @ @ @ @ $ $ @ + $ 2 B %.f.b.b.b.b.b.N.B.M.g.<.C 2 $ o o O r C ,.c.C.Z.V.C.C.V.C.C.c.5.C < O o 0X0X0X0X0X0X0X0X0X0X0X0X",
"0X0X0X0X@ @ $ $ = - - - - ; t N %.8.l.x.x.z.l.x.z.0.7.%.N r ; * * : t ~ a.S.F.D.+X+XF.+X+X+XA.p.S r O o 0X0X0X0X0X0X0X0X0X0X0X0X",
"0X0X0X0X@ @ % - 5 w e f f f j D } -.:.:.:.:.:.:.:.-.*.} Z j f w w e D u.`.@X>X:X:X:X>X>X:X,X}.P.K 6 O o 0X0X0X0X0X0X0X0X0X0X0X0X",
"0X0X0X0X@ @ % - e l v v v v v n n ) ' | ) ] ) ) ) ) ) / n v v x x v | y.{.;X5X7X7X5X5X7X8X5X&XU.I 6 O o 0X0X0X0X0X0X0X0X0X0X0X0X",
"0X0X0X0X@ @ $ ; f v b ^ ^ ^ b b b b c b b c b b b b b b b b b b b b X.t.(.oX1X1X2X1X3X3X9X9X<X'.U y $ o 0X0X0X0X0X0X0X0X0X0X0X0X",
"0X0X0X0XX @ % q f v ^ ^ ^ ^ b ^ b b c c b b c c c b c c b ^ ^ ^ ^ ^ X.#.L.E.(.(.(.(.{.oX3X6X<X'.U y @   0X0X0X0X0X0X0X0X0X0X0X0X",
"0X0X0X0X@ @ % 1 f v b ^ ^ b b b b b b b b b b b b b ^ b b b b b b b ^ | O.O.#.#...#.L.(.1X3X1X'.U y @ . 0X0X0X0X0X0X0X0X0X0X0X0X",
"0X0X0X0X@ @ % ; f v b ^ ^ ^ b b b b b b b b b b b b b b b b b b b v v v c c c v c m  .R.oX;X&X^.U y @   0X0X0X0X0X0X0X0X0X0X0X0X",
"0X0X0X0X@ @ % q f v b ^ ^ b b m b b n b b ^ m ^ b b b b ^ b v v g f d d w w d d h c ` u.`.OX}.Y.K y % X 0X0X0X0X0X0X0X0X0X0X0X0X",
"0X0X0X0XX @ % 5 f v b ^ ^ ^ b b b b b b b ^ ^ b b n b m ^ b v l e 1 1 1 * - : > d c ` i.s.S.A.p.S r #   0X0X0X0X0X0X0X0X0X0X0X0X",
"0X0X0X0X@ @ % ; e x v b b b b b b b b b b v b b b b b ^ b b v f q = O O O O = > d x _ :.q.b.c.,.V < @ . 0X0X0X0X0X0X0X0X0X0X0X0X",
"0X0X0X0XX @ $ - q e l v v b n b ^ b b v l l l l v b b ^ ^ b v f q O O O O O $ ; d x ` :.q.b.h.2.V 7 @ + 0X0X0X0X0X0X0X0X0X0X0X0X",
"0X0X0X0X@ @ # % = ; q f l b b ^ ^ b v l e q q e l v b ^ ^ b k f 1 = O X . X $ - w v ] :.l.k.j.2.V 7 @ + 0X0X0X0X0X0X0X0X0X0X0X0X",
"0X0X0X0X@ @ @ @ $ % - q f v b ^ ^ n v f q - - q f v b ^ ^ n v f q O O O @ @ % ; d c _ :.q.n.h.,.V < @ . 0X0X0X0X0X0X0X0X0X0X0X0X",
"0X0X0X0X@ @ @ $ $ = 1 q f v b ^ ^ b v g 0 3 - q g v b ^ ^ n v g q - = % = = ; q g v ) -.w.l.8.Q s < @ + 0X0X0X0X0X0X0X0X0X0X0X0X",
"0X0X0X0X@ @ $ % 3 5 w f x b b ^ ^ b v g f w w f l v n ^ b b v k f e w q q q w f l v / [ -.>.=.W t < @ @ 0X0X0X0X0X0X0X0X0X0X0X0X",
"0X0X0X0XO @ $ - q f l v v b b ^ b n b v k x l v v v ^ b ^ b b v v k l l l v l v v b ^ ' [ ` _ j r = @ X 0X0X0X0X0X0X0X0X0X0X0X0X",
"0X0X0X0XO @ % 5 f x b b n b b b b b b b b ^ b b b b b n b b b b n v b v n v b b b b b ^ n n v d q % @ O 0X0X0X0X0X0X0X0X0X0X0X0X",
"0X0X0X0XO @ % 5 l v ^ / ^ ^ ^ b b ^ ^ ^ ^ / ^ ^ ^ ^ ^ b b b b b ^ ^ ^ ^ ^ ^ b b b b b b c c x d - % @ X 0X0X0X0X0X0X0X0X0X0X0X0X",
"0X0X0X0X@ @ % q f v ^ / ^ ^ ^ b ^ b ^ ^ ^ ^ ^ / ^ ^ b ^ ^ n b b b ^ b ^ b ^ b n ^ b b b b c x > ; % @ @ 0X0X0X0X0X0X0X0X0X0X0X0X",
"0X0X0X0X@ @ % 5 f l b b b b v b b b b b v v b v b b v n b b b b b b b b b b b b b b ^ n n m n f q = # @ 0X0X0X0X0X0X0X0X0X0X0X0X",
"0X0X0X0XO @ % - q f l l l l l l l f g g g g g g g f g k v b b ^ b b b b b b ^ b b b ^ ] [ [ F j r % @ @ 0X0X0X0X0X0X0X0X0X0X0X0X",
"0X0X0X0X@ @ @ % - > q q q q q q q ; : : : ; ; 0 ; ; 0 w g k c c c c b b b b b b c b ) [ -.>.=.W a < @ . 0X0X0X0X0X0X0X0X0X0X0X0X",
"0X0X0X0X@ @ @ $ $ % % = % % = % % = = % = = = O % = - 0 g v b ^ b b b b b b b b b n ) -.6.z.f.Q s & @ + 0X0X0X0X0X0X0X0X0X0X0X0X",
"0X0X0X0X@ # $ O O O O O @ @ $ 3 3 6 y y y y 6 y y y u u D L  . . .] | ' ( n b c c b ` :.0.b.h.,.V 7 @ + 0X0X0X0X0X0X0X0X0X0X0X0X",
"0X0X0X0X0X0XO $ O O O X X @ % y A H I I I P I P P P I $.e.u.y.y.L.y.t.o.| m b c c b ` :.l.b.j.2.V 7 @ + 0X0X0X0X0X0X0X0X0X0X0X0X",
"0X0X0X0X0X0X0X0X0X0X0XX X O 3 u I J.I.I.Q.I.U.I.U.I.U.^./././._._.).!.y.o.' b c c b ` :.l.M.j.,.Y 7 @ + 0X0X0X0X0X0X0X0X0X0X0X0X",
"0X0X0X0X0X0X0X0X0X0X0X0X. @ 6 J H.]. X&XXX X X X X X X XXXXXXXXX&X X[.!.t. .( c b b _ -.9.x.g.5.s & @ + 0X0X0X0X0X0X0X0X0X0X0X0X",
"0X0X0X0X0X0X0X0X0X0X0X0X  O 6 H H..XXX=X-X*X*X*X&X*X&X*X*X&X&X*X*X*X X).W.t.+. .( ^ ) { >.6.7.W p & @ . . 0X0X0X0X0X0X0X0X0X0X0X",
"0X0X0X0X0X0X0X0X0X0X0X0Xo O y H K..XXX=X*X*X&X*X*X*X*X&X&X&X*X&X*X&X X X_.~.T.r.o.' / _ { &.*.N t & @ X X @ @ @ @ @ @ 0X0X0X0X0X",
"0X0X0X0X0X0X0X0X0X0X0X0X. O y J H.].XX=X*X&X&XXXXX&X$X&XXX&X&XXXXXXXXXXX X X_.T.@.' n b n ) n z 6 % # @ @ # @ @ @ @ @ @ 0X0X0X0X",
"0X0X0X0X0X0X0X0X0X0X0X0X. @ 6 J H..XXX*X&X&X$X&X&XXX&X$X&XXX&X&X&X&XXX*X*X&X|.!.u.' b c b c c f w 1 - = = = = % % @ @ @ 0X0X0X0X",
"0X0X0X0X0X0X0X0X0X0X0X0X. O 6 J H.].XX*X*X&XXX&X&XXX&XXX&X&XXX&XXXXX&X*X=X*X X!.r.X.b c c c c g f w w w e w q 5 = $ @ O 0X0X0X0X",
"0X0X0X0X0X0X0X0X0X0X0X0X. $ 6 J H.].XX*X*XXX&XXXXX&X#X&X&XXX&XXX&X&X&X&X*X&X.X!.r.| b b c b c c v v l v x l l q - % @ O 0X0X0X0X",
"0X0X0X0X0X0X0X0X0X0X0X0X  O y J H.].XX*X&X&X&XXX&X&X&X&X#X&X&X&X&X&XXXXX X.X).R.@.' n n ) ) ] ) n m b b v v l w 5 % @ @ 0X0X0X0X",
"0X0X0X0X0X0X0X0X0X0X0X0X. O y K K..XXX*X=X*X&X*X&X&X&X&X&X&X&X*X*X&XXX|.).!.R.r. .' n _ { ;.-.{ [ / ^ v x f w q = $ @ @ 0X0X0X0X",
"0X0X0X0X0X0X0X0X0X0X0X0X  # 4 J H..X$X;X=X&X&X&X&X*X&X*X&X*X&X*X*X&X X).T.r.+.| ( m ) &.>.9.9.7.;.) b l w q - % % @ @ @ 0X0X0X0X",
"0X0X0X0X0X0X0X0X0X0X0X0X. @ 4 J e./. X$XXX X X X X X X X X X X#X X X[.W.r. ./ c v b _ -.9.v.v.9.-.) x w ; = $ @ @ @ @ @ 0X0X0X0X",
"0X0X0X0X0X0X0X0X0X0X0X0XX @ 3 A e.P.~.).).~./.~.~.~.~.~.~.~./././.~.W.u.o.( b c c ^ ` :.z.N.b.4.=.D f ; * $ @ O O @ @ 0X0X0X0X0X",
"0X0X0X0X0X0X0X0X0X0X0X0XX @ 3 u L e.t.y.y.t.t.u.t.t.t.u.t.t.u.u.u.u.r.o.| ^ b c c ^ ` :.z.N.b.4.W t 5 * $ @ @ O O 0X0X0X0X0X0X0X",
"0X0X0X0X0X0X0X0X0X0X0X0XO O = q z m ' X.' ' ' ' | ' | | ' ] ' ' ' ' ' ( m b b c c b _ :.0.b.c.2.C 9 % @ @ @ @ @ 0X0X0X0X0X0X0X0X",
"0X0X0X0X0X0X0X0X0X0X0X0XO @ $ 1 0 f g v v l g k l x g v c b b b v b b b v v l l l l Z G =.3.1.Q s , @ + o @ @ 0X0X0X0X0X0X0X0X0X",
"0X0X0X0X0X0X0X0X0X0X0X0X@ @ $ = - : 0 0 0 0 0 > 0 0 w d g c b b b b x x f f q q q q e N C R Y s 8 & O + O @ 0X0X0X0X0X0X0X0X0X0X",
"0X0X0X0X0X0X0X0X0X0X0X0X@ @ # $ = = = = = = = = = = - w g c b ^ ^ b v g q - - = = - - 2 2 9 8 < & # @ @ @ 0X0X0X0X0X0X0X0X0X0X0X",
"0X0X0X0X0X0X0X0X0X0X0X0X@ @ @ @ @ # @ @ @ @ # @ O O = 1 w g v b b b k f q % $ @ @ @ @ @ # # # # O # @ @ 0X0X0X0X0X0X0X0X0X0X0X0X",
"0X0X0X0X0X0X0X0X0X0X0X0X0X@ @ @ O O O O O @ X O O O $ = q e f x b b v f ; % O X @ @ @ + + . . + @ @ @ 0X0X0X0X0X0X0X0X0X0X0X0X0X",
"0X0X0X0X0X0X0X0X0X0X0X0X0X0X0X0X0X0X0X0X0X0X0XO O $ O = % - q f v v v f 5 % @ X X 0X0X0X0X0X0X0X0X0X0X0X0X0X0X0X0X0X0X0X0X0X0X0X",
"0X0X0X0X0X0X0X0X0X0X0X0X0X0X0X0X0X0X0X0X0X0X0X0XO O % O O $ = q f v l f q % @ O 0X0X0X0X0X0X0X0X0X0X0X0X0X0X0X0X0X0X0X0X0X0X0X0X",
"0X0X0X0X0X0X0X0X0X0X0X0X0X0X0X0X0X0X0X0X0X0X0X0X0X@ @ O O @ $ - q f f q - % @ @ 0X0X0X0X0X0X0X0X0X0X0X0X0X0X0X0X0X0X0X0X0X0X0X0X",
"0X0X0X0X0X0X0X0X0X0X0X0X0X0X0X0X0X0X0X0X0X0X0X0X0X0X@ O O O # = - 1 1 - % $ @ @ 0X0X0X0X0X0X0X0X0X0X0X0X0X0X0X0X0X0X0X0X0X0X0X0X",
"0X0X0X0X0X0X0X0X0X0X0X0X0X0X0X0X0X0X0X0X0X0X0X0X0X0X0X0X@ @ @ $ $ % = % @ @ @ @ 0X0X0X0X0X0X0X0X0X0X0X0X0X0X0X0X0X0X0X0X0X0X0X0X",
"0X0X0X0X0X0X0X0X0X0X0X0X0X0X0X0X0X0X0X0X0X0X0X0X0X0X0X0X@ @ @ @ O @ @ @ @ @ @ @ 0X0X0X0X0X0X0X0X0X0X0X0X0X0X0X0X0X0X0X0X0X0X0X0X",
"0X0X0X0X0X0X0X0X0X0X0X0X0X0X0X0X0X0X0X0X0X0X0X0X0X0X0X0X0X0X@ O O O O O O @ 0X0X0X0X0X0X0X0X0X0X0X0X0X0X0X0X0X0X0X0X0X0X0X0X0X0X",
"0X0X0X0X0X0X0X0X0X0X0X0X0X0X0X0X0X0X0X0X0X0X0X0X0X0X0X0X0X0X0X0X0X0X0X0X0X0X0X0X0X0X0X0X0X0X0X0X0X0X0X0X0X0X0X0X0X0X0X0X0X0X0X0X",
"0X0X0X0X0X0X0X0X0X0X0X0X0X0X0X0X0X0X0X0X0X0X0X0X0X0X0X0X0X0X0X0X0X0X0X0X0X0X0X0X0X0X0X0X0X0X0X0X0X0X0X0X0X0X0X0X0X0X0X0X0X0X0X0X",
"0X0X0X0X0X0X0X0X0X0X0X0X0X0X0X0X0X0X0X0X0X0X0X0X0X0X0X0X0X0X0X0X0X0X0X0X0X0X0X0X0X0X0X0X0X0X0X0X0X0X0X0X0X0X0X0X0X0X0X0X0X0X0X0X"
};
