/* XPM */
static char *_335f88d1842468a90c91a2df96f7780ZJhDLhbHWJHeniAd[] = {
/* columns rows colors chars-per-pixel */
"64 64 213 2 ",
"   c None",
".  c #2B2B37",
"X  c #2C2E3D",
"o  c #312E3E",
"O  c #2F313F",
"+  c #33323F",
"@  c #2C3340",
"#  c #353540",
"$  c #383740",
"%  c #373941",
"&  c #393C42",
"*  c #433E41",
"=  c #364445",
"-  c #3B4244",
";  c #3D4A46",
":  c #3D4E48",
">  c #3E5045",
",  c #3E5448",
"<  c #454142",
"1  c #4D4542",
"2  c #404E47",
"3  c #4D4944",
"4  c #43434B",
"5  c #49474F",
"6  c #414F48",
"7  c #4C494D",
"8  c #504742",
"9  c #534A43",
"0  c #5A4E43",
"q  c #405647",
"w  c #435449",
"e  c #455C4B",
"r  c #4A5E4C",
"t  c #4E5447",
"y  c #565849",
"u  c #4D4A52",
"i  c #585859",
"p  c #665644",
"a  c #6C5C45",
"s  c #615A47",
"d  c #705E45",
"f  c #46644D",
"g  c #4A634D",
"h  c #4B6A4E",
"j  c #456C4A",
"k  c #57674C",
"l  c #4C714F",
"z  c #4D6D50",
"x  c #556456",
"c  c #4E7251",
"v  c #4D7A53",
"b  c #517552",
"n  c #547D55",
"m  c #5A7D54",
"M  c #5B7D59",
"N  c #5E715D",
"B  c #686B4B",
"V  c #746246",
"C  c #7C6546",
"Z  c #786849",
"A  c #63734F",
"S  c #60605F",
"D  c #786855",
"F  c #657753",
"G  c #717F51",
"H  c #7D754C",
"J  c #6D6768",
"K  c #6C6768",
"L  c #756C67",
"P  c #667963",
"I  c #796F71",
"U  c #7B7272",
"Y  c #787478",
"T  c #836A45",
"R  c #876E48",
"E  c #886F48",
"W  c #8A6E46",
"Q  c #8A7549",
"!  c #9A7B49",
"~  c #957646",
"^  c #827A5B",
"/  c #568156",
"(  c #5B8155",
")  c #5C815B",
"_  c #658355",
"`  c #6A8554",
"'  c #6E8955",
"]  c #62845E",
"[  c #688558",
"{  c #758A55",
"}  c #7D8C53",
"|  c #788352",
" . c #648561",
".. c #6A8A65",
"X. c #6E8C6A",
"o. c #658962",
"O. c #748E6C",
"+. c #6F906D",
"@. c #73916F",
"#. c #7E9373",
"$. c #739371",
"%. c #7C8C72",
"&. c #98834D",
"*. c #838E54",
"=. c #888951",
"-. c #988D50",
";. c #8C9254",
":. c #829155",
">. c #949654",
",. c #999854",
"<. c #AC864A",
"1. c #A7874B",
"2. c #B38B4B",
"3. c #B18848",
"4. c #BB924B",
"5. c #BC9A4F",
"6. c #A88750",
"7. c #AD9C52",
"8. c #A59752",
"9. c #B99D51",
"0. c #B5A152",
"q. c #BDA552",
"w. c #BDA959",
"e. c #ABA054",
"r. c #848675",
"t. c #859778",
"y. c #869A7A",
"u. c #8B9C7D",
"i. c #879877",
"p. c #919B63",
"a. c #AA8E65",
"s. c #AE9975",
"d. c #BCAF6D",
"f. c #C3964C",
"g. c #C69C4E",
"h. c #CCA14F",
"j. c #D5A34D",
"k. c #DAA54E",
"l. c #DDAC4E",
"z. c #C2A652",
"x. c #C5A853",
"c. c #CAAA53",
"v. c #CEA256",
"b. c #D4AB52",
"n. c #DCAD51",
"m. c #D5A957",
"M. c #E5AD4C",
"N. c #E1AF51",
"B. c #E3B152",
"V. c #EAB150",
"C. c #EBB65A",
"Z. c #E9B45A",
"A. c #EDB654",
"S. c #D3AF71",
"D. c #D9B675",
"F. c #F8CB7F",
"G. c #F6CA7F",
"H. c #EEC47C",
"J. c #958B85",
"K. c #998E88",
"L. c #988D87",
"P. c #8F9D80",
"I. c #9D9E8A",
"U. c #AA9D95",
"Y. c #A79E96",
"T. c #AC9981",
"R. c #9BA389",
"E. c #96A385",
"W. c #94AB90",
"Q. c #A1A68D",
"!. c #ADA196",
"~. c #A6A990",
"^. c #ADAE96",
"/. c #AEA199",
"(. c #B3AC9A",
"). c #A2B39B",
"_. c #B4B29B",
"`. c #BAB49F",
"'. c #B9B389",
"]. c #A9A4A5",
"[. c #BDAEA2",
"{. c #BDB6A2",
"}. c #ABB9A6",
"|. c #D4BC98",
" X c #C4B9A6",
".X c #CCBDAD",
"XX c #C4B6A7",
"oX c #D0BFB0",
"OX c #BEC3AC",
"+X c #D7C599",
"@X c #FDCE81",
"#X c #E0C99F",
"$X c #CFC1AF",
"%X c #D0C2AF",
"&X c #C4CCBB",
"*X c #D4C2B2",
"=X c #D9C5B6",
"-X c #DCC9B8",
";X c #D8C9B8",
":X c #D8D1BA",
">X c #FBDCAD",
",X c #F7D9AC",
"<X c #EED3A7",
"1X c #D3CDC9",
"2X c #CED0C1",
"3X c #D1D2C4",
"4X c #D9DACF",
"5X c #DEDCD0",
"6X c #EBDECA",
"7X c #E2DFD9",
"8X c #EFE0CC",
"9X c #F1E2CE",
"0X c #E8E3D9",
/* pixels */
"                                        # # # # X @ # X # # # #                 % + # # O O + + # # # #                         ",
"                                        # # $ $ $ $ $ $ # # # #                 + # % + + % + % % + + #                         ",
"                                      @ # # # * 9 0 0 8 * * # # #             O O + + * 9 0 0 8 < % % +                         ",
"                            # # @ @ @ @ @ @ $ 9 d E E d 0 * # @ # # #     X @ X . + * 9 V E E V 0 < # @                         ",
"                        # # # # $ $ # @ @ # < d ! 4.4.! d 1 # o + + + + # # # X . + 1 d ! 4.4.! d 1 # O                         ",
"                        # # + & * 8 8 1 1 9 p ~ 4.k.j.2.C 1 # @ + + + + * 1 1 1 < 8 p ~ 4.j.j.<.C 1 # O                         ",
"                    + X + + * 8 p d R T T R ~ 2.k.V.k.2.T 7 # @ + + * 8 p d T T T T ~ 3.h.M.k.<.C 8 + O                         ",
"          # # # # # + + o + < p R <.f.f.f.f.g.k.V.V.k.2.C 1 # X O + * p W <.4.4.f.4.f.j.M.V.k.1.C 1 + O                         ",
"        # # # # # % % # @ % 3 V &.g.n.N.N.n.n.V.V.N.h.1.Z 3 % O O + t Z <.v.Z.A.C.Z.Z.C.C.C.m.6.V 8 # @                         ",
"        # # % % - ; ; ; ; : y B &.7.z.c.c.z.z.c.x.z.8.&.B t : = = > y ^ s.D.G.F.@XF.G.@X@XH.S.a.D 7 # X                         ",
"        # # & ; 6 e r g g g k F | ;.>.>.>.>.>.>.>.;.=.G A k g e e r F i.'.#X,X>X>X,X,X,X>X<X|.I.L 7 % .                         ",
"        # # & ; r z b b b b b m M _ [  ._ [ _ _ _ _ _ m m n b l c b  .u.}.:X6X8X9X6X6X9X9X6X*XY.U u # .                         ",
"        # # % : g b n / / / n n n n v v v n v n n / n n n / n n b / o.y.).OX2X3X3X3X4X5X0X0X1X].Y u & X                         ",
"        o # & w g b / / / / n / n n n v n n v v v b n v n n / / / / ] $.W.W.).).).).}.OX4X7X1X].Y u # .                         ",
"        # # & 2 g b n / / n n n n n n n n n n n n n n n n n n n / / /  .o.X.$.$.X.$.P.).2X4X2X].Y u # X                         ",
"        # # & : g b n / / / n n n n n n n n n n n n n / n n n n b b n b v v b b v n ..E.OX:X*X/.Y u # .                         ",
"        # # & w g b n ) / n n n n n n n m n ) n n n n n n n b b h h f f e e f f j v ' u.'.+X|.T.U u + +                         ",
"        o # & 6 g b n / / / m n n n n n n / / n n n n ) / n b z r 2 2 : = ; > , f v ' p.d.D.S.a.D 9 + X                         ",
"        # # & : r c b M n n n n n n n n n b n n n n n m / n b g 2 - + + + + = , f l [ >.w.n.k.6.C 3 + O                         ",
"        o # % ; w r z c v n n n m n n b z z z z b n n / / n b g w + + + + + % ; e v ' >.q.n.j.<.C 9 + O                         ",
"        # # $ & ; ; w g c b n / n n b z r w w g h b m / / n c r 2 - + o o # # ; e b [ >.z.l.k.<.C 8 + O                         ",
"        # # # # % & ; w g b n / / m b g w ; ; w g b n / / m b h w + + + # # & : f v ` >.w.m.j.<.C 8 + O                         ",
"        # # # % $ & ; e h b n ) / m b h w ; 4 q h b n / / n b h w ; - & & - ; w f b _ ;.7.z.9.! V 1 + O                         ",
"        # # % & ; 6 e g c b n m / n b h g e e g h n n / n m b l h r e w w e e f c b _ { ;.>.-.H y < + +                         ",
"        + # % ; w g z b n n n n n n n b b h b b b n n n n n n b b z z z z h b b b n ) _ ' ' ` B t - % +                         ",
"        + # & 6 g c n n n n n n n n M n m n n n n n n n n n n n n n n b n n b n n n n / / m b g 2 - + +                         ",
"        + # & 6 h b / ) / / n / n / / / / / / / / n m n / n n / m n / / / / m / n n n n n v c f : & + +                         ",
"        # # & w g b / / / / / m / n / / / / / / / / / n n n n n n n m / n / n n / n n n v v c , : & % +                         ",
"        # # & 6 g b n n n n n b n n b n n n n n n n n n n n n n n n n n n n m n n n n / ( M b z q & # #                         ",
"        + # & ; w g h z z z z h z g h h h g h h g h h l c n n n n n n n n n n n n n / _ { { G k t * # @                         ",
"        # # # & ; 6 w w w w w w q > > > > : : > : > q e h b v n v v n n n n n n n n _ } ;.,.-.Q s < # o                         ",
"        # # # % % & - & & - & - & & - & - - - + & - ; w h c m n / n n n n n n n n n _ ;.7.z.g.! d 1 # @                         ",
"        # # # # # # # # # # $ & 4 u u u u u u u 5 u i i P F ........] ] ) m n n v n ` >.q.n.j.<.C 1 # @                         ",
"            # # + + o o @ # * u S J I U U I I I I I U %.r.u.u.u.u.u.u.O. .M v v v n ` >.x.B.k.3.T 8 # @                         ",
"                      o o # 4 S ^ K.U.U.!.U.U.U.U.U.U./.(.(.(._._._.~.u.O.) n v v n ` >.q.B.k.3.T 8 # @                         ",
"                        . # 5 K L.]..X*XoX.X.X.X.X.X.X.XoX.XoXoX%X.XXXQ.u...) n n n ` ;.0.c.g.1.d * # @                         ",
"                        X + 7 J K.XXoX1X;X=X=X=X=X=X=X=X=X*X=X=X=X=X.X`.R.u.O...) ) _ } >.7.7.Q a * # o X                       ",
"                        X # u J K.XXoX-X;X=X=X*X=X*X*X*X*X*X*X=X=X=X.X X{.^.R.t.O.] ( ` } *.=.B y * # @ o # # # # # #           ",
"                        . # 7 J ^ XXoX-X=X%X%X*XoX*X*X*XoX*X*XoXoXoXoXoXoX X_.R.#.] / ( / _ m x 7 - $ # # $ # # # # # #         ",
"                        X # 5 J K.XXoX=X=X*XoXoX*X%X*X%X*XoX%X*X*XoX*X=X=X=X X~.i.] n v v b v f e ; - ; & - ; & & # # #         ",
"                        X $ 7 J K.XXoX=X=X=XoXoX*XoX*X%X*XoXoX*XoXoX*X=X-X=X.X^.t. .n b v v c c g e e e r e w 6 - % # +         ",
"                        X # 7 J J.[.oX=XoXoX=XoX%XoX*XoXoX*X*XoX*X*X*X*X=X*XXXQ.t. .n n v n v b v b z b b z z w ; & $ +         ",
"                        X % 7 J J.[.oX=X-XoXoXoX*X*X*X*X*X*X*X*X*X*XoXoX.X X_.E.#.] n / m _ _ _ M m n n b b z e : % # +         ",
"                        . + u J J.XXoX-X-X-XoX-X=X*X*X*X*X*X*X=X=X*XoX X_.~.E.#...) _ ` } ;.;.:.' _ / b z g e w ; % # +         ",
"                        X # 5 J L.[.*X;X=XoXoX-X*X*X*X=X*X=X*X=X=X*X.X(.R.t.O.o.) M _ *.,.9.7.8.:._ n z e w ; & & # # #         ",
"                        X # 5 K J.(.$X$XoXoXoXoX.X$X.X.X.X.X.X.X.X.X{.Q.t...) v n n ` ;.0.b.b.0.;._ z e : - % # # # # #         ",
"                        X $ 4 S %.I.^._._.(./.(.^.^.^.^.^.^.^.(.^.^.Q.i.O.] n v v n ' >.x.N.n.q.&.A g , = % # + + # #           ",
"                        o # ; y K %.y.u.y.y.y.i.y.y.u.t.t.t.t.u.u.t.t.O.] / n v v / ' >.x.B.n.5.Q k : & % # # + +               ",
"                        + + - w k M  . . .] ] ]  . .]  .] ] [  . . .] ) M n n v b n [ >.q.m.j.2.Z 9 - @ # # # #                 ",
"                        + # % 2 e g z z c z l l z z h b v n n / n n n b b b z z c z A H 1.5.2.~ d 1 # @ O # #                   ",
"                        # # $ - : > q q q , q , q q e f j b n n n n v h g e e w q e r B Z R T d 9 * # # + #                     ",
"                        # # # % % & - ; - - - - - - : e h b n / / n b g e 6 - - - - ; 3 3 t 9 1 * $ # # #                       ",
"                        # # # # # $ # # # # $ # + + ; 2 e h b n n n b g w & # # # # # # $ $ $ $ # # # #                         ",
"                          # # # + + + + + # o + + + + ; 2 r h h b n b g 6 & # o # # o @ @ X X @ # # #                           ",
"                                              + + + + - - ; w g c b b g w % # o o                                               ",
"                                                + + & + + & - w h c l g 6 & # #                                                 ",
"                                                  # # + + # % ; w g g w 2 % # +                                                 ",
"                                                    # + + # # - ; 2 2 ; & % # #                                                 ",
"                                                        # # # % % - & & $ $ # #                                                 ",
"                                                        # # # # + + $ # # # # #                                                 ",
"                                                            # + + + + + + #                                                     ",
"                                                                                                                                ",
"                                                                                                                                ",
"                                                                                                                                "
};
