/* XPM */
static char *result[] = {
/* columns rows colors chars-per-pixel */
"64 64 59 1 ",
"  c #000000",
". c #0B0705",
"X c #0E0A06",
"o c #120907",
"O c #1A0A06",
"+ c #110C08",
"@ c #1C0D0B",
"# c #1E140E",
"$ c #200F0A",
"% c #22110D",
"& c #2B170F",
"* c #241710",
"= c #281711",
"- c #261A12",
"; c #2C1B13",
": c #271C1F",
"> c #321F16",
", c #2D2016",
"< c #332117",
"1 c #342318",
"2 c #39261B",
"3 c #3E291D",
"4 c #2B1F20",
"5 c #332523",
"6 c #3F383F",
"7 c #412A1E",
"8 c #442F21",
"9 c #482F21",
"0 c #473021",
"q c #4D3524",
"w c #4F3826",
"e c #513726",
"r c #543927",
"t c #563A29",
"y c #593D29",
"u c #4B3932",
"i c #453839",
"p c #5F422D",
"a c #61452E",
"s c #654730",
"d c #664831",
"f c #6A4B33",
"g c #704F36",
"h c #715036",
"j c #755338",
"k c #7A563A",
"l c #7C593C",
"z c #3B3743",
"x c #49434C",
"c c #4C4C5D",
"v c #4E5166",
"b c #4F546B",
"n c #575D76",
"m c #5D6784",
"M c #606C8C",
"N c #667496",
"B c #6A7A9F",
"V c #6F81A8",
"C c None",
/* pixels */
"VBMbz4@OO@$@@@@@@@@@@@$@@@@@@@@@@@$@@@@@$@@@@@$@@@@@$$@OO@4zbMBB",
"BNmvz4$@$$$$%%%%%$%$%%$$%%%%$$%%%%%%%%%%%$$%%%$$%%%%$$%$$%4zvmNB",
"Mmnc65=&==;=;=;;=;;;;=;=;;;;;;=;;=;&;&=;=;;;;=;=;;;;&==&==5zcnMM",
"bvcxi8777777773773337777>737737728277373333377738>387777778ixcvb",
"zz6iuwrtrrrtetttrrrrtrrrytrrrrrrttttttttrrtrrrrrtttetttttttuizzz",
":458usfffffffddfffffffffffffffffffsfsffsffffffffffffffffffpt8544",
"@%;7rfgkjjjjjjjjjjjjhjjjjjjjjjjjjjjjjjjjjjjjhjjjhjjjjjjjjjft3;%@",
"O@&7rfkllkkkkkkkkklkkkkkkkkkkkkkkkkkkkkkkklkkkkkkkkkkkkklkfy>&$O",
"O$&2rfkllkkkkkkklkkkkkkkkkklkljlkkkkjkkkkkkkklkkkkkkkkklljft2&$O",
"$$&7rfjkkjjjjjjjjjjjjjjjjjjjjjjjjjjjjjjjjjjjjjjjjjjjjjjjkjft8&@$",
"@$=7raghggfgfgfffffffffffffffgfffffffggffffffffffgfffffhhgse2;%@",
"$$=2qaaaappyyyppppapaaappsppppppapaappppapaapaappppppspsfsyq>;%@",
"$%=>7tpyrrqqq9qqwqqeqqerqwqqqqwqeeqeqqrqqwrwwqwwwwqqqqetyye9>&%%",
"%%;>7qrq053383753357333557333333327533753335337533353788et97>>%@",
"@%;>7qwq8221122<,,,,;,,,,,,,,,;,;:>;>,;,,>,;,,;,,;;,;:>89ee8>=%@",
"@%;>0rtw32<<222<;-#######%###*##%%*##############*####;>9tt92=%@",
"@%;79ppr02123331,+XXXXXXXX+XX+XXXX+XXX+XXX+XXX+X+XXXX+#,qppq2;%@",
"%%=7rsspq3230031#+................................ . .#,qpsr3;%@",
"@%;7rsgpq3230q31#X                                    X,qddt7;%@",
"@%;5yfgpw3230q01#.                                    X,qdfp7;%@",
"$%&7yffaq3237q01#.                                    +,esfy7;%@",
"$$;7tffaq3230q01#.                                    X,qsfy7;%@",
"@%;7tffaq3230q71#.                                    +,qasy7>%@",
"@%;7tffpq3279q01#.                                    +;qfft7;$@",
"@%;8tffpe3530q71#.                                    +,qddy7;$@",
"@%&2tfgpe3>80001#.                                    +,rafy7;%@",
"@%&8tffpe5>80q01#.                                    X,qsfy7>%@",
"@$;8tffae8>80q01#.                                    X,wsdy7;%@",
"@%;8tsfa97230q71#X                                    +,qsfy7;$$",
"@%&3tffpq7237q01#.                                    +>qsfy7=$$",
"@%=3tffaq533qq71#.                                    +;qdft8;%@",
"@%;8tffaq3277q01#.                                    o>qsdt8;%@",
"@%;7pfgpq3238q81#.                                    +,wsdy7;%@",
"@%;7wdgpq3238q81#.                                    +,wsfy7;$@",
"@%;7psfpq3238q81#.                                    +,qsdy7;%@",
"@%-3tdgpw3238q81#.                                    X,qdfy7;*@",
"@%;7wdfpw3138q81#.                                    X,qsfy7;$$",
"@%;7pdfpq3138q81#X                                    +,qsfy7;%@",
"@%;7ppfpp3330q01#.                                    +,qdft8&%@",
"@%&3pdfp83230q01#.                                    +;qsst8;%@",
"@%;7rdfaq3233w31#.                                    +,qddy8&%@",
"@%;7tffaq3230w01#.                                    X,edfy7&%@",
"@%;7rffaw3330q31#.                                    +,qsfy8;%@",
"@%;7yffaw3130q01#X                                    X,qsft8;%@",
"@$;3rffyq3237q81#.                                    +<esfy7&%@",
"@$;7yffsq3230q01#.                                    +:essy7&%@",
"@%;3rffsq3230q0<#.                                    o;esft7;%@",
"@%;8tfgyw3277q01#.                                    o;esfy7;%@",
"@%;8tffae3238q7<#.                                    +,wsdy7;%@",
"@%;7tffpq3230q01#.                                    +,qddp7;%@",
"@$;7tfgaq5377q0<#X                                    X,qdft7;%@",
"@$;7yfgae337qqq1#.                                    +,wdfp7;%@",
"@%;9yggar3237q72#.                                    +<rffy7;$@",
"@%&9tsfpq323qq7<#.                                    X,qsfy7>$@",
"$%;>qypt01<1373,#.                                    X-8tyq3;%$",
"@%=;2985,---;,,%+.                                    .#,373>=%$",
"%%%&----#+++##++X                                     .X#---;%%%",
"%##@++XX.....X..                                       ..X++@#%%",
"@@@oX.                                                    ..o@#@",
"+ooo                                                       .Xooo",
"oo...CCCCCCCCCCCCCCCCCCCCCCCCCCCCCCCCCCCCCCCCCCCCCCCCCCCCCC ..o.",
"    CCCCCCCCCCCCCCCCCCCCCCCCCCCCCCCCCCCCCCCCCCCCCCCCCCCCCCCC  . ",
"    CCCCCCCCCCCCCCCCCCCCCCCCCCCCCCCCCCCCCCCCCCCCCCCCCCCCCCCC    ",
"    CCCCCCCCCCCCCCCCCCCCCCCCCCCCCCCCCCCCCCCCCCCCCCCCCCCCCCCC    "
};
