/* XPM */
static char *d45e17a9af394838c00692bbbfb7c355pWkC5TrI3nH2iUAJ[] = {
/* columns rows colors chars-per-pixel */
"64 64 209 2 ",
"   c None",
".  c #2B2B37",
"X  c #2C2E3D",
"o  c #312D3E",
"O  c #2E303F",
"+  c #33323F",
"@  c #2F3340",
"#  c #2F3841",
"$  c #353540",
"%  c #383740",
"&  c #363941",
"*  c #393D42",
"=  c #443E41",
"-  c #423F49",
";  c #3C4545",
":  c #3D4B46",
">  c #3E4E48",
",  c #374945",
"<  c #3F5247",
"1  c #454142",
"2  c #4C4542",
"3  c #404E47",
"4  c #44444B",
"5  c #49464F",
"6  c #414F48",
"7  c #4C494E",
"8  c #4F4E45",
"9  c #504742",
"0  c #524F46",
"q  c #425349",
"w  c #455D4B",
"e  c #4A5C4B",
"r  c #445347",
"t  c #5E5143",
"y  c #555948",
"u  c #4D4B52",
"i  c #575958",
"p  c #4E5152",
"a  c #615344",
"s  c #6E5C45",
"d  c #655C47",
"f  c #725E45",
"g  c #46624C",
"h  c #49634D",
"j  c #4C6A4F",
"k  c #466C4A",
"l  c #54694E",
"z  c #586A4E",
"x  c #4D6B50",
"c  c #476A50",
"v  c #586755",
"b  c #4D7352",
"n  c #4D7A54",
"m  c #517452",
"M  c #557D55",
"N  c #597E55",
"B  c #567E59",
"V  c #5C7D5B",
"C  c #4C704F",
"Z  c #686E4C",
"A  c #756145",
"S  c #7B6545",
"D  c #75664A",
"F  c #7D694A",
"G  c #786959",
"H  c #637C53",
"J  c #627756",
"K  c #74784E",
"L  c #665F63",
"P  c #6D6669",
"I  c #6E6869",
"U  c #666264",
"Y  c #756D69",
"T  c #787576",
"R  c #6E7568",
"E  c #826A46",
"W  c #88794B",
"Q  c #8E7248",
"!  c #977949",
"~  c #9C7C4A",
"^  c #987845",
"/  c #847E5F",
"(  c #A07F4A",
")  c #568156",
"_  c #5D8255",
"`  c #5C825B",
"'  c #658354",
"]  c #6B8555",
"[  c #6D8955",
"{  c #64855B",
"}  c #7C8D54",
"|  c #768551",
" . c #7F9055",
".. c #658561",
"X. c #668963",
"o. c #6D8C69",
"O. c #6A8B67",
"+. c #728D6B",
"@. c #7A8871",
"#. c #7D9373",
"$. c #7B9977",
"%. c #8D844F",
"&. c #9F834C",
"*. c #858D53",
"=. c #878A52",
"-. c #899154",
";. c #939554",
":. c #959854",
">. c #9A9854",
",. c #959757",
"<. c #968E51",
"1. c #AC8546",
"2. c #AC864A",
"3. c #AC8649",
"4. c #B18A4B",
"5. c #B58B49",
"6. c #BD944D",
"7. c #AA8B57",
"8. c #AC9C53",
"9. c #A79450",
"0. c #BC9E51",
"q. c #BDA553",
"w. c #B6A152",
"e. c #AFA254",
"r. c #8A827D",
"t. c #858F73",
"y. c #839777",
"u. c #849877",
"i. c #869979",
"p. c #8D9B7E",
"a. c #8A9B76",
"s. c #909C66",
"d. c #AD956C",
"f. c #BCAE6A",
"g. c #C29D4F",
"h. c #CC9C4A",
"j. c #CA9F4F",
"k. c #D5A34E",
"l. c #D9A54D",
"z. c #DDAA4E",
"x. c #C5A752",
"c. c #C2A853",
"v. c #D9A750",
"b. c #D9AD51",
"n. c #D4A95F",
"m. c #D6A550",
"M. c #DEB152",
"N. c #E6AE4C",
"B. c #E4AE50",
"V. c #EBB351",
"C. c #E2B252",
"Z. c #D8B77C",
"A. c #D8B261",
"S. c #EEBB64",
"D. c #F3BF65",
"F. c #F4C065",
"G. c #968B86",
"H. c #988C87",
"J. c #998E89",
"K. c #969885",
"L. c #A69A85",
"P. c #A99D94",
"I. c #8DA589",
"U. c #86A183",
"Y. c #98A287",
"T. c #9BA389",
"R. c #93A889",
"E. c #9CAF96",
"W. c #A4A88F",
"Q. c #A3A48E",
"!. c #A5AA90",
"~. c #ABAC94",
"^. c #ADA398",
"/. c #B3B19A",
"(. c #B3B491",
"). c #A9A4A4",
"_. c #BDAEA2",
"`. c #BCB4A1",
"'. c #A9B9A3",
"]. c #D4BD99",
"[. c #C1B3A4",
"{. c #C2B9A5",
"}. c #C7BCA9",
"|. c #CDBEAD",
" X c #B6C1AF",
".X c #BCC1A3",
"XX c #BBC4B3",
"oX c #D7C69C",
"OX c #F8CE87",
"+X c #FED28A",
"@X c #EEC683",
"#X c #D0C0AF",
"$X c #C5CAB7",
"%X c #D4C2B2",
"&X c #D9C6B6",
"*X c #DACAB7",
"=X c #DCCAB8",
"-X c #D8D0B7",
";X c #F8DAAD",
":X c #FEDEB0",
">X c #E7CFA4",
",X c #D3CDC8",
"<X c #D9D7C9",
"1X c #DFDED6",
"2X c #CFD3C6",
"3X c #EDDDC7",
"4X c #EEDEC8",
"5X c #F3E2CB",
"6X c #E8E2D7",
/* pixels */
"                                $ $ $ $ X X @ X $ $ $ $                 $ $ $ $ @ @ @ @ @ @ $ $                                 ",
"                                $ $ $ $ $ $ $ $ $ $ $ $                 $ $ $ $ $ % $ $ $ $ $ $                                 ",
"                                $ $ + * 1 2 2 1 % $ $ $                 + + % * = 2 = - = % $ @                                 ",
"                                $ $ = 9 a s d t 2 $ @ @ O             $ $ + * 9 t f f t = % @ @ X                               ",
"                                O $ 1 a E ! ^ F t = + X X X O O @ $ $ @ $ $ 1 a E ! ! S t = @ @ @ X @ @ @ $ $                   ",
"                                O $ 2 s ~ 6.6.( f 2 + o O + + + $ $ $ @ + $ 2 A ~ g.6.( f = $ $ @ $ % % $ $ $ $                 ",
"                                O $ 2 S 2.k.k.5.Q a 9 2 2 2 2 1 = $ @ o @ $ 2 S 4.m.k.6.Q a 9 1 2 9 2 = = $ $ $                 ",
"                                O + 9 S 4.l.N.h.2.Q A A A A s t = % $ @ X $ 2 E 5.v.B.k.4.Q S S S f f t = = o $ +               ",
"                                X $ 9 S 1.l.V.N.h.5.5.( ( ( ^ E a = o X X + 2 S 5.b.V.B.k.5.4.4.2.3.~ F a = $ X X $ $ $ $ $ $ $ ",
"                                + + 9 D 3.k.V.V.B.l.l.v.N.k.g.( f 9 $ @ X + 2 S 2.m.V.V.B.v.m.m.l.k.6.! s 2 $ @ $ $ $ $ $ $ $ $ ",
"                                X + 2 D 7.n.S.F.D.S.S.D.D.S.n.7.F 0 * $ + ; 8 A &.x.b.M.b.b.b.b.M.b.g.2.D 8 * & & * * & % $ $ $ ",
"                                X + 7 G d.Z.Z.OXOXOXOXOXOXOXZ.f.=.i 3 , , < y Z %.9.w.q.q.q.q.c.c.q.8.%.Z y r : : > : ; * $ $ $ ",
"                                . $ 7 Y L.].;X:X;X;X;X:X:X;XoX(.t.U h g w g l J | =.-.;.;.;.;.;.:.;.*.| J l h h h w e q ; & $ $ ",
"                                X $ u T P.%X3X5X5X4X4X4X5X3X-X/.p...b k C b m N N ' ] ] ] ] [ [ ] ] ' H N m C m m m c e : * $ $ ",
"                                X $ u T P.,X6X6X6X1X<X<X<X<X$X'.U.X.) n M M M M M M M M M M M M M M M M M M M B B M m e 6 * $ @ ",
"                                @ # u T ).,X1X1X2XXXXX`.XX X'.R.$...) ) M M M M M n M n M n m n n n M M M ) _ ) ) M m h 6 & $ $ ",
"                                . $ u T ).,X6X,X XE.I.I.I.I.U.$.O.{ ) M M ) M M M n M M n n M M M M n M M M ) ) ) ) m h r ; + + ",
"                                . $ u T ).,X<X2XE.u.O.{ O.O.X.{ ` ) M M N M M B M M M M M M M M M M M B M M M ) ) N C h 3 * + + ",
"                                . $ p / ^.%X-X`.R.O.M n n b m C m m m M M M B M M M M M M M M M M M M M M M M ) ) M m h 3 * + + ",
"                                X $ u Y d.oX#X(.a.{ b c k g g w g h h j m m M M M M M M M ) M M M M M M M M M N ) M m h 3 ; $ + ",
"                                X $ 0 G d.].Z.f.s.{ b k w < : : : < q h x M M M ) M M M B N M _ M M M M M M M ) ) M m h q * $ + ",
"                                @ & 2 D 7.n.A.q.,.] m g < ; * % * * ; q h m M M M M M M B M M M M M M M M B M B B M m e 3 * $ + ",
"                                @ $ 9 S 2.k.b.q.:.] b c > * $ $ + $ ; : h m M M ) M M M m m m m M M M M B M M N M m x w : * $ + ",
"                                X $ 9 S 1.l.M.q.:.] m < > & o o o + * : h b M _ ) M m m x h c x m m M B ) M M C x h w 3 ; * $ + ",
"                                @ $ 2 S 1.l.z.c.:.] b g > & $ X o o * 3 h m M M ) M m x e q r e x m M ) ) M m x e q : ; & & $ $ ",
"                                X $ 9 f 3.k.b.q.:.] m g > * $ @ + $ * 6 h m M _ ) M m c q : : q h m M ) _ M m j q : * & % $ $ $ ",
"                                @ $ 2 f &.0.x.e.-.] m g q ; * & & * : q c m M M _ M m h q : ; q h m M ) ) M m h q ; * $ $ $ $ $ ",
"                                X $ 2 d W 9.8.:. .' m c h q 6 : 3 6 q h x m M ) ) M m x e q q w j M M ) ) M m x h q 3 ; * $ $ $ ",
"                                @ $ - y Z =.*.} [ _ M b x h h h h h j j m m B B _ M M b j h h j m M M M ) M M m x h e > ; & $ $ ",
"                                o $ ; r l J ' ' _ M M M m m m b m m m m M M N M M M M m m m m M m M M M M M M M M m c e 3 * $ $ ",
"                                $ $ & 6 e m M ) ) M M M M M M M M M M M M M M M M M M M M M M M M M M M M M M ) M M m h 6 * $ o ",
"                              + o $ & , w c n M M M M M _ B ) ) _ M ) M ) M _ M M ) M ) ) _ ) ) M _ B B B ) ) ) ) _ m h 6 * $ $ ",
"                          $ $ @ @ @ & > < b n M M M M N N ) M M M M M ) M ) ) ) M _ M ) ) ) M _ M ) ) M B M B _ ) ) m h q * $ + ",
"                        $ $ % o o $ ; q c b M ) ) M M M M M M M M M M M M M M M M M M M M M M M M M M M M N M B ) M m h 3 * $ + ",
"                        $ $ % = = 2 0 y J H ' ' _ N M M M M M M M M M M m m m m b m m m m b m m b m m m m m m m m m j e : * $ + ",
"                        $ $ * 2 t f E W %.%.-.} ] _ N n M n M M M M b C j g w w w w w g w g w h e h h h h h h e h h w 3 ; & $ + ",
"                        X $ 1 t E ~ 4.6.g.0.8.:.} ' M M M m n n n M b j w < , ; ; : , : : ; * - : q 6 6 6 3 6 6 6 6 3 ; * & $ $ ",
"                        @ $ 2 s ! 6.k.B.b.b.x.8.*.' M n M B M ) M M M c q : : + * * * * * * * - ; * * & * * * * * * * & & $ $ $ ",
"                        X % 2 s ~ g.b.C.M.b.x.8.*.' M M V { X.X.{ X.V U v p 7 7 5 7 5 u u u - - & & % $ % $ $ $ $ $ $ $ $ % $ $ ",
"                      X X + 4 d W 9.q.c.c.q.8.;.| ' ) { o.#.y.i.u.y.t.@.R I P P P P P P P P L L 5 * $ @ @ $ @ o + + + + $ $ $ $ ",
"          $ $ $ $ $ @ o o $ 1 y Z =.;.:.:.;.*.| ] N _ o.i.K.W.!.!.W.Q.L.J.J.J.J.H.J.H.J.J.J.r.P i 4 + o X                       ",
"        $ $ $ $ $ $ $ $ o $ 1 r z H ] [ [ ] ' ' N B { #.T./.[.}.}.{.{.`.[.[.[._._._._.[.[._.P.r.L 7 + o                         ",
"        $ $ $ & & * * * * * ; q h m B M B M M ) _ { @.U.~.}.%X%X&X|.%X|.|.|.|.|.|.|.|.|.&X|._.H.P 5 $ X                         ",
"        $ $ & * ; > 6 q 6 6 q g c b n n n n B X.o.y.p.W./.|.%X&X&X&X&X&X&X=X=X=X=X=X=X=X=X&X_.J.I 5 % .                         ",
"        + $ & ; 6 e h h h h h c C b n n n M ) +.u.T./.`.|.|.%X&X|.&X=X|.=X|.&X|.&X&X&X=X=X|._.J.I 7 $ X                         ",
"        + $ * 3 w j m m m m M m M M M n M M ..#.T./.{.|.|.%X|.%X&X|.|.=X|.=X&X|.&X|.|.&X=X|._.H.P 7 + X                         ",
"        + $ * 3 w x m M M M _ _ ' ' ] ' N B ..#.K./.{.|.|.|.|.%X|.&X|.|.|.|.&X&X|.|.&X&X=X&X_.H.I 7 + O                         ",
"        + % & ; q e h b m M _ [ } *.=.} ] _ V o.i.Q.~.`.|.%X%X&X&X|.=X|.=X&X|.&X&X&X&X&X=X|._.J.I 7 + .                         ",
"        $ $ & * ; 3 e g x m { *.9.e.8.>.} H ` { o.#.K.!.`.|.%X&X%X%X%X%X%X%X%X%X%X%X%X=X=X%X`.G.I 7 & X                         ",
"        $ $ $ % & * ; < c n ' -.8.x.x.8.-.' B M ` ..+.p.~.{.|.&X%X%X%X%X%X%X%X#X%X%X%X%X&X|._.G.I 7 + X                         ",
"        $ $ $ $ + $ * : w x H *.8.x.x.8.-.' B n n ) ..#.T./.{.}.}.{.{.{.{.{.}.[.{.{.{.{.}.{.^.G.U 7 + O                         ",
"          $ $ + + + & ; > h z K <.8.8.>.} ' ) n n ) ` o.u.T.W.~.!.!.W.!.W.W.W.W.!.W.!.!.~.W.K.T v 4 + O                         ",
"              + + $ + * ; > r Z K *.-.} [ _ M M n ) _ ..+.#.u.i.u.u.u.u.u.u.u.y.y.y.y.u.i.u.#.J i 1 $ o                         ",
"                $ + & $ $ * 4 e z H ] { ' M M M n M M _ ` { ....X.....X...{ X.X.....X...X.{ V v 6 ; $ o                         ",
"                $ $ $ + + $ * < h m M M M b m m m C m m m m m b m m m m m m m M M M M M M m j w 3 * $ $                         ",
"                  $ $ + + + * > w n m m x c h e h h h e g g w w w g w w w w g j C b M b j g q > ; $ $ $                         ",
"                      + + $ * > g b m x h q 6 6 : : : r 3 : : : : : : : : < < g x m b b g r : ; * & $ $                         ",
"                        + $ * q h m n j q ; * & * * ; ; ; * * ; * * ; * + ; , q j b m j q ; * & $ $ $ $                         ",
"                        $ $ * : e c x e 6 * & $ + + + + + + & + + + & + + + ; 3 e c x e : * $ + $ $ $ $                         ",
"                        + $ * ; q e w r ; & $ @ + + + + + + + + + + + + + + + ; q w e r : & + + + $ $                           ",
"                        $ $ $ ; ; 3 3 ; * $ + + +                     + + + * ; ; 3 3 ; * $ $ + +                               ",
"                        $ $ $ $ * * & & & & $ $                         + + + + * * & & & $ $ $                                 ",
"                        $ $ $ $ $ $ $ $ $ $ & +                         + + + * $ $ $ $ $ $ $ $                                 ",
"                        $ $ $ $ + + + + $ $ $ $                         & * + + + + + + $ $ $ $                                 "
};
