/* XPM */
static char *_675a6aae60c43e5ed4b93fd14d20b43W4jIHOxYi4uYUWjp[] = {
/* columns rows colors chars-per-pixel */
"64 64 212 2 ",
"   c None",
".  c #2C2E3D",
"X  c #2B2B37",
"o  c #322E3E",
"O  c #2F303F",
"+  c #33323F",
"@  c #2F3240",
"#  c #353540",
"$  c #383740",
"%  c #363941",
"&  c #3A3D42",
"*  c #423D41",
"=  c #423F49",
"-  c #3B4444",
";  c #3E4A46",
":  c #3D4E48",
">  c #364044",
",  c #3F5246",
"<  c #3E5349",
"1  c #454142",
"2  c #4D4542",
"3  c #404E47",
"4  c #43424A",
"5  c #414F48",
"6  c #4B484E",
"7  c #4B474A",
"8  c #5A4E42",
"9  c #514843",
"0  c #4C5247",
"q  c #425349",
"w  c #455B4A",
"e  c #47574A",
"r  c #535447",
"t  c #5A5547",
"y  c #4D4B52",
"u  c #585759",
"i  c #515553",
"p  c #665644",
"a  c #665A46",
"s  c #6C5B44",
"d  c #685744",
"f  c #715F46",
"g  c #605A5F",
"h  c #46624C",
"j  c #4A644E",
"k  c #4B6A4E",
"l  c #476B4B",
"z  c #51634D",
"x  c #5B674C",
"c  c #4D6D50",
"v  c #476B51",
"b  c #596A57",
"n  c #4E7252",
"m  c #4E7A54",
"M  c #517453",
"N  c #557D55",
"B  c #5A7E55",
"V  c #5A7E5A",
"C  c #597954",
"Z  c #4C714F",
"A  c #696D4C",
"S  c #756246",
"D  c #7C6546",
"F  c #75684A",
"G  c #68724E",
"H  c #77734C",
"J  c #776959",
"K  c #657B52",
"L  c #687C52",
"P  c #7F7254",
"I  c #665F64",
"U  c #676164",
"Y  c #696365",
"T  c #6D6768",
"R  c #6E6869",
"E  c #697B64",
"W  c #75736B",
"Q  c #797579",
"!  c #736B6D",
"~  c #826A46",
"^  c #8D7248",
"/  c #87764A",
"(  c #9C7C4A",
")  c #967B49",
"_  c #578156",
"`  c #5C8155",
"'  c #5D825B",
"]  c #648354",
"[  c #6B8554",
"{  c #62845E",
"}  c #6A8956",
"|  c #7C8251",
" . c #748954",
".. c #7B8D54",
"X. c #718752",
"o. c #658661",
"O. c #668A64",
"+. c #6C8A66",
"@. c #6F8C68",
"#. c #718D6A",
"$. c #75816E",
"%. c #75916E",
"&. c #7C9372",
"*. c #7A9877",
"=. c #7B8C71",
"-. c #9A854D",
";. c #8D8A51",
":. c #828A53",
">. c #849054",
",. c #8C9254",
"<. c #939554",
"1. c #959854",
"2. c #969756",
"3. c #8C804D",
"4. c #A98446",
"5. c #A6844B",
"6. c #AB864A",
"7. c #A58147",
"8. c #B28A4B",
"9. c #B48B48",
"0. c #BA994F",
"q. c #AA8A59",
"w. c #A59C54",
"e. c #AB9E53",
"r. c #A49250",
"t. c #B59A54",
"y. c #BCA452",
"u. c #B6A557",
"i. c #8A827D",
"p. c #819575",
"a. c #849B7C",
"s. c #8C9B7D",
"d. c #869479",
"f. c #8C9268",
"g. c #AA9372",
"h. c #8FA179",
"j. c #B9AD7B",
"k. c #C69C4F",
"l. c #CD9D4D",
"z. c #C1974D",
"x. c #CFA14F",
"c. c #D4A34E",
"v. c #D9A64D",
"b. c #DEAA4E",
"n. c #C2A752",
"m. c #CBA852",
"M. c #C9A752",
"N. c #D4AD52",
"B. c #DCAC51",
"V. c #D6A656",
"C. c #E4AD4D",
"Z. c #E2AE50",
"A. c #E3B052",
"S. c #EBB452",
"D. c #D9B265",
"F. c #D4B073",
"G. c #EDBE6D",
"H. c #F4C36F",
"J. c #F9C670",
"K. c #968B86",
"L. c #998D88",
"P. c #988D87",
"I. c #9C938A",
"U. c #929E82",
"Y. c #839D80",
"T. c #A79D8D",
"R. c #96A185",
"E. c #9EA48B",
"W. c #95A68A",
"Q. c #A3A78E",
"!. c #A5A990",
"~. c #AAAB93",
"^. c #ABA29A",
"/. c #B1AF98",
"(. c #B5B29A",
"). c #BAB49F",
"_. c #BBBB94",
"`. c #AAB69E",
"'. c #AAA5A7",
"]. c #BCAEA1",
"[. c #AABAA4",
"{. c #BCB5A1",
"}. c #B2BEAB",
"|. c #BFB8A3",
" X c #D6BB86",
".X c #C3B3A6",
"XX c #C2B8A5",
"oX c #C6BBA8",
"OX c #CABCAB",
"+X c #C7B7A9",
"@X c #D0BFAF",
"#X c #BAC3AD",
"$X c #BAC4B3",
"%X c #E8C994",
"&X c #F9D59C",
"*X c #FFD99F",
"=X c #D1C1AF",
"-X c #D5C5A5",
";X c #D3C2B2",
":X c #D9C6B6",
">X c #DCCAB8",
",X c #D9CAB8",
"<X c #C9CBB9",
"1X c #EDDABF",
"2X c #D3CDC8",
"3X c #CCD1C4",
"4X c #DED9CB",
"5X c #DAD6C5",
"6X c #DEDDD4",
"7X c #F1DEC2",
"8X c #F5E2C5",
"9X c #E9E2D7",
/* pixels */
"                                                                                                                                ",
"                                                                                                                                ",
"                                                                                                                                ",
"                            # # @ . @ o # #                         # @ . @ @ . @ #                                             ",
"                        # # # # + $ # # # # # #                 # # # # # $ # # $ # # #                                         ",
"                        # # + & 1 1 2 * & # # #                 # # & * 1 1 2 * $ $ # #                                         ",
"                        # # * 8 d S S d 9 $ + . @ .         # # # # $ 9 d S S d 2 $ @ . @ @                                     ",
"                        . $ 1 d ^ 5.5.^ d 1 + o . @ @ @ # # # @ @ # 2 s ^ 5.5.^ p $ @ @ @ . @ # # # #                           ",
"                        @ # 2 S 5.l.l.6.~ 8 * + * * * * $ # @ @ @ $ 2 D 6.x.x.8.~ 8 * $ * * * $ $ $ # #                         ",
"                        . # 9 D 9.v.C.l.7.~ f d d d p 9 2 $ @ @ . @ 2 ~ 8.v.Z.l.5.~ f f s s d 8 * $ # @ #                       ",
"                        O # 2 D 6.v.C.B.l.9.4.4.( ( ) ~ 8 * # @ . @ 2 ~ 9.B.S.C.x.9.8.6.6.6.( ~ p * # . @ o # # # # #           ",
"                        . # 9 S 6.V.S.S.Z.B.B.B.C.C.k.( f 2 # @ @ $ 9 f 4.c.S.S.A.B.v.b.b.c.z.-.f 2 # @ # # # # # # # #         ",
"                        . # 7 F q.D.G.J.H.H.H.H.J.G.D.t.J t - % # - r F -.0.m.N.V.N.N.N.N.N.0.-.F r - & - - & & & # # #         ",
"                        . # y J g. X%X&X&X&X&X*X*X&X%XT.f.b e < < e z A H <.w.w.e.e.e.e.e.w.2.3.G z w e w e q ; - # # +         ",
"                        . # y W T.=X1X8X8X7X8X8X8X7X>X_.s.L n k c k M C [ [  . . . . . . . .[ ] C M c n c c k e ; & # #         ",
"                        X $ y Q ^.2X9X9X9X4X4X4X4X5X<X/.Y.O.N m m N N N N _ B B N N B N _ V B N C N N N N N M h : & # #         ",
"                        X # y Q '.2X9X6X3X$X$X}.#X#X`.W.*.O._ N m _ _ N N m m N m m m m m m N N N _ _ _ _ _ M j 3 & $ @         ",
"                        . # u Q '.2X6X<X[.W.Y.*.a.Y.*.%.O._ _ N _ _ N N N N N N N N N N N N m N N N _ _ _ N M h 3 - $ @         ",
"                        X + i / '.2X2X=XW.%.' _ V V V N _ m m C N N N N N N N N N V N N N N N N B N N N N N M j 3 - # @         ",
"                        . + 6 W '.@X-X_.h.O.m v l l j j v v c M m m N _ N N N N N _ N N _ N N N N N N _ V N M j 3 & # #         ",
"                        . # 6 J g.F. Xj.f.{ m l w < : , < q e j c C C N N N N _ _ N _ _ N N V N N N N _ _ _ M j 3 & # #         ",
"                        . $ 9 D t.N.D.u.2.} n h q - & % % & - q z m N N N N N N N N N N N m N N N N N N V N M w 3 & # o         ",
"                        @ # 9 D 6.V.B.y.<.[ M h ; & @ o @ # & 3 h M N _ N N C m M M n M N N N N _ N N N M M j e 3 & # +         ",
"                        @ # 9 D 6.v.Z.y.1.[ n h 3 $ o o o @ $ 3 j M N _ ' N m c j e h j c C N _ N N N c l w e 3 > % $ #         ",
"                        @ # 2 S 8.c.b.y.1.} M h : % # @ @ # & 3 j n N _ _ N M j q ; ; q j M N _ _ N M c w 3 & & & + # #         ",
"                        @ # 2 S 7.k.m.u.,.[ M h < - & # # & - q j M N _ _ N M j q ; - e j M N _ _ N M j q - & & $ # # #         ",
"                        . $ 2 a / r.e.1...] M c h q 3 ; 3 3 q j c M m ' N N M c w e e e c M N _ N N M c w e 3 & & # # +         ",
"                        o # - r A | ....[ B N n c c j j j j c c M C N N _ V m M c j j c M N N N _ N C M M j w q ; & # +         ",
"                        # # & q z C ` ' ` B N N M C C M m M N M N N N N N N N N N M N N N N N N N N N N N N c w : & # +         ",
"                        o # & : h n m _ _ N N _ N N _ N _ V _ N N N N B N N N V _ _ N N _ N N N N N _ _ _ _ M j q & # +         ",
"                        + # & : h v m m m N N N _ N _ _ N _ N _ N N N N _ _ _ _ _ _ _ _ _ _ _ _ V _ _ _ _ _ M k 3 & # +         ",
"                        # # & 3 h M N N _ N N N N N N N N N N N N N N N N N N N N N V N N N N N N N N _ N N M h q & # +         ",
"                        + & - q x K [ ] ` B N N N N N N N N N N N N N N M Z Z M c n n c n n c n M n M M M M k e ; & # +         ",
"                        O + 1 r H ;.,... .` N N N N N N m N m N N N Z k j w w q w w q w w q w e e w w w w e e 3 - % # #         ",
"                        . + 2 S ) t.y.w.>.] N N N N N N N m N N N N Z l q ; - > > - - & > - - ; ; - ; ; ; ; ; & & # # #         ",
"                        . & 2 D 5.l.N.y.,.[ N m m N N V ` ` V { ' ' V b i 5 4 - 4 4 4 = 4 4 - & & & % # # $ # & # # # #         ",
"                        O # 2 D 8.v.Z.n.2.[ N m m N N { @.%.&.p.p.&.&.W E T U U I I I Y I ! I y = & @ o o # + + # # #           ",
"                        O + 2 D 8.v.B.n.2.[ N m m m ` @.a.R.!.~.~.!.Q.Q.I.I.P.P.L.L.L.L.I.I./ R u = @ o o                       ",
"                        O + 2 S 6.x.N.y.<.[ N m m V O.p.E.{.oX+XOXoXoX+XXX.X.X.X+X.X.X+X+X+X^.K.I = $ @                         ",
"                      . . + 2 S ) t.y.w.>.] V N { @.p.U./.+X;X:X:X;X;X;X;X:X;X:X@X:X@X:X:X2X].P.! 6 $ @                         ",
"            # # # @ @ o o @ 1 t H ;.<.>.X.` ` +.&.U.E./.|.@X:X:X:X;X:X;X:X:X;X:X:X:X:X,X>X:X.XL.T y # X                         ",
"        # # # # # # @ # o # > 0 x L } ] ` B o.&.U./.{.+XOX;X;X;X;X=X;X;X;X:X;X;X;X;X;X:X:X@X].P.T 6 $ .                         ",
"        # # # $ $ & & & $ & 4 e j M N N N N o.p.Q.XX@X:X;X;X;X@X;X;X;X;X;X@X@X@X=X=X;X:X:X@X].K.T 6 & X                         ",
"        # + & > ; 3 q q q q e h c n m m m N O.d.~.+X:X>X:X;X;X=X@X@X=X;X@X@X:X:X;X=X;X:X:X@X].K.T 6 + .                         ",
"        + # & ; e h c c c l k k Z m m m m N { d.~.oX;X:X;X;X@X;X;X;X;X;X@X;X@X@X=X;X;X:X:X@X].K.T 6 # .                         ",
"        o $ & 3 e c M N N C N B B B ` N N N O.p.E.{.OX;X;X;X;X;X;X@X@X;X@X;X@X:X;X@X@X;X:X@X].K.T 6 # X                         ",
"        + # & ; q h c n M N _ }  .:...X.] B { #.s.E.(.XXoX@X;X:X;X;X;X@X;X@X:X@X;X;X;X:X>X@X.XP.T y # .                         ",
"        # # # & ; 3 w j n N } ..1.w.w.<.| { ` { @.&.U.!.{.OX;X:X:X:X;X:X:X:X@X:X;X;X,X2X>X;X.XP.T 6 # .                         ",
"        # # # # % & ; < h n ] ,.u.M.M.e.,.] N N _ { #.s.~.XX;X;X;X;X=X;X@X=X=X=X@X=X;X;X@X@X}.I.T y # X                         ",
"          # # + + # % ; < c K ;.y.B.b.y.<.[ N m m N { &.R.~.{.{.{.).{.).{.{.).).{.).{.|..X].'./ U 4 # O                         ",
"            # + + + % > - e x 3.0.A.Z.n.<.[ B m m N _ +.&.h.W.R.R.R.W.R.R.R.R.R.U.R.R.W.W.U.Y.W u 4 + +                         ",
"              # # # + # # & r / 8.v.B.y.<.[ N m m N _ ' { +.@.+.#.+.#.+.+.+.@.+.@.@.@.@.@.$.L b e - + +                         ",
"                # # # # @ % 2 S 5.k.m.u.,.[ N m m M M M M C M C N N M M M N M C N N N _ _ _ M j q > & +                         ",
"                  # # o @ # 1 a / r.w.1...{ C n c j h h h w h w w w h w h w h l v N N N _ m Z j 3 & + +                         ",
"                      + o $ - r A | ....} ` C v w q ; ; ; ; ; - ; , ; - ; ; , w k n N N _ N Z j 3 > + +                         ",
"                        # + & q z C ` ` _ N c j q - % # # & % % + + & + % % - q j Z N _ N C c j 3 & + +                         ",
"                        + # & < h n N m M c j q - & # o + + + + + + + + + + > q j M N N M c j q ; & # +                         ",
"                        + # & : h M n n j w 5 - & # # + + +         + + + + & 3 j M M M j w q 3 & & # #                         ",
"                        # # - 3 j M M k w - & & # # $ #                 + % & 3 j M M k e 4 > + # + # $                         ",
"                        # # & ; w k k w : & # # # # # #                 + + & 3 w k k w 3 & + + + # # #                         ",
"                        + # # - 3 e q 3 > & + + # #                     + + & > 3 e q 3 > & + + + #                             ",
"                        # # # & > - - & & # # + #                       + & $ & > - - & & # # + #                               ",
"                        # # # # + & # & + + # #                         # # + # + & # & + + # #                                 ",
"                        # # # # + + + + # $ # #                         # # # # + + + + # $ # #                                 "
};
