/* XPM */
static char *_f2174e232ca4742cd49fb3e5b6b8f44DFIBrmTulpP6tTzp[] = {
/* columns rows colors chars-per-pixel */
"64 64 207 2 ",
"   c None",
".  c #2C2E3D",
"X  c #2B2B37",
"o  c #322E3E",
"O  c #2F303F",
"+  c #33323F",
"@  c #353540",
"#  c #383740",
"$  c #363941",
"%  c #3A3D42",
"&  c #423D41",
"*  c #423F49",
"=  c #3B4444",
"-  c #3E4A46",
";  c #3D4D48",
":  c #364044",
">  c #3F5246",
",  c #3E5348",
"<  c #454142",
"1  c #4D4542",
"2  c #404E47",
"3  c #43424A",
"4  c #414F48",
"5  c #4B484E",
"6  c #4B474A",
"7  c #504742",
"8  c #5A4E42",
"9  c #524943",
"0  c #4C5247",
"q  c #425449",
"w  c #455B4A",
"e  c #485F4C",
"r  c #47524B",
"t  c #575647",
"y  c #4D4B52",
"u  c #585759",
"i  c #515553",
"p  c #665644",
"a  c #6C5B44",
"s  c #675945",
"d  c #715F46",
"f  c #605A5F",
"g  c #46624C",
"h  c #4A644E",
"j  c #4B6A4E",
"k  c #476B4B",
"l  c #52634C",
"z  c #5A684D",
"x  c #4C714F",
"c  c #4D6D50",
"v  c #476B51",
"b  c #596A57",
"n  c #4E7251",
"m  c #4E7A54",
"M  c #527453",
"N  c #557D55",
"B  c #5A7E55",
"V  c #5A7E5A",
"C  c #597B56",
"Z  c #756246",
"A  c #7C6546",
"S  c #75684A",
"D  c #67724E",
"F  c #77734C",
"G  c #776959",
"H  c #657B52",
"J  c #7F7254",
"K  c #696D4C",
"L  c #665F64",
"P  c #676164",
"I  c #696365",
"U  c #6D6768",
"Y  c #6E6869",
"T  c #697B64",
"R  c #75736B",
"E  c #797579",
"W  c #736B6D",
"Q  c #826A46",
"!  c #8D7248",
"~  c #89794B",
"^  c #9C7C4A",
"/  c #967B49",
"(  c #578156",
")  c #5C8155",
"_  c #5D825B",
"`  c #658355",
"'  c #6B8554",
"]  c #62845E",
"[  c #6C8855",
"{  c #748954",
"}  c #7C8C54",
"|  c #788552",
" . c #7E9055",
".. c #658661",
"X. c #668A64",
"o. c #6C8A66",
"O. c #6F8C68",
"+. c #718D6A",
"@. c #75816E",
"#. c #75916E",
"$. c #7C9372",
"%. c #7A9877",
"&. c #7B8C71",
"*. c #9A854D",
"=. c #828C53",
"-. c #898750",
";. c #859054",
":. c #8C9354",
">. c #949453",
",. c #9B9552",
"<. c #959855",
"1. c #A98446",
"2. c #A6834B",
"3. c #AB864A",
"4. c #A58147",
"5. c #B28A4A",
"6. c #B48B48",
"7. c #AA8A59",
"8. c #A59C54",
"9. c #AA9D53",
"0. c #A59250",
"q. c #B79954",
"w. c #B7984F",
"e. c #BBA453",
"r. c #B8A75A",
"t. c #8A827D",
"y. c #819575",
"u. c #849B7C",
"i. c #8C9B7D",
"p. c #869479",
"a. c #8C9268",
"s. c #AA9372",
"d. c #8FA179",
"f. c #B9AD7B",
"g. c #CD9D4D",
"h. c #C49A4E",
"j. c #CFA14F",
"k. c #D4A34E",
"l. c #D9A54D",
"z. c #DEAA4E",
"x. c #C3A652",
"c. c #CDA952",
"v. c #D4AD52",
"b. c #DCAB51",
"n. c #D6A656",
"m. c #E4AD4D",
"M. c #E3AE50",
"N. c #EBB452",
"B. c #E4B152",
"V. c #D9B265",
"C. c #D4B073",
"Z. c #EDBE6D",
"A. c #F4C36F",
"S. c #F9C670",
"D. c #968B86",
"F. c #988D87",
"G. c #998D88",
"H. c #839D80",
"J. c #9C938A",
"K. c #929E82",
"L. c #A79D8D",
"P. c #96A185",
"I. c #9EA48B",
"U. c #95A68A",
"Y. c #A3A78E",
"T. c #A5A990",
"R. c #AAAB93",
"E. c #ABA29A",
"W. c #B1AF98",
"Q. c #B5B29A",
"!. c #BAB49F",
"~. c #BBBB94",
"^. c #AAB69E",
"/. c #AAA5A7",
"(. c #BCAEA1",
"). c #AABAA4",
"_. c #BCB5A1",
"`. c #B2BEAB",
"'. c #BFB8A3",
"]. c #D6BB86",
"[. c #C3B3A6",
"{. c #C2B8A5",
"}. c #C6BBA8",
"|. c #CABCAB",
" X c #C7B7A9",
".X c #D0BFAF",
"XX c #BAC3AD",
"oX c #BAC4B3",
"OX c #E8C994",
"+X c #F9D59C",
"@X c #FFD99F",
"#X c #D1C1AF",
"$X c #D5C5A5",
"%X c #D3C2B2",
"&X c #D9C6B6",
"*X c #DCCAB8",
"=X c #D9CAB8",
"-X c #C9CBB9",
";X c #EDDABF",
":X c #D3CDC8",
">X c #CCD1C4",
",X c #DED9CB",
"<X c #DAD6C5",
"1X c #DEDDD4",
"2X c #F1DEC2",
"3X c #F5E2C5",
"4X c #E9E2D7",
/* pixels */
"                                                                                                                                ",
"                                                                                                                                ",
"                                                                                                                                ",
"                            @ @ @ @ @ @ @ @                         @ @ @ . @ . @ @                                             ",
"                        @ @ @ @ # @ @ @ @ @ @ @                 @ @ @ @ @ @ @ @ @ @ @ @                                         ",
"                        @ @ + % & 7 1 & % @ @ @                 @ @ # & & < 1 & % # @ @                                         ",
"                        @ @ & 8 p d d p 7 % + . . @         @ @ @ @ % 9 p Z Z p 1 # . . @ .                                     ",
"                        . # < s ! 3.3.! p & o . @ . @ @ @ @ @ @ @ @ 1 s ! 3.2.! t @ @ X @ @ . @ @ @ @                           ",
"                        @ @ 1 Z 3.g.g.3.Q 8 & % & & & & @ @ @ @ . @ & A 3.j.j.5.Q 8 < % & & & % # @ @ @                         ",
"                        . @ 1 A 5.l.m.g.4.Q a a p a p 8 # @ @ @ @ @ 1 Q 6.z.M.g.4.Q d a a a p 8 & @ @ . @                       ",
"                        . $ 1 A 3.l.m.m.h.6.1.1.^ ^ / d 8 & @ @ @ @ 7 A 6.z.N.m.g.w.5.5.3.3.^ Q p & . @ @ @ @ @ @ @ @           ",
"                        @ @ 1 A 3.l.N.N.B.M.l.b.m.m.h.^ d 1 @ @ @ @ 1 A 1.k.N.N.m.n.l.l.z.k.h.^ a 1 @ @ @ @ @ @ @ @ @ @         ",
"                        . @ 6 S 7.C.Z.A.A.A.A.S.S.Z.V.q.~ y = $ @ $ 0 S *.w.c.v.n.v.v.v.v.v.q.*.S t = % = = = % $ @ @ @         ",
"                        X @ 6 Y s.].OX+X+X+X+X@X@X+XOXL.a.b w , , , l K J >.,.8.9.9.9.9.9.8.,.-.K l w w q w q - = @ @ @         ",
"                        X # y R L.#X;X3X3X2X2X3X3X2X*X~.i.H n k v n M C ` ' { { { { { { { { { ` C M c c c c h w - $ @ @         ",
"                        X # y E E.:X4X4X4X,X,X,X,X<X-X^.u.X.N M m N N N ( B B B N N B N ( ( N N N V N N V N M h 4 % @ @         ",
"                        X @ y E /.:X1X1X>XoXXXXXXX`.).U.%.X.( ( N ( ( N ( m m m m m m m m m m N N N ( ( ( ( M h 4 % @ +         ",
"                        X @ i E /.:X1X-XXXU.%.%.u.H.%.#.X.( V N ( ( N N N m N N N N N N N N N N N N ( ( ( N M g 4 = @ +         ",
"                        X # y E /.*X<X$XU.#._ ( B V _ V ( N N N N N N N N N N N N N N N N N N C N N N N ( N M e 2 % @ +         ",
"                        . @ y R L..X$X{.d.X.m v k k h k v v v c n N N ( N N N N N ( N N N N N N N N N ( N B M h 4 % @ @         ",
"                        . # 5 G s.].].f.d.] m k , , > > ; q w g c N N N N N N ( ( V ( N N N N N N N N ( ( V M g 4 % @ +         ",
"                        . # 9 S 0.v.V.x.:.[ x g > - = + + % 3 q h n N V V N N N N N N N N N N N N N N N N N M g ; = @ +         ",
"                        . @ 7 A 5.k.v.e.<.' x g ; % + o + + % ; g M N ( ( N V M M M n n N N N N ( N N N M M h w - % @ +         ",
"                        @ @ 7 A 5.l.z.x.>.' n g > + + o + + % ; g n N ( ( N M c h e g h c N N V B N N c v e r - = $ @ +         ",
"                        . @ 7 A 1.k.b.e.<.' M g ; $ @ o o @ % 4 g M N ( ( N M h q - 4 q c M N ( ( N M h w 4 = % @ + @ #         ",
"                        O @ 1 Z 4.g.c.e.:.' M g , = % @ @ % = q h M N ( ( B M h r = = q g M N ( ( V M h q = % @ + $ @ @         ",
"                        O @ < s ~ 0.8.<.} ` M v e q ; ; 4 4 q g c M C ( N N M c w q r w c M N ( ( N M c e q = = = $ + +         ",
"                        + @ = t K | } } [ ) N n c c h h h h c c M N N N N N N M c c h c M M N ( ( N N M n h e q = % @ +         ",
"                        @ @ % r l C _ _ ) ( N N N M M N M M N M N N N N N N N N N M N N N N N N N N N N N N c e 4 % @ +         ",
"                        @ @ % ; g c m m N N N ( N N ( N N ( ( N N N N B N ( B N ( ( N N N ( N N N N ( ( ( ( M g q % @ +         ",
"                        @ @ $ ; w n m m N N N N ( ( V ( ( N ( B N N N N N ( ( ( ( ( ( ( ( ( ( V ( ( ( ( ) ( M h 2 % @ +         ",
"                        o @ % 4 g M N N ( N N N N N N N N N N N N N N N N N N N N N B N N N N N N N N ( ( N M g ; = @ +         ",
"                        @ @ = 0 z H ` [ ) B N N N N N N N N N N N N N M M M n n n n x j n x c M M M c M M c j w 2 % @ @         ",
"                        @ @ < t F -.:.;.{ ) N N N N N N m m N m N N n k k w w q q w w w w w w w w w w e e e q 4 % % @ @         ",
"                        . @ 6 a / q.e.,.=.` N N N N N N N m N N N N n k w - : : : = = = : = = = = = 3 - = - = = % @ @ @         ",
"                        @ @ 1 Z 2.j.v.e.>.' N m m N B ( ( ` _ ] _ _ V b i 4 3 < * 3 * 3 < 3 = % % % $ + @ $ @ $ @ @ @ @         ",
"                        X @ & A 5.l.b.x.<.' N m m M ( ..O.$.$.$.$.$.&.@.T I P L L L L I L L L y 5 $ + o + + + + @ @ @           ",
"                        @ @ 1 Z 5.l.B.x.<.' N m m m ( O.p.P.T.R.R.T.Y.L.J.J.G.G.G.G.G.G.G.G.t.Y u * + o o                       ",
"                        @ @ 1 A 3.j.v.e.>.' N m m V X.y.I.!. X|.|.}.|.}. X X[.[.[.[.[. X|.[.E.D.L 5 @ .                         ",
"                      . @ @ 1 Z / w.e.8.=.` V V ] O.y.K.W.|.%X&X%X%X%X%X%X%X%X%X%X&X&X*X*X.X(.G.Y 5 @ .                         ",
"            @ @ @ @ @ . o @ & t F :.>.;.[ ) _ X.$.K.I.W.'.|.%X&X&X%X&X&X&X&X&X&X&X&X&X*X=X&X'.G.U y $ X                         ",
"        @ @ @ @ @ @ @ . @ @ = 0 z H [ ` ) ) ] &.K.W.'.}..X.X%X%X%X%X%X%X.X&X%X%X-X.X.X&X&X.X(.G.U y # X                         ",
"        @ @ @ # % % % % @ % = q l n ( m N B ..p.T.[..X%X%X%X.X.X#X#X%X%X.X%X.X&X.X%X%X&X&X.X(.D.U 5 @ .                         ",
"        @ @ @ = = 4 q 4 4 q w e c n m m m B ] u.R.|.&X*X&X%X%X%X%X%X#X%X%X%X.X.X%X.X%X&X&X.X(.D.U 5 # X                         ",
"        @ @ % = q g c c c h k n n m m m m N ] p.T.}.%X&X&X%X%X%X.X%X.X%X%X.X.X%X%X.X%X&X&X.X(.G.U 5 @ .                         ",
"        o @ % 4 e c M N N N N N B B ) N m ) ] y.I._.|.%X.X%X.X.X.X#X%X.X%X%X.X.X%X%X.X&X&X.X(.G.U 5 @ .                         ",
"        @ @ % = q h c M M N ) [ { =.=.| ` B ] #.i.Y.W.'.|..X%X&X&X.X%X.X%X.X&X&X%X.X%X&X&X%X(.G.Y 5 @ .                         ",
"        @ @ $ = = 4 w h c N ` ;.<.9.9.>.} ` ( ..+.$.K.Y.'.|.%X&X&X&X&X&X&X%X&X.X%X&X&X*X=X&X(.G.U 5 + .                         ",
"        @ @ @ $ $ % = , g M ` :.9.c.c.9.:.` N N ( ..+.i.R.}.#X%X#X#X#X#X.X#X.X%X#X#X%X%X&X.XQ.D.U y @ X                         ",
"          @ @ + + + % = , c H =.9.q.e.9.:.` ( m m N _ $.d.W.!.'._._._._._._.!.!._.!.!.{.[.Q.T.t.P 3 @ O                         ",
"            @ + + + $ = - r e F -.,.,.:.{ ` ( m m N ( O.y.i.I.d.U.P.P.P.P.P.P.K.K.P.K.P.P.K.p.R u 3 $ o                         ",
"              @ + @ @ $ $ % r e D ' { [ ` B N N ( N V _ ] o.+.+.O.O.O.O.O.O.O.O.O.O.+.+.+.+.T b r = + +                         ",
"                @ @ @ @ + $ = 2 h M V B C N M M n M M M M C M M M M N M M M N N N N ( ( ( N M h q = $ +                         ",
"                  @ @ + + + % ; g n m n c h g g g g g g e w g w w g w w w g g k c n M ( ( m x g ; % + +                         ",
"                      + + @ % q h M M c e q 2 - 2 2 - ; - 2 ; > - - - - - - > w k n ( ( ( N M h q % + +                         ",
"                        + @ % 2 g c M g q = $ $ + % + % + + + : + $ $ $ $ $ = q h x N ( B N c g - % + +                         ",
"                        + @ % - w g g w 3 % + + + + + + + + + + + + + + + @ % 4 g M N N M c g q = % @ +                         ",
"                        @ @ $ % = q 4 = = @ + + + +                 + + o + $ q h M M M h w q = % % @ @                         ",
"                        @ @ @ % % % % % $ $ + $                         + + % q h M M j w 3 % % $ @ $ +                         ",
"                        @ @ @ + @ @ @ # + + @ +                         + + % ; e h j w 4 % + + + @ + $                         ",
"                            @ + + + + + + @                             + + % = 2 q q 2 = % + + + @                             ",
"                                                                        @ $ @ % = = = % % @ @ + @                               ",
"                                                                        @ @ @ @ % @ @ $ + @ @ @                                 ",
"                                                                        + @ @ @ + + + + + @ @ @                                 "
};
