/* XPM */
static char *bcaaf33ad0fe4fe6ca7a17cca82b3be3HXclhbmEqPKb2tyr[] = {
/* columns rows colors chars-per-pixel */
"64 64 213 2 ",
"   c None",
".  c #2B2B37",
"X  c #2B2E3D",
"o  c #312D3E",
"O  c #2F313F",
"+  c #33313F",
"@  c #2E3641",
"#  c #353540",
"$  c #383740",
"%  c #363941",
"&  c #3A3D42",
"*  c #413D41",
"=  c #413F49",
"-  c #3B4444",
";  c #3D4B46",
":  c #3D4E48",
">  c #3E5046",
",  c #3E5248",
"<  c #444242",
"1  c #4D4542",
"2  c #404E47",
"3  c #4F4B45",
"4  c #414F48",
"5  c #4B494E",
"6  c #47464D",
"7  c #564C43",
"8  c #594E43",
"9  c #504742",
"0  c #425247",
"q  c #425249",
"w  c #455C4B",
"e  c #485F4C",
"r  c #455747",
"t  c #5D5044",
"y  c #535848",
"u  c #4D4B53",
"i  c #524E55",
"p  c #575258",
"a  c #5A585A",
"s  c #4E5752",
"d  c #635544",
"f  c #6C5B44",
"g  c #655B46",
"h  c #715E45",
"j  c #46624C",
"k  c #4A644D",
"l  c #4B694F",
"z  c #446A4A",
"x  c #55684D",
"c  c #4D734E",
"v  c #4C6C50",
"b  c #4E6550",
"n  c #576851",
"m  c #4D7251",
"M  c #4D7A53",
"N  c #517553",
"B  c #5B7652",
"V  c #547D55",
"C  c #5A7E55",
"Z  c #5C7E5A",
"A  c #577F5A",
"S  c #6B6E4C",
"D  c #656C4C",
"F  c #746146",
"G  c #7B6546",
"H  c #756649",
"J  c #7D6A4B",
"K  c #73764E",
"L  c #786955",
"P  c #637757",
"I  c #6B7258",
"U  c #635D61",
"Y  c #6D6768",
"T  c #6A6466",
"R  c #786E65",
"E  c #797576",
"W  c #677763",
"Q  c #846B46",
"!  c #897649",
"~  c #937445",
"^  c #957748",
"/  c #957A4A",
"(  c #987848",
")  c #A17F48",
"_  c #867C7A",
"`  c #897F7D",
"'  c #857F61",
"]  c #578156",
"[  c #5D8155",
"{  c #5C825B",
"}  c #648355",
"|  c #6A8555",
" . c #63855E",
".. c #6B8856",
"X. c #728452",
"o. c #748B55",
"O. c #7C8B54",
"+. c #7B8351",
"@. c #658662",
"#. c #668964",
"$. c #6A8A66",
"%. c #6D8467",
"&. c #728D6A",
"*. c #73876B",
"=. c #7C9472",
"-. c #7E9A78",
";. c #72916D",
":. c #8B844F",
">. c #828E54",
",. c #898B52",
"<. c #9A8F51",
"1. c #859154",
"2. c #8B9254",
"3. c #939654",
"4. c #979855",
"5. c #9F844C",
"6. c #A3824B",
"7. c #AC864B",
"8. c #AE884A",
"9. c #AF8647",
"0. c #B08749",
"q. c #B58C4B",
"w. c #AA8B58",
"e. c #A59B53",
"r. c #AB9D53",
"t. c #A49451",
"y. c #B39B52",
"u. c #BC9147",
"i. c #AFA053",
"p. c #BAA453",
"a. c #B8A555",
"s. c #8F9D6E",
"d. c #8B867E",
"f. c #819575",
"g. c #8C9C7E",
"h. c #879778",
"j. c #AA9372",
"k. c #91A47F",
"l. c #B9A76D",
"z. c #C2964D",
"x. c #C59E4F",
"c. c #CC9D4D",
"v. c #CFA14F",
"b. c #D4A24D",
"n. c #D9A54D",
"m. c #DDAA4F",
"M. c #C1A652",
"N. c #C7A852",
"B. c #DBAD51",
"V. c #D4A858",
"C. c #DFB052",
"Z. c #EAB14F",
"A. c #ECB250",
"S. c #E2B152",
"D. c #E6AE4C",
"F. c #D5B270",
"G. c #EDBA61",
"H. c #F2BE62",
"J. c #968B86",
"K. c #998E88",
"L. c #949D83",
"P. c #919381",
"I. c #8E8780",
"U. c #A89C92",
"Y. c #A79886",
"T. c #96A185",
"R. c #99A387",
"E. c #98A78C",
"W. c #96AB92",
"Q. c #95AB8F",
"!. c #A4A98F",
"~. c #A2A78E",
"^. c #A7AB91",
"/. c #ABAC94",
"(. c #A7A09A",
"). c #B5A79C",
"_. c #B4AA9B",
"`. c #B9AB9F",
"'. c #B6B59B",
"]. c #AEB48F",
"[. c #AAA4A5",
"{. c #BCAEA1",
"}. c #BDB5A1",
"|. c #D3B88C",
" X c #E0BE82",
".X c #C0B5A4",
"XX c #C5BAA7",
"oX c #C6BBA9",
"OX c #CABDAB",
"+X c #D0BFB0",
"@X c #B7C2AF",
"#X c #D7C28F",
"$X c #F8CF8B",
"%X c #FDD28C",
"&X c #EEC887",
"*X c #D6C4AA",
"=X c #C4CABA",
"-X c #C6CBBA",
";X c #D3C2B2",
":X c #D9C6B6",
">X c #DCCAB8",
",X c #D7CBB8",
"<X c #F6DDB7",
"1X c #FADFB9",
"2X c #EDD6B2",
"3X c #FCE0BA",
"4X c #D3CDC9",
"5X c #D6D7CA",
"6X c #E6DCCC",
"7X c #EADFCF",
"8X c #E0DED7",
"9X c #E9E1D5",
"0X c #F1E5D4",
/* pixels */
"                                                                                                                                ",
"                                                                                                                                ",
"                                                                                                                                ",
"                                                                                                                                ",
"                                                                                                                                ",
"                                                                                                                                ",
"                                                                                                                                ",
"                          # # # # O O # # # #                     # # # # O O # # # #                                           ",
"                        # # # $ & * * * + + + #                 # # # $ & = * * $ $ $ #                                         ",
"                        # # $ 1 8 d d 8 1 * @ O O             + # # $ 1 t d d 8 * $ # # @                                       ",
"                        + # < d G / ^ G t & + O X @ O O % + + + # $ < d Q ^ ^ Q t * @ X @ @ @ @ # # #                           ",
"                        X # 1 h 6.z.z.6.G 1 + + # # & + + & + + X # 1 F ) z.z.) h * # @ # # # $ # # # #                         ",
"                        @ # 1 G 8.n.B.z.( h t 7 7 7 9 1 * + + O @ + 9 J q.n.B.z.) h t 8 8 t 7 1 * $ # + #                       ",
"                        X # 1 G 8.n.D.b.u.) ~ ~ ~ ~ Q f 7 * + + X + 9 G q.m.A.B.z.) ( ( ^ ^ Q h 8 * # X X # # o # #             ",
"                        @ $ 1 G 7.b.A.A.m.v.c.c.v.v.q.~ f < # X @ # 1 G 0.n.A.A.D.v.c.c.v.c.q.^ f < # # @ # # # # # #           ",
"                        @ # 1 H w.V.G.H.H.A.G.H.G.A.V.w.L 3 & @ @ $ 9 H 6.x.B.S.S.m.B.C.S.V.c.6.H 3 & # % & $ % % # # #         ",
"                        X # 5 L j.F.&X$X$X$X$X%X%X%X#XF.K n q ; ; , y S :.t.y.a.p.p.a.p.p.p.r.:.S y , , 4 4 ; - & % # #         ",
"                        X # u R Y.*X2X<X<X<X<X3X3X<X*X].h.W l j j l x B K O.1.1.1.1.1.2.2.>.>.| P x l l l k k q - & # o         ",
"                        . # i E U.4X7X0X0X5X6X9X6X5X5X'.g.$.V c M N V V ] ] { [ [ [ [ [ C P { C V V V V V V v e 4 & # #         ",
"                        . # u E [.4X8X9X5X4X=X=X4X@X@XW.f.#.] V V ] ] ] V V M V M V M V M V M V V ] V V ] V N k q & # #         ",
"                        . % i E [.5X7X5X@X/.W.Q.Q.Q.T.-.;. .] V ] ] ] V V V M M V M M V V M V V V V ] ] ] ] N e 4 - # o         ",
"                        . % u E [.,X5X-XW.-.#.#.@.#.#.{ { V V V V V V V V V V V V V V V V V V V V V V V ] V N k : & # #         ",
"                        X # i E ^.;X>X'.k.#.] c c c v c m m N N N V V V V V V V V V V V V V V V V V V C ] V N k 2 & # o         ",
"                        X # u L j.|.#X].s. .c z j w r , q w e b N N V V ] V V V ] V A ] V V C V V V ] ] ] ] N k 4 - # #         ",
"                        X + 3 L w.F.F.a.4. .N j , ; - - & - 2 w l N V V ] V V ] V V C V V V V V V V V C ] V N k 4 & # #         ",
"                        O % 3 G w.V.C.M.3...N j , - # X # # & 4 k N V C V V V V V N N V V V V V V V V V V N l e ; & # o         ",
"                        X + 1 G 9.n.C.p.3...m w ; % + o o o & ; j N V ] ] V V v v k b b N V V V C V V N v l w q - & # #         ",
"                        O + 9 G 9.n.C.M.4...N j ; % + o o # & 2 k N V V ] C N l w q q w b N V V V V N l e 4 - - % % # #         ",
"                        X # 1 H 7.v.b.a.3.} N j , - # # # % - 4 l N V ] ] V N l q - ; q k N V ] ] V N b q - & # # # # #         ",
"                        @ # 1 F / y.p.e.1.} N z w : ; - & ; 4 w l N V V ] V N l r 2 2 r b N V ] ] V N v w 2 - & $ % # #         ",
"                        X # < y K :.3.1.o.[ V c k j e w w w e b N N C A V V N v k e e l m V V ] V V V N l e r ; - & # +         ",
"                        # # & 3 x P | } [ ] ] N m N N v N N N N V V V V V C V V N N N N N V C V V V V N V m b w ; & # +         ",
"                        + # - 2 j m V ] V V V V V V V V V V V V V V V V V V V V ] ] ] ] V V V V V V V ] ] V N k 0 & # o         ",
"                        + # & ; , m M M V A V V [ V ] ] ] [ V ] V V V V C V ] ] ] ] ] ] ] ] ] ] ] ] ] ] { ] N k ; - # #         ",
"                        + # & 2 k m V V V V V V V V V ] V ] ] V V V V V V V A C ] ] ] ] V ] V ] C V V ] ] V N k q - # o         ",
"                        + + & 4 b A [ } ] V V V V V V V V V V C V C V V V V N N N N N N M N N N N N V V V N v e ; & # #         ",
"                        o # = y D +.>.o...C V V V V V V V V V M V V N c l z j j k j k w k j j k k k k v k k e q ; $ # #         ",
"                        # o * f ! t.r.4.O.} V V V V ] M V N M M M M m l w > ; - - 2 ; ; ; - ; 2 ; 2 ; q 4 4 ; - & # # #         ",
"                        @ # 9 h 6.c.V.i.2...V M V V V V C A C ] ] C N l r 2 - & & & - & & & & & - & $ & & & % % % # # #         ",
"                        @ $ 9 h 0.n.B.p.3...V M M V V } @.$.&.&.&.&.%.W T a p p p p p p a p i 5 = $ # + + + # # # # #           ",
"                        @ # 9 Q 0.B.S.N.4...C m M M C #.=.g.T.R.R.R.L.P.d.d._ _ _ ` _ ` ` _ E U i - + + X +                     ",
"                        X # 9 J 0.n.C.M.3. .V M M V  .=.L./.}..X}.'.}.}.`.).).).).).).{.{.).U._ U 6 + o                         ",
"                        X # 1 h ) x.N.r.2.} V A A @.&.L./.oX+X;X;X+X+X+X+X;XOX*X+X;X+X;X;X+X{.J.Y 5 $ X                         ",
"                      X X # * g ! <.e.2.O.} ] @.&.=.L.^.}.OX:X:X:X:X;X:X:X:X:X:X:X:X:X>X>X:X}.K.Y 5 + X                         ",
"          # # # # # + + + + & y D X.o.o.} [  .&.g.~._..XoX;X;X;X;X:X;X;X;X;X;X:X;X;X;X,X:X;X}.K.Y 5 # X                         ",
"        # # + % $ $ # % # % - q b B C V V V @.f.~.}.OX;X;X;X;X;X+X+X;X+X;X;X+X;X;X;X;X:X:X;X{.J.Y 5 + X                         ",
"        + % % & - ; 2 ; ; 2 , w k m M M M A @.h.^.oX:X:X;X;X;XOX;X;X+X;X;X+X;X;X;X;X;X:X:XOX{.J.Y 5 $ X                         ",
"        + + & - 2 w e k e k k l v M M M M V #.h./.oX:X>X:X;X;X;X+X;X;X;X;X;X;X+X;X*X;X;X:X;X{.J.Y 5 + X                         ",
"        + $ - ; w l N N N N N V V V V V M V @.f.!..X;X;X;X;X;X;X;X;X+X+X+X;X;X+X;X+X;X:X:X+X{.J.Y 5 # X                         ",
"        + + & ; w l v N V V C } | X.X.| C [ @.;.L./.}.OXoX;X;X;X;X;X;X+X;X;X;X;X;X;X;X;X:X+X{.J.Y 5 + X                         ",
"        + % % - 2 r k v N V } o.2.4.4.2.X.[ [ $.;.g.R._..X*X;X:X:X:X:X:X:X;X:X;X;X:X:X>X>X;X.XK.Y 5 + +                         ",
"        # + # & $ - 2 w v V } 1.r.M.M.r.1.| [ V  .$.=.T._.oX;X:X:X+X+X:X;X;X;X;X;X;X;X:X>X;X}.J.Y 5 + .                         ",
"        % + + # + % & ; , v P 2.r.N.N.y.2...A M N ] $.f.R.'.XXOXOXXXXXXXXXXXoXXXoXoXoXOXOXXX).d.Y 5 $ .                         ",
"          # % + + + % - , e B K <.r.r.4.O.} V M M V { $.h.R.!.^.^.!.!.!.!.!.!.!.!.!.^.^./.^.L.E a 2 # X                         ",
"              + + # % % - ; r n K O.O.O...[ V M V ] ]  .$.;.f.f.f.=.f.=.=.=.f.=.=.=.=.=.f.=.*.P s < % @                         ",
"                # # # # + $ - 3 b B [ C C V V V V N V V { Z Z Z Z Z Z Z Z Z Z Z Z Z Z { Z Z N k q - # #                         ",
"                  # # + + % & - , j l v l v v b l l l k l z l k k k l l z k l k l z k l l l j , - & # #                         ",
"                    # + + + # - - ; , , , , q q q q q , q > > > > ; > > > > > > > ; > > > > ; ; - # # #                         ",
"                        # # + % & & & & & & - & - & - & & & & & & - - - & ; & & - & & & - - & & # # # #                         ",
"                        + # # # # # # # # # # # # # # # # # # # + + + + + + + + # # # # + + + + # # # #                         ",
"                            % + + + + + # # o + + + o # + + o # + + + + + + + + + o # + # o # # # #                             ",
"                                                                                                                                ",
"                                                                                                                                ",
"                                                                                                                                "
};
