/* XPM */
static char *_458d88a33334858a866475e00a21ea3CejhWqE3Q2lN8r3Y[] = {
/* columns rows colors chars-per-pixel */
"64 64 168 2 ",
"   c None",
".  c #2B2B37",
"X  c #2D2E3A",
"o  c #2F303C",
"O  c #32333C",
"+  c #4A433C",
"@  c #353541",
"#  c #383745",
"$  c #3A3945",
"%  c #3E3C4C",
"&  c #3E3C51",
"*  c #403E4D",
"=  c #423F52",
"-  c #4D4542",
";  c #44434D",
":  c #534B4F",
">  c #434054",
",  c #4D4C54",
"<  c #464359",
"1  c #49455C",
"2  c #4E4B5A",
"3  c #494751",
"4  c #504F56",
"5  c #504C5C",
"6  c #54525A",
"7  c #5B5A5F",
"8  c #58565E",
"9  c #4C4762",
"0  c #4E4963",
"q  c #514B66",
"w  c #534D69",
"e  c #5E5465",
"r  c #5C5A60",
"t  c #57506E",
"y  c #5A546F",
"u  c #584F72",
"i  c #575070",
"p  c #595272",
"a  c #5E557A",
"s  c #605B6B",
"d  c #60577C",
"f  c #61587D",
"g  c #6B5E7F",
"h  c #605974",
"j  c #626065",
"k  c #65616C",
"l  c #6D6A6E",
"z  c #69666C",
"x  c #6E6A71",
"c  c #6D667C",
"v  c #706E70",
"b  c #767375",
"n  c #75717A",
"m  c #7C797B",
"M  c #797678",
"N  c #846C44",
"B  c #866D48",
"V  c #846C54",
"C  c #826D69",
"Z  c #807D7E",
"A  c #BD934D",
"S  c #B48E58",
"D  c #B79058",
"F  c #A6866D",
"G  c #B7926D",
"H  c #C39747",
"J  c #C0954D",
"K  c #CD9F5A",
"L  c #D9A74F",
"P  c #DFAA4A",
"I  c #655B83",
"U  c #685E87",
"Y  c #6A5F8A",
"T  c #6D618D",
"R  c #6A6281",
"E  c #7E6C81",
"W  c #72688B",
"Q  c #7D768A",
"!  c #7B7484",
"~  c #6F6391",
"^  c #726594",
"/  c #756995",
"(  c #7B6E95",
")  c #75679A",
"_  c #76689A",
"`  c #796B9D",
"'  c #7E7299",
"]  c #7768A0",
"[  c #7C6DA3",
"{  c #7D6EA8",
"}  c #7F70A6",
"|  c #816E83",
" . c #837F81",
".. c #957C84",
"X. c #806F99",
"o. c #857296",
"O. c #897597",
"+. c #867398",
"@. c #877C9C",
"#. c #8171A6",
"$. c #887AA7",
"%. c #8171A9",
"&. c #8B7DAA",
"*. c #8779A6",
"=. c #848182",
"-. c #8E8A8A",
";. c #8B878A",
":. c #9E8284",
">. c #938E8D",
",. c #95918F",
"<. c #8F869C",
"1. c #958D9A",
"2. c #969096",
"3. c #9A9594",
"4. c #9F9B98",
"5. c #9E9A96",
"6. c #A29C9B",
"7. c #A6A19F",
"8. c #8E82A3",
"9. c #9385AE",
"0. c #9B8FAB",
"q. c #9588A9",
"w. c #9D93A4",
"e. c #9B8DB3",
"r. c #9F92B4",
"t. c #A69CAB",
"y. c #A194B5",
"u. c #AA9DBA",
"i. c #A79AB8",
"p. c #A9A3A4",
"a. c #AEA9A4",
"s. c #B0AAA7",
"d. c #B4ADA9",
"f. c #B6B0AB",
"g. c #ADA0BD",
"h. c #B8AFB7",
"j. c #B6ABBA",
"k. c #BCB5B2",
"l. c #BBB0BE",
"z. c #C5BDBE",
"x. c #CAC3BD",
"c. c #C7C0BB",
"v. c #B2A4C1",
"b. c #B9AEC0",
"n. c #BEB1C5",
"m. c #C2B7C5",
"M. c #C6BAC9",
"N. c #C8BDCA",
"B. c #C5B9C6",
"V. c #CEC7C1",
"C. c #CDC1CD",
"Z. c #D3CBC4",
"A. c #D2C8C8",
"S. c #D0C6CB",
"D. c #D8D0C7",
"F. c #DCD4CC",
"G. c #D5C9D2",
"H. c #DED4D3",
"J. c #E0D7D3",
"K. c #E6DDD5",
"L. c #E6DCD8",
"P. c #E8DEDA",
"I. c #E8DFD6",
"U. c #EEE4DC",
"Y. c #F5ECE1",
"T. c #F9EFE3",
"R. c #FDF3E6",
"E. c #FFFAEC",
/* pixels */
"                                                                                                                                ",
"                                                                                                                                ",
"                                                                                                                                ",
"                                                                                                                                ",
"                                                                                                                                ",
"                                                                                                                                ",
"                                                                                                                                ",
"                                                                                                                                ",
"                                                                                                                                ",
"                                                                                                                                ",
"                          @ O O X . . . . . . . . . . . o O O o O O O O O O O O O O O O O O O O O O O O O O O O O @ @           ",
"                        @ @ @ @ # @ $ $ $ $ $ $ $ $ # $ # O @ # @ @ @ O @ @ @ @ @ @ @ O @ @ @ @ # O O # # O # @ @ @ O @         ",
"                        O @ $ ; , 6 7 r r r r r 7 7 8 6 2 < = = > > > = > > > = > > > > = > > > > > > > > = = * $ $ @ O         ",
"                        O @ * 6 l Z >.>.,.>.>.,.,.,.;. .c h p t w p t p i p y p y p t y i p t p y t p p p y w 1 = $ @ O         ",
"                        X $ 3 z >.d.x.x.x.x.x.x.x.x.k.t.<.( ~ Y T T T T T T T T T T T T T T T T T T T T ~ T I p 1 % @ O         ",
"                        . O , b 6.Z.U.U.P.J.H.J.J.H.S.b.e.*.[ ` ] [ [ [ [ [ [ ] [ ] [ [ [ [ [ ` [ [ ` { { ` ^ d 0 % @ O         ",
"                        . @ , m a.F.U.U.H.C.N.N.N.N.n.u.e.$.#.[ [ %.%.%.#.%.%.%.%.%.%.%.%.} } } #.#.{ #.%.{ ^ I q % @ O         ",
"                        . @ , m a.D.P.H.M.u.y.y.y.y.e.9.&.%.#.{ [ #.{ #.%.{ #.#.} %.} } } } } } { [ [ #.#.[ ^ f 9 * @ o         ",
"                        X $ , M p.V.F.N.u.9.%.%.#.#.#.#.#.[ [ ` ] ] ` ` ` ` ` ` ] ` _ _ [ ` ` ` ` [ [ { #.[ ^ f 0 * @ O         ",
"                        . @ 3 x 2.h.n.v.e.*.] ] ] ` ] [ [ [ ` _ ^ T U U I U U U U U U U U U T ^ _ ` [ #.#.[ ^ d 0 * @ o         ",
"                        O # 3 s Q 0.y.e.&.#.] ` ] ] [ [ { [ ` ~ d p q q q q q w w w w 0 0 w t a ~ ` { #.%.[ ^ d 0 % O O         ",
"                        X O * q R +.$.$.*.{ { ] ] [ [ [ #.[ ^ I w < % % % % * % % % % % * * < t I ^ [ %.#.[ ^ f 0 % @ O         ",
"                        O O % 0 I ~ ] #.[ [ [ [ [ [ ] ` ) ~ I u < % O O O O @ @ O @ O O O O $ 1 p I ^ _ ] ` ^ d 0 * @ O         ",
"                        O @ % 9 a ~ ` [ [ [ [ [ [ [ ` ~ I u w = % O X . o O O O O O O O o O # * < q u U ^ _ ^ f q % @ O         ",
"                        o @ % 0 I ^ [ { [ [ [ #.[ [ ) U t 1 = # @ o o o O O O O O @ @ O @ @ $ $ $ & 1 p Y ^ ^ I q % @ o         ",
"                        O @ % 0 a ~ ] { [ [ [ [ [ [ ^ U y 2 3 ; ; 3 ; * $ O O $ @ @ @ O O @ O $ % 3 5 p T ^ ^ a q % @ O         ",
"                        O @ * 0 d ^ [ #.[ [ [ [ [ [ ` ( ! n b M M M l s : * $ O O @ @ @ O @ * , 7 l n ! ( ` ^ I 0 % @ O         ",
"                        O @ % 0 f / ` { #.[ ] [ [ ` *.8.w.p.s.d.f.s.6. .j 3 O O o @ @ O o @ ; j F 6.p.t.q.*.~ I 0 % @ O         ",
"                        O @ % 0 f ^ [ #.[ [ [ ` ` [ $.y.l.Z.J.K.U.F.c.6.b , O O o @ O O o @ , b w.z.S.m.u.&.^ a 9 % O O         ",
"                        O @ * 0 d ^ [ [ [ [ [ [ ` [ &.i.N.L.Y.R.R.Y.F.a.m , @ o o @ @ o o @ , Z s.D.L.G.v.&.^ a 9 % @ o         ",
"                        O @ % 0 f ^ ` #.#.[ [ ] ] [ &.u.N.P.T.E.E.Y.J.d.m 4 @ X o O O o o @ 4 Z f.H.L.G.v.&.^ a 9 % @ O         ",
"                        O O % 0 d ^ [ #.[ [ ] ` ] #.&.i.B.J.U.T.T.U.Z.p.m , @ o o @ @ o o @ , m s.A.H.C.u.&.^ a 9 % @ O         ",
"                        o @ * 0 d ^ ] #.#.[ [ ] ` [ $.0.j.z.x.D.D.x.k.,.l , O O O @ @ O X @ : v 3.f.z.z.y.$./ d 9 * @ O         ",
"                        o @ * 0 f ~ #.[ [ [ [ [ [ [ #.@.;.3.5.5.6.5.>.M 7 ; # O O @ @ o O @ * e b -.>.<.&.X.^ d 9 * # o         ",
"                        O @ * 9 d ^ [ #.[ [ [ [ [ [ _ W c s s s j j j 6 ; $ O O O @ @ O @ @ * * 4 7 s c / / ^ I 9 * @ o         ",
"                        o @ * 0 f ^ [ [ #.[ ` #.{ [ / I y 1 * % $ $ $ O $ # @ @ @ @ @ @ @ @ O @ * * 1 p U / ^ d 0 * @ o         ",
"                        O @ * 0 d ^ ` #.{ [ ` [ [ [ / U a 0 = % @ O o o O O O # @ @ @ @ O O O * * = 9 a Y ) ) I 9 * O O         ",
"                        o @ * 0 f ^ [ #.#.` [ #.[ [ ` ^ Y d u 9 & O o o O O O O @ @ O O O O # = 9 u I T ) ) ~ d q * # O         ",
"                        o @ * 0 f ^ ` #.{ [ [ [ ` [ [ [ ` ) T d 9 % @ O @ O $ O @ @ @ O O * * 9 d T ) ` #.` ~ d 9 * O O         ",
"                        o @ * 0 f ^ ] #.#.` [ [ [ [ [ { #.{ / U p 9 > % $ # @ O o @ @ @ * * 9 u U / #.%.%.#.~ I 9 * # O         ",
"                        O # * 9 d ^ #.#.[ ] #.] [ [ [ } #.[ ` ^ U d w 9 * # X X @ @ @ & 9 w a Y ^ ` { %.%.#.^ f q * @ O         ",
"                        O O * 0 d ^ ] [ [ [ ] #.` [ [ [ [ [ [ _ _ ^ U p 1 * @ X X @ & < u I ^ ) ` [ [ #.#.[ ^ d 0 % O O         ",
"                        O O * 9 f ^ X.#.#.` #.] ` } [ [ [ [ [ [ } ` ^ g s : + + - - 3 e I ^ ] %.{ [ [ ` ` ^ Y a 1 * @ O         ",
"                      O o O * 5 d ^ [ #.#.#.] #.[ [ [ [ [ [ [ { { { X.| C V B N N B V C | X.%.%.{ [ ` ^ Y I p 9 = $ @ O         ",
"                  # O O o O * 9 d ~ ` #.#.] #.` [ [ [ ` [ [ [ { [ { o...F D A H H J D F ..O.%.] { [ ) U a q > * $ # @ O         ",
"                O # O # @ # = q I ~ #.#.] #.#.] ` [ [ [ ` [ [ ] ] [ O.:.G K L P P L K G ..O.%.] [ [ ^ f q * $ @ O @ @ @         ",
"              O O O O * * = q a Y ) ] %.#.#.#.` [ [ ` [ [ [ [ [ [ [ o...F S A A H A S F ..o.X.] { [ ^ f q % O o O @ @           ",
"          # O O O o # = q a I Y / ` ` #.` ] #.] [ [ [ [ [ [ [ [ [ [ ( E C V B N N N V v Z X.#.%.{ [ ^ d 1 * O O O               ",
"        @ @ @ O O # % 9 a T ^ ` ` [ [ [ [ ` [ ` [ [ [ [ [ [ ` { { [ ^ I e , - + + - , e g / [ %.#.[ ^ d 0 * O O                 ",
"        @ O # # % * 1 y I ) [ #.[ [ [ [ [ [ [ [ [ [ } ` [ ] [ #.{ [ ^ I 0 # @ o X @ % q I ^ [ %.%.[ / d 9 * @ O                 ",
"        O @ # * < w a U / ` { #.} [ [ [ [ [ ` [ [ [ [ ` [ [ [ #.} [ ^ I 9 & o X . @ # 9 d ) [ %.#.[ ^ d 0 * O O                 ",
"        O @ % 1 y I T ) ` ] [ [ [ [ [ ` [ [ [ [ ` [ [ [ [ [ [ #.#.[ ^ I 9 % O X . @ % 0 I ^ { %.%.[ ^ d 9 * # o                 ",
"        O # % 9 d ^ ] #.[ [ [ [ ` [ [ [ [ [ [ [ } [ [ [ [ [ [ ] ` _ T p 9 % @ O X @ % 9 a U / ` [ [ ^ d q * @ O                 ",
"        O O * q f _ #.%.%.#.{ [ { } } } } [ } [ } } } #.#.[ [ ) T I a q < $ @ O @ @ $ & q a I ^ _ ` ^ I 0 * @ O                 ",
"        O O * q I ) #.%.%.#.[ #.} } } } [ } { } [ } } %.#.#._ Y a w 1 * $ # @ O O @ # % * 1 q d ^ ) ^ f q * @ o                 ",
"        O O * 9 a ^ ` [ ] ` ` ` ` ` _ ` ` ` [ ] ` ` _ ` ] ` ^ d q = $ @ @ @ @ @ @ @ @ @ # $ > w f ^ ^ d 0 % @ o                 ",
"        O @ % < w d U U Y U U U U U U U U U R U U U U U T U f w < $ O O O $ O @ O O $ O O O $ 1 y d d t 1 % @ O                 ",
"        O O # = < q w w w w w w w w w w w q w w w w w w w q q > % $ O O @ O O @ # O O O O O @ * < 0 0 < * $ @ O                 ",
"        @ @ @ $ $ * * * * * * * * % * % % * = % % * ; & % % * % # @ O @ O @ $ O O $ # O $ O $ $ % % % % $ @ O @                 ",
"        O @ @ @ @ O @ O @ @ O @ @ @ O O @ O O @ O @ O @ @ O @ O @ @ @ @ # @ @ @ O # O @ O $ O # O O O @ @ @ @ @                 ",
"            O O O O O O X O O . O o O O o O O O O O o o O O o O @ O O $ O $ O O @ @ @ @ O # O O O O O O O @                     ",
"                                                                                                                                ",
"                                                                                                                                ",
"                                                                                                                                "
};
