/* XPM */
static char *_c7056751edf4e709cbab68e33190e69jXSsDV82oX3al7o8[] = {
/* columns rows colors chars-per-pixel */
"64 64 167 2 ",
"   c None",
".  c #2A2A36",
"X  c #2D2E3A",
"o  c #2F303C",
"O  c #32333D",
"+  c #403C3C",
"@  c #554B3D",
"#  c #353541",
"$  c #383744",
"%  c #3A3945",
"&  c #3E3C4D",
"*  c #393748",
"=  c #433F41",
"-  c #403E4E",
";  c #413E52",
":  c #44434D",
">  c #4B454E",
",  c #584D43",
"<  c #444153",
"1  c #4D4C54",
"2  c #464359",
"3  c #49455C",
"4  c #4D4A5B",
"5  c #484750",
"6  c #504F56",
"7  c #5D5150",
"8  c #56555A",
"9  c #756243",
"0  c #776353",
"q  c #4C4761",
"w  c #4E4963",
"e  c #514B65",
"r  c #534D69",
"t  c #5C5B60",
"y  c #57506F",
"u  c #59526D",
"i  c #565167",
"p  c #564E70",
"a  c #5A5273",
"s  c #5E557A",
"d  c #625D65",
"f  c #635F6D",
"g  c #60577C",
"h  c #62587D",
"j  c #645F71",
"k  c #646267",
"l  c #676569",
"z  c #69666A",
"x  c #796769",
"c  c #696570",
"v  c #6F637E",
"b  c #6F6D70",
"n  c #716E73",
"m  c #716D78",
"M  c #747275",
"N  c #7A7779",
"B  c #7D797C",
"V  c #787577",
"C  c #947743",
"Z  c #937649",
"A  c #907555",
"S  c #8B7369",
"D  c #807D7E",
"F  c #B58D46",
"G  c #B28C4C",
"H  c #AB8858",
"J  c #BF9559",
"K  c #9F816C",
"L  c #AD8A6C",
"P  c #B6916D",
"I  c #CC9D4B",
"U  c #CB9E5A",
"Y  c #D8A64F",
"T  c #DDA94A",
"R  c #655B82",
"E  c #685E87",
"W  c #6A5E8A",
"Q  c #6D618D",
"!  c #6F6784",
"~  c #736C82",
"^  c #756B8E",
"/  c #7B6A82",
"(  c #777086",
")  c #6F6391",
"_  c #726595",
"`  c #766996",
"'  c #7D6E94",
"]  c #756799",
"[  c #76689A",
"{  c #796B9D",
"}  c #7B7094",
"|  c #7C6DA3",
" . c #7D6EA8",
".. c #7F70A6",
"X. c #7F70A8",
"o. c #847081",
"O. c #857E8F",
"+. c #917984",
"@. c #987E83",
"#. c #867397",
"$. c #887597",
"%. c #857299",
"&. c #877C9B",
"*. c #8171A6",
"=. c #8678A6",
"-. c #887AA7",
";. c #8171A8",
":. c #8B7DAA",
">. c #8779A8",
",. c #858182",
"<. c #9E8284",
"1. c #928E8E",
"2. c #938A9C",
"3. c #9A9695",
"4. c #9B959A",
"5. c #9E9997",
"6. c #A29C9A",
"7. c #A6A19C",
"8. c #8E82A3",
"9. c #8E80AC",
"0. c #9488A8",
"q. c #9D94A3",
"w. c #9D90AF",
"e. c #9A8CB2",
"r. c #9F92B1",
"t. c #A39DA1",
"y. c #A297AC",
"u. c #A294B6",
"i. c #A699B8",
"p. c #AA9DBA",
"a. c #ABA5A2",
"s. c #AFA9A4",
"d. c #B1ABA6",
"f. c #B2ACAA",
"g. c #B8B2AD",
"h. c #AEA0BF",
"j. c #B2A5BF",
"k. c #B8AEBD",
"l. c #B4AAB9",
"z. c #BDB7B1",
"x. c #BFB7B7",
"c. c #C0B9B3",
"v. c #C5BEB8",
"b. c #CCC5BF",
"n. c #AFA1C0",
"m. c #B6A9C2",
"M. c #BCB1C0",
"N. c #C6BBC9",
"B. c #C5BAC6",
"V. c #CBC3C3",
"C. c #CDC2CD",
"Z. c #D5CDC6",
"A. c #D1C6CD",
"S. c #D7CFC8",
"D. c #DCD4CC",
"F. c #D6CAD3",
"G. c #D0C4D1",
"H. c #DED5D1",
"J. c #E0D7D3",
"K. c #E3DAD3",
"L. c #E9DEDC",
"P. c #E4DAD8",
"I. c #EDE4DD",
"U. c #F1E7DD",
"Y. c #F3EADF",
"T. c #FBF1E5",
"R. c #FFFAEC",
/* pixels */
"                                                                                                                                ",
"                                                                                                                                ",
"                                                                                                                                ",
"                    O O X . . . . . . . . . . . . X O O o o O O O o O o O X o O X o O o O o O X O o O O O #                     ",
"                O $ $ O O # # O O O # # O # # O O # # # # # # # # # O # O O # O # O # # # O # O O O # # # O # O                 ",
"                O O $ % : 1 1 6 6 1 6 6 6 6 1 5 : < & & & & & & & & : & - & - < & & : & - - - & & : & * % $ # #                 ",
"                O $ & 6 k M o.,.,.+.,.,.,.,.B m c i r e e e e e r r e e e r e r w r e e r e r r r r w 2 & % O O                 ",
"                o O 5 l ,.a.g.v.c.z.z.c.c.z.f.q.&.^ E R E E W W E E E E Q E E E E E Q E E Q E W W E s y 2 & # O                 ",
"                o O 1 M 6.b.K.I.L.J.D.J.J.D.A.k.w.=.{ [ [ { { { { { { { { { { | { { | { | { { | | { _ s w & O O                 ",
"                . $ 6 N s.S.I.I.P.F.A.A.A.A.N.m.e.>. .| | ;.| ;.X...X.X.;...| ;.| ;.;.| | ..| ;.X..._ h w - # O                 ",
"                . O 6 B s.S.I.H.N.m.p.i.p.p.i.e.:.>.| |  .;.;.;.;...;.;...;...;.;.| ;.| ..| | ..X..._ h w & # O                 ",
"                . $ 6 N 7.Z.H.C.j.e.-.;.-.-.>.;.;.;.| | | | | | | | { | | { | | | | | | | | | ....| _ h w - O o                 ",
"                . # 1 m 5.M.C.M.u.>.| | | | { | | | | [ _ ) Q Q Q Q Q Q Q Q Q Q Q Q _ _ [ | | ;...| _ g w & # O                 ",
"                o # 5 f ,.r.h.r.:.| | ] ] [ | | | | { _ R s a r y y y a y a y y r a a R ) { | ;...| _ g w - # O                 ",
"                o # : i ! &.9.9. .| | | | | | | | | ] E a 3 ; : ; < < < < < < < ; < 3 a E [ | ;.;..._ g w & # O                 ",
"                o # - w s _ ..X.| | | | | | | | { ] W a 4 - O O O # # # # # # O O $ & w a Q _ | { { _ g w & # O                 ",
"                O O & q s ) | | | | | | | | [ _ W s p q & # X X O O O O O O O o O O # ; q p h W ` { _ h w - # O                 ",
"                O # & w s _ | | | | |  .| | ] E a q ; * # # o o O O O O O O O O O O # % & ; q a Q _ _ h e & # o                 ",
"                O O & w R _ | | | | | | | | _ R u 3 : : * & & % $ O O $ $ $ # # # # $ $ * : 3 a Q _ _ h e & O o                 ",
"                O # - w s _ | |  .| | | | | { ^ v z k z l l d 8 5 = $ O O O # # O # % : 8 t z ! ^ { _ h e - # O                 ",
"                O O - w h _ { | | | | | | | %.=.2.4.5.6.7.6.1.N t - O O O # # O O # : t V 1.4.q.8.*._ g q - # O                 ",
"                O # - w h _ | *.| | | | | | =.w.l.b.Z.D.D.Z.c.5.n 1 # O o # O O O # 1 n 5.x.b.k.i.-._ s q & O O                 ",
"                O O - w g _ | *.| | | [ { { :.i.B.J.U.T.T.U.Z.a.V 6 $ X o O O O o $ 6 B d.S.J.C.h.:._ s q & # O                 ",
"                O O & e g _ { *.| | | | { ..9.p.C.L.T.R.R.T.K.d.B 6 # X O # O O . O 6 D g.D.L.F.j.9._ s q & # o                 ",
"                O # - w h _ { | | | | | { | :.i.N.P.Y.T.T.Y.D.a.N 6 O o o O # o X O 6 B d.D.J.G.n.:._ s q & # O                 ",
"                O O - w g _ .... .| | | { | -.u.k.V.D.K.K.D.b.3.n 1 $ o O O O O O $ 1 M 6.v.V.B.i.>._ s q & # O                 ",
"                o # - w g _ { ..| | | | | | %.:.q.t.7.d.d.7.5.( d : $ O O O # O O $ : d D 3.6.y.0.*._ s q & # O                 ",
"                O O - w h ` { ..| | ] | | *.{ ^ m n b M M b z t 1 % O O # # # # O O % 5 8 z m ( } { ) R w & O O                 ",
"                O O & w s _ .... .| {  .*.{ ] R a 4 ; < : : - = % $ # O # # # O # # # % & : 4 a Q ` _ h w ; # o                 ",
"                O # - w s _ { ..| | |  .*.| ] R a 3 ; & # O O o O # # # # # # # O # # $ * ; 3 a Q _ _ h e & # O                 ",
"                O # : w h _ .... .| | | | | ] ) R s e ; * # X X O O # # O # O O O O # & 3 e s E _ [ _ h e & O O                 ",
"                o O - w h _ { .. .| | { | | | { { _ E p q * O O O O # # # # # # # # & 3 a W _ { | { _ h w & # O                 ",
"                O # - w h _ | | | | | | | | | | | | _ R r 3 - * $ # # # # # # # $ & 3 r E ] | ;.;.| _ h w & # O                 ",
"                O # & w R _ | ;...| | | | | | | ;...{ ) E a e 2 & $ # X . # * * 2 e a R ) { ..;.;.| [ h w ; # O                 ",
"                O O - w h _ | ;.| | [ | | | { | | | | { _ Q h r ; * # X X # * 2 r R ) _ { { | ;.;.| _ h w & O O                 ",
"                O # & w s Q [ | | | | | | | | | | | | | | { _ h i > = = $ = < w g _ | | | | | | | { Q s 4 - # O                 ",
"                O # % 2 e s W ) [ { | | | | | | | | | | | | { / x 0 9 9 9 9 0 x / ' | ;.| | { ] Q E s e 2 & # O                 ",
"                O O $ & < q r h Q [ | | | | | | | | | |  .| %.+.L H G F F G H K +.%.|  . .| ] W g r 3 < & # $ O                 ",
"                O # # # # % < r R _ | | | | | | | | | | | | #.<.L U Y T Y Y U P <.#.| |  .| _ R r < % $ # # # O                 ",
"                  # O O O # & w h _ | ..| | | | | | | | | | #.@.L J I I I I J L @.%.|  . .| _ h e & O O O O #                   ",
"                    O O O O % w s _ | ;.| | | | | | | | | | %.o.S A Z C C Z A S o.%.| | | | _ h 4 & O X O O                     ",
"                        O O & w g _ { ..| | | { { | | | | | _ v d 7 , @ , , 7 t ! _ |  .;.| _ h w & O O                         ",
"                        O O - w h _ { ..;.{ | | | | | | | | _ h e ; O O o # & w h _ |  .;.{ _ g w & # O                         ",
"                      O X O & 4 g _ | ;.| | | | | | | | | | _ R q * X X . # & q h _ | ;.;.| _ g w - # O                         ",
"                  # O O O O % w g _ | | ;.| { | | | | *.| | _ h w & # X X # & w h _ | ;.| | _ g w & # O                         ",
"                # # # # # * < r h _ | *.| | | | | | | | ;.| _ h w & # o o # - w h _  .;.;.| _ h w & O O                         ",
"              O O O $ % - 2 e a Q ` { ;...| | | | { | | | | _ h w & # O o O : w R _ | | ;.| _ g w & # O                         ",
"          $ # O O O % ; w a R Q _ { | | | | { | | | | | ;.| _ h w & # O X O & e h _ |  .;.| _ g w & # O                         ",
"        # # # O O # & w a Q _ [ | | | | | | | { | | | | | | _ h e - O X O O & w h _ | ;.;.| _ g w & # O                         ",
"        O # $ % * < 3 y W [ | X.| | [ | | | | | | | | ....| _ R w : O O O # - w R _ | ;.;.| _ g w & # O                         ",
"        O # * & 3 r a E _ { ......| | | | | { | | | | ..X.| [ R e & # O O O - e R _ | ;.;.{ _ g w & # O                         ",
"        O O & 3 a R _ ` { | | | ..[ | | | | | | | | | | ..| _ h e & O O O O - e R _ *.;.;.| _ h w - O o                         ",
"        O # & w s _ | ;.| | | | | | | | | { | | | | | | { ] Q s q & # O O O - q a W { | | { _ h w & # O                         ",
"        O # & e h ] ;.;.;.| ..| | ..| ............| | _ Q R a w < % # O O # % < e a R _ { { _ R e - O O                         ",
"        O O - w R [ | ;.;.| | ..| ........| ......| { Q s r 2 < % $ # O O $ $ % ; 3 e h _ ] ` h e & # O                         ",
"        O O & w g Q { | | { { | { { { | { [ [ [ | [ ) h w < % # # # # # O # $ # # * ; e R Q _ g w & # O                         ",
"        O # % 2 r h E W W E E Q Q R Q Q Q R Q Q Q Q h r 4 % O O O # $ O O $ O O O # % 3 y h g y 3 & # O                         ",
"        O # % ; 2 w r r r e e e r e w e e w r i e e w 2 & % O O O # O $ $ O $ O O O % & 2 w e 3 & % # O                         ",
"        # # # % % - - - & : & & < - & - - - - - & & & & % # O O # O $ O $ O O O O # # % % & & % % # O #                         ",
"        # # # # # # O # # # O # O # O O O # O # O O # O # # $ O # # O $ O $ O $ # # # # # # O $ # # # #                         ",
"            O O O O O O o O o X O o X O o O X O O O O O O $ O $ O $ O $ $ O $ O # # O O O O O O O #                             ",
"                                                                                                                                ",
"                                                                                                                                ",
"                                                                                                                                "
};
