/* XPM */
static char *_114afd8fcb7499098f979e88cf45e2dyiaeZ1TCRANidXXk[] = {
/* columns rows colors chars-per-pixel */
"64 64 169 2 ",
"   c None",
".  c #2B2B37",
"X  c #2D2E3A",
"o  c #2F313D",
"O  c #32333D",
"+  c #3B393B",
"@  c #5E513E",
"#  c #6B5A3F",
"$  c #2F3140",
"%  c #353541",
"&  c #383744",
"*  c #3A3946",
"=  c #353648",
"-  c #3E3C4C",
";  c #3F3C51",
":  c #403E4D",
">  c #413F53",
",  c #43424B",
"<  c #48484F",
"1  c #444154",
"2  c #484751",
"3  c #4D4C54",
"4  c #474359",
"5  c #49455C",
"6  c #504F56",
"7  c #515057",
"8  c #54535A",
"9  c #605344",
"0  c #6C5B45",
"q  c #645651",
"w  c #6E5D52",
"e  c #4B4662",
"r  c #4E4963",
"t  c #514B66",
"y  c #534D6A",
"u  c #575462",
"i  c #5A5664",
"p  c #57506F",
"a  c #5C5965",
"s  c #5B5375",
"d  c #5E557A",
"f  c #575070",
"g  c #6B5D67",
"h  c #615E69",
"j  c #635C75",
"k  c #60577C",
"l  c #62587E",
"z  c #666468",
"x  c #69666B",
"c  c #6D6B6E",
"v  c #726267",
"b  c #6F6C70",
"n  c #676274",
"m  c #706D70",
"M  c #767376",
"N  c #797678",
"B  c #7D7A7C",
"V  c #9F7E44",
"C  c #9D7D4A",
"Z  c #997B56",
"A  c #92786B",
"S  c #997D6B",
"D  c #817D7F",
"F  c #AC8745",
"G  c #A9854B",
"H  c #A38256",
"J  c #B18D6D",
"K  c #B4906D",
"L  c #CF9F4E",
"P  c #C4995A",
"I  c #C99C5A",
"U  c #D5A34C",
"Y  c #DAA74A",
"T  c #655B82",
"R  c #685E87",
"E  c #6A5E89",
"W  c #615780",
"Q  c #6B6284",
"!  c #6D618D",
"~  c #756581",
"^  c #71668C",
"/  c #776E87",
"(  c #7B7389",
")  c #6F6391",
"_  c #736695",
"`  c #796B96",
"'  c #756799",
"]  c #76699A",
"[  c #796B9E",
"{  c #7E709E",
"}  c #7F7496",
"|  c #7D6DA3",
" . c #7D6EA8",
".. c #7F70A6",
"X. c #8C7583",
"o. c #837E85",
"O. c #81798D",
"+. c #827096",
"@. c #887497",
"#. c #857D91",
"$. c #82739A",
"%. c #85799C",
"&. c #8273A6",
"*. c #8678A5",
"=. c #8171A9",
"-. c #8B7DAA",
";. c #858282",
":. c #898686",
">. c #898489",
",. c #8E8A89",
"<. c #9C8184",
"1. c #918D8C",
"2. c #8C8494",
"3. c #8E8893",
"4. c #9A9596",
"5. c #A29C9D",
"6. c #A6A09E",
"7. c #8F83A3",
"8. c #9284AE",
"9. c #9589A9",
"0. c #998CAD",
"q. c #9486B0",
"w. c #9688B1",
"e. c #9E91B2",
"r. c #A69CAC",
"t. c #A396B5",
"y. c #AA9DBB",
"u. c #A598B8",
"i. c #ABA5A1",
"p. c #ACA5AA",
"a. c #B0AAA7",
"s. c #B3ADA9",
"d. c #ADA3B3",
"f. c #B4ACB2",
"g. c #B3A7BC",
"h. c #BFB8B3",
"j. c #BAB2B4",
"k. c #C4BDB6",
"l. c #C5BEB8",
"z. c #C8BFBF",
"x. c #CBC4BC",
"c. c #B1A3C2",
"v. c #BAAEC3",
"b. c #B7ABC0",
"n. c #BFB4C2",
"m. c #C2B6C5",
"M. c #CABECB",
"N. c #C5BAC9",
"B. c #CDC5C1",
"V. c #CCC1CB",
"C. c #D4CCC4",
"Z. c #D7CECA",
"A. c #D5CBCD",
"S. c #D9D1C9",
"D. c #DCD4CD",
"F. c #D3C7D4",
"G. c #D5CAD2",
"H. c #D9CFD1",
"J. c #DBD1D2",
"K. c #E5DCD5",
"L. c #E7DCDA",
"P. c #E8DDDC",
"I. c #E9E0D7",
"U. c #EEE5DC",
"Y. c #F2E9DD",
"T. c #F8EEE3",
"R. c #F7EDE2",
"E. c #FFF8EA",
"W. c #FFF7E9",
/* pixels */
"                                                                                                                                ",
"                                                                                                                                ",
"                                                                                                                                ",
"                                                                                                                                ",
"                                                                                                                                ",
"                                                                                                                                ",
"                                                                                                                                ",
"                          % % O O O X X X X O X X X X O O O O O O O O O O O O O O O O O O O O O O O O O O O O O O % %           ",
"                        O % & * * , , , , , < , , , : - - * * - * * * * - * * - * * * * - * * * * * * * * * * & * % % %         ",
"                        O % * < 8 z c b c c c c c c x h u r e > 5 5 5 e 5 5 5 5 5 5 5 5 5 5 5 5 e 5 5 e e 5 4 1 - * % O         ",
"                        o % , a N 4.5.i.i.i.6.i.i.6.5.2.( R k d d d k k k k k k k k k k l k k k d k d W k k s r 1 * % O         ",
"                        . + 3 m 4.l.S.D.D.S.S.S.D.S.B.f.0.$.' _ _ _ _ ` _ _ _ _ _ ] _ ] _ _ _ _ ' ] ] _ ] ` ! s 5 - % O         ",
"                        . & 3 N i.Z.U.U.L.J.H.H.D.H.V.b.t.-.| |  . .|  .&.| | =... .| =.|  .=.| ..| | ....| _ W r : O X         ",
"                        . % 3 B a.S.U.L.G.N.v.v.v.v.g.u.q.&. .|  ...=.=.=.=.=.=.=.=.=.=.=.=.=.=.........=.| ` d r : % O         ",
"                        . % 6 B i.Z.K.G.v.t.8.8.8.8.8.-. .| | | |  .| =.| =.| &.| =.| &.&.| | | | |  . ...| ` k r - % O         ",
"                        X O 3 M 5.z.A.m.u.-.| | [ |  .| | | | | ] ' _ _ _ _ _ _ _ _ _ _ _ _ _ [ [ | [ .. .| _ k r : % O         ",
"                        X % 2 x 2.d.b.y.w.&.[ | | ' | | | | ' _ ! l k k k k k k k k k k k k T E ` [  .=.=.| _ k 5 : % O         ",
"                        O % 1 i / 7.0.q.-. .| ' ] | | |  .| | ! s t 5 4 5 5 5 5 5 5 5 4 4 5 t s E ] | =.=.| _ k t : O O         ",
"                        O % : t T ` ..&. .| | | | | | | | | ! W t 1 * & * * * * * * * & & * > t k ) [ |  .[ _ k r - O O         ",
"                        o O - r d _ [ | | | | | | | [ ' ! R d e > & O X X O O O O O O O O O - > y d R _ [ [ _ k t - % O         ",
"                        O % - r d ) | | | | | | | | ] E d y 5 : & O X X X O O O O O O O O O & * > 5 y W ) _ _ k t - O o         ",
"                        O % - r k _ [ | | | | | | | ` T y 4 : * & % % O + O % % & O & O O % & & * - 5 f E _ _ T t : % O         ",
"                        O % - r k _ | &.| | | |  .| ` ! j a 8 8 8 8 7 3 : * % % % O O & % % + : , 7 a j ^ ` _ k r - % O         ",
"                        o % - r k _ [  .| | | | | | { $.#.>.:.,.1.>.D c 8 : % O O & O O O O , 8 c B >.2.%.| _ k r - % O         ",
"                        O O - r k _ | | | | | | ' | =.8.r.j.l.x.x.l.s.1.x < % O O % % o o % 2 x 1.a.j.g.e.*._ d e - % O         ",
"                        O % - r k _ [ =.| | | ' [  .-.t.m.D.I.Y.Y.L.C.6.M 3 % X o O O o o % 6 N i.B.Z.M.y.-._ d e - % X         ",
"                        O % - r k _ | &.| | | | | +.-.y.M.L.R.W.E.T.D.s.B 6 & X X % % X X % 6 D s.D.L.F.c.-._ s e - % O         ",
"                        O % - r k _ | | | | | | ' &.-.y.M.L.R.W.E.Y.D.s.B 3 & X O % O o X % 6 D s.D.P.F.c.-._ d e - % O         ",
"                        O % - r k _ | &.| | | ' [  .-.t.k.G.K.U.U.K.C.6.M 3 % X o O % o X % 3 N i.B.D.M.y.-._ d e - O O         ",
"                        O % - r k _ [ | | | | | [ | &.9.r.f.k.k.l.k.i.:.x < % O o % % O o + < x 1.i.f.d.0.*._ d e - % o         ",
"                        o % - r k _ [ &.=.| [ |  .| [ +.O.o.o.;.;.;.B z 7 : % O O % % O o % , 6 z N o.#.%.{ _ W r - % O         ",
"                        O O : r k _ | &.| | | | | | ' E j u 6 6 7 6 3 < : * % O O % % % % % & , , 3 u j ^ ] _ W r : % O         ",
"                        O % - r k _ [ &.=.[ | |  .| _ T f 5 - * & O O O & O & O % O % % O % % % * : > s R _ _ l t : % O         ",
"                        O % - r k ) | | | | | |  .| ] E d y e ; * O X X O O O & % % % O O O % : > e f W ) ' _ l r : % O         ",
"                        O % : r l _ | &.&.| | | | | | ' ) E d y > * o X O O & O % % % o O % : > y d E _ ' ] _ l r : % o         ",
"                        o % - r k _ | | | | | | | | | | | | _ k y > * & O & O & % % % % & & > t W ) | =.=.=._ l r : % X         ",
"                        O O : r l _ =.=.| | | | | | | | .. .[ ! k y 5 > - & % X o $ & - > > y d ! [ =.=.=.| _ l t : O X         ",
"                        O % : r l _ | =.&.| | [ [ | |  .| | [ ` ! T s t > = $ X X $ = > y d T ! ' | | =.=.&._ l r : & O         ",
"                        X % : e k _ [ | | | | | | [ [ | | | [ | | ' ! k 5 : % O O + : r k ! _ [ | [ | =.| | ) k r - % O         ",
"                        O % - 4 p T E _ [ [ | | | | | | | | | |  .| ` ~ g q 9 9 @ 9 q g ~ ` | =.=.| [ ' _ ! T p 5 * % O         ",
"                        O & * - > y f T ) [ &.| | [ | | | [ |  . .&.+.X.A Z C V V C Z A X.@.&.=. .| [ ^ T s t 5 : * % O         ",
"                        % + % & * : 5 p T _ | | &.| | | | | [  . .[ @.<.J I L U U L P J X.@.&.=. .| _ R f 5 : - * % % O         ",
"                        % % % % * : > p W _ | | | [ | | | | | | | | @.<.K I U Y Y Y I J X.@.|  . .| _ k t - O O O % % %         ",
"                      O o O & - > e p l ) ' | &...| | [ | [ | | | | +.X.S H V F G G C S X.+.| | | | _ k e - O O O O % %         ",
"                  + % o o % * > t k E ) _ [ | | | [ | | [ | | |  .| ` M g w 0 # 0 0 w v M +.| =. .| _ k r - O O O % % %         ",
"                & O % % % * > r l ) [ [ &.| | [ | | | | | | | | | | ` l y > : + + : > y W _ [ =. .| _ k t - % O O % O %         ",
"              O O O % * > 5 t k E [ | =.=.| | | | | | | | | | .. .| _ k r - $ . . o - e k _ =.=.=.| _ k t - % O O % %           ",
"          % O O O O * > r f T E _ | | &.| | [ | | [ | | [ | [ ..| [ _ k r - $ . X O = r W _ | =.=. ._ k r : % O O               ",
"        % % % O O & - e d ! _ | ] | | | | | [ | | [ | | | | [  .=.| _ k t : O O O % - r k _ | =.=.| _ k r : % O                 ",
"        O % % * * > 5 s T ] |  .| | | | | | | | | | | | | | | .. .| _ k r : O O o % : r k _ | =.=.[ _ k e : % O                 ",
"        O % * > 5 y d T _ [ | ....| | ] | | | | [ | | [ | [ | ..=.| ' T t - O O o O : t T ]  .=.&.| _ k e : O X                 ",
"        O O - 5 f T ^ ' [ | | | ..| | | ] | | | ..| | | | | | | =.| ' k t - O O O O - t k _ ....=.[ _ k t : & O                 ",
"        O % - r k _ [ =.| | | | | | | | [ | | [ [ | | | | | | | [ [ E s 5 : % O O * - 5 s ! ] | &.| _ k r : % O                 ",
"        O % - r l ] =.=.=.| | | | ..| ........ ...........| [ ] ! l s t 1 * % O O O * 1 r s T ) ' [ _ T r : % O                 ",
"        O % - r l ` =.=.=.=.=.| ......| .... ............. .] ! d y 5 > - * * O O O * - 1 4 y d ^ ] _ W t : % X                 ",
"        O O - r d ) [ [ [ [ [ [ | ] ] [ [ [ ] | ] ] ] | | [ ) k t > * + O & O O * % % O % * 1 y W _ _ k r - % o                 ",
"        O % - 4 y k E E E R R R T ! T T ! T Q R R R T ! E Q k y 4 * % O O O % % O % O O O O * 5 p k k y 5 - % O                 ",
"        O O * - 4 r y y y t t y y y y y y y y y t y y y y t r 4 - % O O O % % % * O * O O O & - 4 r t 5 - * % O                 ",
"        % % & * - - : : ; , - : : : - : - ; - : - > , ; > - - - * % % O O O % % O & % O + % % * * : - - * % O %                 ",
"        O % % % O % % O % O % % % O % O + % % O + O O % % O % O % % % % * * O % % % % % % % % % & O % O % % % %                 ",
"            O O O O o O o O o X O o X O o O o O o O o X O O O O O O O * O % % O % % % % % % O O O O O O O %                     ",
"                                                                                                                                ",
"                                                                                                                                ",
"                                                                                                                                "
};
