/* XPM */
static char *_8dd0cd00aac4a10b66276e80df40b07S0Ftve3AOvdwYSAG[] = {
/* columns rows colors chars-per-pixel */
"64 64 168 2 ",
"   c None",
".  c #292A36",
"X  c #2D2E3A",
"o  c #2E303C",
"O  c #32333D",
"+  c #4A433C",
"@  c #353541",
"#  c #383745",
"$  c #3A3945",
"%  c #3E3C4C",
"&  c #3E3C50",
"*  c #403E4E",
"=  c #423F52",
"-  c #4D4542",
";  c #44434D",
":  c #534B4F",
">  c #454155",
",  c #484751",
"<  c #4C4B54",
"1  c #474359",
"2  c #49455C",
"3  c #504F56",
"4  c #514E5D",
"5  c #5B5A5E",
"6  c #525158",
"7  c #4C4762",
"8  c #4E4963",
"9  c #4F4968",
"0  c #504A65",
"q  c #534D69",
"w  c #5C5365",
"e  c #5C5A61",
"r  c #57516C",
"t  c #5B566C",
"y  c #564F70",
"u  c #584F72",
"i  c #575070",
"p  c #5A5274",
"a  c #5E557A",
"s  c #615F64",
"d  c #615C6D",
"f  c #60577C",
"g  c #61587D",
"h  c #6B5E7F",
"j  c #605A72",
"k  c #626065",
"l  c #65616D",
"z  c #6C6A6D",
"x  c #6D6971",
"c  c #6D667D",
"v  c #716E72",
"b  c #757275",
"n  c #797679",
"m  c #7D7A7C",
"M  c #777479",
"N  c #846C44",
"B  c #866D48",
"V  c #846C54",
"C  c #826D69",
"Z  c #827E7F",
"A  c #BD934D",
"S  c #B48E58",
"D  c #B79058",
"F  c #A6866D",
"G  c #B7926D",
"H  c #C39747",
"J  c #C0954D",
"K  c #CD9F5A",
"L  c #D9A74F",
"P  c #DFAA4A",
"I  c #655B83",
"U  c #685E87",
"Y  c #6A5F8B",
"T  c #6D618D",
"R  c #6A6183",
"E  c #7E6C81",
"W  c #716789",
"Q  c #726988",
"!  c #7C748A",
"~  c #6F6391",
"^  c #726594",
"/  c #756994",
"(  c #7D6D96",
")  c #75679A",
"_  c #76689A",
"`  c #796B9D",
"'  c #7E729C",
"]  c #7C6DA3",
"[  c #7D6EA8",
"{  c #7F70A7",
"}  c #816E83",
"|  c #957C84",
" . c #806F99",
".. c #857296",
"X. c #897597",
"o. c #867398",
"O. c #877C9E",
"+. c #847B93",
"@. c #8273A5",
"#. c #8678A6",
"$. c #8171A9",
"%. c #8778A9",
"&. c #8B7CAA",
"*. c #887AA6",
"=. c #8D8989",
"-. c #878288",
";. c #9E8284",
":. c #888090",
">. c #8F8698",
",. c #958F96",
"<. c #948B9E",
"1. c #9A9594",
"2. c #9C959C",
"3. c #9F9B98",
"4. c #9A9596",
"5. c #A19C9B",
"6. c #8E80A8",
"7. c #968CA3",
"8. c #9183AE",
"9. c #9B8FAE",
"0. c #9E92AE",
"q. c #9081B0",
"w. c #9B8DB3",
"e. c #9789B1",
"r. c #9E91B4",
"t. c #A59BAE",
"y. c #A295B5",
"u. c #A99CBA",
"i. c #A699B8",
"p. c #ABA5A3",
"a. c #AEA9A5",
"s. c #B3ADA9",
"d. c #B1ACA6",
"f. c #BAB4AD",
"g. c #B7B1AC",
"h. c #AEA1BD",
"j. c #B2A5BF",
"k. c #B6ABB9",
"l. c #BDB5B3",
"z. c #C4BCBE",
"x. c #C9C2BC",
"c. c #B3A5C1",
"v. c #BAAEC3",
"b. c #BDB2C3",
"n. c #C5BAC5",
"m. c #C7BBC9",
"M. c #CABFCA",
"N. c #CEC5C4",
"B. c #CDC2CC",
"V. c #D3CBC4",
"C. c #D1C6CF",
"Z. c #D5CACF",
"A. c #D8D0C7",
"S. c #DED5CF",
"D. c #DBD3CB",
"F. c #D2C6D1",
"G. c #D7CCD1",
"H. c #DFD5D3",
"J. c #E0D7D0",
"K. c #E3DAD4",
"L. c #E5DBD9",
"P. c #EDE4DB",
"I. c #EAE1D7",
"U. c #F4EADF",
"Y. c #F7EEE1",
"T. c #F8EFE2",
"R. c #FEF4E6",
"E. c #FFF9EA",
/* pixels */
"                                                                                                                                ",
"                                                                                                                                ",
"                                                                                                                                ",
"                                                                                                                                ",
"                                                                                                                                ",
"                                                                                                                                ",
"                                                                                                                                ",
"                                                                                                                                ",
"                                                                                                                                ",
"                                                                                                                                ",
"                                                                                                                                ",
"                                                                                                                                ",
"                                                                                                                                ",
"                            O O X . . . . . . . . . . . X X O X o O X O X O X O O O O O X O O O O X X O O O O O O @             ",
"                        @ @ @ @ O O O O O O O o O O O O O @ O O O O O O O O O O O O O O O O O O O O O O O O @ O @ @ @           ",
"                        O O # $ ; , < , < < < < < , < , ; * % % % % % % * % % % % % % % % % % % % % % * % % % $ $ @ @ O         ",
"                        O @ % < s v n m m m m Z Z m b x d q 9 8 8 8 0 9 8 8 8 9 0 0 0 0 0 0 0 0 0 8 0 0 0 0 7 1 % # O O         ",
"                        X @ , s -.5.g.f.f.f.g.f.f.g.a.2.+.W I I I I U I U U U I U I I I I I I I U U U U U I f q 1 % O O         ",
"                        X @ < v 5.x.J.K.K.S.S.S.J.S.C.k.0.*.` ) ) _ ` ` _ ` ` ` ` ` ` ` ` ` ` ` _ ` _ ` ] ) T a 2 % @ O         ",
"                        . @ 6 n p.A.U.P.L.G.Z.Z.Z.C.M.c.w.&.] ] ] $.{ { @.] { { $.] ] $.] $.] $.{ ] { @.$.] / I 0 * @ O         ",
"                        . @ 6 n a.D.P.L.B.b.h.h.h.h.u.w.&.#.$.] ] $.$.$.$.@.$.{ $.@.$.$.$.@.$.] { { ] @.$.] / f 0 * O O         ",
"                        X # < n p.V.H.B.c.w.&.*.%.$.*.#.@.] ] ] ] ] ] ] ] ] ] ] ] ] ] ] ] ] ] ] ] ` ] $.$.] ^ f 8 * @ O         ",
"                        . @ < x 2.z.B.v.y.%.] ] ] ] ] ] $.] ` ` ^ ^ ~ T T ~ ~ ~ ~ ~ ~ T ^ T ^ / ` ` { ] ] ] ^ f 8 % @ O         ",
"                        X @ , l :.t.h.i.q.] ] ) ] ) ] ] ] ] ` ^ U f p u p p p p p p p p u p f U ^ ` { @.$.] ^ f 8 % @ O         ",
"                        X @ ; w Q O.8.6.%.$.` ` ] ` ] ] $.] ) U p 7 1 = = 1 1 = 1 1 > 1 > > 2 p U ) ] [ { ] ^ g 8 * @ O         ",
"                        O @ % 8 f / ] @.] ] ] ] ] ] ] ] ` ) Y f 8 % @ @ @ @ @ @ @ $ @ O O @ * 0 a T ` ] ] ] ^ g 8 * O O         ",
"                        O O % 8 a ~ ] ] ] ] ] ] ] ] ) ^ Y I u 2 % @ X X O O O O O O O O O O $ = 7 p I Y _ _ ^ g 8 * O O         ",
"                        O @ % 8 a ~ ] ] ] ] ] ] ] ] ) U p 0 = % @ o X X O O O @ O O O O O O @ $ & = 8 p T _ ~ I 0 % @ O         ",
"                        O @ * 8 a ^ ] ] ] ] ] ] ] ] / I r 2 ; $ O * $ $ @ O @ @ @ @ O @ O O # O $ * 2 r R / ^ a 0 % O O         ",
"                        O @ % 8 I ^ ] $.] ] ] ] ] ] ` W c l k s k s s 3 , $ @ O @ O @ @ $ O $ ; 3 e l c / ` ^ I 9 * @ o         ",
"                        O @ * 8 a ^ ] ] $.] ] ] ] ] ] O.>.,.1.5.5.5.=.M 5 ; @ O O @ O O O O ; 5 b =.4.<.*.o.^ f 8 % @ O         ",
"                        O O * 8 a ^ ] ] ] ] ] ] ] ] #.9.k.z.x.D.D.x.f.,.v < @ O O # O O O $ , v 1.l.z.k.y.*.^ a 7 % @ O         ",
"                        O O * 8 f ^ ] ] ] ] ] ] ] ] &.i.n.H.P.Y.T.U.V.p.n < O O o @ @ X o @ < n a.A.J.M.h.&.) a 7 & @ O         ",
"                        O O * 8 f ^ ] $.] ] ] ) ) ] 6.u.B.K.R.E.E.U.J.d.m 3 O o O O O o X # 3 m s.D.L.F.c.&.^ a 7 & @ o         ",
"                        O O * 8 f / ] ] ] ] ` ] ] ] &.u.n.K.U.R.R.U.D.a.m 3 # O O @ O o X @ 3 Z s.A.L.M.c.&.^ a 2 & @ X         ",
"                        O @ * 0 f ^ ] ] ] ] ] ] ) ] &.y.b.G.K.I.I.J.x.5.b < O o O O @ o X # : M t.N.G.m.u.%.^ a 7 & @ X         ",
"                        O O * 2 f ^ ] $.] ] ] ] ] ] @.e.h.b.n.z.l.a.<.F s , O O O @ @ o O O , z ,.g.n.c.w.%.^ a 7 % O O         ",
"                        O @ * 0 f ^ ] ] $.] ] ` ] ] @.&.e.r.0.<.:.! z 5 , $ @ O O @ @ o X O * d ! 7.r.w.&.$.^ f 7 % @ O         ",
"                        O O * 7 f ^ ` $.] ] ] ` ] ] { @.$.#.' T j 4 , % $ @ @ O O @ @ O O @ = q U ( %.%.%.] ) f 0 * @ O         ",
"                      O O O * 7 g ^ ` @.] ] ] ] ] ] ] ] ] ] ) I y 2 & $ # @ @ @ @ @ @ @ % 1 7 u I ) ] ] $.] ^ f 8 % @ O         ",
"                    O O O O % 7 f ^ ] $.] ] ] ] ] ] ] ] ] ] ^ Y I p 9 1 = # @ . @ @ @ & 7 q f I ~ ^ ] ] $.] ^ g 8 * @ O         ",
"                @ @ @ O O O * 7 g ^ ` @.] ] ] ] ] ] ] ` ] ` ] ) ) ~ I y = # @ X . @ & 2 p I ^ ) ) ] ] ] ] ` ^ g 8 % O O         ",
"                @ @ @ @ $ $ 1 q I ) ] ] ] ] ` ] ] ` ] ] ] ] ] ] { ` ) R d : - + + - 1 w h ^ ] ] ] ] ] ] @.] ^ f 8 % O O         ",
"              O O O # * 1 4 u I T ) ] @.] ] ] ] ] ] ] ` ] ] ] ] [ { ( ! C V B N N B V C } ` ] [ [ ] ] $.] ` ^ f 8 * @ O         ",
"          @ O O O O $ = q f Y ~ ) ` ] ] @.] ] ] ` ] ] ] ] ] ] ] ] ] o.| F D J H H J S F | o.] ] [ ] ] ] ] ] ^ g 8 % O O         ",
"        @ @ @ @ O * = q f ~ ` ` @.] ` ] ` ] ] ] ] ] ] ] ] ] ] ] ] ] +.;.G K L P P L K G | X.] ] ] ] ] ] $.` ^ f 8 % @ O         ",
"      O O O @ % * = 0 f T ` ] $.$.] ] ] ] ] ` ] ] ] ] ] ] ] ] ] ] ] ' | F S J H H A S F | ..` ] ] ] ] ] @.] ^ g 8 % @ O         ",
"@ @ O O O O @ = 7 u I T ^ ] @.] ] ] ] ] ` ] ] ] ] ] ` ] ] ] ] ] ] ] / E b B N N N B V C }  .@.] ] ] ] [ ] ] ^ g 8 * @ O         ",
"@ @ O O O @ % 7 p T ) ` ` ] ] ] ] ] ] ] ] ] ` { ` ` ] ] ] ] ] ] ] ] / f w , - + + - 3 w I / ] ] ] ] ] ] $.` ^ g 8 * @ O         ",
"@ @ $ $ % = 2 p U _ ] ] $.] ` ] ] ` ] ` ] ] ] ] { ] ] ] ] ] ] ] [ ] ^ I 8 % @ X X o & 7 g ) ] ] [ ] ] ] ] ] ^ g 8 % O O         ",
"O @ $ * 1 q a I ^ ` ] $.] ] ] ] ] ] ] ` ] ` ] ] ] ] ] ` ] ] ] ] $.] ^ I 8 % @ . . @ % 7 g _ ] @.[ ] ] ] ] ] ^ f 8 % @ O         ",
"O O % 2 i I ~ ) ` ] ] ] ] ] ] ] ] ] ] ] ` { ] ] ] ` ] { ] ] ] ] $.] ^ I 7 % O O . @ % 7 I / ] { ] ] ] ] ] ] ^ I 8 * @ O         ",
"O @ % 7 f ^ ] ] ] ] ] ] ] ` ] ] ] ] ] ] ] ] ] ] ] ] ] ] ] ] ` ] ] ) Y a 7 * O O o @ % 7 a T / ` ] ] ] ] $.] ^ f 8 % O O         ",
"O @ * 0 I / $.$.$.$.] ] ] $.$.] { { ] { { ] { ] { { ] { @.] ] ) Y I p 9 = % O O O @ $ 1 0 p U T ) ] ] $.$.] / f 0 * @ o         ",
"O @ * 0 g / ] $.$.$.] { ] @.] ] { ] { { ] { ] { { { ] @.$.] ` Y f q 1 = % @ @ O O @ # $ > 2 0 f Y ) $.$.$.] ) f 8 % @ O         ",
"O O % 7 f ^ ` ] ] ` ` ` ] ` ` ` ` ` ` ` ` ` ` ] ` ` ` ` ] _ ^ f 0 = $ @ @ @ @ @ @ @ @ @ O $ > 0 f ^ ` ] ] ] ^ a 8 % @ O         ",
"O @ % 2 q g I T U U U U U I U U T I R U U U I U U I U T T U g q 1 $ O O O @ @ @ O # O O O $ $ 1 q g U T T U g q 1 % @ O         ",
"O @ @ % 2 8 q q q q q q q q q q 0 q q q q q q q q q q q q 0 0 1 * @ @ O O @ # O O # O O O O # ; 2 8 q q q q 8 1 * @ @ O         ",
"O @ @ $ $ % * * % * * * * * % % * * % % % % & ; % % ; % * % ; $ $ @ @ O # O O # # O O # O # O $ % % * * * * % % $ @ @ @         ",
"@ @ @ @ @ @ O O @ O @ O @ O @ @ @ O @ O @ O @ O @ @ @ O @ O # O O @ @ @ O O # O O # O O $ O # O O O @ O @ O @ O @ O @ @         ",
"@ @ O O O O o O X O O O O O o X O o O O o O O O O O X X O O O O O O O # # O # O @ @ O # @ @ @ O O O O X O O O O O O             ",
"                                                                                                                                ",
"                                                                                                                                ",
"                                                                                                                                "
};
