/* XPM */
static char *result[] = {
/* columns rows colors chars-per-pixel */
"64 64 212 2 ",
"   c #2C2E3D",
".  c #2B2B37",
"X  c #312E3E",
"o  c #2F303F",
"O  c #33323F",
"+  c #2F3240",
"@  c #353540",
"#  c #383740",
"$  c #363941",
"%  c #3A3D42",
"&  c #423D41",
"*  c #423F49",
"=  c #3B4444",
"-  c #3D4A46",
";  c #3D4E48",
":  c #364044",
">  c #3F5246",
",  c #3E5349",
"<  c #454142",
"1  c #4D4542",
"2  c #404E47",
"3  c #43424A",
"4  c #414F48",
"5  c #4B484E",
"6  c #4B474A",
"7  c #5A4E42",
"8  c #514843",
"9  c #4C5247",
"0  c #425449",
"q  c #455B4A",
"w  c #47574A",
"e  c #535447",
"r  c #5A5547",
"t  c #4D4B52",
"y  c #585759",
"u  c #515553",
"i  c #665644",
"p  c #665A46",
"a  c #6C5B44",
"s  c #685744",
"d  c #715F46",
"f  c #605A5F",
"g  c #46624C",
"h  c #4A644E",
"j  c #4B6A4E",
"k  c #476B4B",
"l  c #51634D",
"z  c #5B674C",
"x  c #4D6D50",
"c  c #476B51",
"v  c #596A57",
"b  c #4E7252",
"n  c #4E7A54",
"m  c #517453",
"M  c #557D55",
"N  c #597E55",
"B  c #5A7E5A",
"V  c #597954",
"C  c #4D724F",
"Z  c #696D4C",
"A  c #756246",
"S  c #7C6546",
"D  c #75684A",
"F  c #68724E",
"G  c #77734C",
"H  c #776959",
"J  c #657B52",
"K  c #687C52",
"L  c #7F7254",
"P  c #665F64",
"I  c #676164",
"U  c #696365",
"Y  c #6D6768",
"T  c #6E6869",
"R  c #697B64",
"E  c #75736B",
"W  c #797579",
"Q  c #736B6D",
"!  c #826A46",
"~  c #8D7248",
"^  c #87764A",
"/  c #9C7C4A",
"(  c #967B49",
")  c #568156",
"_  c #5C8155",
"`  c #5D825B",
"'  c #648354",
"]  c #6B8554",
"[  c #62845E",
"{  c #6A8956",
"}  c #7C8251",
"|  c #748954",
" . c #7B8D54",
".. c #718752",
"X. c #658661",
"o. c #668A64",
"O. c #6C8A66",
"+. c #6F8C68",
"@. c #718D6A",
"#. c #75816E",
"$. c #75916E",
"%. c #7C9372",
"&. c #7A9877",
"*. c #7B8C71",
"=. c #9A854D",
"-. c #8D8A51",
";. c #828A53",
":. c #849054",
">. c #8C9254",
",. c #939554",
"<. c #959854",
"1. c #969756",
"2. c #8C804D",
"3. c #A98446",
"4. c #A6844B",
"5. c #AB864A",
"6. c #A58147",
"7. c #B28A4B",
"8. c #B48B48",
"9. c #BA994F",
"0. c #AA8A59",
"q. c #A59C54",
"w. c #AB9E53",
"e. c #A49250",
"r. c #B59A54",
"t. c #BCA452",
"y. c #B6A557",
"u. c #8A827D",
"i. c #819575",
"p. c #849B7C",
"a. c #8C9B7D",
"s. c #869479",
"d. c #8C9268",
"f. c #AA9372",
"g. c #8FA179",
"h. c #B9AD7B",
"j. c #C69C4F",
"k. c #CD9D4D",
"l. c #C1974D",
"z. c #CFA14F",
"x. c #D4A34E",
"c. c #D9A64D",
"v. c #DEAA4E",
"b. c #C2A752",
"n. c #CBA852",
"m. c #C9A752",
"M. c #D4AD52",
"N. c #DCAC51",
"B. c #D6A656",
"V. c #E4AD4D",
"C. c #E2AE50",
"Z. c #E3B052",
"A. c #EBB452",
"S. c #D9B265",
"D. c #D4B073",
"F. c #EDBE6D",
"G. c #F4C36F",
"H. c #F9C670",
"J. c #968B86",
"K. c #998D88",
"L. c #988D87",
"P. c #9C938A",
"I. c #929E82",
"U. c #839D80",
"Y. c #A79D8D",
"T. c #96A185",
"R. c #9EA48B",
"E. c #95A68A",
"W. c #A3A78E",
"Q. c #A5A990",
"!. c #AAAB93",
"~. c #ABA29A",
"^. c #B1AF98",
"/. c #B5B29A",
"(. c #BAB49F",
"). c #BBBB94",
"_. c #AAB69E",
"`. c #AAA5A7",
"'. c #BCAEA1",
"]. c #AABAA4",
"[. c #BCB5A1",
"{. c #B2BEAB",
"}. c #BFB8A3",
"|. c #D6BB86",
" X c #C3B3A6",
".X c #C2B8A5",
"XX c #C6BBA8",
"oX c #CABCAB",
"OX c #C7B7A9",
"+X c #D0BFAF",
"@X c #BAC3AD",
"#X c #BAC4B3",
"$X c #E8C994",
"%X c #F9D59C",
"&X c #FFD99F",
"*X c #D1C1AF",
"=X c #D5C5A5",
"-X c #D3C2B2",
";X c #D9C6B6",
":X c #DCCAB8",
">X c #D9CAB8",
",X c #C9CBB9",
"<X c #EDDABF",
"1X c #D3CDC8",
"2X c #CCD1C4",
"3X c #DED9CB",
"4X c #DAD6C5",
"5X c #DEDDD4",
"6X c #F1DEC2",
"7X c #F5E2C5",
"8X c #E9E2D7",
"9X c None",
/* pixels */
"9X9X9X9X9X9X9X9X9X9X9X9X9X9X9X9X9X9X9X9X9X9X9X9X9X9X9X9X9X9X9X9X9X9X9X9X9X9X9X9X9X9X9X9X9X9X9X9X9X9X9X9X9X9X9X9X9X9X9X9X9X9X9X9X",
"9X9X9X9X9X9X9X9X9X9X9X9X9X9X9X9X9X9X9X9X9X9X9X9X9X9X9X9X9X9X9X9X9X9X9X9X9X9X9X9X9X9X9X9X9X9X9X9X9X9X9X9X9X9X9X9X9X9X9X9X9X9X9X9X",
"9X9X9X9X9X9X9X9X9X9X9X9X9X9X9X9X9X9X9X9X9X9X9X9X9X9X9X9X9X9X9X9X9X9X9X9X9X9X9X9X9X9X9X9X9X9X9X9X9X9X9X9X9X9X9X9X9X9X9X9X9X9X9X9X",
"9X9X9X9X9X9X9X9X9X9X9X9X9X9X@ @ + +     @ @ 9X9X9X9X9X9X9X9X9X9X9X9X@ + +   +   @ @ 9X9X9X9X9X9X9X9X9X9X9X9X9X9X9X9X9X9X9X9X9X9X",
"9X9X9X9X9X9X9X9X9X9X9X9X@ @ @ @ O O # @ @ @ @ @ 9X9X9X9X9X9X9X9X@ @ @ @ @ @ @ @ @ @ @ @ 9X9X9X9X9X9X9X9X9X9X9X9X9X9X9X9X9X9X9X9X",
"9X9X9X9X9X9X9X9X9X9X9X9X@ @ O % < 1 1 < % # @ + 9X9X9X9X9X9X9X9X@ # # & & 1 < & & @ @ + 9X9X9X9X9X9X9X9X9X9X9X9X9X9X9X9X9X9X9X9X",
"9X9X9X9X9X9X9X9X9X9X9X9X@ @ & 7 s A d i 8 % O o   + 9X9X9X9X@ @ @ @ % 8 s A A s 1 # +     + 9X9X9X9X9X9X9X9X9X9X9X9X9X9X9X9X9X9X",
"9X9X9X9X9X9X9X9X9X9X9X9X  # < s ~ 4.4.~ s & O X +   + + @ @ @ + + @ 1 s ~ 5.4.~ i % + +   + O X @ @ @ 9X9X9X9X9X9X9X9X9X9X9X9X9X",
"9X9X9X9X9X9X9X9X9X9X9X9X+ @ 1 A 4.k.k.7.! 7 & O & & & & # @ @ + + @ 1 S 5.k.z.7.! 7 & & & & % % # @ @ @ 9X9X9X9X9X9X9X9X9X9X9X9X",
"9X9X9X9X9X9X9X9X9X9X9X9X  @ 8 S 7.c.V.k.6.S a a s s s 7 < # O + + + 1 ! 8.N.C.k.4.! d a a d s 7 1 # @ @ @ 9X9X9X9X9X9X9X9X9X9X9X",
"9X9X9X9X9X9X9X9X9X9X9X9X+ # 8 S 5.c.V.V.k.8.3.3.3.3.( d 7 < o     @ 1 ! 7.v.A.V.z.8.7.5.5.3./ S 7 & O X   + @ @ @ @ @ 9X9X9X9X9X",
"9X9X9X9X9X9X9X9X9X9X9X9X  @ 1 A 5.x.A.A.C.N.N.N.V.c.j./ d 8 @ + + @ 8 d 5.x.V.A.C.N.c.N.v.c.l./ d 8 @ + @ @ @ @ @ @ @ @ 9X9X9X9X",
"9X9X9X9X9X9X9X9X9X9X9X9X  @ 1 D 0.D.F.G.H.F.G.H.H.F.S.0.L e % $ @ = e D =.9.n.M.B.M.M.M.M.M.t.=.D e = % : = = % % @ @ @ 9X9X9X9X",
"9X9X9X9X9X9X9X9X9X9X9X9X  @ 5 T f.|.$X&X&X%X%X&X&X%X|.).d.v q , , w l Z G ,.q.w.q.w.w.w.w.q.,.2.F l q 0 w q 0 - = % @ O 9X9X9X9X",
"9X9X9X9X9X9X9X9X9X9X9X9X. # t E Y.*X<X7X6X6X6X7X7X6X:X).a.R b k c C m V ' ] | | | | | | | | ..' V m b b x x j 0 = % @ O 9X9X9X9X",
"9X9X9X9X9X9X9X9X9X9X9X9X. # t W ~.1X8X8X8X3X3X3X3X4X,X/.a.o.M n m M M M ) N N M B M B M ) M B M V M M M M M m h - = @ O 9X9X9X9X",
"9X9X9X9X9X9X9X9X9X9X9X9X. @ t W `.1X5X5X2X#X@X@X@X@X].E.&.[ ) ) n ) ) M M M M n n n n n n n n M M ) ) _ ) ) m h 0 % @ @ 9X9X9X9X",
"9X9X9X9X9X9X9X9X9X9X9X9X. @ u W `.1X5X,X@XE.&.&.U.p.&.$.o.` ) M ) ) M M M n M M M n M M M M M M M M M ) _ M b h , % @ X 9X9X9X9X",
"9X9X9X9X9X9X9X9X9X9X9X9X. # t W `.:X4X=XE.$.` ) B B ) B ) M n M M M M M M M M M ) M M M M M B M M M M ) M M m q - % @ @ 9X9X9X9X",
"9X9X9X9X9X9X9X9X9X9X9X9X  @ t E Y.+X=X.Xp.o.n c k k h k c c x x m M M ) M M M M M M ) M M ) M M M M M ) B B m h 0 % @ @ 9X9X9X9X",
"9X9X9X9X9X9X9X9X9X9X9X9X  # 5 H f.D.|.h.g.' n k , , , > - 0 0 h x M M M M M M M ) ) M ) M M M M M M M ) ) ) m j 4 % @ O 9X9X9X9X",
"9X9X9X9X9X9X9X9X9X9X9X9X+ # 8 S r.M.S.y.<.{ b g , = = O % % - 0 h m M B ) M M M M M M M M M M M M M M B M M m q - = @ O 9X9X9X9X",
"9X9X9X9X9X9X9X9X9X9X9X9X+ @ 8 S 7.B.N.t.<.] b g ; % O X O O % > h b M ) M M V m m m m m m M M M M M M m M m j w - % @ O 9X9X9X9X",
"9X9X9X9X9X9X9X9X9X9X9X9X  @ 8 S 7.x.v.t.<.{ b q ; # X X X O # 4 g b M ) ) B m b h q g h x M M ) ) M M b h q 0 - = # @ O 9X9X9X9X",
"9X9X9X9X9X9X9X9X9X9X9X9X+ @ 1 A 3.x.v.b.1.] m g ; $ @ + X O % 4 h m M ) ) M m j w ; ; 0 j m M ) ) V m j w 2 = % # # @ @ 9X9X9X9X",
"9X9X9X9X9X9X9X9X9X9X9X9X  @ 1 A 4.j.m.y.>.] m g , = % @ @ % = 0 h m M ) ) M m h w = = 0 h m M _ ) V m j 0 = % @ @ $ @ @ 9X9X9X9X",
"9X9X9X9X9X9X9X9X9X9X9X9X+ @ 1 p ^ e.w.<. .' M c q 0 4 ; 2 4 0 g x m M ) ) V m x w 0 0 w j m B ) ) M m x g 0 2 = % $ @ @ 9X9X9X9X",
"9X9X9X9X9X9X9X9X9X9X9X9XX # = e Z }  . .] N M b x j h h h j j x m m M ) M M V m x j c x m m M M M M M m b h q 0 = % @ O 9X9X9X9X",
"9X9X9X9X9X9X9X9X9X9X9X9X@ @ % 0 l V ` _ _ ) M M M m M m m M m M M B M M M M M M M m M M M M M M M M M M M M x q ; % @ O 9X9X9X9X",
"9X9X9X9X9X9X9X9X9X9X9X9X@ @ % - g C n ) M M M M B ) M ) B M ) M M M M M M ) M M ) ) M M M B ) M M ) ) ) ) ) m h 0 % @ O 9X9X9X9X",
"9X9X9X9X9X9X9X9X9X9X9X9XX @ % ; q c n n M M M M M ) M ) M ) M B M M M M M ) ) ) ) ` ) ) ) ) ) M ) ) ) ) ) ) m h 4 % @ O 9X9X9X9X",
"9X9X9X9X9X9X9X9X9X9X9X9X@ @ % 4 h m M M ) M M M M M M M M M M M M M M M M M M M M M M M M M M M M M M M ) M m h 2 % @ O 9X9X9X9X",
"9X9X9X9X9X9X9X9X9X9X9X9X@ @ = 9 z J ] ' _ B M M M M M M M M M ) M M M m m b C m b b b b b b b m b m m m m m x w 2 % @ O 9X9X9X9X",
"9X9X9X9X9X9X9X9X9X9X9X9X  @ < r G -.>. ..._ M M M M M M M M n m n M n j h q q q 0 q q 0 , q q 0 q q q q q q 0 4 = % @ O 9X9X9X9X",
"9X9X9X9X9X9X9X9X9X9X9X9X+ @ < d ( r.t.q.:.' M M M M M M M n M n M M b k , - : : : = = % = : = = = = = - - = = % % @ @ @ 9X9X9X9X",
"9X9X9X9X9X9X9X9X9X9X9X9X  @ 8 A 4.k.M.t.>.] M n n M M _ _ ) ` X.` ` B v q 5 = < * 3 3 * 3 3 3 = % % @ # @ @ % % O @ @ @ 9X9X9X9X",
"9X9X9X9X9X9X9X9X9X9X9X9X  @ 1 S 7.c.C.b.1.] M n n M M [ O.$.%.i.i.%.%.E E T I I P P P P Y Y P t 5 # O X X O O O @ @ @ 9X9X9X9X9X",
"9X9X9X9X9X9X9X9X9X9X9X9X+ @ 8 S 7.c.C.b.1.] M n n n ) +.s.R.Q.!.!.Q.W.W.P.P.L.L.K.K.K.K.K.P.^ T y * + X X 9X9X9X9X9X9X9X9X9X9X9X",
"9X9X9X9X9X9X9X9X9X9X9X9X+ @ 1 A 3.z.M.t.,.] M n n B O.i.R./.OXoXoXXXXXXXXX X X X X X XOXOXOX~.J.P 5 @   9X9X9X9X9X9X9X9X9X9X9X9X",
"9X9X9X9X9X9X9X9X9X9X9X+   @ 1 A ( r.t.q.:.' B B [ +.%.I.^.XX-X;X-X-X-X-X-X;X-X-X;X+X;X;X;X1X[.L.T t @   9X9X9X9X9X9X9X9X9X9X9X9X",
"9X9X9X9X9X9X@ @ O X @   X @ & r G -.<.:.] ' ` X.%.I.R.^.}.+X-X;X;X-X;X;X;X;X;X;X;X;X;X>X:X;X XK.Y t $ . 9X9X9X9X9X9X9X9X9X9X9X9X",
"9X9X9X9X@ @ @ @ @ @ @ X + @ = 9 z K ] ' _ N [ %.I.^.[.oXoX+X-X;X-X-X-X-X-X-X-X-X-X-X-X;X;X+X'.L.Y t # . 9X9X9X9X9X9X9X9X9X9X9X9X",
"9X9X9X9X@ @ @ # % % % % % % = 0 x m M M M M X.i.W. X+X;X-X-X+X+X-X-X-X-X+X-X-X-X*X-X-X-X;X+X'.J.Y t #   9X9X9X9X9X9X9X9X9X9X9X9X",
"9X9X9X9X@ @ @ = = ; 0 0 4 0 q g c b n n n M o.s.!.oX;X;X;X-X-X-X+X+X*X-X-X-X+X+X*X*X-X;X;X+X'.J.U 5 # . 9X9X9X9X9X9X9X9X9X9X9X9X",
"9X9X9X9XO @ % = 0 h x x j j j C C n n n n M [ s.!.XX;X;X;X-X*X-X-X-X-X-X+X-X-X-X*X-X;X;X;XoX'.J.Y 5 @ . 9X9X9X9X9X9X9X9X9X9X9X9X",
"9X9X9X9XO @ % 4 q x m M M m V N N N _ _ M M [ i.R.[.oX+X+X*X-X;X-X+X+X+X+X-X+X+X*X-X+X;X;X+X'.J.Y t @   9X9X9X9X9X9X9X9X9X9X9X9X",
"9X9X9X9X@ @ % = 0 h C b m ) _ { |  .} ..' B [ $.U.W.^.}.oX+X-X;X-X-X-X+X;X+X-X+X-X-X-X;X;X+X'.K.Y 5 @   9X9X9X9X9X9X9X9X9X9X9X9X",
"9X9X9X9X@ # # % = 4 q h b M '  .,.w.q.,.| ' ` X.+.%.I.Q.[.oX-X-X;X;X;X;X-X;X;X;X-X-X1X;X:X;X XK.Y 5 O   9X9X9X9X9X9X9X9X9X9X9X9X",
"9X9X9X9X@ @ @ # # % - , g b ' >.w.m.n.w.>.] M M M [ @.a.!.XX*X-X*X*X*X*X*X*X*X*X+X*X*X-X;X+X/.J.Y 5 @   9X9X9X9X9X9X9X9X9X9X9X9X",
"9X9X9X9X9X@ @ O O @ $ - , c J -.t.N.N.t.,.] M n n M [ %.T.!.(.[.[.[.[.(.[.(.(.(.[.(.[.XX[.[.W.u.I 5 O   9X9X9X9X9X9X9X9X9X9X9X9X",
"9X9X9X9X9X9X@ @ O O $ $ = 0 z 2.9.v.Z.b.,.] M n n M ) O.%.g.T.E.E.T.T.E.T.T.T.T.I.T.I.T.T.I.s.E y 3 O O 9X9X9X9X9X9X9X9X9X9X9X9X",
"9X9X9X9X9X9X9X@ @ @ @ $ # = e ^ 9.c.v.t.,.] B n n M ) ` [ +.+.+.+.+.+.+.+.O.+.+.+.+.+.@.@.+.R v w = O O 9X9X9X9X9X9X9X9X9X9X9X9X",
"9X9X9X9X9X9X9X9X@ @ @ @ + @ 1 A 4.j.m.y.>.' V n n m m m m m M m m m M m m m V V M M ) ) ) M m h 2 = O O 9X9X9X9X9X9X9X9X9X9X9X9X",
"9X9X9X9X9X9X9X9X9X@ @ X + @ < p ^ e.q.1. .[ M b x h g g q h , g g q g q g g g k b b M ) ) M C g - = O O 9X9X9X9X9X9X9X9X9X9X9X9X",
"9X9X9X9X9X9X9X9X9X9X9X@ X @ = e Z }  . .{ _ m x q 0 - - - ; - - - - - = > - , q j m M ) ) M m h 2 = O O 9X9X9X9X9X9X9X9X9X9X9X9X",
"9X9X9X9X9X9X9X9X9X9X9X9X+ # % 0 l V _ _ _ M m h 0 = # # # # # # O % % O O O = 2 h b n ) M M x q 4 % O O 9X9X9X9X9X9X9X9X9X9X9X9X",
"9X9X9X9X9X9X9X9X9X9X9X9XO @ % , g b M n m x h 0 = % @ O O O O O O O O O O @ % - 0 h x x x j h 0 - % @ O 9X9X9X9X9X9X9X9X9X9X9X9X",
"9X9X9X9X9X9X9X9X9X9X9X9XO @ % ; g b n b g w ; = % @ O O O O 9X9X9X9XO O O O @ % = 4 0 0 0 4 4 - % # @ @ 9X9X9X9X9X9X9X9X9X9X9X9X",
"9X9X9X9X9X9X9X9X9X9X9X9XO @ = 4 h m m x w - % $ @ @ @ @ 9X9X9X9X9X9X9X9X@ @ @ # % % % % % % % % # $ $ O 9X9X9X9X9X9X9X9X9X9X9X9X",
"9X9X9X9X9X9X9X9X9X9X9X9XO @ % - w j h q , % @ @ @ @ @ @ 9X9X9X9X9X9X9X9X@ @ @ @ @ @ @ @ @ @ @ @ @ @ # # 9X9X9X9X9X9X9X9X9X9X9X9X",
"9X9X9X9X9X9X9X9X9X9X9X9XO @ % = - 0 q 4 = % O O @ @ 9X9X9X9X9X9X9X9X9X9X9X9X@ @ @ O X @ X O O O @ @ 9X9X9X9X9X9X9X9X9X9X9X9X9X9X",
"9X9X9X9X9X9X9X9X9X9X9X9X@ @ # # : = = % % @ @ O @ 9X9X9X9X9X9X9X9X9X9X9X9X9X9X9X9X9X9X9X9X9X9X9X9X9X9X9X9X9X9X9X9X9X9X9X9X9X9X9X",
"9X9X9X9X9X9X9X9X9X9X9X9X@ @ @ @ # # # # O @ @ @ 9X9X9X9X9X9X9X9X9X9X9X9X9X9X9X9X9X9X9X9X9X9X9X9X9X9X9X9X9X9X9X9X9X9X9X9X9X9X9X9X",
"9X9X9X9X9X9X9X9X9X9X9X9X@ @ @ @ O O @ O O @ @ @ 9X9X9X9X9X9X9X9X9X9X9X9X9X9X9X9X9X9X9X9X9X9X9X9X9X9X9X9X9X9X9X9X9X9X9X9X9X9X9X9X"
};
