/* XPM */
static char *result[] = {
/* columns rows colors chars-per-pixel */
"64 64 218 2 ",
"   c #2B2B37",
".  c #2C2D3D",
"X  c #312E3E",
"o  c #2F313F",
"O  c #33323F",
"+  c #2C3340",
"@  c #353540",
"#  c #383740",
"$  c #373941",
"%  c #393C42",
"&  c #433F41",
"*  c #354344",
"=  c #3B4244",
"-  c #3E4A46",
";  c #3D4E48",
":  c #3D5045",
">  c #3E5149",
",  c #3F5948",
"<  c #464142",
"1  c #4D4542",
"2  c #404E47",
"3  c #4E4A44",
"4  c #49474F",
"5  c #414F48",
"6  c #4C494D",
"7  c #44434B",
"8  c #504742",
"9  c #524A43",
"0  c #5A4E43",
"q  c #405647",
"w  c #4E5247",
"e  c #435449",
"r  c #455C4B",
"t  c #485F4C",
"y  c #565A49",
"u  c #4D4A52",
"i  c #585759",
"p  c #665644",
"a  c #685C46",
"s  c #705E45",
"d  c #605F5E",
"f  c #46634D",
"g  c #4A634D",
"h  c #4B694E",
"j  c #456C4A",
"k  c #56684D",
"l  c #4D6D50",
"z  c #556556",
"x  c #4D7251",
"c  c #4D7A53",
"v  c #517553",
"b  c #547D55",
"n  c #5A7D54",
"m  c #5B7D59",
"M  c #5E715D",
"N  c #4C714F",
"B  c #6A6D4C",
"V  c #746246",
"C  c #7C6546",
"Z  c #776849",
"A  c #65724F",
"S  c #786855",
"D  c #667754",
"F  c #717F51",
"G  c #7D754C",
"H  c #6D6768",
"J  c #6C6768",
"K  c #756C67",
"L  c #667962",
"P  c #796F71",
"I  c #7B7272",
"U  c #787478",
"Y  c #836A45",
"T  c #886F48",
"R  c #886E47",
"E  c #8A7549",
"W  c #9A7B49",
"Q  c #947544",
"!  c #827A5B",
"~  c #807F75",
"^  c #578156",
"/  c #5B8155",
"(  c #5C815B",
")  c #658355",
"_  c #6A8554",
"`  c #6D8955",
"'  c #62845E",
"]  c #688558",
"[  c #728453",
"{  c #748A55",
"}  c #7D8C53",
"|  c #788351",
" . c #648561",
".. c #658962",
"X. c #6A8A65",
"o. c #6E8C6A",
"O. c #688763",
"+. c #748F6D",
"@. c #6F906D",
"#. c #72916E",
"$. c #78906F",
"%. c #789372",
"&. c #7B8A71",
"*. c #9E834C",
"=. c #92854E",
"-. c #838E54",
";. c #878851",
":. c #988D50",
">. c #8C9254",
",. c #859255",
"<. c #949654",
"1. c #9B9853",
"2. c #989754",
"3. c #AC864A",
"4. c #A9864A",
"5. c #B38B4B",
"6. c #B18848",
"7. c #BB924B",
"8. c #BC9A4F",
"9. c #A88750",
"0. c #AC9D53",
"q. c #A59752",
"w. c #B99C50",
"e. c #B5A152",
"r. c #BDA552",
"t. c #BDA959",
"y. c #ABA054",
"u. c #858875",
"i. c #819676",
"p. c #859778",
"a. c #869A7A",
"s. c #8B9B7D",
"d. c #8D9A77",
"f. c #919B63",
"g. c #AA8E65",
"h. c #AE9975",
"j. c #BCAF6D",
"k. c #C3964C",
"l. c #C69C4E",
"z. c #D5A34D",
"x. c #DAA54E",
"c. c #DDAC4E",
"v. c #C2A652",
"b. c #C5A853",
"n. c #CAAA53",
"m. c #CEA256",
"M. c #D4AB52",
"N. c #DDAD51",
"B. c #D5A957",
"V. c #CCA14F",
"C. c #E5AD4C",
"Z. c #E1AF51",
"A. c #E3B151",
"S. c #EAB150",
"D. c #EBB65A",
"F. c #E9B45A",
"G. c #EDB654",
"H. c #D9B675",
"J. c #D3AF71",
"K. c #F8CB7F",
"L. c #F6CA7F",
"P. c #EEC47C",
"I. c #958B85",
"U. c #998E88",
"Y. c #988D87",
"T. c #8F9D80",
"R. c #9D9C8A",
"E. c #AA9D95",
"W. c #A79E96",
"Q. c #AC9981",
"!. c #9BA389",
"~. c #96A385",
"^. c #94AB90",
"/. c #A1A78D",
"(. c #ADA196",
"). c #A6A990",
"_. c #ADAE96",
"`. c #AEA199",
"'. c #B4AB9B",
"]. c #A2B39B",
"[. c #B4B19B",
"{. c #BAB49F",
"}. c #B9B389",
"|. c #A9A4A5",
" X c #BDAEA2",
".X c #BDB6A2",
"XX c #ABB9A6",
"oX c #D4BC98",
"OX c #C4B9A6",
"+X c #CCBDAD",
"@X c #C4B6A7",
"#X c #D0BFB0",
"$X c #BEC3AC",
"%X c #D7C599",
"&X c #FDCE81",
"*X c #E0C99F",
"=X c #CFC1AF",
"-X c #D0C2AF",
";X c #C4CCBB",
":X c #D4C2B2",
">X c #D9C5B6",
",X c #DCC9B8",
"<X c #D8C9B8",
"1X c #D8D1BA",
"2X c #FBDCAD",
"3X c #F7D9AC",
"4X c #EED3A7",
"5X c #D3CDC9",
"6X c #CED0C1",
"7X c #D1D2C4",
"8X c #D9DACF",
"9X c #DEDCD0",
"0X c #EBDECA",
"qX c #E2DFD9",
"wX c #EFE0CC",
"eX c #F1E2CE",
"rX c #E8E3D9",
"tX c None",
/* pixels */
"tXtXtXtXtXtXtXtXtXtXtXtX@ @ @ @ O o o O O O O O tXtXtXtXtXtXtXtX% O $ O o O o o @ @ @ @ tXtXtXtXtXtXtXtXtXtXtXtXtXtXtXtXtXtXtXtX",
"tXtXtXtXtXtXtXtXtXtXtXtX@ @ @ @ % O O O O % O O tXtXtXtXtXtXtXtX% O O O % O O O # # @ @ tXtXtXtXtXtXtXtXtXtXtXtXtXtXtXtXtXtXtXtX",
"tXtXtXtXtXtXtXtXtXtXtXtX@ @ # < 1 0 0 1 1 & O o o tXtXtXtXtXtXO O O % < 8 0 y 0 & & @ + + tXtXtXtXtXtXtXtXtXtXtXtXtXtXtXtXtXtXtX",
"tXtXtXtXtXtXtXtXtXtXtXtX@ @ & 0 V R R V w O o o . o o tXtXO O O o $ < 0 V R R V & & + + + + + + @ @ tXtXtXtXtXtXtXtXtXtXtXtXtXtX",
"tXtXtXtXtXtXtXtXtXtXtXtX. @ < s Q 7.7.*.V 1 O o + $ O O O O O O @ @ 3 s W 7.7.W s & @ @ + @ @ @ @ @ @ @ tXtXtXtXtXtXtXtXtXtXtXtX",
"tXtXtXtXtXtXtXtXtXtXtXtX. @ 3 C 4.z.z.7.R p 8 1 1 1 1 < < O O o + @ 8 C 5.z.z.7.Q p 9 & 1 1 3 & % @ @ @ tXtXtXtXtXtXtXtXtXtXtXtX",
"tXtXtXtXtXtXtXtXtXtXtXtX. @ 8 C 6.x.C.z.6.Q Y Y C Y V p 8 & O o . @ 8 C 5.Z.S.z.5.W R Y Y Y C p 8 & @ @ X . tXtXtXtXtXtXtXtXtXtX",
"tXtXtXtXtXtXtXtXtXtXtXtX+ @ 1 C 6.x.C.C.z.k.7.7.8.7.4.Y p < O   . @ 1 C 5.x.S.S.x.l.k.k.k.k.4.T p & O X @ O @ @ @ @ @ tXtXtXtXtX",
"tXtXtXtXtXtXtXtXtXtXtXtX. @ 3 Z 9.m.D.D.D.D.F.D.D.F.m.4.Z 3 % + + @ 3 Z 4.l.A.S.A.N.N.N.A.N.l.4.V 3 % + @ $ $ @ @ @ @ @ tXtXtXtX",
"tXtXtXtXtXtXtXtXtXtXtXtX. @ 6 S g.J.P.K.K.K.K.K.&XK.H.h.! y ; * % - w B =.0.r.b.b.v.b.n.b.b.0.=.B w 2 - - - - = % $ @ @ tXtXtXtX",
"tXtXtXtXtXtXtXtXtXtXtXtX  # 6 K R.oX4X2X2X3X3X2X2X3X*X}.u.D f , r g k A | ;.>.<.<.<.2.<.2.<.,.[ D k g f f f r 5 = % @ @ tXtXtXtX",
"tXtXtXtXtXtXtXtXtXtXtXtX  O u P W.<XwXeXeXwXwXwXeX0X<XXXT.O.c N x v v b n ) ' ) ) ) ) ) ) ] D ( n b v v v v l t ; % @ @ tXtXtXtX",
"tXtXtXtXtXtXtXtXtXtXtXtX  @ u U |.5XrXqX9X7X6X7X7X;X;X].a...^ ^ b b b b b b b b b b b b c b b b b b b ( / b v g e % @ O tXtXtXtX",
"tXtXtXtXtXtXtXtXtXtXtXtX  $ i U |.5XqX8X$XXX].].].].^.s.#...^ ^ b ^ b ^ b b b c b c c c b b c b b b ^ ^ ^ ^ v g ; % @ O tXtXtXtX",
"tXtXtXtXtXtXtXtXtXtXtXtX. @ u U |.5X8X$XXXT.%.@.#.#.#.X.' / n b b b b b b b b c b b b b b b b b b ^ b ^ ^ b v g 2 % @ O tXtXtXtX",
"tXtXtXtXtXtXtXtXtXtXtXtX. $ u U `.<X1X$X^.X.b c v v v b v v v b b b b b b b b ^ b b b b b b b b b b b b b b v g - = @ O tXtXtXtX",
"tXtXtXtXtXtXtXtXtXtXtXtX. @ 6 K h.oX%X}.d.] c j j f r f r f g h v v b b b b b b b ^ n b ^ b b b b b ^ ^ ^ b v f e % @ X tXtXtXtX",
"tXtXtXtXtXtXtXtXtXtXtXtX. O 6 S g.H.H.j.f.` x j , - = * = 2 e t l b m b n b b b m b b b b n b b b b b ^ ( b v g e % @ @ tXtXtXtX",
"tXtXtXtXtXtXtXtXtXtXtXtXo @ 3 C 9.B.B.t.<._ v f ; = # @ O O - e g v b ^ ^ b b b b b b b b b b b b b b b m v l t ; % @ @ tXtXtXtX",
"tXtXtXtXtXtXtXtXtXtXtXtX. @ 8 C 6.x.c.v.<._ x f - $ @ X X O O e t x b ^ ^ b b x l l l l v b b b n b b v x l t e = % @ @ tXtXtXtX",
"tXtXtXtXtXtXtXtXtXtXtXtX+ @ 3 C 6.z.c.v.2.` x f ; $ @ . X O # - g v b b ^ b b l t r e t l v b ^ ^ b v l t e - - % @ @ @ tXtXtXtX",
"tXtXtXtXtXtXtXtXtXtXtXtX+ @ 3 V 4.z.N.r.<.] x f ; = @ X O O = e g v b / ^ b v g e = = e g v b / / b v h e - % @ @ @ @ @ tXtXtXtX",
"tXtXtXtXtXtXtXtXtXtXtXtX+ @ 1 V *.8.v.y.>.) v f e - = = % = - e h v b ^ ( b v g e 2 5 e h v b ^ ^ b v h e - % % $ @ @ @ tXtXtXtX",
"tXtXtXtXtXtXtXtXtXtXtXtXX @ < p G :.1.>.{ m b x f t e e e e r g l b b b b n v l t r r g h b b ( ^ b b l h r 5 - = # @ @ tXtXtXtX",
"tXtXtXtXtXtXtXtXtXtXtXtX+ @ % w k F [ ` ' n b v v l l l h h N v v b b ^ b n b v x v l v v b b b b b b b v l g e - # @ @ tXtXtXtX",
"tXtXtXtXtXtXtXtXtXtXtXtX@ @ % 2 g v n n ^ b b b b b b b b b b n b b b b b b b b b b b b b b b b b b b ^ b b v g ; = @ X tXtXtXtX",
"tXtXtXtXtXtXtXtXtXtXtXtX@ @ % ; , x c c b b b b ^ ^ b b ^ ^ b ^ b m b b b ^ ^ ^ ^ ^ ^ n b b b b ^ b ^ ^ ^ / v g e % @ O tXtXtXtX",
"tXtXtXtXtXtXtXtXtXtXtXtX@ @ % ; f x c ^ ^ b b ^ b n b ^ ^ ^ b b b b b b b b ^ ^ ^ / ^ b b ( ^ ^ b / ^ ^ ^ ^ v g 5 % @ @ tXtXtXtX",
"tXtXtXtXtXtXtXtXtXtXtXtX@ @ = 5 f v m ( b b b b b b b b b ^ b b b b b n b b v b b v n b b b b b b v b b b b l g e % @ O tXtXtXtX",
"tXtXtXtXtXtXtXtXtXtXtXtXX @ = w A F { { ) / b b b b b b b b b b b b b v x l h h j j h h h h g h l l l l l l g e = # @ O tXtXtXtX",
"tXtXtXtXtXtXtXtXtXtXtXtX+ @ < p G :.1.>.{ ) b b b b b b b b c b b c v j r > - - : : : - - - > > e e e e e e 5 - = $ @ @ tXtXtXtX",
"tXtXtXtXtXtXtXtXtXtXtXtX. @ 3 s W l.b.0.>._ b c b b b b b b b b b b v j e - = = % % = = = = = % = % = % % = % % $ @ @ @ tXtXtXtX",
"tXtXtXtXtXtXtXtXtXtXtXtX+ @ 1 C 3.z.N.r.<.` b c c b n ( '  .O.X.O.] L M z i 6 4 u u u u u u & & & % @ @ @ @ @ @ @ @ @ @ tXtXtXtX",
"tXtXtXtXtXtXtXtXtXtXtXtX+ @ 8 Y 5.x.Z.b.<.` b c c b m ' #.p.s.s.T.T.s.u.U ~ P P P I P I I P H i u & @ @ + @ @ @ @ @ tXtXtXtXtXtX",
"tXtXtXtXtXtXtXtXtXtXtXtX+ @ 8 C 3.x.N.b.<.) b c c c ' +.s._.'.{.[.[.'._.`.E.E.E.E.E.E.(.(.E.U.~ J & @ + + tXtXtXtXtXtXtXtXtXtXtX",
"tXtXtXtXtXtXtXtXtXtXtXtX. @ 8 s 9.V.n.w.>.` b b b ( X.s./.@X+X-X:X+X=X+X+X+X+X+X+X+X+X-X:X+X'.I.J & @ X tXtXtXtXtXtXtXtXtXtXtXtX",
"tXtXtXtXtXtXtXtXtXtXtX. . @ < a E q.0.2.} ) / ( X.+.s./.{.+X:X>X>X:X:X:X>X>X>X>X>X>X>X,X,X:X@XY.H 4 @ . tXtXtXtXtXtXtXtXtXtXtXtX",
"tXtXtXtXtX@ @ @ @ @ @ X X @ & y B ;.-.} _ n ' o.p.!._.{.OX#X:X>X:X>X:X:X>X:X>X:X:X:X:X,X>X#X@XY.H u @ . tXtXtXtXtXtXtXtXtXtXtXtX",
"tXtXtXtX@ @ @ @ @ $ @ @ @ # = e k n D / b n O.%.!.{.OX+X:X#X:X#X:X:X:X:X:X:X:X:X#X:X:X>X>X:X XI.H 4 @ . tXtXtXtXtXtXtXtXtXtXtXtX",
"tXtXtXtX@ @ $ % % = = = = = 2 r g c c c b b O.a.).OX:X>X:X:X#X:X:X#X#X:X=X-X:X=X:X:X:X>X>X#X XI.H 4 @ + tXtXtXtXtXtXtXtXtXtXtXtX",
"tXtXtXtXO @ # = 2 e t r r r r f l c c c c b  .a._.OX>X>X>X:X#X:X:X:X#X:X:X-X#X:X:X:X:X:X>X#X@XI.H 6 O . tXtXtXtXtXtXtXtXtXtXtXtX",
"tXtXtXtXO @ = - e h l v x x v v c c b b c b  .p.).OX:X>X>X:X:X#X#X:X:X#X#X:X:X#X#X:X:X:X>X#X XI.H 6 O . tXtXtXtXtXtXtXtXtXtXtXtX",
"tXtXtXtXO @ % - r l x b v b n / D ] ] / ^ ^ ' %.~.'.OX=X#X:X:X:X:X:X:X#X#X:X:X-X-X:X:X>X>X#X XI.H u $ . tXtXtXtXtXtXtXtXtXtXtXtX",
"tXtXtXtXO @ % = 5 r h x v m ' ` } >.,.} _ D m +.i.~.).[.OX+X:X>X:X>X:X:X:X>X:X>X>X:X>X>X>X#X@XY.H 6 $   tXtXtXtXtXtXtXtXtXtXtXtX",
"tXtXtXtX@ @ $ # % = e r l b ) ,.q.0.e.1.} ) n ( ..+.i.!.[.+X:X>X>X>X:X:X>X:X:X:X:X>X:X,X,X:X@XY.H 4 @   tXtXtXtXtXtXtXtXtXtXtXtX",
"tXtXtXtX@ @ @ @ @ @ = ; r v ) >.e.M.M.w.>.` b c b / X.i.!.{.+X=X+X+X+X+X+X+X+X+X+X+X+X-X-X+X'.I.J 4 # . tXtXtXtXtXtXtXtXtXtXtXtX",
"tXtXtXtXtX@ @ @ @ @ @ * ; t A =.r.N.c.v.<.` b c c c ' #.s./._.[._._._._._._._._._._._._.[._.R.U d 4 @ X . tXtXtXtXtXtXtXtXtXtXtX",
"tXtXtXtXtXtXtXO @ @ @ $ * - y E 7.Z.Z.b.<.` b c c b / O.#.i.a.s.s.a.s.a.s.a.s.p.p.p.p.s.s.p.&.D i % @ X @ @ @ tXtXtXtXtXtXtXtXtX",
"tXtXtXtXtXtXtXtX@ @ @ + $ % w C 5.z.M.t.>._ b b c b b m ( ' '  .'  .' '  .' ' ' ' ' ' ' ..' m z e % @ @ @ @ @ @ tXtXtXtXtXtXtXtX",
"tXtXtXtXtXtXtXtX@ @ @ $ $ * w Z *.w.v.0.,.) b c x l v l l N l l l l l h x h N v b b b ^ ^ b v g r - = % $ $ @ @ tXtXtXtXtXtXtXtX",
"tXtXtXtXtXtXtXtXO @ # % = e k B ;.:.2.>.{ ) b x h t e r q q q e q q , q q q r f j b b ^ ^ b v N h t e - = $ @ X tXtXtXtXtXtXtXtX",
"tXtXtXtXtXtXtXtXO @ % - e h l n ) ` { ` ] / x l r 5 = % = = = = = = = = = = - r g c c ^ ^ b b b v l h r - # @ @ tXtXtXtXtXtXtXtX",
"tXtXtXtXtXtXtXtX@ @ % 5 g v b b m v v v v v l t - % @ @ @ @ @ # $ O O $ O % * 2 t l v v v v v v v v l r - % @ @ tXtXtXtXtXtXtXtX",
"tXtXtXtXtXtXtXtX@ @ % 5 h v b v l f f f g t r e = $ @ @ + @ X @ O O O O O O O - 2 r g f g g g g h g t e = # @ @ tXtXtXtXtXtXtXtX",
"tXtXtXtXtXtXtXtXX @ = e h v v v f > - - - - = = % $ @ @ X tXtXtXtXtXtXO O O O % < e 2 2 - 2 2 5 2 5 - = % $ @ @ tXtXtXtXtXtXtXtX",
"tXtXtXtXtXtXtXtX@ @ % 5 t l v g e = $ $ @ $ $ @ @ @ @ @ tXtXtXtXtXtXtXtX% O O % O O O O $ $ $ # @ # $ @ $ @ @ @ tXtXtXtXtXtXtXtX",
"tXtXtXtXtXtXtXtXX @ % - e g g e - $ @ X @ O @ @ @ @ @ tXtXtXtXtXtXtXtXtXtX@ @ @ @ O O O O O O O O O O @ @ @ @ tXtXtXtXtXtXtXtXtX",
"tXtXtXtXtXtXtXtX@ @ # % - 5 5 - % $ @ O @ X tXtXtXtXtXtXtXtXtXtXtXtXtXtXtXtXtXtXtXtXtXtXtXtXtXtXtXtXtXtXtXtXtXtXtXtXtXtXtXtXtXtX",
"tXtXtXtXtXtXtXtX@ @ @ # % % % $ # @ @ @ tXtXtXtXtXtXtXtXtXtXtXtXtXtXtXtXtXtXtXtXtXtXtXtXtXtXtXtXtXtXtXtXtXtXtXtXtXtXtXtXtXtXtXtX",
"tXtXtXtXtXtXtXtX@ @ @ @ @ @ @ @ @ @ @ @ tXtXtXtXtXtXtXtXtXtXtXtXtXtXtXtXtXtXtXtXtXtXtXtXtXtXtXtXtXtXtXtXtXtXtXtXtXtXtXtXtXtXtXtX",
"tXtXtXtXtXtXtXtXtXtX@ @ @ @ @ X O @ tXtXtXtXtXtXtXtXtXtXtXtXtXtXtXtXtXtXtXtXtXtXtXtXtXtXtXtXtXtXtXtXtXtXtXtXtXtXtXtXtXtXtXtXtXtX",
"tXtXtXtXtXtXtXtXtXtXtXtXtXtXtXtXtXtXtXtXtXtXtXtXtXtXtXtXtXtXtXtXtXtXtXtXtXtXtXtXtXtXtXtXtXtXtXtXtXtXtXtXtXtXtXtXtXtXtXtXtXtXtXtX",
"tXtXtXtXtXtXtXtXtXtXtXtXtXtXtXtXtXtXtXtXtXtXtXtXtXtXtXtXtXtXtXtXtXtXtXtXtXtXtXtXtXtXtXtXtXtXtXtXtXtXtXtXtXtXtXtXtXtXtXtXtXtXtXtX",
"tXtXtXtXtXtXtXtXtXtXtXtXtXtXtXtXtXtXtXtXtXtXtXtXtXtXtXtXtXtXtXtXtXtXtXtXtXtXtXtXtXtXtXtXtXtXtXtXtXtXtXtXtXtXtXtXtXtXtXtXtXtXtXtX"
};
