/* XPM */
static char *result[] = {
/* columns rows colors chars-per-pixel */
"64 64 209 2 ",
"   c #2C2E3D",
".  c #2B2B37",
"X  c #312E3D",
"o  c #2F303F",
"O  c #33313F",
"+  c #353540",
"@  c #383740",
"#  c #363941",
"$  c #393D42",
"%  c #423D41",
"&  c #423F49",
"*  c #3B4444",
"=  c #3E4A46",
"-  c #3A4947",
";  c #3F5246",
":  c #3E5349",
">  c #454142",
",  c #4D4542",
"<  c #404E47",
"1  c #43424A",
"2  c #414F48",
"3  c #4B484E",
"4  c #4B474A",
"5  c #504742",
"6  c #514B44",
"7  c #5A4E42",
"8  c #4C5247",
"9  c #425349",
"0  c #455B4A",
"q  c #47564B",
"w  c #525346",
"e  c #585647",
"r  c #4D4B52",
"t  c #585759",
"y  c #515553",
"u  c #665644",
"i  c #6C5B44",
"p  c #675945",
"a  c #715F46",
"s  c #605A5F",
"d  c #45624C",
"f  c #4A644E",
"g  c #4B6A4E",
"h  c #476B4B",
"j  c #51634C",
"k  c #59684D",
"l  c #4D724F",
"z  c #4D6D50",
"x  c #476B51",
"c  c #596A57",
"v  c #4E7252",
"b  c #4D7A54",
"n  c #517452",
"m  c #557D55",
"M  c #5A7E55",
"N  c #5A7E5A",
"B  c #597B56",
"V  c #6C6E4C",
"C  c #756246",
"Z  c #7C6546",
"A  c #76694A",
"S  c #68724E",
"D  c #77734C",
"F  c #776959",
"G  c #657B52",
"H  c #687C52",
"J  c #7F7254",
"K  c #665F64",
"L  c #676164",
"P  c #696365",
"I  c #6D6768",
"U  c #6E6869",
"Y  c #697B64",
"T  c #75736B",
"R  c #797579",
"E  c #736B6D",
"W  c #826A46",
"Q  c #826F49",
"!  c #8D7248",
"~  c #8A7C4C",
"^  c #9C7C4A",
"/  c #967B49",
"(  c #578156",
")  c #5C8155",
"_  c #5D825B",
"`  c #648354",
"'  c #6B8554",
"]  c #62845E",
"[  c #6A8956",
"{  c #748954",
"}  c #7C8D54",
"|  c #778452",
" . c #658661",
".. c #668A64",
"X. c #6C8A66",
"o. c #6F8C68",
"O. c #718D6A",
"+. c #75816E",
"@. c #75916E",
"#. c #7C9372",
"$. c #7A9877",
"%. c #7B8C71",
"&. c #9A854D",
"*. c #8D8A51",
"=. c #828A53",
"-. c #849054",
";. c #8C9254",
":. c #939554",
">. c #959854",
",. c #969756",
"<. c #8E864F",
"1. c #A98446",
"2. c #A6834B",
"3. c #AB864A",
"4. c #A58348",
"5. c #B28A4B",
"6. c #B48B48",
"7. c #BA984F",
"8. c #AA8A59",
"9. c #A59C54",
"0. c #AA9E53",
"q. c #A59551",
"w. c #B59A54",
"e. c #BCA452",
"r. c #B6A557",
"t. c #8A827D",
"y. c #819575",
"u. c #849B7C",
"i. c #8C9B7D",
"p. c #869479",
"a. c #8C9268",
"s. c #AA9372",
"d. c #8FA179",
"f. c #B9AD7B",
"g. c #CD9D4D",
"h. c #C49A4E",
"j. c #CFA14F",
"k. c #D4A34E",
"l. c #D9A64D",
"z. c #DEAA4E",
"x. c #C3A552",
"c. c #CBA852",
"v. c #C9A752",
"b. c #D4AD52",
"n. c #DCAC51",
"m. c #D6A656",
"M. c #E4AD4D",
"N. c #E2AE50",
"B. c #E3B052",
"V. c #EBB452",
"C. c #D9B265",
"Z. c #D4B073",
"A. c #EDBE6D",
"S. c #F4C36F",
"D. c #F9C670",
"F. c #968B86",
"G. c #998D88",
"H. c #988D87",
"J. c #839D80",
"K. c #9C938A",
"L. c #929E82",
"P. c #A79D8D",
"I. c #96A185",
"U. c #9EA48B",
"Y. c #95A68A",
"T. c #A3A78E",
"R. c #A5A990",
"E. c #AAAB93",
"W. c #ABA29A",
"Q. c #B1AF98",
"!. c #B5B29A",
"~. c #BAB49F",
"^. c #BBBB94",
"/. c #AAB69E",
"(. c #AAA5A7",
"). c #BCAEA1",
"_. c #AABAA4",
"`. c #BCB5A1",
"'. c #B2BEAB",
"]. c #BFB8A3",
"[. c #D6BB86",
"{. c #C3B3A6",
"}. c #C2B8A5",
"|. c #C6BBA8",
" X c #CABCAB",
".X c #C7B7A9",
"XX c #D0BFAF",
"oX c #BAC3AD",
"OX c #BAC4B3",
"+X c #E8C994",
"@X c #F9D59C",
"#X c #FFD99F",
"$X c #D1C1AF",
"%X c #D5C5A5",
"&X c #D3C2B2",
"*X c #D9C6B6",
"=X c #DCCAB8",
"-X c #D9CAB8",
";X c #C9CBB9",
":X c #EDDABF",
">X c #D3CDC8",
",X c #CCD1C4",
"<X c #DED9CB",
"1X c #DAD6C5",
"2X c #DEDDD4",
"3X c #F1DEC2",
"4X c #F5E2C5",
"5X c #E9E2D7",
"6X c None",
/* pixels */
"6X6X6X6X6X6X6X6X6X6X6X6X6X6X6X6X6X6X6X6X6X6X6X6X6X6X6X6X6X6X6X6X6X6X6X6X6X6X6X6X6X6X6X6X6X6X6X6X6X6X6X6X6X6X6X6X6X6X6X6X6X6X6X6X",
"6X6X6X6X6X6X6X6X6X6X6X6X6X6X6X6X6X6X6X6X6X6X6X6X6X6X6X6X6X6X6X6X6X6X6X6X6X6X6X6X6X6X6X6X6X6X6X6X6X6X6X6X6X6X6X6X6X6X6X6X6X6X6X6X",
"6X6X6X6X6X6X6X6X6X6X6X6X6X6X6X6X6X6X6X6X6X6X6X6X6X6X6X6X6X6X6X6X6X6X6X6X6X6X6X6X6X6X6X6X6X6X6X6X6X6X6X6X6X6X6X6X6X6X6X6X6X6X6X6X",
"6X6X6X6X6X6X6X6X6X6X6X6X6X6X+ + +   +   + + 6X6X6X6X6X6X6X6X6X6X6X6X+ + +   +   + + 6X6X6X6X6X6X6X6X6X6X6X6X6X6X6X6X6X6X6X6X6X6X",
"6X6X6X6X6X6X6X6X6X6X6X6X+ + + + + + + @ + + + + 6X6X6X6X6X6X6X6X+ + + + + + + + + + + + 6X6X6X6X6X6X6X6X6X6X6X6X6X6X6X6X6X6X6X6X",
"6X6X6X6X6X6X6X6X6X6X6X6X+ + O $ > , > > $ @ + o 6X6X6X6X6X6X6X6X+ + @ % % > , % % @ + + 6X6X6X6X6X6X6X6X6X6X6X6X6X6X6X6X6X6X6X6X",
"6X6X6X6X6X6X6X6X6X6X6X6X+ + % 7 u C C u 5 @ O o +   6X6X6X6X+ + + + % 5 p C C u > @ +     + 6X6X6X6X6X6X6X6X6X6X6X6X6X6X6X6X6X6X",
"6X6X6X6X6X6X6X6X6X6X6X6X  @ > p ! 4.3.! u > O X   + + + + + + + + + , p ! 2.2.! e + +     + O + + + + 6X6X6X6X6X6X6X6X6X6X6X6X6X",
"6X6X6X6X6X6X6X6X6X6X6X6X  + , C 4.g.g.3.W 7 % O % % % O + + + + + + % Z 3.j.g.5.W 7 % $ % % @ @ @ + + + 6X6X6X6X6X6X6X6X6X6X6X6X",
"6X6X6X6X6X6X6X6X6X6X6X6X+ + , Z 5.l.M.g.4.W i i i i u 7 % +   +   + 5 Z 5.z.N.g.2.W a a i a i 7 > @ + + O 6X6X6X6X6X6X6X6X6X6X6X",
"6X6X6X6X6X6X6X6X6X6X6X6X+ @ 5 Z 3.l.M.M.h.6.1.1.1.^ / Z 7 % +   + + 5 Z 5.z.V.M.j.6.5.3.3.3.^ W u % O     + + O + + + 6X6X6X6X6X",
"6X6X6X6X6X6X6X6X6X6X6X6X  + 5 C 3.k.V.V.M.N.n.n.M.z.h.^ C 5 + + + @ , Z 3.k.V.V.N.n.l.z.l.k.h.^ a , + + + + + + + + + + 6X6X6X6X",
"6X6X6X6X6X6X6X6X6X6X6X6X  + 4 A 8.Z.A.D.S.S.S.D.D.A.C.w.J y * # + # w A &.7.c.b.m.b.b.b.b.b.7.&.A 6 * * * * * $ # + + + 6X6X6X6X",
"6X6X6X6X6X6X6X6X6X6X6X6X  + r F s.[.+X@X@X@X#X#X#X@X+XP.a.c q : : : 0 S =.:.q.9.9.0.0.0.0.9.:.<.S j 0 : 9 0 9 = * # + O 6X6X6X6X",
"6X6X6X6X6X6X6X6X6X6X6X6X  @ r E P.$X:X4X4X3X3X4X4X:X=X^.i.H n h x v n B G ' | { { { { { { { { ` B n v z n z f q < # + O 6X6X6X6X",
"6X6X6X6X6X6X6X6X6X6X6X6X. + r R W.>X5X5X5X<X<X<X<X1X;X/.u...m n b ( m m m m M m N m N m ( ( m m N m m m m m n f < $ + + 6X6X6X6X",
"6X6X6X6X6X6X6X6X6X6X6X6X. + r R (.>X2X2X,XOXoXoXoX'._.Y.$...( ( b ( N ( b m m b b b b b b b b m m ( ( ( ( ( n f 2 * O O 6X6X6X6X",
"6X6X6X6X6X6X6X6X6X6X6X6X. + y R (.>X2X;XoXY.$.$.u.J.$.@..._ m m ( ( m m m b m m m m m m m m m m m m m ( ) m v d < $ + O 6X6X6X6X",
"6X6X6X6X6X6X6X6X6X6X6X6X. @ r R (.=X1X$XY.O._ ( N N _ ( ( m m m m m m m m ( m m m m m m m m m m m m m ( ( m n 0 < * O O 6X6X6X6X",
"6X6X6X6X6X6X6X6X6X6X6X6X. # r T P.XX%X}.d...b x h h d d x x x z n m m m m m m m ( m ( m m m m m m m m N ) N n d < $ + O 6X6X6X6X",
"6X6X6X6X6X6X6X6X6X6X6X6X  @ 3 F s.[.[.f.d.` b h 0 : ; ; : 9 9 f z m m m m m m ( m ( ( N m m m m m m m ( ( m n f < $ + O 6X6X6X6X",
"6X6X6X6X6X6X6X6X6X6X6X6X  @ 5 A q.b.C.r.>.[ v d 9 * $ @ @ $ = q f n m m N m m m m m m m m m m B m m m m N m n d = * + O 6X6X6X6X",
"6X6X6X6X6X6X6X6X6X6X6X6X+ + , Z 6.l.n.e.>.' v d : # + X X + $ < f n m ( ( m B n n v v n m m m m ( m m m n n f 0 = $ + O 6X6X6X6X",
"6X6X6X6X6X6X6X6X6X6X6X6X+ + , Z 1.l.z.e.>.' m : - @ X X   + + : d n m ( m m n v f d d f z m m ( ( m n n g 0 q = * $ @ O 6X6X6X6X",
"6X6X6X6X6X6X6X6X6X6X6X6X  + , Z 5.l.z.e.,.' n d - $ + + + + @ < f n m ( ( m n f 0 = = q f n m ( ( m n z q = * # @ + + + 6X6X6X6X",
"6X6X6X6X6X6X6X6X6X6X6X6X+ + , C ^ g.c.r.;.' n d : * # + + $ * 9 f n m ( ( N n f 9 1 = 9 f n m ( ( m n f 9 = $ + @ + + + 6X6X6X6X",
"6X6X6X6X6X6X6X6X6X6X6X6X  + , p ! q.0.>.} ` m x 0 q : = = < q 0 z n m m m m n z 0 9 q 0 h n m m ( m n z 0 q = * $ # + + 6X6X6X6X",
"6X6X6X6X6X6X6X6X6X6X6X6X+ + * w V | } } ' M m v z g f f f f z z n m m m ( m m n z g f g n m m N N m m n v f f 9 * $ + O 6X6X6X6X",
"6X6X6X6X6X6X6X6X6X6X6X6XO + * < f B _ ) ) ( m m m n m n n n m m m m m m m m m m n m n m m m N m m m m m m n v 0 : $ + O 6X6X6X6X",
"6X6X6X6X6X6X6X6X6X6X6X6XO + $ = 0 l b m m m m ( m m ( m ( ( m ( m m m m m m m N ( ( ( ( m ( m m m m ( ( ( ( n f < $ + O 6X6X6X6X",
"6X6X6X6X6X6X6X6X6X6X6X6XO + $ : d x b b m m m m ( ( N ( m ( N m ( m m m m ( ( ( ( ( ( ( ( ( ( m ( ( ( ( _ ( n f < $ + O 6X6X6X6X",
"6X6X6X6X6X6X6X6X6X6X6X6XO + $ < f n m m ( m m m m m m m m m m m m m N m m m m m M m m m m m m m m m m ( m m n f < * + O 6X6X6X6X",
"6X6X6X6X6X6X6X6X6X6X6X6XO + * 8 j G ' ' ) N m m m m m m m m m m m m m n n l l n v v v v v v g n n n n n n n f 0 1 $ O O 6X6X6X6X",
"6X6X6X6X6X6X6X6X6X6X6X6X  + > e D *.;.} { ) m m m m m m m m b b m m l l h 0 0 0 q q : 0 9 0 0 0 0 0 0 0 0 q 0 < * @ # O 6X6X6X6X",
"6X6X6X6X6X6X6X6X6X6X6X6X  @ 4 i / w.e.9.-.` m m m m m m m b m m m m l d 9 = $ $ * * $ & * * * * * = = = = = * * $ @ + + 6X6X6X6X",
"6X6X6X6X6X6X6X6X6X6X6X6X+ + , a 2.j.b.e.;.' m b b m N ( ( ) _ ] ) _ N c q 2 1 = & 1 & & 1 * 1 $ $ @ @ + @ # + # O @ + + 6X6X6X6X",
"6X6X6X6X6X6X6X6X6X6X6X6X  + % Z 6.l.n.x.,.' m b b n ) ] X.@.#.y.y.#.#.T T I L L K K K K I K K r 1 @ + X X + O O + + @ 6X6X6X6X6X",
"6X6X6X6X6X6X6X6X6X6X6X6X+ + , Z 5.l.B.x.,.' m b b b _ X.p.Y.R.E.E.R.T.U.K.K.H.H.G.G.G.G.K.K.~ E t & X X X 6X6X6X6X6X6X6X6X6X6X6X",
"6X6X6X6X6X6X6X6X6X6X6X6X+ + , Z 4.k.b.e.:.' m m n N ..y.U.).}. X X|.|.|.}.{.{.{.{.{.{..X.X'.W.F.K 3 +   6X6X6X6X6X6X6X6X6X6X6X6X",
"6X6X6X6X6X6X6X6X6X6X6X+ + + , C / w.e.9.-.` ( ( _ X.#.I.Q. X&X*X*X*X&X&X*X&X*X&X*X*XXX*X*X>X).H.E r +   6X6X6X6X6X6X6X6X6X6X6X6X",
"6X6X6X6X6X6X+ O + + +     + % e D *.:.-.' ` _  .#.L.U.Q.{.$X&X*X&X&X*X*X>X*X*X*X*X*X*X=X=X*X{.G.U 3 O   6X6X6X6X6X6X6X6X6X6X6X6X",
"6X6X6X6X+ + + + + + + + + + $ 8 k H ' ' ) M ] #.L.Q.`.|. X$X&X&X&X&X&X&X&X&XXXXX&X&X&X*X*XXX).H.U 3 O   6X6X6X6X6X6X6X6X6X6X6X6X",
"6X6X6X6X+ O + # # $ $ $ + $ * q f m m n m m  .y.T.}.&X*X&X&X&X&X&XXX&XXX&XXXXXXX$X$X&X*X*XXX).F.U 3 @   6X6X6X6X6X6X6X6X6X6X6X6X",
"6X6X6X6X+ + @ * * < q 2 2 < 0 d x b b b b m  .i.E. X&X*X*X&X$X&X$X&X$X&X&XXX&X*X&X$X&X*X*XXX).F.U 3 @ . 6X6X6X6X6X6X6X6X6X6X6X6X",
"6X6X6X6XO + $ = q f h g g f h l l b b b b m ] p.R.|.*X*X&X&XXX&X&XXX&XXX&X&X&XXX&XXX&X*X*XXX).F.U 3 #   6X6X6X6X6X6X6X6X6X6X6X6X",
"6X6X6X6XO + $ < 0 z n m m m m M M ) M m n ( ] y.U.`. X&X&X&X&X&X$X&XXXXX&XXXXXXXXX&XXX*X*XXX).F.I 3 O   6X6X6X6X6X6X6X6X6X6X6X6X",
"6X6X6X6XO + # = 9 f z n m m ) [ { } } { ` ) ] @.i.T.!.{.|.XX&X*X&X&X&X*X*XXX&X*X&X&X&X*X-XXX).G.U r O o 6X6X6X6X6X6X6X6X6X6X6X6X",
"6X6X6X6X+ + @ $ = < q f z m ` } :.0.q.:.{ ` _  .O.#.i.R.`. X&X*X*X*X*XXX&X*X*XXX*X&X*X-X-X*X{.G.U 3 O . 6X6X6X6X6X6X6X6X6X6X6X6X",
"6X6X6X6X+ + + # @ $ - : d n ' ;.0.c.c.r.-.' m m ( _ O.i.E.}.$X&X&X$X$X&X&X$X$XXX$X&X&X&X&X$XQ.F.I 3 + . 6X6X6X6X6X6X6X6X6X6X6X6X",
"6X6X6X6X6X+ + O O + # - : x G *.e.n.n.e.:.' ( b b m ] #.I.E.~.}.`.`.~.~.~.~.~.~.~.~.~.].].~.W.t.L 2 @   6X6X6X6X6X6X6X6X6X6X6X6X",
"6X6X6X6X6X6X+ O O O @ # = 9 k ~ 7.B.N.x.:.' m b b m ( X.#.i.I.L.I.I.I.I.I.I.I.I.I.I.I.I.I.I.p.T t 1 + O 6X6X6X6X6X6X6X6X6X6X6X6X",
"6X6X6X6X6X6X6X+ + O @ # + * w Q 5.l.z.e.:.' m n b m ( _  .X.O.O.O.o.O.X.O.X.o.o.X.X.X.O.O.X.Y c q * + O 6X6X6X6X6X6X6X6X6X6X6X6X",
"6X6X6X6X6X6X6X6X+ + + + + $ 6 A 2.v.v.r.;.` B b b n n n m n n m m m n n n n m m m ( ( ( ( ( v f < $ + O 6X6X6X6X6X6X6X6X6X6X6X6X",
"6X6X6X6X6X6X6X6X+ + @ # * = w V <.q.0.>.} ` m v z h f 0 0 0 d 0 0 0 d 0 0 d d h v n m ( ( m l d < $ + O 6X6X6X6X6X6X6X6X6X6X6X6X",
"6X6X6X6X6X6X6X6X+ + # = 9 f n G | } } } [ _ n z 0 9 2 = = = = = = = = = = = ; d l n m ( ( n n 0 : $ + O 6X6X6X6X6X6X6X6X6X6X6X6X",
"6X6X6X6X6X6X6X6X+ + # < 0 z n m M M M M N m n d 9 * + @ # # # # O O $ O $ O * 2 d l n m N B n f < $ + + 6X6X6X6X6X6X6X6X6X6X6X6X",
"6X6X6X6X6X6X6X6XX + $ = q f z z f x f x z f f q = # + O O O O O O O O O O @ * * q f x n m m n 0 < * + O 6X6X6X6X6X6X6X6X6X6X6X6X",
"6X6X6X6X6X6X6X6X+ + # $ = < 9 9 : : : 9 9 9 < * $ + O O O O 6X6X6X6XO O O O # $ * < 0 g v n n f < $ + O 6X6X6X6X6X6X6X6X6X6X6X6X",
"6X6X6X6X6X6X6X6X+ + + # $ $ $ $ $ * $ # $ * $ # @ + + + 6X6X6X6X6X6X6X6X+ O O @ # $ * q g n n f 9 $ + O 6X6X6X6X6X6X6X6X6X6X6X6X",
"6X6X6X6X6X6X6X6X+ + + + + + + + + + + + + + + + + + + + 6X6X6X6X6X6X6X6X# + # O + + $ < f v v f 9 $ + O 6X6X6X6X6X6X6X6X6X6X6X6X",
"6X6X6X6X6X6X6X6X6X6X+ + + O O X + + X + X O O + + + 6X6X6X6X6X6X6X6X6X6X6X6X+ O + + + 2 f n n f : $ + + 6X6X6X6X6X6X6X6X6X6X6X6X",
"6X6X6X6X6X6X6X6X6X6X6X6X6X6X6X6X6X6X6X6X6X6X6X6X6X6X6X6X6X6X6X6X6X6X6X6X6X6X6XO + + @ : f z n f < $ + + 6X6X6X6X6X6X6X6X6X6X6X6X",
"6X6X6X6X6X6X6X6X6X6X6X6X6X6X6X6X6X6X6X6X6X6X6X6X6X6X6X6X6X6X6X6X6X6X6X6X6X6X6X6X+ + $ < f n v f : * + X 6X6X6X6X6X6X6X6X6X6X6X6X",
"6X6X6X6X6X6X6X6X6X6X6X6X6X6X6X6X6X6X6X6X6X6X6X6X6X6X6X6X6X6X6X6X6X6X6X6X6X6X6X6X+ + * < f n n f < @ + + 6X6X6X6X6X6X6X6X6X6X6X6X"
};
