/* XPM */
static char *result[] = {
/* columns rows colors chars-per-pixel */
"64 64 213 2 ",
"   c #2B2B37",
".  c #2C2E3D",
"X  c #312E3E",
"o  c #2F313F",
"O  c #33323F",
"+  c #2C3340",
"@  c #353540",
"#  c #383740",
"$  c #373941",
"%  c #393C42",
"&  c #433E41",
"*  c #364445",
"=  c #3B4244",
"-  c #3D4A46",
";  c #3D4E48",
":  c #3E5045",
">  c #3E5448",
",  c #454142",
"<  c #4D4542",
"1  c #404E47",
"2  c #4D4944",
"3  c #43434B",
"4  c #49474F",
"5  c #414F48",
"6  c #4C494D",
"7  c #504742",
"8  c #534A43",
"9  c #5A4E43",
"0  c #405647",
"q  c #435449",
"w  c #455C4B",
"e  c #4A5E4C",
"r  c #4E5447",
"t  c #565849",
"y  c #4D4A52",
"u  c #585859",
"i  c #665644",
"p  c #6C5C45",
"a  c #615A47",
"s  c #705E45",
"d  c #46644D",
"f  c #4A634D",
"g  c #4B6A4E",
"h  c #456C4A",
"j  c #57674C",
"k  c #4C714F",
"l  c #4D6D50",
"z  c #556456",
"x  c #4E7251",
"c  c #4D7A53",
"v  c #517552",
"b  c #547D55",
"n  c #5A7D54",
"m  c #5B7D59",
"M  c #5E715D",
"N  c #686B4B",
"B  c #746246",
"V  c #7C6546",
"C  c #786849",
"Z  c #63734F",
"A  c #60605F",
"S  c #786855",
"D  c #657753",
"F  c #717F51",
"G  c #7D754C",
"H  c #6D6768",
"J  c #6C6768",
"K  c #756C67",
"L  c #667963",
"P  c #796F71",
"I  c #7B7272",
"U  c #787478",
"Y  c #836A45",
"T  c #876E48",
"R  c #886F48",
"E  c #8A6E46",
"W  c #8A7549",
"Q  c #9A7B49",
"!  c #957646",
"~  c #827A5B",
"^  c #568156",
"/  c #5B8155",
"(  c #5C815B",
")  c #658355",
"_  c #6A8554",
"`  c #6E8955",
"'  c #62845E",
"]  c #688558",
"[  c #758A55",
"{  c #7D8C53",
"}  c #788352",
"|  c #648561",
" . c #6A8A65",
".. c #6E8C6A",
"X. c #658962",
"o. c #748E6C",
"O. c #6F906D",
"+. c #73916F",
"@. c #7E9373",
"#. c #739371",
"$. c #7C8C72",
"%. c #98834D",
"&. c #838E54",
"*. c #888951",
"=. c #988D50",
"-. c #8C9254",
";. c #829155",
":. c #949654",
">. c #999854",
",. c #AC864A",
"<. c #A7874B",
"1. c #B38B4B",
"2. c #B18848",
"3. c #BB924B",
"4. c #BC9A4F",
"5. c #A88750",
"6. c #AD9C52",
"7. c #A59752",
"8. c #B99D51",
"9. c #B5A152",
"0. c #BDA552",
"q. c #BDA959",
"w. c #ABA054",
"e. c #848675",
"r. c #859778",
"t. c #869A7A",
"y. c #8B9C7D",
"u. c #879877",
"i. c #919B63",
"p. c #AA8E65",
"a. c #AE9975",
"s. c #BCAF6D",
"d. c #C3964C",
"f. c #C69C4E",
"g. c #CCA14F",
"h. c #D5A34D",
"j. c #DAA54E",
"k. c #DDAC4E",
"l. c #C2A652",
"z. c #C5A853",
"x. c #CAAA53",
"c. c #CEA256",
"v. c #D4AB52",
"b. c #DCAD51",
"n. c #D5A957",
"m. c #E5AD4C",
"M. c #E1AF51",
"N. c #E3B152",
"B. c #EAB150",
"V. c #EBB65A",
"C. c #E9B45A",
"Z. c #EDB654",
"A. c #D3AF71",
"S. c #D9B675",
"D. c #F8CB7F",
"F. c #F6CA7F",
"G. c #EEC47C",
"H. c #958B85",
"J. c #998E88",
"K. c #988D87",
"L. c #8F9D80",
"P. c #9D9E8A",
"I. c #AA9D95",
"U. c #A79E96",
"Y. c #AC9981",
"T. c #9BA389",
"R. c #96A385",
"E. c #94AB90",
"W. c #A1A68D",
"Q. c #ADA196",
"!. c #A6A990",
"~. c #ADAE96",
"^. c #AEA199",
"/. c #B3AC9A",
"(. c #A2B39B",
"). c #B4B29B",
"_. c #BAB49F",
"`. c #B9B389",
"'. c #A9A4A5",
"]. c #BDAEA2",
"[. c #BDB6A2",
"{. c #ABB9A6",
"}. c #D4BC98",
"|. c #C4B9A6",
" X c #CCBDAD",
".X c #C4B6A7",
"XX c #D0BFB0",
"oX c #BEC3AC",
"OX c #D7C599",
"+X c #FDCE81",
"@X c #E0C99F",
"#X c #CFC1AF",
"$X c #D0C2AF",
"%X c #C4CCBB",
"&X c #D4C2B2",
"*X c #D9C5B6",
"=X c #DCC9B8",
"-X c #D8C9B8",
";X c #D8D1BA",
":X c #FBDCAD",
">X c #F7D9AC",
",X c #EED3A7",
"<X c #D3CDC9",
"1X c #CED0C1",
"2X c #D1D2C4",
"3X c #D9DACF",
"4X c #DEDCD0",
"5X c #EBDECA",
"6X c #E2DFD9",
"7X c #EFE0CC",
"8X c #F1E2CE",
"9X c #E8E3D9",
"0X c None",
/* pixels */
"0X0X0X0X0X0X0X0X0X0X0X0X@ @ @ @ O O o O O O O O 0X0X0X0X0X0X0X0X$ O O @ o o o o @ @ @ @ 0X0X0X0X0X0X0X0X0X0X0X0X0X0X0X0X0X0X0X0X",
"0X0X0X0X0X0X0X0X0X0X0X0X@ @ @ @ O O O = O O O O 0X0X0X0X0X0X0X0XO $ $ O # # # # # # @ @ 0X0X0X0X0X0X0X0X0X0X0X0X0X0X0X0X0X0X0X0X",
"0X0X0X0X0X0X0X0X0X0X0X0X@ @ # , 7 9 9 7 2 = O o o 0X0X0X0X0X0XO $ @ # , 7 9 9 7 & & @ + @ 0X0X0X0X0X0X0X0X0X0X0X0X0X0X0X0X0X0X0X",
"0X0X0X0X0X0X0X0X0X0X0X0X+ # & 9 B E E B 9 O o o . o o 0X0XO * O O @ , 9 B R R B & & + + + + + + @ @ 0X0X0X0X0X0X0X0X0X0X0X0X0X0X",
"0X0X0X0X0X0X0X0X0X0X0X0X. @ < p ! 3.3.Q p < O . + $ O O O O O O @ @ < s Q 3.3.Q s & # + + @ @ @ @ @ @ @ 0X0X0X0X0X0X0X0X0X0X0X0X",
"0X0X0X0X0X0X0X0X0X0X0X0X. # < V ,.h.h.3.W i < < < < < & , O O O + @ 7 V 1.h.h.3.! i 7 < < 7 7 & % @ @ @ 0X0X0X0X0X0X0X0X0X0X0X0X",
"0X0X0X0X0X0X0X0X0X0X0X0X+ @ 7 V ,.j.m.h.2.! Y Y V Y B i 7 O O   + @ 7 V 1.b.B.h.1.Q T Y T Y V i 7 & @ + X X 0X0X0X0X0X0X0X0X0X0X",
"0X0X0X0X0X0X0X0X0X0X0X0X. @ < V ,.j.m.m.j.d.3.3.3.3.,.E i , O O + @ 7 V 1.j.B.B.j.d.d.d.d.d.,.W i & @ X @ O @ @ @ @ @ 0X0X0X0X0X",
"0X0X0X0X0X0X0X0X0X0X0X0X+ @ < C 5.n.C.V.V.V.C.C.V.C.c.<.C 2 $ o + @ 6 V <.l.M.B.M.b.b.M.M.b.f.Q B 2 % + @ $ # # @ @ @ @ 0X0X0X0X",
"0X0X0X0X0X0X0X0X0X0X0X0X. @ 6 S p.S.G.+X+X+X+X+XD.D.S.a.~ t ; * $ - r N Q 6.0.l.z.z.z.x.x.z.6.%.N t - - - - - = % $ @ @ 0X0X0X0X",
"0X0X0X0X0X0X0X0X0X0X0X0X  # 6 K J.}.,X>X>X>X:X:X:X:X@X`.e.D d d 0 f j Z } &.-.:.:.:.:.:.:.:.&.[ D j f f d d w 1 = % @ O 0X0X0X0X",
"0X0X0X0X0X0X0X0X0X0X0X0X  O y P W.-X7X8X5X5X5X7X8X5X-X{.L.X.c k x v b n n ) ) ] ) ] ) ) ] ) ) m n b v v v v l w ; % @ @ 0X0X0X0X",
"0X0X0X0X0X0X0X0X0X0X0X0X  @ y U '.<X9X9X4X2X1X1X2X%X%X(.t.X.^ ^ b b b b b b c b b b b b b b b b v b ^ ^ ^ ^ v f q % @ O 0X0X0X0X",
"0X0X0X0X0X0X0X0X0X0X0X0X  # u U '.<X6X3X%X{.(.(.(.(.E.y.#.' ^ ^ ^ ^ ^ b ^ c b c b c c c b c c b ^ ^ ^ ^ ^ b v f ; % @ O 0X0X0X0X",
"0X0X0X0X0X0X0X0X0X0X0X0X. $ y U '.2X3X%X(.L.#.+.+.+.O. .' ( b ^ b b b b b b b b b v b b b b b b b ^ b ^ / b v f 1 % @ O 0X0X0X0X",
"0X0X0X0X0X0X0X0X0X0X0X0X. $ y U ^.&X;XoXR. .b c v v v b v v v v b b b b b b b b b b b b b b b b b b b b b b v f ; = @ O 0X0X0X0X",
"0X0X0X0X0X0X0X0X0X0X0X0X  @ y K Y.}.OX`.y.] c h h d w w w d f g v b b b b b b b b ^ n b b b b n b b ^ ^ ^ b v f 1 % @ @ 0X0X0X0X",
"0X0X0X0X0X0X0X0X0X0X0X0X+ # 7 S p.A.S.s.i.` k h > : = - = - q e l v b ^ n b b b m b b b ^ ^ b b b b b ^ / b v f 1 = @ + 0X0X0X0X",
"0X0X0X0X0X0X0X0X0X0X0X0X+ @ < C 1.n.n.q.:._ v d ; = # @ O O - 0 f v b m b b b b b b b b b b b b b b b b b b l f 1 % @ @ 0X0X0X0X",
"0X0X0X0X0X0X0X0X0X0X0X0X. @ 7 V 2.h.b.l.:._ v w - $ @ X O O O q e v b ^ ^ b b v l l l l v b b b m b b v l l f q - $ @ @ 0X0X0X0X",
"0X0X0X0X0X0X0X0X0X0X0X0X. @ 7 V 2.h.k.l.:._ v d - $ @ . X O O 1 e x b ^ ^ b b l e w q e l v b ^ ^ b v l f q ; = % @ @ @ 0X0X0X0X",
"0X0X0X0X0X0X0X0X0X0X0X0X+ @ 7 C <.h.b.0.:._ v d ; = @ X O O = q f v b ^ ^ b v f q = - q f v b ^ ^ b v g q - % $ @ @ @ @ 0X0X0X0X",
"0X0X0X0X0X0X0X0X0X0X0X0X+ @ < s %.4.l.w.-.) v d 0 - = = = = - q f v b ^ ^ n v f q 1 - q f v b / ^ b v g q 3 % % # @ @ @ 0X0X0X0X",
"0X0X0X0X0X0X0X0X0X0X0X0XX @ , a G =.>.-.[ m b l f e q q q q w f x b b m ^ b v l f q w f l b b ^ ^ b b l g w q = = # @ @ 0X0X0X0X",
"0X0X0X0X0X0X0X0X0X0X0X0X+ @ & r j F } ` ) ^ b v v l l l g l l v v b b ^ b b b v v l v v v b b b b b b b v l f q - % @ X 0X0X0X0X",
"0X0X0X0X0X0X0X0X0X0X0X0X+ @ % 5 f v n / ^ b b b b b b b b b n b b b b b b b b b b b v n b b b b b b b ^ b b v f ; % @ @ 0X0X0X0X",
"0X0X0X0X0X0X0X0X0X0X0X0X@ @ % ; > x c c b b b b ^ ^ b m ^ ^ ^ b b b m b b ^ / ^ ^ / ^ ^ ^ ^ b ^ b / ^ ^ ^ ^ v f q % @ + 0X0X0X0X",
"0X0X0X0X0X0X0X0X0X0X0X0X@ @ % 1 d x c b ^ b b b b b b ^ b ^ b ^ b b b ^ b b ^ ^ ^ ^ ^ ^ ^ b / b ^ b ^ ^ ( ^ v f 1 = @ @ 0X0X0X0X",
"0X0X0X0X0X0X0X0X0X0X0X0X@ @ % 5 f v m ( n b b b b b b b b b b b b b b ^ b b b v v b v b b b v b b v b b b b l f 1 % @ X 0X0X0X0X",
"0X0X0X0X0X0X0X0X0X0X0X0XX @ = r N _ [ ` ) / b b b b b b b b b b b ^ v v x l g f g g g g f g g l l l l l l l f q - # @ @ 0X0X0X0X",
"0X0X0X0X0X0X0X0X0X0X0X0X+ @ , a G =.>.:.[ ) b b b b b b b b b c c c k g w 0 : ; 0 : ; : ; : ; 0 q 0 q q q q 1 - = # @ @ 0X0X0X0X",
"0X0X0X0X0X0X0X0X0X0X0X0X. @ < B %.f.z.6.-.] b c b b b b b b b b ^ ^ v g q - = % O = = = % = % = % = % % = = % % # @ @ # 0X0X0X0X",
"0X0X0X0X0X0X0X0X0X0X0X0X. @ 7 C ,.h.b.0.:._ b c c b n m ' |  . .]  .L M z u y 4 y y y y y y y & & @ @ @ @ @ @ @ @ @ # @ 0X0X0X0X",
"0X0X0X0X0X0X0X0X0X0X0X0X+ @ 7 Y 1.j.M.z.:.` b c c b m | o.u.y.y.y.y.t.e.e.I P P P P P I ~ I H u y & @ + @ @ @ @ + @ 0X0X0X0X0X0X",
"0X0X0X0X0X0X0X0X0X0X0X0X+ @ 7 V ,.j.M.l.:._ b c c c ' o.L.!./.)._.)././.^.I.I.I.I.I.I.Q.'.I.J.P J & @ + + 0X0X0X0X0X0X0X0X0X0X0X",
"0X0X0X0X0X0X0X0X0X0X0X0X. @ < s 5.g.x.9.-.] b b b ( ..t.!.[. X&X#X#X X X X X X X X X X XXX X].H.H & @ + 0X0X0X0X0X0X0X0X0X0X0X0X",
"0X0X0X0X0X0X0X0X0X0X0X. + @ & p W 7.6.>.{ ] / (  .#.t.W._. X&X*X*X*X&X*X*X*X*X*X*X&X*X=X=XXX.XK.H & @ . 0X0X0X0X0X0X0X0X0X0X0X0X",
"0X0X0X0X0X@ @ @ @ O @ X X @ & t N *.&.{ _ n ( o.u.T.~.[.|. X&X*X&X&X&X&X&X*X&X&X*X*X*X=X=XXX.XK.P y @ . 0X0X0X0X0X0X0X0X0X0X0X0X",
"0X0X0X0X@ @ @ $ @ # @ @ @ # = q j n D ^ b n | @.T._..X XXX&X&XXX&X&X&XXX#X&X&X&XXX&X&X*X*XXX].H.H y @ X 0X0X0X0X0X0X0X0X0X0X0X0X",
"0X0X0X0X@ @ $ # = = = = = = 1 w f c c b b b X.u.!.|.&X*X&X&X&X&X&XXX#X&X&X&X#X&X&XXX&X*X*XXX].K.H & @ + 0X0X0X0X0X0X0X0X0X0X0X0X",
"0X0X0X0X@ @ $ = 1 q e w w w w f l c c c c b | u.~.|.-X=X*X&X&XXXXXXX&X&X&X&XXX&XXXXX&X&X*XXX.XK.H 4 @ . 0X0X0X0X0X0X0X0X0X0X0X0X",
"0X0X0X0XO @ % - q g l v v l v v c c b c c b | r.!..X&X*X&X&X&X&X&X&X&XXXXX&X&X#X&X&X&X&X*XXX/.K.H 6 @ . 0X0X0X0X0X0X0X0X0X0X0X0X",
"0X0X0X0X@ @ % ; w l x b b b n / D ] ] ) n m | @.T./..X XXXXX&X&X&X&XXX&X&X&X&X&X&X&X&X*X*XXX].H.H 4 @ . 0X0X0X0X0X0X0X0X0X0X0X0X",
"0X0X0X0XO @ # = q w f x v m ( ` { -.;.{ _ n (  .@.R.!.).|.XX&X&X*X&X&X&X&X&X&X&X&X&X&X=X*XXX.XK.H 4 # + 0X0X0X0X0X0X0X0X0X0X0X0X",
"0X0X0X0X@ @ $ # % - q w l b ) &.>.9.9.>.&.) / ( X.o.r.T.). X&X&X*X&X&X&X&X*X&X*X*X&X$X-X=X&X].K.H 4 # . 0X0X0X0X0X0X0X0X0X0X0X0X",
"0X0X0X0X@ @ @ @ @ @ % ; w v D -.9.v.v.9.-._ b c b ^  .r.W._.#X#X X X X X X X X X X X#X#X#X X/.H.H 4 O X 0X0X0X0X0X0X0X0X0X0X0X0X",
"0X0X0X0X0X@ @ @ + @ $ * > d D =.l.b.N.l.:.` b c c b ) o.t.W./././.~.~.~.~.~./.~.~./.~.).).~.T.e.J 3 #   0X0X0X0X0X0X0X0X0X0X0X0X",
"0X0X0X0X0X0X0XO @ @ $ $ % 1 j W 3.M.N.z.>.` ^ c c ^ ^ ' ..r.t.t.t.u.u.t.t.t.t.t.t.t.t.y.t.u.$.L e 3 # X 0X0X0X0X0X0X0X0X0X0X0X0X",
"0X0X0X0X0X0X0X0X@ @ @ @ + % 8 C 1.c.v.9.:._ b b c b b m ( ' ' ' ' ' ' ' | ' | ' ' | ' ' X.' m z 5 % @ + 0X0X0X0X0X0X0X0X0X0X0X0X",
"0X0X0X0X0X0X0X0X0X@ @ o + @ < s Q 1.3.7.G Z l l l l x v v b b b b b b b v x x g l l x k v g f 0 - % @ @ 0X0X0X0X0X0X0X0X0X0X0X0X",
"0X0X0X0X0X0X0X0X0X0X@ O O O & 8 s Y R C N e w 0 q w w f g c b b ^ c c g d 0 > 0 0 0 0 0 0 0 q - % # @ @ 0X0X0X0X0X0X0X0X0X0X0X0X",
"0X0X0X0X0X0X0X0X0X0X0X@ @ # O & 2 8 8 8 2 = = = = = 1 w f x b b ^ b v f w 1 = = = = = = = = % % % @ @ @ 0X0X0X0X0X0X0X0X0X0X0X0X",
"0X0X0X0X0X0X0X0X0X0X0X0X# @ @ # # # # # # @ @ @ @ @ % q f v b m n v v e 1 = @ @ @ @ O $ # @ # @ @ @ @ @ 0X0X0X0X0X0X0X0X0X0X0X0X",
"0X0X0X0X0X0X0X0X0X0X0X0X0X@ @ @ + . + . O O O X + @ % 1 f v b b k f w 1 = # O @ O O O O + @ X @ @ @ @ 0X0X0X0X0X0X0X0X0X0X0X0X0X",
"0X0X0X0X0X0X0X0X0X0X0X0X0X0X0X0X0X0X0X0X0X0X0XX @ @ # 1 f v b l e q - % $ @ @ O O 0X0X0X0X0X0X0X0X0X0X0X0X0X0X0X0X0X0X0X0X0X0X0X",
"0X0X0X0X0X0X0X0X0X0X0X0X0X0X0X0X0X0X0X0X0X0X0X0X@ @ % 1 f l l g q - % O @ @ @ @ 0X0X0X0X0X0X0X0X0X0X0X0X0X0X0X0X0X0X0X0X0X0X0X0X",
"0X0X0X0X0X0X0X0X0X0X0X0X0X0X0X0X0X0X0X0X0X0X0X0X@ @ % - 0 f f q = % O O O O $ 0X0X0X0X0X0X0X0X0X0X0X0X0X0X0X0X0X0X0X0X0X0X0X0X0X",
"0X0X0X0X0X0X0X0X0X0X0X0X0X0X0X0X0X0X0X0X0X0X0X0X@ @ $ = - 1 1 - % $ O O O $ 0X0X0X0X0X0X0X0X0X0X0X0X0X0X0X0X0X0X0X0X0X0X0X0X0X0X",
"0X0X0X0X0X0X0X0X0X0X0X0X0X0X0X0X0X0X0X0X0X0X0X0X@ @ @ # % % % % $ $ O @ 0X0X0X0X0X0X0X0X0X0X0X0X0X0X0X0X0X0X0X0X0X0X0X0X0X0X0X0X",
"0X0X0X0X0X0X0X0X0X0X0X0X0X0X0X0X0X0X0X0X0X0X0X0X@ @ @ @ @ @ @ @ O @ @ @ 0X0X0X0X0X0X0X0X0X0X0X0X0X0X0X0X0X0X0X0X0X0X0X0X0X0X0X0X",
"0X0X0X0X0X0X0X0X0X0X0X0X0X0X0X0X0X0X0X0X0X0X0X0X0X0X@ @ O O O O O @ 0X0X0X0X0X0X0X0X0X0X0X0X0X0X0X0X0X0X0X0X0X0X0X0X0X0X0X0X0X0X",
"0X0X0X0X0X0X0X0X0X0X0X0X0X0X0X0X0X0X0X0X0X0X0X0X0X0X0X0X0X0X0X0X0X0X0X0X0X0X0X0X0X0X0X0X0X0X0X0X0X0X0X0X0X0X0X0X0X0X0X0X0X0X0X0X",
"0X0X0X0X0X0X0X0X0X0X0X0X0X0X0X0X0X0X0X0X0X0X0X0X0X0X0X0X0X0X0X0X0X0X0X0X0X0X0X0X0X0X0X0X0X0X0X0X0X0X0X0X0X0X0X0X0X0X0X0X0X0X0X0X",
"0X0X0X0X0X0X0X0X0X0X0X0X0X0X0X0X0X0X0X0X0X0X0X0X0X0X0X0X0X0X0X0X0X0X0X0X0X0X0X0X0X0X0X0X0X0X0X0X0X0X0X0X0X0X0X0X0X0X0X0X0X0X0X0X"
};
