/* XPM */
static char *result[] = {
/* columns rows colors chars-per-pixel */
"64 128 27 1 ",
"  c #5EA0FF",
". c #60A1FF",
"X c #61A2FF",
"o c #62A3FF",
"O c #64A5FF",
"+ c #69A6FF",
"@ c #69A7FF",
"# c #6AA7FF",
"$ c #6AABFF",
"% c #72B0FF",
"& c #78B9FF",
"* c #80BEFF",
"= c #8DCEFF",
"- c #8FD0FF",
"; c #90D1FF",
": c #96D3FF",
"> c #98D5FF",
", c #98D6FF",
"< c #99D6FF",
"1 c #B9D6FF",
"2 c #F5F9FF",
"3 c #F6FAFF",
"4 c #F7FAFF",
"5 c #F8FBFF",
"6 c #F9FCFF",
"7 c #F9FDFF",
"8 c None",
/* pixels */
"8888888888888888888888888888888888888888888888888888888888888888",
"8888888888888888888888888888888888888888888888888888888888888888",
"88888888888888888888888888888888  888888888888888888888888888888",
"888888888888888888888888888888X@11@X8888888888888888888888888888",
"888888888888888888888888888888X#66#X8888888888888888888888888888",
"888888888888888888888888888888X#33#X8888888888888888888888888888",
"888888888888888888888888888888X#33#X8888888888888888888888888888",
"888888888888888888888888888888X#33#X8888888888888888888888888888",
"888888888888888888888888888888X#33#X8888888888888888888888888888",
"888888888888888888888888888888X#33#X8888888888888888888888888888",
"888888888888888888888888888888X#33#X8888888888888888888888888888",
"888888888888888888888888888888.+33+.8888888888888888888888888888",
"88888888888888888888888888888O&*55*&O888888888888888888888888888",
"8888888888888888888888888888XO;<77<;OX88888888888888888888888888",
"8888888888888888888888888888XO->77>-OX88888888888888888888888888",
"8888888888888888888888888888XO->77>-OX88888888888888888888888888",
"8888888888888888888888888888XO->77>-OX88888888888888888888888888",
"8888888888888888888888888888XO->77>-OX88888888888888888888888888",
"8888888888888888888888888888XO->77>-OX88888888888888888888888888",
"8888888888888888888888888888XO->77>-OX88888888888888888888888888",
"8888888888888888888888888888XO->77>-OX88888888888888888888888888",
"8888888888888888888888888888XO->77>-OX88888888888888888888888888",
"8888888888888888888888888888XO->77>-OX88888888888888888888888888",
"8888888888888888888888888888XO->77>-OX88888888888888888888888888",
"8888888888888888888888888888XO->77>-OX88888888888888888888888888",
"8888888888888888888888888888XO->77>-OX88888888888888888888888888",
"8888888888888888888888888888XO->77>-OX88888888888888888888888888",
"8888888888888888888888888888XO->77>-OX88888888888888888888888888",
"8888888888888888888888888888XO->77>-OX88888888888888888888888888",
"8888888888888888888888888888XO->77>-OX88888888888888888888888888",
"8888888888888888888888888888XO->77>-OX88888888888888888888888888",
"8888888888888888888888888888XO->77>-OX88888888888888888888888888",
"8888888888888888888888888888XO->77>-OX88888888888888888888888888",
"8888888888888888888888888888XO->77>-OX88888888888888888888888888",
"8888888888888888888888888888XO->77>-OX88888888888888888888888888",
"8888888888888888888888888888XO->77>-OX88888888888888888888888888",
"8888888888888888888888888888XO->77>-OX88888888888888888888888888",
"8888888888888888888888888888XO->77>-OX88888888888888888888888888",
"8888888888888888888888888888XO->77>-OX88888888888888888888888888",
"8888888888888888888888888888XO->77>-OX88888888888888888888888888",
"8888888888888888888888888888XO->77>-OX88888888888888888888888888",
"8888888888888888888888888888XO->77>-OX88888888888888888888888888",
"8888888888888888888888888888XO->77>-OX88888888888888888888888888",
"8888888888888888888888888888XO->77>-OX88888888888888888888888888",
"8888888888888888888888888888XO->77>-OX88888888888888888888888888",
"8888888888888888888888888888XO->77>-OX88888888888888888888888888",
"8888888888888888888888888888XO->77>-OX88888888888888888888888888",
"8888888888888888888888888888XO->77>-OX88888888888888888888888888",
"8888888888888888888888888888XO->77>-OX88888888888888888888888888",
"8888888888888888888888888888XO->77>-OX88888888888888888888888888",
"8888888888888888888888888888XO->77>-OX88888888888888888888888888",
"8888888888888888888888888888XO->77>-OX88888888888888888888888888",
"8888888888888888888888888888XO->77>-OX88888888888888888888888888",
"8888888888888888888888888888XO->77>-OX88888888888888888888888888",
"8888888888888888888888888888XO->77>-OX88888888888888888888888888",
"8888888888888888888888888888XO->77>-OX88888888888888888888888888",
"8888888888888888888888888888XO->77>-OX88888888888888888888888888",
"8888888888888888888888888888XO->77>-OX88888888888888888888888888",
"8888888888888888888888888888XO->77>-OX88888888888888888888888888",
"8888888888888888888888888888XO->77>-OX88888888888888888888888888",
"8888888888888888888888888888XO->77>-OX88888888888888888888888888",
"8888888888888888888888888888XO->77>-OX88888888888888888888888888",
"8888888888888888888888888888XO->77>-OX88888888888888888888888888",
"8888888888888888888888888888XO->77>-OX88888888888888888888888888",
"8888888888888888888888888888XO->77>-OX88888888888888888888888888",
"8888888888888888888888888888XO-,77,-OX88888888888888888888888888",
"8888888888888888888888888888XO=:66:=OX88888888888888888888888888",
"888888888888888888888888888888$%44%$8888888888888888888888888888",
"888888888888888888888888888888.@33@.8888888888888888888888888888",
"888888888888888888888888888888X#33#X8888888888888888888888888888",
"888888888888888888888888888888X#33#X8888888888888888888888888888",
"888888888888888888888888888888X#33#X8888888888888888888888888888",
"888888888888888888888888888888X#33#X8888888888888888888888888888",
"888888888888888888888888888888X#33#X8888888888888888888888888888",
"888888888888888888888888888888X#33#X8888888888888888888888888888",
"888888888888888888888888888888X#33#X8888888888888888888888888888",
"888888888888888888888888888888X#33#X8888888888888888888888888888",
"888888888888888888888888888888X#33#X8888888888888888888888888888",
"888888888888888888888888888888X#33#X8888888888888888888888888888",
"888888888888888888888888888888X#33#X8888888888888888888888888888",
"888888888888888888888888888888X#33#X8888888888888888888888888888",
"888888888888888888888888888888X#33#X8888888888888888888888888888",
"888888888888888888888888888888X#33#X8888888888888888888888888888",
"888888888888888888888888888888X#33#X8888888888888888888888888888",
"888888888888888888888888888888X#33#X8888888888888888888888888888",
"888888888888888888888888888888X#33#X8888888888888888888888888888",
"888888888888888888888888888888X#33#X8888888888888888888888888888",
"888888888888888888888888888888X#33#X8888888888888888888888888888",
"888888888888888888888888888888X#33#X8888888888888888888888888888",
"888888888888888888888888888888X#33#X8888888888888888888888888888",
"888888888888888888888888888888X#33#X8888888888888888888888888888",
"888888888888888888888888888888X#33#X8888888888888888888888888888",
"888888888888888888888888888888X#33#X8888888888888888888888888888",
"888888888888888888888888888888X#33#X8888888888888888888888888888",
"888888888888888888888888888888X#33#X8888888888888888888888888888",
"888888888888888888888888888888X#33#X8888888888888888888888888888",
"888888888888888888888888888888X#33#X8888888888888888888888888888",
"888888888888888888888888888888X#33#X8888888888888888888888888888",
"888888888888888888888888888888X#33#X8888888888888888888888888888",
"888888888888888888888888888888X#33#X8888888888888888888888888888",
"888888888888888888888888888888X#33#X8888888888888888888888888888",
"888888888888888888888888888888X#33#X8888888888888888888888888888",
"888888888888888888888888888888X#33#X8888888888888888888888888888",
"888888888888888888888888888888X#33#X8888888888888888888888888888",
"888888888888888888888888888888X#33#X8888888888888888888888888888",
"888888888888888888888888888888X#33#X8888888888888888888888888888",
"888888888888888888888888888888X#33#X8888888888888888888888888888",
"888888888888888888888888888888X#33#X8888888888888888888888888888",
"888888888888888888888888888888X#33#X8888888888888888888888888888",
"888888888888888888888888888888X#33#X8888888888888888888888888888",
"888888888888888888888888888888X#33#X8888888888888888888888888888",
"888888888888888888888888888888X#33#X8888888888888888888888888888",
"888888888888888888888888888888X#33#X8888888888888888888888888888",
"888888888888888888888888888888X#33#X8888888888888888888888888888",
"888888888888888888888888888888X#33#X8888888888888888888888888888",
"888888888888888888888888888888X#33#X8888888888888888888888888888",
"888888888888888888888888888888X#33#X8888888888888888888888888888",
"888888888888888888888888888888X#33#X8888888888888888888888888888",
"888888888888888888888888888888X#33#X8888888888888888888888888888",
"888888888888888888888888888888X#33#X8888888888888888888888888888",
"888888888888888888888888888888X#33#X8888888888888888888888888888",
"888888888888888888888888888888X#33#X8888888888888888888888888888",
"888888888888888888888888888888X#33#X8888888888888888888888888888",
"888888888888888888888888888888X#32@X8888888888888888888888888888",
"8888888888888888888888888888888888oX8888888888888888888888888888",
"8888888888888888888888888888888888888888888888888888888888888888",
"8888888888888888888888888888888888888888888888888888888888888888",
"8888888888888888888888888888888888888888888888888888888888888888"
};
