/* XPM */
static char *result[] = {
/* columns rows colors chars-per-pixel */
"64 128 29 1 ",
"  c #60A1FF",
". c #61A2FF",
"X c #62A3FF",
"o c #64A5FF",
"O c #69A6FF",
"+ c #6AA7FF",
"@ c #6AA8FF",
"# c #71ACFF",
"$ c #72ACFF",
"% c #75B6FF",
"& c #7DBBFF",
"* c #84C5FF",
"= c #8DCAFF",
"- c #8FD0FF",
"; c #90D1FF",
": c #98D5FF",
"> c #99D6FF",
", c #DFECFF",
"< c #E5F0FF",
"1 c #E9F2FF",
"2 c #F0F6FF",
"3 c #F6FAFF",
"4 c #F7FAFF",
"5 c #F7FBFF",
"6 c #F8FBFF",
"7 c #F8FCFF",
"8 c #F9FDFF",
"9 c white",
"0 c None",
/* pixels */
"0000000000000000000000000000000000000000000000000000000000000000",
"0000000000000000000000000000000000000000000000000000000000000000",
"0000000000000000000000000000000000000000000000000000000000000000",
"0000000000000000000000000000000000000000000000000000000000000000",
"0000000000000000000000000000000000000000000000000000000000000000",
"0000000000000000000000000000000000000000000000000000000000000000",
"0000000000000000000000000000000000000000000000000000000000000000",
"0000000000000000000000000000000000000000000000000000000000000000",
"0000000000000000000000000000000000000000000000000000000000000000",
"0000000000000000000000000000000000000000000000000000000000000000",
"0000000000000000000000000000000000000000000000000000000000000000",
"0000000000000000000000000000000000000000000000000000000000000000",
"0000000000000000000000000000000000000000000000000000000000000000",
"0000000000000000000000000000000000000000000000000000000000000000",
"0000000000000000000000000000000000000000000000000000000000000000",
"0000000000000000000000000000000000000000000000000000000000000000",
"000000000000000000000000000000....000000000000000000000000000000",
"000000000000000000000000000000....000000000000000000000000000000",
"000000000000000000000000000000....000000000000000000000000000000",
"000000000000000000000000000000....000000000000000000000000000000",
"000000000000000000000000000000....000000000000000000000000000000",
"000000000000000000000000000000....000000000000000000000000000000",
"000000000000000000000000000000OOOO000000000000000000000000000000",
"0000000000000000000000000000.+,<<,+.0000000000000000000000000000",
"0000000000000000000000000000.+6996+.0000000000000000000000000000",
"0000000000000000000000000000.+3993+.0000000000000000000000000000",
"0000000000000000000000000000.+3993+.0000000000000000000000000000",
"0000000000000000000000000000.+3993+.0000000000000000000000000000",
"0000000000000000000000000000.+3993+.0000000000000000000000000000",
"0000000000000000000000000000.+3993+.0000000000000000000000000000",
"0000000000000000000000000000.+3993+.0000000000000000000000000000",
"0000000000000000000000000000.+3993+.0000000000000000000000000000",
"0000000000000000000000000000.+3993+.0000000000000000000000000000",
"0000000000000000000000000000.+3993+.0000000000000000000000000000",
"0000000000000000000000000000.+3993+.0000000000000000000000000000",
"0000000000000000000000000000.+3993+.0000000000000000000000000000",
"0000000000000000000000000000.+3993+.0000000000000000000000000000",
"0000000000000000000000000000.+3993+.0000000000000000000000000000",
"0000000000000000000000000000.+3993+.0000000000000000000000000000",
"0000000000000000000000000000.+3993+.0000000000000000000000000000",
"0000000000000000000000000000.+3993+.0000000000000000000000000000",
"0000000000000000000000000000.+3993+.0000000000000000000000000000",
"0000000000000000000000000000.+3993+.0000000000000000000000000000",
"0000000000000000000000000000.+3993+.0000000000000000000000000000",
"0000000000000000000000000000 O3993O 0000000000000000000000000000",
"0000000000000000000000000000%&5995&%0000000000000000000000000000",
"00000000000000000000000000.o;>8998>;o.00000000000000000000000000",
"00000000000000000000000000.o-:8998:-o.00000000000000000000000000",
"00000000000000000000000000.o-:8998:-o.00000000000000000000000000",
"00000000000000000000000000.o-:8998:-o.00000000000000000000000000",
"00000000000000000000000000.o-:8998:-o.00000000000000000000000000",
"00000000000000000000000000.o-:8998:-o.00000000000000000000000000",
"00000000000000000000000000.o-:8998:-o.00000000000000000000000000",
"00000000000000000000000000.o-:8998:-o.00000000000000000000000000",
"00000000000000000000000000.o-:8998:-o.00000000000000000000000000",
"00000000000000000000000000.o-:8998:-o.00000000000000000000000000",
"00000000000000000000000000.o-:8998:-o.00000000000000000000000000",
"00000000000000000000000000.o-:8998:-o.00000000000000000000000000",
"00000000000000000000000000.o-:8998:-o.00000000000000000000000000",
"00000000000000000000000000.o-:8998:-o.00000000000000000000000000",
"00000000000000000000000000.o-:8998:-o.00000000000000000000000000",
"00000000000000000000000000.o-:8998:-o.00000000000000000000000000",
"00000000000000000000000000.o-:8998:-o.00000000000000000000000000",
"00000000000000000000000000.o-:8998:-o.00000000000000000000000000",
"00000000000000000000000000.o-:8998:-o.00000000000000000000000000",
"00000000000000000000000000.o-:8998:-o.00000000000000000000000000",
"00000000000000000000000000.o-:8998:-o.00000000000000000000000000",
"00000000000000000000000000.o-:8998:-o.00000000000000000000000000",
"00000000000000000000000000.o-:8998:-o.00000000000000000000000000",
"00000000000000000000000000.o-:8998:-o.00000000000000000000000000",
"00000000000000000000000000.o-:8998:-o.00000000000000000000000000",
"00000000000000000000000000.o-:8998:-o.00000000000000000000000000",
"00000000000000000000000000.o-:8998:-o.00000000000000000000000000",
"00000000000000000000000000.o-:8998:-o.00000000000000000000000000",
"00000000000000000000000000.o-:8998:-o.00000000000000000000000000",
"00000000000000000000000000.o-:8998:-o.00000000000000000000000000",
"00000000000000000000000000.o-:8998:-o.00000000000000000000000000",
"00000000000000000000000000.o-:8998:-o.00000000000000000000000000",
"00000000000000000000000000.o-:8998:-o.00000000000000000000000000",
"00000000000000000000000000.o-:8998:-o.00000000000000000000000000",
"00000000000000000000000000.o-:8998:-o.00000000000000000000000000",
"00000000000000000000000000.o-:8998:-o.00000000000000000000000000",
"00000000000000000000000000.o-:8998:-o.00000000000000000000000000",
"00000000000000000000000000.o-:8998:-o.00000000000000000000000000",
"00000000000000000000000000.o-:8998:-o.00000000000000000000000000",
"00000000000000000000000000.o-:8998:-o.00000000000000000000000000",
"00000000000000000000000000.o-:8998:-o.00000000000000000000000000",
"00000000000000000000000000.o-:8998:-o.00000000000000000000000000",
"00000000000000000000000000.o-:8998:-o.00000000000000000000000000",
"00000000000000000000000000.o-:8998:-o.00000000000000000000000000",
"00000000000000000000000000.o;>8998>;o.00000000000000000000000000",
"00000000000000000000000000.o*=7997=*o.00000000000000000000000000",
"0000000000000000000000000000X@3993@X0000000000000000000000000000",
"0000000000000000000000000000.+3993+.0000000000000000000000000000",
"0000000000000000000000000000.+3993+.0000000000000000000000000000",
"0000000000000000000000000000.+3993+.0000000000000000000000000000",
"0000000000000000000000000000.+3993+.0000000000000000000000000000",
"0000000000000000000000000000.+3993+.0000000000000000000000000000",
"0000000000000000000000000000.+3993+.0000000000000000000000000000",
"0000000000000000000000000000.+3993+.0000000000000000000000000000",
"0000000000000000000000000000.+3993+.0000000000000000000000000000",
"0000000000000000000000000000.+3993+.0000000000000000000000000000",
"0000000000000000000000000000.+3993+.0000000000000000000000000000",
"0000000000000000000000000000.+3993+.0000000000000000000000000000",
"0000000000000000000000000000.+3993+.0000000000000000000000000000",
"0000000000000000000000000000.+3993+.0000000000000000000000000000",
"0000000000000000000000000000.+3993+.0000000000000000000000000000",
"0000000000000000000000000000.+3993+.0000000000000000000000000000",
"0000000000000000000000000000.+3993+.0000000000000000000000000000",
"0000000000000000000000000000.+3993+.0000000000000000000000000000",
"0000000000000000000000000000.+3993+.0000000000000000000000000000",
"0000000000000000000000000000.+3993+.0000000000000000000000000000",
"0000000000000000000000000000.+3993+.0000000000000000000000000000",
"0000000000000000000000000000.+3993+.0000000000000000000000000000",
"0000000000000000000000000000.+3993+.0000000000000000000000000000",
"0000000000000000000000000000.+3993+.0000000000000000000000000000",
"0000000000000000000000000000.+4994+.0000000000000000000000000000",
"0000000000000000000000000000.+1221+.0000000000000000000000000000",
"000000000000000000000000000000#$$#000000000000000000000000000000",
"000000000000000000000000000000    000000000000000000000000000000",
"000000000000000000000000000000....000000000000000000000000000000",
"000000000000000000000000000000....000000000000000000000000000000",
"000000000000000000000000000000....000000000000000000000000000000",
"000000000000000000000000000000....000000000000000000000000000000",
"000000000000000000000000000000....000000000000000000000000000000",
"000000000000000000000000000000....000000000000000000000000000000",
"000000000000000000000000000000....000000000000000000000000000000",
"0000000000000000000000000000000000000000000000000000000000000000"
};
